<?xml version="1.0" encoding="utf-8"?>
<!-- Generator: Adobe Illustrator 22.0.0, SVG Export Plug-In . SVG Version: 6.00 Build 0)  -->
<svg version="1.1" id="Layer_1" xmlns="http://www.w3.org/2000/svg" xmlns:xlink="http://www.w3.org/1999/xlink" x="0px" y="0px"
	 viewBox="0 0 2800 2800" style="enable-background:new 0 0 2800 2800;" xml:space="preserve">
<style type="text/css">
	.st0{fill:#F4F3F0;}
</style>
<path class="st0" d="M0,0v2800h2800V0H0z M2429.4,961.7c-11.7,36.2-24.3,72.1-36.2,108.2c-10.8,32.9-20.3,66.1-31.6,98.8
	c-19.2,55.8-29.9,113.6-42,171.1c-5.7,27.1-11.6,54.1-16.3,81.4c-3.8,22.1-7.9,44.4-8.6,66.7c-2.2,70.8-3.5,141.7-4,212.6
	c-0.5,77.8,4.2,155.4,9,233c4.9,78.7,4.2,80.7-37.3,151.8c-19.4,33.3-46.9,55.2-82.6,66.8c-23.3,7.6-44.4,18.1-65,31
	c-35.4,22.1-74.6,36-113.7,50c-34.4,12.4-68.7,12.7-102.9,4.2c-5.2,7.2-11.3,13.9-18.3,20c-32.1,27.7-63.1,57-104,71.9
	c-12.2,4.5-23.6,10.9-30.5,21.9c-15.4,24.4-39.5,37.9-62.6,52.8c-17.8,11.5-35.9,22.6-53.5,34.4c-30.3,20.3-55.7,45.6-76.1,75.8
	c-17.2,25.4-40.6,43-68.3,55.2c-7.6,3.3-16.1,5-24.4,6.3c-6.2,0.9-12.7,0-18.7-0.1c-4.2-7.3-8.1-12.2-10.2-17.8
	c-16.1-43-29.2-86.7-40-130.9c-44.7,21.9-91.1,35.4-139.2,43c-21.1,3.3-39.4,12.1-57.2,21.8c-34.4,18.7-70.6,30.3-108.9,39.2
	c-60.2,14.1-121,23.8-182,32.3c-42.7,6-86.5,5-129.8,6.4c-20.5,0.6-40.8-1.4-60.2,8.7c-7.4,3.8-18.3,4.3-26.6,2.2
	c-20.6-5-40.4-1.2-60.7,0.4c-24.9,1.9-50.1,0.8-75.2-0.1c-8.9-0.3-18.1-2.6-26.5-5.7c-10.8-4-20.7-10.5-24.1-22.5
	c-7.9-28.6-16.1-57.1-22.7-86c-17.7-77.8-34.6-155.8-51.9-233.8c-1-4.4-3.1-8.8-3.3-13.2c-5-86.6-24.2-171.8-21.9-259.2
	c2.4-91.3,0.8-182.7,1.3-274c0.4-59.5,8.1-118.4,20.4-176.5c5.7-27,10.6-54,9.7-81.4c-1.8-62.1,10-122.8,17.7-183.9
	c6.9-54.3,15.7-108.4,30.4-161.4c2.4-8.8,5-17.8,5.6-26.8c4.3-66.8,26.1-129.6,45.9-192.6c21.2-67.5,42.6-135,67.3-201.2
	C632.3,575,665,487.1,715,407.3c18.1-28.9,38.7-56.4,59.3-83.7c9.6-12.7,21.6-23.3,37.2-29.4c13.3-5.2,25.7-8.9,38.4,1.1
	c24,18.9,51.2,29,81.9,30.5c37.3,1.9,65.1,18.5,78.3,59.7c28-0.7,50.5-10,72.8,1.2c8.8,4.4,17.4-0.1,26-3.7c8.3-3.5,17.3-7,26.1-7.5
	c14-0.8,28.4,2.1,34.2,17c8.4,21.5,24.6,32,48.8,37.5c15.8-9,33.5-19.1,51.3-29c5.6-3.1,14.7-0.2,17.7,5.7
	c6.1,12.2,11.7,24.7,18,36.9c4.4,8.6,11.8,13.5,21.5,14.6c9.9,1.2,16.5,5.9,19.7,15.8c2,6.4,4.5,13.4,9,17.9
	c4.4,4.3,11.6,7.9,17.6,8c8.9,0.2,18-2.4,26.8-5c15-4.4,29.9-9.7,42.5-13.8c16.6,8,17.9,23.3,25.2,34.5c9.6,14.5,19.3,19.1,34,13.8
	c12.8-4.7,25.3-10.5,38.2-14.8c14.9-4.9,36.5,3.5,39.1,18.8c3.7,21.7,19.4,35.8,27.3,54.5c22.4-0.7,40.7,3.5,57.5,14.8
	c5.3,3.5,10.6,7,16,10.4c27,16.9,55.4,30,89.3,30c15.2-11,26.8-26.8,34-43.9c12.8-30.4,36.7-45.4,65.1-56.5
	c9.6-3.8,14.8-0.6,16.4,11.1c0.3,2-0.8,4.2-0.6,6.3c1.2,12,6.6,17.2,14.8,14.9c8.2-2.3,16.1-5.2,24.3-7.4c8.2-2.2,16.4-4.5,24.7-6
	c40.7-6.9,62.9,15.3,65,57.2c0.8,16.8-2,33.8-3.5,50.7c-1.4,16.3,5.7,28.8,17.5,38.9c6.3,5.5,12.8,12.5,20.3,14.4
	c18.8,4.8,32.5,19.6,52,23.1c16.9,3,23.5,18.1,24.7,33.4c2,26.3-0.4,52-8.4,76.9c18.9,6.6,38.2,4.2,57.7-3.8
	c14.4-5.9,27.9-13.9,42.2-19.8c11.5-4.8,22.9-5.9,33.5,4.3c10.2,9.8,24,15.6,37.5,16c18.2,0.5,32.8,8.7,48.3,15.7
	c6.1,2.8,12.3,5.2,18.2,7.6c1.1,6.7,1.9,11.8,2.7,16.8c3,17.7,4.2,20.2,22.2,22.4c10.7,1.3,19.7,5.5,29.3,9.3
	c7.9,3.1,16.3,4.5,24.2,6.6C2437.1,942.1,2432.5,952.1,2429.4,961.7z"/>
</svg>
