<svg id="illustrations" xmlns="http://www.w3.org/2000/svg" viewBox="0 0 2800 2800"><defs><style>.cls-1{fill:#00538c;}.cls-2{fill:#002b49;}.cls-3{fill:#6b702e;}.cls-4{fill:#edb8a8;}</style></defs><title>Careers_Leadership</title><path class="cls-1" d="M349.88,1544.77c5.75-16.68,8.95-32.21,17.11-48.06,2.18-4.25,4.45-8.61,8.29-11.51,4.46-3.38,10.58-4.47,16.51-5.48,8.54-1.46,17.63-2.86,26.61.41,6.46,2.35,12.19,6.93,17,12,18.13,19.28,23.51,44.75,28,68.42,6.79,36,15.79,71,24.61,106.54,1.46,5.86,2,11.76,3.47,17.62,2.68,10.51,5.67,21,8.72,31.52,2,7,5,14,6.52,20.93a465.72,465.72,0,0,0,15.79,56.1c4.54,12.75,7.66,25.7,12.07,38.48,6.51,18.84,14.46,37.52,20.18,56.42,5,16.51,10.5,33,11.6,49.91.92,14.12,5.05,28.77,9,43.11,5.12,18.67,11.74,37.24,17.15,55.9,3.29,11.32,6.62,22.82,7.9,34.07a268.43,268.43,0,0,1,1.19,40.69c-.66,17.68-11.85,23.07-31.9,22.89-7.27-.06-14.6-1.92-20.34,2.87-1.94,1.61-6.28.87-9.59.91-23,.3-46,.59-69,.74-6.35,0-12.84-.55-19.2-.53-17.57.07-35.07.42-52.64.42-9.72,0-19.66-1-29.27-.66-15.31.6-30.34,2.31-45.65,2.94-19.23.79-38.64.87-57.93,1.44-9,.27-17.94,1-26.91,1.47-14.63.85-29.34,1.44-43.86,2.66-12.45,1.06-24.62,3.06-37,4.22-5.6.52-11.58-.21-17.29,0-7.32.27-13.27-4.56-19.42-8-2-1.12-3.7-5.42-3.77-8-.29-10.57-.63-21,2.9-30.85,4.32-12,6.22-25.14,10.17-37.33,3.25-10,7-20,12.26-28.8A152.86,152.86,0,0,0,159,2001.39a97.88,97.88,0,0,1,4.2-10.66c5.33-12.8,10.79-25.52,16-38.38,4.06-10,25.75-77.8,35-96.5,9.82-19.89,18.82-40.25,28.68-60.11,5.6-11.29,9.1-23.64,16.38-34.15,5.35-7.73,8.11-17.53,10.85-26.91,4.92-16.87,11.46-32.82,18.68-48.58Z"/><path class="cls-2" d="M1211.62,772l25.35-1.16c6.66,8.38,10.93,18.16,13.63,28.51a33.13,33.13,0,0,0,6.43,13c14.13,17.45,25.17,36.71,34.76,57,5.88,12.44,13.3,24.17,20.16,36.14a24,24,0,0,0,4.9,6.33c10.25,8.83,17.39,20.26,25.76,30.63,2.5,3.09,4.08,6.9,6.07,10.39,5.72,10,11.26,20.17,17.27,30,1.54,2.52,4.55,4.15,6.93,6.14,3.76,3.14,8.13,5.76,11.23,9.44,10.34,12.28,20.77,24.56,30.18,37.55,11.76,16.25,22.15,33.49,33.92,49.74a200.55,200.55,0,0,0,23.57,27.32c16,15.29,28.33,33.2,40.57,51.33,8.23,12.21,16.74,24.22,25.08,36.36,3.79,5.51,7.59,11,11.17,16.68,6.94,10.91,13.92,21.8,20.52,32.91s12.84,22.44,19.08,33.77c9.47,17.18,19.14,34.26,28,51.75,4,7.87,6.73,16.48,9.32,25a318.92,318.92,0,0,1,12.33,64.29c.93,10.19,3,20.27,4.8,30.37a73,73,0,0,0,2.92,11.67c6.19,17.63,12.6,35.17,18.86,52.77,9.63,27.06,23.06,52.18,38.44,76.34,3.35,5.27,6.39,10.74,9.65,16.07,4.89,8,9.33,16.28,14.88,23.78,11.2,15.12,19.81,31.78,29.49,47.8,2.77,4.56,5.38,9.22,8.2,13.76,8.44,13.64,16.47,27.49,22.58,42.39a97.8,97.8,0,0,0,8.3,16.75c6.44,9.78,11.2,20.3,15.71,31,5.19,12.33,10.93,24.46,15.58,37,6.83,18.37,13.09,37,19.2,55.6,3.1,9.43,7.11,18,13.44,25.9,8.33,10.41,15.44,21.69,18.7,35.13,3,12.55,7.14,24.82,13.35,36.33,2.51,4.64,3.68,10,5.31,15.11,7.35,22.91,12.18,46.63,21.76,68.81,3.31,7.69,3.52,15.52,3.43,23.61a17,17,0,0,1-8.83,15.38c-6.13,3.67-12.19,7.49-18.55,10.7a35.49,35.49,0,0,1-11.42,3.47c-21.29,2.62-42.57,5-64,1.39-5.66-.95-11.61-.7-17.37-.25a206,206,0,0,1-34.77-.24q-21.32-2-42.75-2.68c-7.55-.27-15.15.65-22.72,1.05-14.7.78-29.41,1.32-44.09,2.44-25.47,1.92-50.84-1-76.26-1.22-12-.13-24.07.37-36.09.1-18.73-.43-37.46-1.26-56.19-1.95-11.15-.41-22.3-.71-33.43-1.39-15.14-.92-30.25-2.19-45.38-3.25a132.85,132.85,0,0,0-13.37-.56,605.69,605.69,0,0,1-82.9-3.29,199.08,199.08,0,0,0-63.89,3.36,87.38,87.38,0,0,1-11.88,2c-36.49,2.89-72.86,7.55-109.53,7.78-16.5.1-33-.79-49.51-1.12-12-.25-24.1-.67-36.14-.4-25.44.59-50.87,1.57-76.31,2.42-8,.26-16,.76-24.09.93a208,208,0,0,1-50.45-5.2c-14.52-3.31-29.19-3.8-43.89-4.14-22.31-.52-44.63-.65-67-.78-5.34,0-10.69.53-16,.9-7.57.52-15.13,1.16-22.7,1.67-12.65.86-24.9-.32-36.51-6.15-3.51-1.77-7.73-2.09-11.59-3.18-5.13-1.44-10.35-2.82-13.72-8.66a17.94,17.94,0,0,0,5.22-14.2,8.86,8.86,0,0,1,1-3.84c9.13-21,12.9-43.61,20.65-65a57.93,57.93,0,0,0,3.12-13c2.84-25.08,11.56-48.57,19.05-72.41,4-12.76,7.63-25.64,11.46-38.46,1.79-6,3.37-12,5.55-17.88q17.34-46.42,39-91c7.2-14.79,12.16-30.66,18.6-45.84,5.75-13.55,9.56-27.73,14.47-41.55,4-11.29,8.29-22.52,9.93-34.61.83-6,3.41-11.94,5.7-17.71,6.1-15.32,12.6-30.48,18.69-45.81,10.2-25.7,20.5-51.37,30.18-77.27,5.3-14.2,9.79-28.74,13.91-43.33a35.67,35.67,0,0,1,8.64-14.85c6.6-6.89,8.69-15.41,11.46-23.75,8.71-26.22,15.33-53.07,25.15-79,4.39-11.58,9.46-22.78,14.39-34.08.71-1.63,1.74-3.21,2.06-4.92,3.16-16.59,12.51-30.38,20.31-44.83a150.86,150.86,0,0,0,8.76-19.33c7.13-19.22,15.29-38,23-57,2.51-6.16,5-12.22,6.14-19,3-17.21,10.32-33,16.94-49.06,5.79-14,12-27.82,16-42.49,8.65-31.19,22.06-60.26,39-87.84,6.52-10.61,11.47-22.19,17.33-33.22,3.77-7.08,7.82-14,11.9-21a352.22,352.22,0,0,0,24.61-50.41c3.24-8.28,8-16,11.11-24.29,5.75-15.64,14.28-29.72,23.19-43.61a88.29,88.29,0,0,1,9.94-12.57,106.48,106.48,0,0,0,20.09-31.37C1208.81,777.46,1210.09,775.13,1211.62,772Z"/><path class="cls-3" d="M2691.89,2118.28c-3.39-1.68-6.38.11-9.5.37-7.41.6-14.86.76-22.29,1-3.72.1-7.45,0-11.16-.16-6.21-.23-12.46-.13-18.59-.94a154.13,154.13,0,0,0-22.3-1.13c-13.41.18-26.83.22-40.24.44-6.95.12-13.9.51-20.85.8a37.13,37.13,0,0,0-6.69.43c-11.92,2.71-23.08-1.33-34.44-3.66-6-3.73-12.85-3.11-19.47-3.49a16.5,16.5,0,0,0-4.25.84c-.23.06-.42.34-.64.36-2.21.23-3.82-2.17-6.35-1.2a17.09,17.09,0,0,1-6.47,1.18c-7-.18-13.89-.69-20.83-1.05-4.22-.22-8.43-.4-12.65-.59a6.08,6.08,0,0,1-1.48,0c-6.48-2.19-13.27-1.33-19.9-2.13-4.67-.56-9.38-.78-14.08-1.08-6.44-.43-12.94-.37-19.31-1.27a205.44,205.44,0,0,0-28.24-1.68,56.34,56.34,0,0,1-6-.16c-14.37-1.47-28.8-.81-43.19-1.33-17.63-.63-35.25-1.33-52.88-2-7-.25-13.9-.42-20.86-.65-35.75-1.18-71.51-2.28-107.25-3.6-11.66-.43-23.3-1.48-34.95-2.15-6.45-.37-12.92-.82-19.37-.73-15.17.22-30.28-1.14-45.42-1.56-14.62-.4-29.26.1-43.9.16-3.44,0-7,.58-10.73-1.37-.58-1.13-1.44-2.61-2.11-4.17-1.39-3.27-1.38-3.92,1.82-6.12,2.55-1.76,3.77-3.67,3.26-6.82a7.94,7.94,0,0,1,.54-4.31c7.53-16.61,11.95-34.16,15.9-51.86q1.88-8.36,3.47-16.77c1.93-10.07,5.91-19.46,9.61-28.93a147.54,147.54,0,0,0,6.72-20.5c1.39-6,3.67-11.86,5.74-17.71,3.29-9.37,6.71-18.69,10.13-28,.68-1.86,1.55-3.65,2.34-5.47,4.17-9.56,8.88-18.93,12.33-28.74,2.87-8.14,4.51-16.76,6.24-25.25,1.35-6.6,2.92-13,5.77-19.17a95.48,95.48,0,0,0,3.76-10.49c2.7-8.26,5-16.68,8.09-24.77a236,236,0,0,1,10.06-21.59,247.76,247.76,0,0,0,14-32c1.84-5.37,4.5-10.46,6.78-15.68,7.34-16.84,16-33,24.87-49.07a118.17,118.17,0,0,1,37.34-40.86c6.34-4.34,12.18-9.41,18.3-14.07,7-5.38,13-12,20.74-16.67,4.2-2.54,7.6-6.36,11.52-9.4,5.89-4.55,11.79-9.11,17.94-13.31a147.94,147.94,0,0,1,12.89-7.3c.57-.31,1.44,0,2.11-.19a33.37,33.37,0,0,0,6.3-2c4.59-2.38,8.91-5.35,13.6-7.5,3.74-1.72,7.86-2.61,11.84-3.82,4.74-1.43,9.44-3.11,14.27-4.14,6.73-1.44,13.56-2.38,20.35-3.5,2.68-.45,5.68-.2,8-1.34,7.6-3.73,15.47-3.28,23.38-2.17,9.58,1.35,19.15,2.87,28.66,4.68a95.85,95.85,0,0,1,12.81,3.9c11.72,4,23.72,7.36,34.74,13.24,1.31.7,2.68,1.3,4,2,6.85,4,13.73,8,20.52,12.1a182.67,182.67,0,0,1,35.36,28.3,79.93,79.93,0,0,0,7,6.63,75.13,75.13,0,0,1,25.22,36.13,32.47,32.47,0,0,0,11.72,16.67,241.53,241.53,0,0,1,42.93,41.11,99.45,99.45,0,0,1,17.67,32.5,90.52,90.52,0,0,0,8.52,19.76c6.58,10.82,10.34,22.54,13.18,34.64,2.26,9.65,3.9,19.45,5.78,29.19.38,2,.57,3.92,1,5.87.17.89.35,2.16,1,2.52,2,1.15,2,2.77,1.39,4.48-.93,2.48-1.41,4.77.78,6.83,2.25,8.37,4.48,16.76,6.75,25.13a51.62,51.62,0,0,0,2.38,7.82c2.81,6.22,3.85,12.85,4.65,19.48,1,8.44,3.5,16.5,5.9,24.57a39,39,0,0,1,1.79,9.44c.74,18.16,3.52,36.06,7.24,53.81.92,4.34,2.47,8.55,3.77,12.81a4.43,4.43,0,0,0,1,2c3.77,3.39,4.65,8.08,5.89,12.62a35.33,35.33,0,0,0,4.44,10.16c1.87,2.88,3,6.22,4.51,9.35.63,1.34,1,3.14,2,3.91,4.87,3.5,4.61,10.54,9.64,13.77,2.59,1.66,3.88,3.75,3.58,6.79-.25,2.63.9,4.85,2.08,7,2.57,4.81,5.23,9.59,7.79,14.41,1.86,3.51,3.7,7,5.4,10.62,2,4.26,3.93,8.56,7.19,12.08a13.9,13.9,0,0,1,1.38,1.76c2.72,4.12,2.53,5.63-1.16,9.67C2693.49,2116.5,2693,2117.05,2691.89,2118.28Z"/><path class="cls-4" d="M673.75,1003.41c2-1.36,4.6-2.63,6.52-4.61,11.35-11.67,25.83-17.7,40.76-22.95,2.2-.78,5.88.66,7.46,2.95,8,11.47,13.19,23.77,11.18,38.16-.89,6.37-1.93,12.72-2.77,19.09a66.71,66.71,0,0,0-.17,6.71c9.67,3.45,19.32,5.6,29.43,5.61,3.57,0,7.15.05,10.72.3,4.2.29,8.32,3.93,8.77,8.15s1.05,8.66.26,12.75c-4,20.55-13.68,37.55-32.25,48.47-3.65,2.15-7.6,3.83-11.46,5.61-8.43,3.91-16.92,7.68-25.32,11.64a12.68,12.68,0,0,0-7.41,9.89c-.82,4.94-1.44,9.91-2.31,14.84q-2.22,12.68-4.66,25.31c-2.32,11.94-4.72,23.86-7.11,35.78-.85,4.2-1.61,8.44-2.75,12.57s-12.4,15.08-15.16,17.33c-2,1.61-6,.93-7.7-1.21a34.23,34.23,0,0,1-3.89-5.08c-10.81-20.19-24.74-38.35-37.52-57.25a4.57,4.57,0,0,0-5.61-1.69c-1.9,1-4.09,1.64-5.65,3-15.44,13.61-34.57,16.24-53.9,18.26a6.61,6.61,0,0,1-7.23-6.19c-.3-2.84-.58-5.69-.63-8.54-.19-10,.17-20.06-.53-30-.66-9.58.58-18.48,5.31-26.91,1.38-2.45,2.15-5.25,3.45-8.54a64.71,64.71,0,0,0-5.48-6.16c-7.51-6.63-15.25-13-22.72-19.66-3.19-2.85-6.79-5.75-8.73-9.4-9.86-18.58-12.78-23.25,9-32.44,5.93-2.5,11.87-5,17.55-8s10.83-7.09,16.63-9.81,12-4.27,17.77-6.24c1.14-22.08,1.2-22,13-42.65,4.95-8.68,8.92-18,16.21-25.13a25.12,25.12,0,0,1,6.75-5.16,7.65,7.65,0,0,1,6,.33,19.94,19.94,0,0,1,6.48,5.45c10,13.27,23.12,23.27,35.1,34.47C671.56,1002.84,672.39,1002.91,673.75,1003.41Z"/><path class="cls-4" d="M2009.47,1141.38c-6.73.65-12.49,1.18-18.25,1.8-1.84.2-3.1,2.64-2.2,4a23.9,23.9,0,0,0,2.27,3.31c7.89,8.36,11.68,19,15.92,29.27a37,37,0,0,1,2.64,10.37c1,10.2,2.63,20.39.5,30.7-.71,3.45-.39,7.12-.5,10.69-.1,3.12-.1,6.25-.23,9.37a16.87,16.87,0,0,1-2.79,8.83c-3.67,5.61-7.14,11.35-10.86,16.93a20.17,20.17,0,0,1-23.72,7.43,10.72,10.72,0,0,1-3.12-2.42,14.81,14.81,0,0,1-3.81-7c-1.93-6.89-4.06-13.73-5.67-20.7-2.44-10.57-7.18-20.24-12-29.75a51.5,51.5,0,0,0-13.13-16.78c-2.77-2.24-5.28-4.81-8-7.16-1.65-1.45-5.06-.63-5.52,1.48-2.27,10.6-8.66,18.45-16.6,25.3-3.72,3.21-7.39,6.47-11.26,9.49a46.51,46.51,0,0,1-19.44,8.66c-3.94.82-7.91,1.47-11.88,2.13-8.82,1.48-17.66,2.81-26.45,4.42a32.9,32.9,0,0,1-17.16-1.32c-5.43-1.89-8.82-5.94-10.88-11.08-.38-.94.25-2.74,1-3.6,4.19-4.69,8.86-9,14.53-11.7,14.1-6.72,12.24-6.65,18.09-19.86,2.72-6.13,5.8-12.09,7.23-18.72.82-3.81-.33-6.87-3.7-9.25a31.4,31.4,0,0,0-10.9-5c-10-2.41-19.9-5-29.84-7.63a63.91,63.91,0,0,1-6.41-1.92q-15-5.64-30-11.42c-10.13-3.93-16.92-11.54-21.65-20.94-1.75-3.48-1.79-7.79-3.17-11.51-1.67-4.51-.28-8.09,3-10.81a143.74,143.74,0,0,1,13-9.38,11.84,11.84,0,0,1,10.26-1.48,78.41,78.41,0,0,0,18.47,3c6.28.24,12.53.45,18.68-1.06,7.6-1.85,15-1.15,22.5.93,6,1.69,12.14,3,18.23,4.4,2.16.49,4.38,1,7-.17-.58-1.6-.85-3.44-1.83-4.77-4.75-6.48-9.56-12.93-14.63-19.16a28.28,28.28,0,0,0-7.05-6.07c-5.72-3.49-11.66-6.62-17.56-9.79-2-1.06-4.14-1.72-6.14-2.71-7.52-3.73-9.19-5.43-3.44-12.87a51.62,51.62,0,0,0,2.93-4.49,16.41,16.41,0,0,1,6.91-6.17q11.43-5.6,22.93-11.07a13.54,13.54,0,0,1,3.76-1.38c10.17-1.54,20.33-3.23,30.66-1.52a91.35,91.35,0,0,1,28,8.91c2.77,1.45,5.49,3,8.34,4.31,8.11,3.59,13.84,9.65,18.28,17.11,1.37,2.31,2.77,4.61,3.91,7,3.5,7.43,9.15,13.17,14.75,18.94a5.5,5.5,0,0,0,6.22.91c2.39-1.21,4.7-2.58,7.08-3.8,6.37-3.26,12.8-6.38,19.12-9.73,7-3.71,14.38-4.62,22.1-3.69,4,.48,8,1.12,12,1.56,5.19.57,9.31,3.19,12.68,6.89,7.11,7.83,11.65,16.93,12.21,27.66a119.64,119.64,0,0,1-.12,13.39,34.06,34.06,0,0,1-8.31,20.79C2021.12,1129.65,2016,1135.92,2009.47,1141.38Z"/><path class="cls-4" d="M1135.41,593.08c10.34-10.24,21.85-17.54,35.4-21.58,4.81-1.43,9.49-3.28,14.21-5,1.93-.7,3.11-3.44,2.14-5.14-1.44-2.53-2.73-5.27-4.67-7.38-5.38-5.86-11.12-11.39-18.17-15.28s-13.79-7.82-21.82-9.29c-5-.92-9.21-3.91-13.4-6.7-2.56-1.7-4-6.17-3-8.93s2.15-5.42,3.26-8.2c5.27-4.11,10.58-8,17.62-8.86,2-.23,3.84-1.57,5.74-2.43,14.27-6.43,28.6-5.22,42.7.27,5.06,2,10,4.34,15.19,5.89,6.11,1.82,11.1,5.8,16.77,8.43a3.31,3.31,0,0,0,3.38-.9,9.34,9.34,0,0,0,1.37-2.08c2.18-6.76,4.42-13.5,6.38-20.33,4-14,10.79-26.36,22.42-35.48a31.83,31.83,0,0,1,24.71-6.83c2.64.36,5,1.51,6,4,3.42,8.52,6.65,17.12,9.84,25.73a15,15,0,0,1,.83,4.93c.11,11.73,2.86,23.28,2.36,35.06a8.75,8.75,0,0,0,.84,3.62,3.31,3.31,0,0,0,1.77,1.6,10.79,10.79,0,0,0,3.64.66c4.19-.05,8.38-.09,12.55-.43a160.91,160.91,0,0,1,26.34.49,51.41,51.41,0,0,1,16.93,4.36c4.58,2.06,9.2,4,13.68,6.29,7.15,3.57,10,9.88,10.18,17.46.13,6.3-3.12,11.24-7.84,15.06a46.39,46.39,0,0,1-9.5,6.06c-12.49,5.81-24.43,12.92-38,16.23a20.08,20.08,0,0,0-5.72,2.49,5.34,5.34,0,0,0-1.82,3,13,13,0,0,0-.07,3.74c.3,6.27.59,12.54,1,18.81a40.27,40.27,0,0,0,.78,7.47c2.5,9.89,2,20,1.91,30a44.73,44.73,0,0,1-3.7,18.34,25,25,0,0,1-20.25,15c-6.48.91-12.52-1.3-16.27-7.28a65.64,65.64,0,0,1-4.53-8.93,61.3,61.3,0,0,0-9.31-14.83c-7.75-9.35-15.5-18.69-24.86-26.51-2.88-2.42-5.84-4.75-8.9-6.93-2.14-1.53-4.54-2.1-7.06-.64a24.06,24.06,0,0,1-13.26,3,35.28,35.28,0,0,0-17.1,3.28,29.69,29.69,0,0,1-7.17,2.14c-7.8,1.55-15.61,3-23.44,4.38-10.5,1.81-20-1.05-28.5-7.05A27.94,27.94,0,0,1,1135,602.74C1134.69,599.46,1135.25,596.1,1135.41,593.08Z"/><path class="cls-4" d="M1712.28,714.69a28.83,28.83,0,0,1-1.14,9.14c-1.15,3.58-2.13,7.21-3.33,10.77a238,238,0,0,0-6.5,23,53.83,53.83,0,0,1-3.54,11.38,82.38,82.38,0,0,1-4.08,7.58,19.91,19.91,0,0,1-6.49,6.55,7.42,7.42,0,0,0-2,1.62,2,2,0,0,0-.18,1.8,20.07,20.07,0,0,0,2.7,3.75c8.74,9.15,13,20.4,15.26,32.57a49.18,49.18,0,0,1,1.17,7.86,28.74,28.74,0,0,1-4.35,15.77c-4.47,7.45-11.28,11.68-19.62,13.56a13.83,13.83,0,0,1-7.21-.36c-5.5-1.68-11-3.26-16.54-4.88-1.48-.44-3-1-4.45-1.28a8.67,8.67,0,0,1-5.59-3.24c-1-1.41-3.26-1.56-4-3.32-.6-1.42-.92-3-1.59-4.35-1-2-2.13-3.85-3.22-5.75a1.39,1.39,0,0,0-1.77-.37,25,25,0,0,0-7.37,10c-3,7.73-7.8,14.36-13.08,20.65a49.36,49.36,0,0,1-4.73,4.64c-2.71,2.5-5.94,2.83-9.3,1.84a16.91,16.91,0,0,1-7.37-4.3c-1.56-1.57-3.11-3.14-4.6-4.77a18.61,18.61,0,0,1-3.58-5.55,51.37,51.37,0,0,1-3.24-10.09,65.78,65.78,0,0,0-2.07-7.67c-.86-2.74-1.55-5.53-2.19-8.33a40.16,40.16,0,0,1,1.81-23.47c.54-1.44,1-2.92,1.39-4.41a2.38,2.38,0,0,0-1.62-2.57c-1.92-.54-3.87-1-5.75-1.57-2.73-.9-5.45-1.83-8.11-2.91a29.66,29.66,0,0,1-8.88-5.73,154.86,154.86,0,0,1-15.78-17c-.7-.86-1.34-1.76-2-2.67-3.54-5.18-6.06-10.72-6.68-17.09a73,73,0,0,1,0-14.56,7.72,7.72,0,0,1,8.85-6.88c2.63.35,5.28.58,7.92.86,2.85.3,5.7.79,8.56.86,4.42.11,8.81.75,13.25.66,2.61,0,5.18,1.12,7.87,1,.87-.05,1.75-.07,2.62-.14a2,2,0,0,0,1.3-2c-.11-.43-.2-.86-.34-1.28a59.13,59.13,0,0,0-3.54-9.28c-3-5.71-3.52-11.83-2.73-18.09.45-3.51,1.32-7,1.69-10.47a15.18,15.18,0,0,1,6.09-10.65c2.79-2.18,5-5.07,8.1-6.82a5.74,5.74,0,0,0,1.88-2.63,28.26,28.26,0,0,1,4.12-6.78,4.7,4.7,0,0,1,3.51-1.61,6.07,6.07,0,0,1,2.53.61,4.23,4.23,0,0,1,1.48,1.29,15.31,15.31,0,0,0,7.16,4.6c1.46.52,2.92,1,4.37,1.56,6.15,2.25,11.46,5.63,15.47,11a39.13,39.13,0,0,0,5.08,5.22,19.26,19.26,0,0,1,6.84,13.87,17.63,17.63,0,0,0,.43,2.6c0,.16.28.39.42.38.41,0,1,0,1.2-.24,1.18-1.87,2.28-3.78,3.36-5.7a12.18,12.18,0,0,1,7.41-6.23,11.87,11.87,0,0,0,3-1.3c4.59-2.91,9.79-4,15-5.21a27.23,27.23,0,0,1,3.94-.52c3-.23,5.73.2,8,2.43a9.42,9.42,0,0,0,1.59,1.19,7,7,0,0,0,5.7,1,38.68,38.68,0,0,1,4.54-.87,6.05,6.05,0,0,1,4.89,1.6,11.78,11.78,0,0,1,3.16,4.2c1.31,3,2.63,6.09,4,9.1C1712.4,710.45,1712.22,712.89,1712.28,714.69Z"/><path class="cls-4" d="M861.6,745.15c3.36,0,6.71,0,10.07,0a14.72,14.72,0,0,0,5.63-1,2.73,2.73,0,0,0,1.64-2.87c-.53-2.58-1-5.18-1.66-7.72a56.41,56.41,0,0,1-2-16.35c.11-3.59-.11-7.19-.16-10.78a27,27,0,0,1,1.84-9.85c2.15-5.79,5.18-9.29,10.93-12.75a3.27,3.27,0,0,1,3.39.22,21,21,0,0,1,2.89,3.16,5.67,5.67,0,0,0,3.28,2.61,19.41,19.41,0,0,1,6.84,3.86c1.31,1,2.51,2.24,3.87,3.21,6.54,4.71,10.2,11.33,12.42,18.85a35.43,35.43,0,0,0,4,9.18,7.47,7.47,0,0,0,2,2,4,4,0,0,0,2,.49,3,3,0,0,0,1.33-.49,14.7,14.7,0,0,1,9-1.58,20.64,20.64,0,0,0,8.51-.92c2.3-.66,4.65-1.17,7-1.68a10.65,10.65,0,0,1,8.28,1.41c.4.26.83.49,1.2.78,3.1,2.47,6.75,3.54,10.56,4.23.24,0,.47.1.71.12,4.56.37,7.54,3,9.3,7a54.4,54.4,0,0,0,6.22,10.41c4.06,5.44,4.22,11.43.46,17.48a29.76,29.76,0,0,1-8,8.16c-2.71,2-5.41,4-7.92,6.2-5.12,4.51-10.69,8.1-17.53,9.37a6.36,6.36,0,0,0-4.48,3.29,4.78,4.78,0,0,0-.78,3.43c.6,2.56,1.27,5.1,2.07,7.61a10.59,10.59,0,0,0,2.79,4.12c6.2,6.3,8.75,14.19,9.37,22.75.37,5,.22,10.06-1.58,14.91a23.4,23.4,0,0,1-4.73,8c-4.39,4.75-10,6.41-16.24,6.12a26,26,0,0,1-6.35-1.16,90.53,90.53,0,0,1-16.34-7.37,11.05,11.05,0,0,1-4-4.08c-.88-1.41-1.89-2.74-2.9-4.07a1.81,1.81,0,0,0-2.56,0c-.5.52-1,1-1.46,1.59l-3.33,3.77c-5.09,5.72-11.76,8-19.13,8.73a16.16,16.16,0,0,1-8.42-1.36c-1.53-.7-3.08-1.34-4.6-2a10.09,10.09,0,0,1-4.77-4.23,69.12,69.12,0,0,1-4.87-9.59,30,30,0,0,1-1.5-8.45,52.18,52.18,0,0,1,1.2-13.58,23.34,23.34,0,0,1,3.39-8.64,28.12,28.12,0,0,0,1.71-3.15,2.1,2.1,0,0,0-1.61-3.21,41.61,41.61,0,0,1-11.06-3,33.8,33.8,0,0,1-16.15-12.65c-3-4.35-5.83-8.82-7.23-14-1.67-6.16-1.73-12.3.94-18.27a10.79,10.79,0,0,1,4.23-4.75,20.24,20.24,0,0,1,10.09-3.43c4.07-.17,8.14-.29,12.21-.42Z"/></svg>