<svg id="illustrations" xmlns="http://www.w3.org/2000/svg" viewBox="0 0 2800 2800"><defs><style>.cls-1{fill:#0071ce;}.cls-2{fill:#002b49;}.cls-3{fill:#b7c3b8;}.cls-4{fill:#6b702e;}.cls-5{fill:#edb8a8;}</style></defs><title>CH_W</title><path class="cls-1" d="M1965.39,2385.78c12-5.63,23.58-11.83,35.71-16.56,33.26-13,62.23-32.32,89.07-54.58,19.82-16.45,40.07-32.45,58.73-50.18,23.11-22,42.47-46.35,59.71-72.07,15.6-23.27,30.64-47,40.58-72.73,1-2.64,2.5-5.16,3.56-7.79,3.78-9.43,13.63-16.18,13.38-27.76-.22-9.84,3.67-20,4.93-30,1.66-13.12-1.7-25.36-6.64-37.15-10.14-24.2-22.42-47.32-35.78-70-5.68-9.64-13-17.36-21.71-24.32-7.4-5.92-15.68-10.16-26.11-10.19-9.15,0-17.12-2.81-24.91-6.6a70.66,70.66,0,0,0-16.26-5.43c-19.61-4.13-37.58,2.27-53.69,13.17-20.75,14-39.55,30.18-52.73,51.1-5.14,8.15-10.31,16.34-16.14,24.11-15.12,20.16-31,39.83-44.63,60.9a30.47,30.47,0,0,1-5.94,6.51c-17.41,14.71-34.58,29.69-52.46,43.87-20.23,16-41.44,31-61.6,47.11a157.66,157.66,0,0,1-30.43,19q-74.6,35.84-149.39,71.3c-15.44,7.35-65,25.3-81.82,29.77q-21.79,5.79-43.64,11.4c-4.85,1.25-9.77,3.09-14.62,3.28-26.83,1-53.17,7.91-79.9,10.47-28.7,2.75-57.32,7.56-86,10.69a630.53,630.53,0,0,1-112.54,2.46c-6.81-.47-13.83.41-20.7.21-13.71-.38-27.34-.46-40.59-4.2-14.77-4.18-30.42-5.5-46.09-7-25.3-2.45-50.07-7.74-75.06-11.83-5.74-.94-11.47-1.95-17.24-2.79-2.61-.37-6.52,2.5-6.75,4.54a34.78,34.78,0,0,0,5.43,23.38c3,4.7,7.51,8.47,13.39,9.45,20.83,3.47,37.7,12.78,52.85,25.56,6.19,5.22,13.85,9.28,23.47,9.28,3.66,0,7.34,1.89,10.67,3.46,10.19,4.83,20.12,10.09,30.35,14.84,4.27,2,8.91,4.11,13.65,4.41,15,.93,27.74,7.43,41.6,11.1s27.7,8,41.53,12.12c2.76.82,5.38,2.13,8.24,2.56,35.82,5.36,69.5,16.89,104.33,25.09,30.1,7.08,60.87,12.06,90.58,20.46,24.11,6.82,50,8.31,75.66,8.89,45.38,1,90.84,1.27,136.46-2a402.59,402.59,0,0,0,47.32-6q54.48-10.5,108.72-22.57C1891.11,2415.68,1929.41,2403.76,1965.39,2385.78Z"/><path class="cls-2" d="M1613.81,547.47l11.26,10.27a49.87,49.87,0,0,0,22,11.91c22.19,5.42,43.35,14,64.68,22.05a122.45,122.45,0,0,1,13.85,6.2c12.72,6.69,25.34,13.5,39.13,17.85a50.52,50.52,0,0,1,11.36,5.57c17.21,10.73,34.32,21.65,51.48,32.48,4.28,2.7,8.57,5.41,13,7.89,23.61,13.29,46.46,27.52,66.94,45.63,13.89,12.29,29.48,22.66,44.16,34.1,7.33,5.71,14.26,12,21.46,17.84q27.48,22.51,55,44.91c12.5,10.13,24.43,20.7,34.51,33.45a279.4,279.4,0,0,0,25.85,27.9c25.53,24.51,43.32,54,56.43,86.35,5.05,12.47,10.89,24.62,14.8,37.62,2.63,8.79,7.57,16.92,11.57,25.31,9.49,19.93,17.51,40.3,18.8,62.58.3,5.18,2,9.76,4,14.47,5.74,13.21,10,26.86,11.39,41.28.24,2.5.08,5.27,1.14,7.42,6,12.28,7.92,25.76,12,38.58a4.51,4.51,0,0,0,1.38,2.06c1.29,1,2.87,2.76,4.08,2.59,2.27-.33,5.9-1.41,6.28-2.88,2-8.06,4.93-16.44,4.37-24.52-.89-13.07,2.21-25,6-37a35.11,35.11,0,0,0,.8-17.3c-2.74-15.76-5.68-31.54-7.32-47.42a423.93,423.93,0,0,1-2.45-47.78c.27-28.86-3.37-56.92-12.61-84.5-11-32.78-20.73-65.95-31.31-98.86a35.78,35.78,0,0,0-7.34-13.07,39.35,39.35,0,0,1-8.71-15.06c-6.64-20-14-39.81-20.65-59.81a333,333,0,0,0-29.34-64.41c-15.49-26.16-31.57-52-47.21-78-8.32-13.86-18.36-26.41-29.22-38.26-13.71-15-28-29.38-42.13-44a199.19,199.19,0,0,0-32.87-27.8c-14.07-9.37-27.33-20-41.55-29.08-22.07-14.14-44.86-27-69-37.39-15.52-6.66-31-13.52-46.15-20.93-10.75-5.25-22-8.69-33.45-11.48-7.44-1.8-14.79-2.7-22.5-1.46-5.74.92-11.73.39-17.61.49-3.36.06-7-.67-10,.28-13.75,4.2-28.08,4.9-42.15,7.15A65.55,65.55,0,0,0,1675.9,394c-24.84,9.12-46.34,23.24-63.79,43.14-11.8,13.46-19.31,29.29-23.67,46.58-2.5,9.92-2,20.15.17,30.07,2,9.14,6.1,17.47,13.77,23.64,3.94,3.18,7.54,6.8,11.29,10.22Z"/><path class="cls-3" d="M921.43,2204c-6.18,44-10.89,84.71-17.86,125.08-6.51,37.64-23.27,70.48-52.73,96-45.31,39.24-103.41,41.74-150.61,4.4-34.52-27.32-61-61.79-73-104.58-20.69-73.52-39.49-147.57-58.87-221.46-6-22.7-11.31-45.56-16.79-68.39-3.19-13.27-7-26.49-8.91-40-3.12-21.67,4.78-39.11,25.08-48.35,28.44-13,56.6-27.86,86.49-36.13,94-26,189.42-31.79,285-7.75,22.61,5.69,45.61,13.05,65.84,24.3,65.19,36.21,85.74,110.2,51.94,176.78-19.51,38.44-48.71,65.81-88.55,81.89C952.33,2192.31,936.05,2198.33,921.43,2204Z"/><path class="cls-2" d="M440.06,1738.86c40.13,4.72,73.16-10.44,101-40.35,10.18-10.93,16.23-23.5,20.77-38.19,11.71-37.83,9.67-75.6,3.88-113.66-2.23-14.67-5.59-29.14-8.23-43.75-2.44-13.54-5.84-27.06-6.61-40.75-1.15-20.31-4.62-40-9.33-59.59a206.65,206.65,0,0,1-5.33-66.39,185.16,185.16,0,0,0-.18-35c-3.28-30.93-2.84-61.41,5.44-91.63,2.78-10.17,3.23-21.1,6.46-31.08,11.41-35.29,18.2-72.08,31.85-106.63,1.16-2.95,1.72-6.17,3-9.06,19.32-44.57,35.77-90.44,56.81-134.22,18.78-39.09,41.25-75.83,64.48-112.07,18.21-28.4,40.82-53,63.21-77.67,8.4-9.26,17-18.34,26.07-26.89,20.58-19.46,35.27-43.88,51.84-66.71a5.23,5.23,0,0,0,.82-3,23.06,23.06,0,0,0-.7-6.06c-.74-2.42-2.63-3-5-2.37-2.93.8-6,1.24-8.83,2.23a18.86,18.86,0,0,0-5.33,3c-18,14.13-38,24.46-58.33,34.28-18.54,9-35.21,21.08-51.7,33.49a228.87,228.87,0,0,1-33.78,21.47,294.35,294.35,0,0,0-51.47,34c-15.27,12.36-30.23,25.15-45.4,37.65-5.55,4.57-11.36,8.79-17,13.29-4.81,3.86-10,7.43-14.17,11.93-22.78,24.35-47.66,46.29-71.55,69.36C447,929,410.6,963.39,383,1006.11c-10.82,16.74-21.16,33.87-30.82,51.37C335.9,1087,318.78,1116,305.2,1147c-6.34,14.52-13.26,28.76-19.62,43.28-11.87,27.11-22.86,54.57-31,83.23-4.93,17.31-11.19,34.21-16,51.55-4,14.27-8,28.76-9.7,43.43-3.38,28.48-6.38,57.12-7.37,85.77a325.8,325.8,0,0,0,17.73,118.93c5.19,14.94,10.27,29.93,15.53,44.84,4.62,13.12,11.34,24.8,21.34,34.27,4.5,4.25,8.73,8.84,12.85,13.5,8.94,10.09,17.93,20.06,22.82,33.38,1.76,4.78,5.31,8.93,8.47,13a26.14,26.14,0,0,0,15.12,9.94c16.81,3.68,33.53,8,50.49,10.73C403.78,1735.69,422,1736.92,440.06,1738.86Z"/><path class="cls-4" d="M2365.34,1255.65c8.11-2.68,16.15-5.66,24.81-6.07a2.75,2.75,0,0,0,1-.09c6.21-3.57,13.51-3.39,20.13-5.54,16.48-5.36,33.39-7.23,50.32-8.45,9.47-.69,17.86,1.84,26.15,4.33a62.76,62.76,0,0,1,6.8,2.58c1.36.59,3.27,1.16,3.66,2.16,1.63,4.1,5.9,6.3,9.16,9.24a14.67,14.67,0,0,1,4.66,9c.68,4.38,2.94,8.27,4.51,12.37,2.87,7.48,4.39,15.42,6.21,23.23,1.06,4.53,1.61,9.18,2.41,13.77.4,2.3,1.31,4.55,1.23,6.88-.3,8.51,1.57,16.52,4.16,24.45,3.19,9.78,2.58,20,.07,30.37a47.43,47.43,0,0,0-1,7.05c-.83,9.22.77,18.29-1.66,27.6-2.14,8.15-3.68,16.38-6.56,24.43-2.32,6.47-6.11,12.76-9.5,19.07-2.83,5.29-6.43,10.38-6.55,16.16a5.59,5.59,0,0,1-2.22,3.48c-2.81,2.2-3.32,4.6-3.35,7.36q-.18,12.94-.81,25.92a23.24,23.24,0,0,1-1.46,6.32,58.6,58.6,0,0,0-3.46,22,8.58,8.58,0,0,1-.44,3.15c-3.31,9.91-5.22,20-9.82,29.72a20.19,20.19,0,0,1-1.12,2.29c-8.69,13.85-15.19,28.18-20.94,42.7-3.09,7.8-7.09,15.19-14.77,21.51-3.52,2.9-5.63,7-8,10.66-5.73,8.81-11.52,17.6-16.76,26.56-3.64,6.21-6.43,12.67-9.56,19-2.26,4.58-4.5,9.17-6.67,13.77s-4.77,9.16-6.28,13.84c-4.83,15-13.06,29.25-21.33,43.48a126.9,126.9,0,0,0-7.24,13.63,42.41,42.41,0,0,1-14.29,18.43c-10,.38-19.87-.48-27.77-5.58-4.3-2.77-9.78-4.56-12-9.08-.42-.85-1.77-1.37-2.82-1.9-16.33-8.27-30.91-18.45-48.13-25.76a26.53,26.53,0,0,1-4.59-2.58c-14.91-10.23-31.78-18.37-48.4-26.77-19.24-9.74-38.13-19.82-56.12-30.92-10.36-6.39-20.33-13.07-29.89-20.15-5.68-4.21-11.82-8.06-17.21-12.5-5.78-4.76-10.9-10-16.35-15.07-1.41-1.29-3-2.45-4.51-3.68-1.07-.88-2.54-1.61-3.1-2.7-4.57-9-13.88-15.07-20.91-22.54-2.6-2.77-5.17-5.56-7.81-8.29a28.69,28.69,0,0,0-4.82-4.51c-2-1.3-2.77-3.24-4.23-4.67-5.6-5.5-9-12.45-17.08-16.38a17.63,17.63,0,0,1-7.58-7.37c-2.06-3.63-5.12-6.83-7.79-10.2-4-5-8-10.07-12-15.11-.5-.63-1-1.27-1.51-1.89-7.16-8.42-14.42-16.75-19.63-26.27-3.25-5.94-8.15-11.19-12.34-16.73-.64-.84-1.33-2.24-2.23-2.27-4.11-.17-5.18-2.08-5.61-5-.32-2.14-3.1-3.49-1.59-6.44,1.4-2.75-.67-5.18-3-6.79s-3.4-3.93-4.72-6.15a65.06,65.06,0,0,0-7.24-9.55c-3-3.4-3-5.19.8-9,.21-.21.6-.3.84-.5.47-.4.9-.83,1.84-1.72-.43-2.17-.55-4.81-1.5-7.17-2.14-5.32-1-11.41-4-16.49-.12-9.41-.26-18.81-.35-28.22a68.18,68.18,0,0,1,.25-7.82c.65-6.06,1.81-12,5.91-17.75s7.17-11.8,10.94-18.1a23.45,23.45,0,0,1-1.6-2.31,24.11,24.11,0,0,1-1.13-2.67,15,15,0,0,1,8.86-5.94c5.72-1.17,9.59-4.44,13.48-7.44a67.35,67.35,0,0,1,11.72-6.86c15.15-7.38,30.49-14.36,46.75-19.74a338.18,338.18,0,0,1,46.8-11.6,133.51,133.51,0,0,1,25.76-2.32c4.56.09,9.25-.52,13.89-.85,3-.21,6.05-.82,8.92-.64,7.95.49,15.5.09,23-4,2.27-1.26,5.87-1.39,8.68-1.24a67.54,67.54,0,0,1,12.26,1.9,10.37,10.37,0,0,1,5,3.06c4.56,5,8.84,10.22,13.24,15.34,3.87,4.51,8.09,8.83,10.22,14.26a15.27,15.27,0,0,0,2.62,4c8.74,10.48,13.41,22.56,17.55,34.88,1.89,5.64,4.39,11.09,6.63,16.63,1.95,4.81,4.18,9.54,5.78,14.45,1,3.22,3.38,5.72,4.35,9.54,4.11-3.46,7.09-6,6.68-9.88-.11-1,1-2.73,2.2-3.4,3.35-1.93,6.45-3.61,4.18-7.15-.2-.3.91-1.3,1.53-1.89,1.33-1.26,3.09-2.34,4.06-3.72,3.87-5.56,7.56-11.19,11.22-16.82,1.43-2.2,2.45-4.35,2-6.9-.61-3.76,3.57-6.28,6.15-9.31a6,6,0,0,0,.34-2.25c-.91-3.88.67-7.11,4.42-10.24,2.56-2.14,4.81-4.48,5-7.81.12-1.72,2.51-3.93,4.53-5.29a14.43,14.43,0,0,0,5.53-6.8c1.75-4.12,3.68-8.2,5.61-12.28.84-1.79,2.2-1.86,5.61-.11-1.51,3.14-3.07,6.41-4.66,9.73,2.9.67,5.1-.06,6.21-2,1.94-3.4,3.48-6.92,5.2-10.42-5.59.06-6.63-1.23-3.83-4.63a11.28,11.28,0,0,1,1.39-1.26c.47-.41,1-.8,1.83-1.51l8.87-.31c.18-2.57,0-4.76.57-6.92s1.77-4.1,2.89-6.57a27.8,27.8,0,0,0,14.6-9.65c.18-.24.45-.44.61-.68,1.85-2.93,7-2.32,8.67-5.59a13.5,13.5,0,0,1,6.46-6.37l-.12-.17c1.76,1,3.16.44,4.33-1.06Z"/><path class="cls-5" d="M1395.89,436.89c3.87,4.77,5.49,10.7,7.23,16.38a21.24,21.24,0,0,1,.85,8.35c-1.57,11.7-1.36,23.94-4,35.42a143.28,143.28,0,0,1-16.76,42.32c-9.24,15.48-18.81,30.52-28.2,45.81a76.3,76.3,0,0,0-5,9.06c-4.76,10.81-9.07,22.1-14.12,32.58-5.67,11.74-11.75,23.05-18,34.09a585.69,585.69,0,0,1-38,57.73c-16.65,22.68-33.44,45.13-51.38,65.61-18.66,21.29-38.83,38.94-61.49,50.43-11.41,5.79-23.19,9.64-35.51,10.68-10.36.87-20.18,4.87-30.11,8.24-6.84,2.32-13.76,3.69-21,2.76a22.08,22.08,0,0,0-8.94.64c-5.71,1.63-11.43.33-17.15-1.3-8.74-2.5-17-7.21-25.26-13-11.28-7.89-22.15-16.82-33-26.07-5.48-4.69-9.2-11.66-12.08-19.33-2.14-5.69-2.86-12.41-4.27-18.64a59.3,59.3,0,0,0-2.4-9.29c-6.39-15.58-4.53-30.05-.11-44.24a43.32,43.32,0,0,1,3.11-8.17c5.28-9.33,7.25-20.65,8.14-32.86,1.46-20.15,7.42-37.39,14.89-53,5-10.4,11.42-19.22,19-25.72-.77-4.25-3-3.59-4.7-4.16-11.1-3.63-22.22-7-33.3-10.88a112,112,0,0,1-12.7-5.87,8.88,8.88,0,0,1-3.7-2.94c-3.3-5.14-7.63-7-11.57-10.2-4.11-3.34-7.75-8.42-11.22-13.33-1.91-2.71-3.67-5.05-6.17-6.37-5.15-2.72-9.44-7.41-12.76-14.17a23.55,23.55,0,0,0-3.6-5.19,22.16,22.16,0,0,0-3.49-2.8c-1.94-6.94-3.91-13.4-5.54-20a95,95,0,0,1-3.13-20.5c-.25-10.57-.77-21.17-1.14-31.75a24.13,24.13,0,0,1,.21-3.61c1.39-13,2.83-26,4.19-39.06.61-5.92,1.09-11.9,1.57-17.87,1-12.05,2.85-23.66,6.4-34.33.93-2.79,1.95-5.85,3.52-7.67,2.78-3.19,4.6-7.4,6.62-11.48,2.11-4.27,4.48-8.17,6.45-12.67,1.8-4.1,4.95-6.91,7.73-9.84a26.44,26.44,0,0,1,6.92-5.5c4.78-2.42,9.74-4.18,14.6-6.33,3.07-1.36,6.28-2.43,9.09-4.52,4.94-3.67,10.21-4,15.78-3.66,7.1.41,14.18.05,21.26-.09a5.6,5.6,0,0,0,3.1-1.11c2-1.43,3.93-2.4,6.23-.76a2.14,2.14,0,0,0,1.62.47c3.41-.86,6.79-1.83,10.18-2.77,3.29,3.76,6.84,2.58,10.24,2.13a6.46,6.46,0,0,1,4.65,1.17c4.1,2.54,8.23,2.12,11.6-1.5a9,9,0,0,1,5.9-3c3.24-.38,6.45-1.2,9.71-1.33a37.32,37.32,0,0,1,7.35,1,3.64,3.64,0,0,1,1.59.76c3.48,2.67,7.09.87,10.56,2,3.19,1.05,5.46,5.5,9,6.5,3.86,1.08,7.59,2.2,11.38,1.22,2.85-.74,5.39-.07,7.47,3.79,1.32,2.44,2.8,3.59,5.07,2.79,1.29-.45,3.33.73,4.53,2.15,3.06,3.6,6.12,3.53,9.41,2.63,6.65-1.82,17.48-1.65,23.55.14,1.34.4,2.78,1,4,.72,4.26-1.11,8.14,1.49,12,4,4.89,3.18,9.71,6.74,14.48,10.39a37.3,37.3,0,0,0,11.82,6c4.54,1.42,8.88,5.08,13.31,7.74,6.74,4,13.52,7.86,20.19,12.15a103.72,103.72,0,0,1,9.72,7.7c12.14,10,24.47,19.73,38,23.29,12.26,3.24,23.89,11,36.15,13.89,2.68.63,5.31,2.67,7.93,4.15,6.58,3.71,13.14,7.48,19.7,11.22a8.28,8.28,0,0,1,2.35,1.36c5.58,6.08,12.22,8.36,18.15,13.17s12,7.23,18.35,4.44C1393.81,436.62,1394.69,436.89,1395.89,436.89Z"/></svg>