<svg id="illustrations" xmlns="http://www.w3.org/2000/svg" viewBox="0 0 2800 2800"><defs><style>.cls-1{fill:#0071ce;}.cls-2{fill:#00538c;}.cls-3{fill:#6b702e;}.cls-4{fill:#b7c3b8;}</style></defs><title>CH_W</title><path class="cls-1" d="M1833.78,1249.73a1171,1171,0,0,1-125.35,15.93c-36.68,2.72-47.43,5.65-72.5,35-191,223.86-383.7,476.65-557.34,714.47l-122.36,167.6c-28.84,39.5-51.26,45.71-97,39.4A138.5,138.5,0,0,1,815.58,2209c-8.21-4.13-15.63-9.75-23.25-14.93-1.64-1.11-2.61-3.19-3.92-4.79-19.61-23.89-40.19-46-59-71.23-5.11-6.86-10.47-14.7-9.17-23.71,1-6.65,5.41-12.43,9.67-17.81,36.54-46.11,71.51-103.18,116.41-141.15,2.94-2.48,4.56-6.78,6.54-10.38a84.88,84.88,0,0,1,12.84-17.83c5.69-6,10.75-12.57,15.94-19a320.74,320.74,0,0,1,37.19-38.68c8.2-7.28,15.79-15.29,23.8-22.82,3.65-3.44,7.6-6.55,11.5-9.69,5-4,10.28-7.63,15-11.93,3.33-3,6.68-6.57,8.76-10.5,9.43-17.75,23.09-32,36.74-46.25,13-13.6,26.44-26.79,39.36-40.49,8.49-9,15.93-19.1,24.68-27.83,25.38-25.34,47.68-53.49,71.7-80.06,13.54-15,28.27-28.83,42.31-43.34,15.65-16.15,31-32.56,46.7-48.69,9.91-10.2,19.84-20.42,30.23-30.07,19.5-18.12,37.61-37.62,55.76-57.12,19.71-21.18,39.9-41.89,59.84-62.84,8.54-9,17.36-17.72,25.4-27.14,26-30.43,51.14-61.54,75-93.74,17.42-23.55,56.29-52.73,65.17-79.17,10-29.85-17.94-65.22-23.8-92.19-6.27-28.84-6.5-58.55-3.78-88.6,1.72-19,8-37.2,15.69-54.82a347.19,347.19,0,0,1,57.21-90.52c12.38-14.07,102.19-89.68,107.87-94.22a467.92,467.92,0,0,1,65.44-44.24c11.84-6.56,23.28-14,34.66-21.51,10-6.55,20.14-12,31.54-14.81A113.33,113.33,0,0,0,1865.35,645c12.5-7.24,25.74-13,38.1-20.44,9.63-5.82,19.7-10.49,29.45-15.94,17.25-9.65,35.62-14,54.33-17.6a272.86,272.86,0,0,1,59.78-4.41,138.24,138.24,0,0,1,45,8.86c7,2.66,12.9,7.78,19.33,11.74,16.23,10,27.23,24.8,35.44,42,9.14,19.2,8.95,19.28,7.7,41.53-.65,11.6-.49,23.2-1.72,34.77-1.09,10.22-3.33,20.45-5.58,30.6-3.43,15.44-7.33,30.82-11,46.24a22.74,22.74,0,0,0-.74,5.33c.17,13.88-3.66,27.52-5.64,41.28-.89,6.22-11.71,41.41-12.06,42.24-8.4,20.12-10.11,41.18-13.19,62a37.27,37.27,0,0,1-4.32,12.71c-4.79,8.85-9.1,17.94-13.33,27-2.39,5.15-65.7,106.28-72.36,115.42-5.64,7.73-10.28,16.19-15.45,24.27-10.07,15.72-23.63,28.07-37.39,40.21-.34.3-.72.56-1.08.85-44.58,36.73-56.51,62.79-116.66,74.11Q1838.84,1248.83,1833.78,1249.73Z"/><path class="cls-2" d="M677,1155.75c-9.81-13.84-18.1-28.65-26.58-43.25-13.42-23.12-24.33-47.13-34.35-71.47-10.66-25.91-22.62-51.49-30.91-78-3.62-11.56-6.69-23.21-10-34.81-3.85-13.26-7.83-26.51-11.6-39.78-4-14.19-5.38-28.37-6-42.49-.36-9.12-.11-18.17-.21-27.27a24.48,24.48,0,0,0-.65-6.24c-4.39-15.63-2.81-30.63-2.71-45.81a185.41,185.41,0,0,1,5.72-44.48,41.91,41.91,0,0,0,0-18.42c-1.25-6.35-1.29-12.37,1.27-18,1.2-2.67.77-2.93.86-6.17.11-3.7,5.35-11,9.93-15.69,7.93-8.05,13.32-18.84,23.92-23.1,13.12-5.27,26.57-10,40-14.56,44.65-15.3,119.88-6.22,177.83,16,16.55,6.33,31.7,13.74,44.31,22,16.53,10.76,31.33,24.22,47.15,36.11,29.66,22.3,62.68,38.94,93.11,60,69.14,48,36.74,33.6,87.76,100.65,24.67,32.43,50.45,67.47,54.43,105.37a678.56,678.56,0,0,0,15.13,90.58,155.49,155.49,0,0,1,4.16,35.85c-.12,8.82-9.93,33.17-7.68,39.68,2,5.72,6.25,9.9,10.15,14.12,15.26,16.56,29.86,33.69,46.38,49.14,12.21,11.42,109.79,105.31,123,115.5,2.14,1.65,4.34,3.22,6.37,5q27.9,24.54,55.76,49.15c3,2.67,6.18,5.21,9.29,7.81q22.78,19,45.6,38.06c8,6.61,16.08,13,24.06,19.6,29.48,24.39,58.73,49.09,88.46,73.16,24.46,19.81,49.14,39.33,74.34,58.15,18,13.42,35.63,27.38,52.49,42.41,17.48,15.57,35.63,30.37,53.5,45.49,19.56,16.56,39.4,32.79,58.6,49.77,9.07,8,17,17.36,25.33,26.24s16.44,17.93,24.62,26.93a99.65,99.65,0,0,0,17.07,15.19c17.65,12.24,35,25,52.46,37.52,5.84,4.18,11.57,8.63,17.69,12.24a218.76,218.76,0,0,1,37.46,28.52c11.21,10.4,22.08,21.19,33.22,31.67,3.6,3.38,7.94,6,11.36,9.54,8.13,8.4,16.66,16.64,23.68,25.86,11.58,15.21,25.72,27.76,39.75,40.4,25.29,22.79,48.28,47.61,66.12,76.13,15.57,24.88,30.39,50.32,38.59,78.08a137.59,137.59,0,0,1,5.57,44.9,63.44,63.44,0,0,1-7.9,28.48c-9.44,17.14-20.78,32.59-35.67,45.11-1.77,1.49-3.37,3.31-5.45,4.27-10.63,4.86-21,10.29-32.21,14a148.63,148.63,0,0,0-33.81,16c-2.11,1.36-3.42,2.84-3.33,5.66.13,4.29-2.33,6.31-6.29,7.16a119.16,119.16,0,0,1-30.38,2.77c-11-.47-21.85-4.56-32.37-8.68-19.78-7.75-38.42-18.59-53.7-34.48-15.72-16.35-33.38-30.22-50.65-44.62-18.36-15.3-36-31.4-51.89-49.26a331.55,331.55,0,0,1-22.35-28.67c-7.22-10.19-13.44-21-20.47-31.29a40.56,40.56,0,0,0-8.5-8.56c-23.85-18.65-45.13-40.07-66.4-61.55-14.27-14.42-28.65-28.77-43.48-42.61-26.8-25-51.4-51.85-73-81.28A343.11,343.11,0,0,0,1572.1,1837c-23.78-22.11-47.67-44.09-71.25-66.4-82.2-77.79-128.61-173.09-212.74-250-45.06-41.17-177.63-163.1-217.83-209.25-33-37.92-37.12-45.23-76.63-28-22.48,9.77-47.54,14.46-73.06,16.08a225.82,225.82,0,0,1-66.3-5.52c-17.44-4.09-33.77-11.49-49.32-21.56-24.43-15.82-47.6-33.61-70.82-51.3-6-4.59-11.37-10.25-16.87-15.57-6.81-6.58-16.7-22.85-24.22-28.65"/><path class="cls-3" d="M1486.06,442.49a21.94,21.94,0,0,0-2.31,2.42c-.4.56-.82,1.59-.57,2,1.37,2.46-.09,4.21-1.16,6.18-3,5.57-5.61,11.4-9,16.74-2,3.13-4.13,5.94-4.89,9.7a11.18,11.18,0,0,1-2.82,4.78c-1.55,1.73-3,3.21-1.9,5.82.27.64-.52,1.72-.82,2.59-1.29,3.7-2.44,7.45-3.88,11.08-1.78,4.48-3.78,8.87-5.73,13.28-.59,1.35-1.33,2.64-2,4-.42.83-.63,1.91-1.28,2.44-2.23,1.78-3.37,4.3-5,6.48-2.8,3.72-4.86,7.88-7.59,11.63-1.33,1.83-3.44,3.65-2.7,6.47-2.2,1.67-2.5,4.43-3.81,6.61-2.7,4.46-5.49,8.87-8.1,13.39-2.51,4.36-4.78,8.87-7.27,13.24-1.28,2.25-2.58,4.41-5.64,4.94a4.78,4.78,0,0,0-3,3c-.7,2.75-2.49,4.54-4.41,6.22a27,27,0,0,0-5.49,7,158.92,158.92,0,0,1-20.53,27.93c-3.9,4.26-8.23,8.11-12.42,12.09-3,2.9-6.85,4.51-10.72,5.91-4.45,1.6-8.44,1.16-11.54-2.91a35.43,35.43,0,0,0-3.23-3.28c-1.68.41-3.26.91-4.88,1.16a3.24,3.24,0,0,1-4-2.27c-1.63-4.28-4.43-7.83-7.3-11.18s-5.88-7.22-10.36-8.88c-1.52.6-2.89,1.18-4.28,1.68-3.16,1.13-5.42-.45-5.61-3.81-.28-4.77-2.24-9-4.69-13a113.37,113.37,0,0,1-9.71-18.84,10.09,10.09,0,0,0-1.3-2.45,29,29,0,0,1-4.41-9.63c-2.53-8.55-5.47-17-8.5-25.36-.62-1.71-1.92-3.17-2.75-4.82-.74-1.48-1.83-3.11-1.73-4.6.16-2.23-.65-3.91-1.52-5.76a25.2,25.2,0,0,1-2.08-5.79c-.78-4-2.75-7.67-3.33-11.8-.29-2.07-1.71-4.15-3.06-5.87a6.42,6.42,0,0,1-1.59-4.63c.54-5.22-1.49-9.91-2.75-14.74-1.79-6.85-3.94-13.59-5.86-20.4a47.48,47.48,0,0,1-1.16-16.14c.46-6.56-.14-13.05-.35-19.57a15.39,15.39,0,0,1-.1-2.79c.53-3.92.13-7.8-.12-11.72A293.35,293.35,0,0,1,1248,373c.57-5.56.77-11.17,1.6-16.69a86.11,86.11,0,0,1,3.28-14.68c3.12-9.29,9.68-15.9,18.26-20.29,7.56-3.86,14.81-2.89,21.28,2.83,1.12,1,2.36,1.84,3.46,2.85a59,59,0,0,1,5.63,5.43c1.89,2.26,3.29,4.93,5.15,7.22s4,4.26,6.25,6.64a9,9,0,0,0,1.1-2.21c.71-3.66,1.44-7.32,1.9-11,.8-6.46,1.13-13,2.14-19.42a53.24,53.24,0,0,1,7.46-19.8c3.13-5.06,6.43-10,10-14.84a86,86,0,0,1,15.11-15.68,14.21,14.21,0,0,1,7.61-3.25,31.22,31.22,0,0,0,6.54-1.45c4.42-1.48,8.47-.45,12.45,1.45a5.06,5.06,0,0,1,1.83,1.27c1.36,1.73,2.5,3.64,3.92,5.33s3.58,2.36,4.73,4.59c1.6,3.11,4,5.83,6.09,8.66a7.42,7.42,0,0,1,1.86,4.59c-.18,5.46,1.62,10.66,1.93,16.06a89.71,89.71,0,0,0,2.71,16c1,3.95.94,8.14,1.44,12.21a278.59,278.59,0,0,1,2,32.41c0,1.67.18,3.35.28,5,.12,1.94,1.14,3.07,3.48,3.47.79-1.19,1.8-2.48,2.59-3.89a214.08,214.08,0,0,1,15.7-24.47,12.48,12.48,0,0,0,1.27-1.83c3-6.13,7.58-11.18,12.44-15.74,6.73-6.32,14.81-9.89,24.43-9.14a59.88,59.88,0,0,1,17,3.31c5.12,1.94,9.13,5,11.73,9.81.88,1.64,1.63,3.37,2.6,5a9.13,9.13,0,0,1,1.06,5.92c-.21,2.21-.26,4.44-.55,6.64a3,3,0,0,0,2.06,3.47c-.58,1.43-1.07,2.61-1.54,3.8-1.15,2.88-1.5,5.8-.16,8.7a12.3,12.3,0,0,1,.81,5.44c0,3.72.27,7.44.58,11.16-.13,1.82-3,2.38-2.2,4.7.09.27.5.43,1,.83l1.53-2.71c.34.13.93.21,1,.38.34,2,.52,4.05.9,6.05.52,2.66-1.61,4.49-2,6.8s.64,4.84-.49,7.18a31.47,31.47,0,0,0-2.69,8.38c-.47,2.67-1.77,5.24-2,8.09a4.91,4.91,0,0,1-1.27,3c-3.88,3.76-4.8,8.76-5.8,13.67-.39,1.92-1.49,3.95-.24,6l.11-.08c-.15,1-.18,1.92,1,2.37Z"/><path class="cls-4" d="M487.91,1334.79a22.68,22.68,0,0,0,2.53,2.19c.57.38,1.63.75,2.06.48,2.4-1.49,4.21-.11,6.23.87,5.7,2.75,11.64,5.07,17.14,8.18,3.21,1.82,6.12,3.85,9.91,4.43a11.32,11.32,0,0,1,4.91,2.6c1.8,1.47,3.34,2.81,5.9,1.62.63-.29,1.74.45,2.63.71,3.75,1.11,7.55,2.09,11.25,3.36,4.55,1.57,9,3.36,13.53,5.1,1.37.53,2.69,1.21,4,1.82.84.38,1.93.54,2.49,1.17,1.88,2.14,4.46,3.16,6.71,4.7,3.84,2.63,8.09,4.5,12,7,1.88,1.24,3.8,3.26,6.59,2.4,1.77,2.11,4.54,2.28,6.77,3.49,4.59,2.49,9.12,5.08,13.75,7.47,4.48,2.31,9.09,4.36,13.57,6.65,2.3,1.17,4.52,2.37,5.2,5.41a4.77,4.77,0,0,0,3.11,2.9c2.79.57,4.65,2.28,6.42,4.13a27.15,27.15,0,0,0,7.27,5.15,158.52,158.52,0,0,1,28.86,19.21c4.42,3.7,8.48,7.85,12.65,11.85,3,2.91,4.82,6.63,6.39,10.43,1.82,4.37,1.56,8.37-2.36,11.66a35.71,35.71,0,0,0-3.13,3.38c.49,1.66,1.07,3.22,1.39,4.83a3.24,3.24,0,0,1-2.09,4.07c-4.19,1.83-7.61,4.8-10.83,7.81s-6.94,6.22-8.39,10.77c.67,1.49,1.31,2.82,1.88,4.19,1.28,3.1-.2,5.44-3.54,5.79-4.76.49-8.86,2.65-12.73,5.28a113.65,113.65,0,0,1-18.37,10.58,9.71,9.71,0,0,0-2.39,1.41,29,29,0,0,1-9.41,4.85c-8.43,2.93-16.7,6.25-24.94,9.66-1.68.7-3.08,2.08-4.69,3-1.44.81-3,2-4.51,1.94-2.24,0-3.88.83-5.68,1.79a25.55,25.55,0,0,1-5.69,2.34c-4,1-7.54,3.11-11.63,3.88-2.06.38-4.07,1.9-5.73,3.33a6.42,6.42,0,0,1-4.55,1.8c-5.23-.3-9.83,2-14.6,3.43-6.75,2.1-13.39,4.57-20.1,6.8a47.3,47.3,0,0,1-16.07,1.91c-6.57-.16-13,.74-19.53,1.26a16.46,16.46,0,0,1-2.78.23c-3.94-.35-7.8.23-11.7.66a293.42,293.42,0,0,1-48.07,1c-5.58-.3-11.19-.25-16.75-.82A86.94,86.94,0,0,1,398,1572.4c-9.43-2.69-16.33-8.93-21.12-17.3-4.21-7.37-3.58-14.67,1.84-21.39.93-1.16,1.73-2.44,2.68-3.59a60.39,60.39,0,0,1,5.17-5.88c2.17-2,4.77-3.51,7-5.47s4.07-4.18,6.34-6.55a8.77,8.77,0,0,0-2.25-1c-3.69-.54-7.38-1.1-11.1-1.39-6.49-.49-13-.53-19.5-1.23a53.17,53.17,0,0,1-20.12-6.53c-5.21-2.9-10.33-6-15.29-9.26a85.78,85.78,0,0,1-16.37-14.37,14.13,14.13,0,0,1-3.59-7.45,31.43,31.43,0,0,0-1.76-6.45c-1.68-4.35-.84-8.45.87-12.51a5.2,5.2,0,0,1,1.19-1.89c1.67-1.44,3.52-2.67,5.14-4.16s2.19-3.69,4.37-5c3-1.74,5.63-4.23,8.36-6.48a7.44,7.44,0,0,1,4.5-2.07c5.46-.07,10.58-2.11,16-2.68a89.08,89.08,0,0,0,15.83-3.44c3.91-1.15,8.09-1.32,12.13-2a277.6,277.6,0,0,1,32.28-3.46c1.68-.09,3.34-.35,5-.53,1.93-.21,3-1.27,3.31-3.62-1.22-.75-2.56-1.7-4-2.41a215.67,215.67,0,0,1-25.18-14.55,11.74,11.74,0,0,0-1.89-1.19c-6.26-2.74-11.52-7-16.3-11.69-6.62-6.43-10.57-14.34-10.26-24a60.43,60.43,0,0,1,2.52-17.09c1.7-5.2,4.54-9.35,9.26-12.17,1.6-1,3.28-1.79,4.82-2.82a9.16,9.16,0,0,1,5.87-1.34c2.22.11,4.45.06,6.66.24a3,3,0,0,0,3.38-2.22c1.45.51,2.65,1,3.86,1.36,2.93,1,5.87,1.23,8.69-.24a12.28,12.28,0,0,1,5.4-1.07c3.72-.17,7.42-.6,11.12-1.09,1.83,0,2.52,2.86,4.8,2,.27-.1.41-.52.78-1l-2.77-1.4c.11-.35.16-.94.34-1,2-.43,4-.7,6-1.18,2.64-.64,4.56,1.4,6.89,1.68s4.81-.87,7.19.15a31.34,31.34,0,0,0,8.5,2.3c2.69.34,5.32,1.52,8.17,1.58a5,5,0,0,1,3.05,1.13c3.94,3.7,9,4.38,13.93,5.16,1.93.3,4,1.3,6,0l-.08-.11c1,.11,1.91.1,2.32-1.06Z"/><path class="cls-4" d="M2334.5,1429.35c1.34.3,2.31.56,3.29.73a73.09,73.09,0,0,1,17.7,5.67,94.6,94.6,0,0,1,15.26,8.71,23.77,23.77,0,0,0,13,4.42c3.64.12,7.17.62,10.21,3.07,1.38,1.11,2.76,2.07,3.39,3.76s1.8,2.27,3.47,2.68a77.34,77.34,0,0,1,8.35,2.7,12.29,12.29,0,0,1,3.61,2c4.23,3.52,8.4,7.13,12.54,10.77,1.41,1.25,2.59,2.75,4,4a7.62,7.62,0,0,1,2.68,5.36,9.26,9.26,0,0,1-2.17,7.5c-2.58,3.16-4.34,7-6.32,10.62a10.4,10.4,0,0,1-6.74,5.21,19.23,19.23,0,0,0-4.71,2,14.65,14.65,0,0,1-5.37,1.76,46.15,46.15,0,0,0-13.92,3.62c-2,1-4.69.83-7.08.91-4,.13-7.93-.09-11.89.06a33.25,33.25,0,0,0-10,2.43c-2.58.94-5.28,1.58-7.82,2.62-2.92,1.18-6,1.23-9,1.81-4.89.93-9.78,1.79-14.69,2.54a8.23,8.23,0,0,0-2.1,1.1,9.13,9.13,0,0,0,1.69,2c6,3.64,9.79,9.22,13.12,15.09a63.63,63.63,0,0,0,8.29,11.18c5.45,6,10.49,12.38,14.18,19.7a15.13,15.13,0,0,0,2,3,55.33,55.33,0,0,1,6.79,11,15.26,15.26,0,0,1,1.6,9c-.31,2.39-.59,4.79-.88,7.08-2.65,3.27-6.05,4.39-9.94,5-8.82,1.34-17.56.56-26.3-.41-6-.66-12-1.53-18-2.45-3.92-.61-7.78-1.71-11.71-2.19a63.42,63.42,0,0,1-16-4.1,13.7,13.7,0,0,0-4.56-.78,26.35,26.35,0,0,1-7.07-1.42c-3.93-1.25-8-2.23-12-3.28a69.22,69.22,0,0,1-11.74-4c-8.62-4-17.31-7.83-26-11.67-3.13-1.39-6-3.4-9.58-3.77-.62-.06-1.19-.63-1.77-1a24.69,24.69,0,0,0-4.31-2.72c-4.59-1.71-8.29-4.89-12.53-7.18-3.47-1.87-6.67-4.23-10-6.27a27.65,27.65,0,0,0-5.56-2.75,37.67,37.67,0,0,1-8.63-4.55,18.29,18.29,0,0,0-5.49-2.76c-6.24-1.37-11.4-4.74-16.59-8.14q-3.9-2.57-7.72-5.22a36.05,36.05,0,0,1-3.68-2.84,10.08,10.08,0,0,0-6.36-3.05c-3.19-.2-5.7-2.28-8.42-3.7a28.5,28.5,0,0,1-4.18-3.06c-3.38-2.67-6.63-5.41-10.81-7a17.89,17.89,0,0,1-7.37-5.57,53.85,53.85,0,0,1-7.62-11c-1.78-3.74-3.94-7.3-6-10.89a35.21,35.21,0,0,1-4-25.48,10.64,10.64,0,0,1,5.34-7.31,25.79,25.79,0,0,1,4.18-2.07,162.14,162.14,0,0,1,19.74-6.23c8.15-1.79,15-5.83,19.86-13a98.23,98.23,0,0,1,31.41-29.64c7.45-4.36,14.67-9.13,22.08-13.56a91.77,91.77,0,0,1,9.68-4.94,50.66,50.66,0,0,0,11.1-6.63,60.7,60.7,0,0,1,25.34-12.5c5.12-1.11,9.75-3.49,14.5-5.56a163.41,163.41,0,0,1,32.08-10.07,24.19,24.19,0,0,1,13.81,1c4.69,1.8,9.66,2.53,14.43,4a7.12,7.12,0,0,0,4.53-.16,32,32,0,0,1,7.07-1.33c3.79-.33,7.6-.54,11.39-.52,7.43,0,14.85.21,22.27.44a17.63,17.63,0,0,1,8,1.69,4.62,4.62,0,0,0,2.95.2c1.67-.37,3.26-1.12,4.93-1.56,2.75-.7,3.23-.47,4.58,2.4.43.89,1.15,1.12,1.8,1.63,1.83,1.43,3.16,3.17,2.41,5.77a5.27,5.27,0,0,0-.27,2.53c.85,3.74-1,6.79-2.62,9.77a41.48,41.48,0,0,1-4.87,6.66c-2.92,3.46-5.54,7-6.73,11.51-1.47,5.59-5.72,9.33-9.73,13.08a40.87,40.87,0,0,1-12.89,8.51,15.85,15.85,0,0,0-4.63,3.21c-3.32,3-6.5,6.17-9.71,9.29C2334.94,1428,2334.89,1428.37,2334.5,1429.35Z"/><path class="cls-3" d="M1428.88,2437.91c.45,3.23.58,5.06,1,6.84a78.64,78.64,0,0,1,1.42,19.19c-.27,9.46-2.5,18.62-3.87,27.91a13.31,13.31,0,0,1-1.09,3.12c-2.12,4.91-4.15,9.86-6.45,14.69a91.93,91.93,0,0,1-5.36,9.66c-2.64,4.17-7.27,5.58-12.08,3.95a35.36,35.36,0,0,1-10.13-5.6,69.88,69.88,0,0,1-21.74-27.47c-2.23-5.06-4.57-10.07-6.94-15.07a33.14,33.14,0,0,0-3-5.3,12.24,12.24,0,0,1-2.37-7.23,13.36,13.36,0,0,0-1.57-6.23,12.34,12.34,0,0,0-2,2c-1.89,3.37-3.7,6.8-5.53,10.21-3.23,6-6.57,11.92-9.66,18-4.45,8.74-9.34,17.1-16.24,24.23-3,3.07-5.89,6.06-9.56,8.25-5.58,3.34-11.73,4.15-18.08,4-1.83-.05-3.67-.19-5.5-.15a13.13,13.13,0,0,1-10.06-3.8c-2.33-2.36-4.7-4.7-6.86-7.22a10.68,10.68,0,0,1-1.91-3.9c-1.41-5-2.68-10-4-14.94-.52-2-1.07-3.92-1.47-5.91s-.7-4-.94-6c-.26-2.19-.31-4.41-.61-6.59s-1.38-4.44-.37-7c.49-1.24-.86-3.1-.94-4.69-.1-2,.42-4.05-1.4-5.65a1.7,1.7,0,0,1-.14-1.54c1.71-3.86-.15-7.6-.36-11.38-.16-2.74-.86-5.45-1.09-8.19-.57-7.17-1-14.34-1.51-21.51a23.3,23.3,0,0,1,0-4.42,183.49,183.49,0,0,1,3.19-20.74c.63-2.68,1.7-5.25,2.37-7.92a10.57,10.57,0,0,0,.36-4.35c-1.55-8.89-.54-17.67.93-26.44.94-5.64,2.2-11.23,3-16.9,1.68-12.78,4.68-25.35,5.77-38.22.16-1.79.89-3.53-.12-5.35a2.52,2.52,0,0,1,.47-2c1-1.35,1.85-2.95,3.18-3.78,2.21-1.36,2.76-3.26,3-5.54a26.51,26.51,0,0,1,4.1-11.33,7,7,0,0,0,1.19-3,3.76,3.76,0,0,1,1.61-2.7,13.47,13.47,0,0,0,2.61-2.78c2.9-4.5,5.66-9.09,8.55-13.59a17.45,17.45,0,0,0,2.35-6.15c.88-4.52,1.78-9.06,3-13.5.85-3.19,2.3-6.22,3.31-9.37,1.34-4.22,2.51-8.49,3.76-12.74a65.37,65.37,0,0,1,12.16-23.46c4.79-5.81,10.45-10.74,17.8-13.51a98.5,98.5,0,0,1,16.53-4.46,17.7,17.7,0,0,1,3.85-.28,6.91,6.91,0,0,1,6.27,3.71c2.31,4,5.07,7.69,7.59,11.54a12.68,12.68,0,0,1,1.52,2.92c1.46,4.37,2.83,8.77,4.22,13.16a5.08,5.08,0,0,0,.26,1.07c2.93,4.7,3.52,10,4.18,15.33a8.7,8.7,0,0,0,.68,2c3.89,2,7.65,4,11.37,6a19.65,19.65,0,0,1,3.19,2.16c2.13,1.76,4.18,3.6,6.27,5.41a34.62,34.62,0,0,1,8.57,10.64c2.83,5.62,7.05,10.32,10.9,15.24a39.74,39.74,0,0,1,5.53,8.22,22.87,22.87,0,0,0,4.41,6.31,28.34,28.34,0,0,1,6.87,11.23,5.13,5.13,0,0,0,.37,1c3.4,5.9,6.84,11.78,10.2,17.71,1.46,2.55,2.76,5.19,4.11,7.81.67,1.31,1.18,2.71,1.93,4a140.26,140.26,0,0,1,10.37,20.73c1.56,3.93,2.69,8,4.12,12a42.15,42.15,0,0,0,6.34,12.18,35,35,0,0,1,7.19,15.95c1,6,2.71,11.86,4,17.81.46,2.15.54,4.38.79,6.57a24.69,24.69,0,0,0,.32,2.74c1.58,6.83,3.25,13.63,4.79,20.47,1.38,6.11,2.67,12.25,3.92,18.39a22.61,22.61,0,0,1,.2,3.87c.08,3,.22,5.9.16,8.85,0,2.2-.38,4.4-.51,6.6a7.45,7.45,0,0,1-3.16,5.63c-5.58,4.11-11.6,7.2-18.87,6.48a7.79,7.79,0,0,1-2.14-.46c-5.77-2.37-11.69-4.39-16.58-8.56a20.87,20.87,0,0,0-6.69-3.8c-6.22-2.11-11.6-5.64-16.94-9.28C1434.8,2441.93,1432.35,2440.36,1428.88,2437.91Z"/></svg>