<svg id="illustrations" xmlns="http://www.w3.org/2000/svg" viewBox="0 0 2800 2800"><defs><style>.cls-1{fill:#002b49;}.cls-2{fill:#6b702e;}.cls-3{fill:#0071ce;}.cls-4{fill:#b7c3b8;}</style></defs><title>CH_W</title><path class="cls-1" d="M1247.63,1560.85c-2.19-18.42-5.35-42.29-7.79-66.24-6.11-60-34.89-107.69-77.69-148.8-51.47-49.44-110.31-88.21-170.71-125.55-66.85-41.33-128-90.39-179.15-150.61-11.58-13.62-20.12-29.89-29.59-45.22-10.2-16.55-9.31-34.63-5.32-52.61,4.74-21.35,19.08-29.91,40.41-22.26,45.42,16.28,90.09,34.67,129.8,62.66,73.87,52.06,147.15,105,221,157.07,24.61,17.36,49.88,33.83,75.36,49.88,42.53,26.8,88.34,37.49,138.2,25.79,11.72-2.75,23.4-5.87,35.27-7.74a72.85,72.85,0,0,0,46-26.37c22-26.68,44.87-52.93,64.06-81.58,30.18-45,57.27-92.11,86.29-137.93,30.75-48.53,68.8-91.29,106.61-134.35,29.16-33.2,68-42.24,108.37-48.15,21.14-3.1,38.54,12,40.3,33.22,1,11.85,1.66,24.76-1.93,35.75-7.44,22.78-14.73,46.61-27.61,66.41-31.17,47.92-64,94.67-99.94,139.49-63.08,78.59-127.48,156.54-177.83,244.54-31,54.22-45.82,110.74-29,173.23,13.73,50.85,24.42,102.54,39,153.13,7.43,25.84,18.5,51.1,31.23,74.85,34.14,63.7,69.84,126.56,105.35,189.51,17,30.17,36.37,59.09,52.07,89.91,11.49,22.55,22.92,46.54,27.09,71.13,11.46,67.64-34.28,104.49-99.09,80.18-38.63-14.49-71.56-38.78-93.86-74.78-9.5-15.35-17.89-31.42-26.35-47.39-26.09-49.25-52.19-98.51-77.85-148a173.27,173.27,0,0,0-56-63.9c-12.37-8.54-20.42-7.85-32.8,1.74-16.87,13.07-30.89,28.53-40.24,48-15,31.23-30.34,62.27-45.49,93.41-20.42,42-39.76,84.49-61.67,125.66a214,214,0,0,1-37.59,50.4c-25.52,25.37-57,39.13-94.08,35.71a227.68,227.68,0,0,1-90-27.69c-19.48-10.77-23-21.27-13.73-41.11,10.15-21.82,21.64-43,33-64.26,31.25-58.39,65.51-115.36,93.41-175.31,32.37-69.55,59.66-141.49,88.15-212.8,6.07-15.19,8.84-32,11.27-48.29C1246.84,1596.81,1246.52,1581.6,1247.63,1560.85Z"/><path class="cls-2" d="M2087.63,2152c-46.09,34.36-77.43,78.08-105.69,124.77a687.39,687.39,0,0,1-48.49,70.7c-31.21,39.49-74.5,40.39-119.34,33.32-2.68-.42-5.32-2.75-7.44-4.76s-3.6-4.74-7-9.35c3-9.81,5.36-21.62,10.06-32.41,25.22-58,50.4-116,76.78-173.45,41.27-89.9,58.77-182.7,41.49-281.43-8.3-47.46-29.8-84.74-70.53-110.48-38.2-24.15-76.69-47.84-115-71.88-30.6-19.23-61.83-37.59-91.25-58.49-15.63-11.1-31.09-24.82-41.25-40.78-24.92-39.14-.59-81.67,45.68-82.44,22.8-.38,45.34,2.6,65,15.55,22.61,14.9,46.69,28.29,66.77,46.12,37.5,33.29,81.25,57.26,121.58,86.23,21.83,15.69,47.41,19.11,73.45,10.71,12.85-4.15,26.13-8.27,37.58-15.12q52.34-31.32,103.21-65.06c9.82-6.5,17.25-16.6,25.83-25,32.26-31.61,63.86-63.94,97.2-94.37,10.64-9.71,25.19-17.14,39.2-20.75,31.9-8.22,56,4.72,70.4,34.39,7,14.4,8.26,28.8-1.18,42.87-6.69,10-12.15,21-20.05,29.92-25,28.15-51.07,55.33-76.37,83.21-18.22,20.07-37,39.77-53.57,61.18-69,89.22-66.32,186.33-29.72,286.73,25.29,37.37,50.32,74.92,75.93,112.06,27.35,39.66,56.27,78.27,82.37,118.72,10.35,16,17.43,35.22,21.61,54,6.26,28.07-8.65,52.32-32.92,62.06-10.53,4.22-20.85,5-30.61.14-12-6-24.19-12.33-34.62-20.62-39.43-31.35-69.17-71-96-113.34C2140.22,2172.33,2129.48,2165.39,2087.63,2152Z"/><path class="cls-2" d="M778.16,2186.73c-30.42-1.6-42.54,13-51.47,34.52-19.63,47.3-40.28,94.21-61.55,140.8-7.45,16.32-17.65,31.43-27.12,46.77-8.39,13.59-21.9,20.63-36.59,24.86-48.18,13.87-69.67-6-57.88-55.24,5.94-24.79,16.68-48.39,24.29-72.83,17.9-57.52,35.16-115.24,52.78-172.85,19.75-64.54,10-125.39-24.7-182.18-17.26-28.22-36.64-55.23-56.47-81.74-8-10.61-19-19.42-29.85-27.25-26.93-19.35-55.53-36.46-81.79-56.65-44.18-34-87.79-68.75-130.06-105-13.22-11.33-23-27.69-31.39-43.34-9-16.82-1.67-32.17,16-40.39,15.68-7.28,31.43-7.84,48.4-3.36,39.95,10.56,76.17,29,109.46,52.54,22.05,15.6,42.41,33.93,61.87,52.76,20.79,20.13,44,36.28,68.4,51.59,33.09,20.82,69.09,28.2,107.48,29.51,36.16,1.23,63.56-11.87,85.46-41,33.58-44.69,63.72-91.46,92.22-139.47,9.14-15.39,20.44-29.74,32.26-43.23,13.39-15.26,31.75-22.61,51.53-26,12.86-2.18,25.46,4.39,27.52,17.35a140.42,140.42,0,0,1,.27,44.26c-8.81,53.12-34.35,99.41-63.49,143.56a182.41,182.41,0,0,0-23.81,53c-15.85,56.74-27.93,114-35.1,172.54-6.62,54.12,4.29,105.17,22.83,154.75,21.66,58,49.71,113.05,81.33,166.35a449.59,449.59,0,0,1,30.11,60.59c8.3,20.5,10,43.22-9.3,58.26-18.05,14-40.08,11.8-59.76,1-41.21-22.65-69.69-57.09-87.41-100.22-12-29.25-22.48-59.14-33.79-88.69C785.71,2203.92,782,2195.83,778.16,2186.73Z"/><path class="cls-3" d="M1310.08,756.75c14.93-21.07,24.83-35.86,35.57-50,33.39-44,99.07-65.46,150.65-48,25.94,8.77,41.41,29.9,46.65,55.57,8.75,42.78,10.76,86-7.15,127.64-9.25,21.49-17.7,43.5-29,63.87-34.38,61.68-76.6,117.77-127.59,166.7-24.74,23.75-50.86,22.43-76.05-1-39.6-36.84-79.38-73.5-118.38-111a497.42,497.42,0,0,1-99.44-134c-27.32-53.73-7.72-102.16,20-147.45,15.61-25.51,60.22-31.5,94.51-18.54,27.73,10.48,49,30.06,69.17,50.81C1281.29,724,1292.75,737.53,1310.08,756.75Z"/><path class="cls-1" d="M1966.59,1529.86c-67.33-1.12-119.76-38.41-135.69-97.89-13.41-50.06,2.5-94.93,28.28-137,9-14.67,24.73-21.36,41.53-24.61,25.06-4.85,50.1-9.75,75.17-14.54,18.76-3.57,36.14,2.29,52,10.62,45.5,23.84,73.64,61.55,80.32,112.63,2.05,15.7-1.18,33.4-6.58,48.54C2077,1496.56,2042.38,1531.09,1966.59,1529.86Z"/><path class="cls-4" d="M2245.75,797.32c-6.66,37.85-28.13,67.16-53.59,95.77-41.48,46.63-91.73,81.88-142,117.36-41.64,29.42-86.92,53.78-123.41,90.29-11.74,11.75-25.54,14.75-41.25,8.13-13.11-5.53-17.56-18.39-8.86-28.93s18.9-19.44,27.1-30.12c39.53-51.44,85.45-96.63,132.72-140.86,25.1-23.48,47-50.65,68.67-77.46,18.17-22.43,38.94-41.17,62.29-58,17.11-12.36,32.05-12.94,49.84-3.11C2229.29,777,2242,781.87,2245.75,797.32Z"/><path class="cls-4" d="M406.81,1028.1c9.29-27.69,35.28-29.09,58.11-34.52,19.11-4.55,35.73,3.17,49.35,16.19A405.63,405.63,0,0,1,548,1046c24.74,30.26,47.63,62.11,73.42,91.41,24.77,28.13,50.7,55.69,79.14,80,16.4,14,22.52,31.25,29,49.21,4.88,13.42-9.83,28.45-23.35,23.92-11.18-3.75-22.47-9.16-31.69-16.41-34.26-26.92-68.58-53.88-101.21-82.72-48.41-42.79-95.31-87.28-143.07-130.81C420.26,1051.49,408.87,1043.73,406.81,1028.1Z"/><path class="cls-2" d="M1597.74,728.5c11.34-47.6,10.8-93.93,9.63-140.28-.33-13.09,4-24.31,14.73-31,22.81-14.2,46.27-27.4,69.91-40.18,4.87-2.64,11.69-2.11,17.63-2.27,14.67-.38,23.15,8.53,19.63,22.82-7.53,30.5-15.43,61-25,90.91-9.1,28.5-20,56.44-31,84.31-12.84,32.83-30.86,39.22-59.33,24.81C1610.1,735.66,1606.36,733.36,1597.74,728.5Z"/><path class="cls-2" d="M811,571c6.74,4.59,16.23,7.84,20.23,14.43,8.51,14,15.23,29.42,20.8,44.92,14.75,41,28.53,82.38,42.6,123.64,3.54,10.36-.26,20.54-9.82,27.4-9.29,6.67-20.23,5.79-28.69-2.31a28.15,28.15,0,0,1-3.16-3.21c-31.48-42.33-63.35-84.38-94.2-127.17-13-18-11.76-27.54,3.06-44.17a179.54,179.54,0,0,1,26.48-24.49C794,575.82,801.87,574.49,811,571Z"/><path class="cls-4" d="M1287.5,454.67c-8.29,7.51-17.57,11.48-28.75,7.32-13.42-5-22.49-14.35-27.66-27.72-12.45-32.18-23.11-64.82-27-101.13,27.67-26.78,62.1-31.9,97.29-35.15C1312.82,334.73,1312.34,339.64,1287.5,454.67Z"/><path class="cls-1" d="M529.88,1479.06c.1-11.85.13-23.7.33-35.55a52.26,52.26,0,0,1,1-8.8c1.82-9.69,3.83-19.34,5.66-29,.64-3.39,1.08-6.83,1.38-10.27a127.8,127.8,0,0,1,5.68-27.53,51,51,0,0,1,5.54-12.05c3.77-5.89,9.42-8.23,16.55-7.3,13.41,1.74,26.15,5.06,36.72,14.13,12.36,5.59,22.06,14.88,32.38,23.31,1.53,1.24,3.33,2.42,4.29,4,5.65,9.59,15.14,15.45,22.49,23.37,5.69,6.13,12.32,11.38,18.37,17.18,2.12,2,3.72,4.6,5.69,6.8,6.57,7.34,11.93,15.82,20.17,21.59,2.17,1.52,3,3.78,4.19,5.93,3.06,5.59,5.79,11.35,10.44,15.95,3.57,3.53,5.47,8.15,7.23,12.82,4.17,11.08,8.54,22.1,12.64,33.22,14.06,26,.39,55.13-3,62.5-7.71,7.81-13,17.4-19.07,26.37a92,92,0,0,1-14.29,16.92,34.13,34.13,0,0,1-11.15,7.11c-10.68,3.84-21.32,7.81-32.38,10.56a60.71,60.71,0,0,1-22.07,1.44c-16.79-2-33-6.24-47.93-14.47a75,75,0,0,1-24.61-21,129.76,129.76,0,0,1-14.68-24,128.74,128.74,0,0,0-13.21-23.13,35.65,35.65,0,0,1-6.88-19.21c-.69-10.34-2.35-20.62-3.07-31a199.09,199.09,0,0,1,0-20.73c.22-6.42.85-12.82,1.29-19.23Z"/></svg>