<?xml version="1.0" encoding="UTF-8" standalone="no"?>
<!-- Created with Inkscape (http://www.inkscape.org/) -->

<svg
   version="1.1"
   id="svg2"
   width="711.41333"
   height="96"
   viewBox="0 0 711.41333 96"
   sodipodi:docname="CHO®-LC®_LU_1L_REG_RGB_Natural-172.eps"
   xmlns:inkscape="http://www.inkscape.org/namespaces/inkscape"
   xmlns:sodipodi="http://sodipodi.sourceforge.net/DTD/sodipodi-0.dtd"
   xmlns="http://www.w3.org/2000/svg"
   xmlns:svg="http://www.w3.org/2000/svg">
  <defs
     id="defs6" />
  <sodipodi:namedview
     id="namedview4"
     pagecolor="#ffffff"
     bordercolor="#000000"
     borderopacity="0.25"
     inkscape:showpageshadow="2"
     inkscape:pageopacity="0.0"
     inkscape:pagecheckerboard="0"
     inkscape:deskcolor="#d1d1d1" />
  <g
     id="g8"
     inkscape:groupmode="layer"
     inkscape:label="ink_ext_XXXXXX"
     transform="matrix(1.3333333,0,0,-1.3333333,0,96)">
    <g
       id="g10"
       transform="scale(0.1)">
      <path
         d="m 2005.07,247.418 c -16.3,0 -30.09,-11.453 -30.09,-30.008 0,-18.472 13.79,-29.992 30.09,-29.992 16.29,0 30.09,11.52 30.09,29.992 0,18.555 -13.8,30.008 -30.09,30.008 m 0,-56.227 c -14.04,0 -25.9,10.004 -25.9,26.219 0,16.293 11.86,26.235 25.9,26.235 14.03,0 25.89,-9.942 25.89,-26.235 0,-16.215 -11.86,-26.219 -25.89,-26.219 m 12.18,33.481 c 0,6.047 -4.04,9.437 -11.38,9.437 h -11.45 v -32.754 h 5.32 v 13.813 h 5.25 l 7.42,-13.813 h 6.13 l -8.23,14.215 c 4.36,1.438 6.94,4.743 6.94,9.102 m -17.51,4.933 h 6.13 c 4.12,0 6.13,-1.613 6.13,-4.933 0,-3.149 -2.17,-4.922 -6.13,-4.922 h -6.13 v 9.855"
         style="fill:#eceae0;fill-opacity:1;fill-rule:nonzero;stroke:none"
         id="path12" />
      <path
         d="m 1844.5,187.418 h 91.49 c 5.93,0 8.9,2.473 8.9,7.91 0,4.453 -3.46,7.914 -6.43,12.86 -4.45,8.406 -5.93,14.835 -5.93,35.109 v 180.988 c 0,10.879 -1.49,13.352 -13.36,13.352 h -69.23 c -10.38,0 -13.84,-3.957 -13.84,-9.891 0,-5.437 3.46,-9.394 6.43,-15.328 4.45,-8.902 5.44,-17.805 5.44,-37.582 V 243.297 c 0,-20.274 -1.49,-26.703 -5.94,-35.109 -2.97,-4.946 -6.43,-8.407 -6.43,-12.86 0,-5.437 2.97,-7.91 8.9,-7.91 z m -6.42,308.57 c 0,-24.23 18.29,-44.011 49.45,-44.011 31.15,0 49.45,19.781 49.45,44.011 0,24.727 -18.3,44.012 -49.45,44.012 -31.16,0 -49.45,-19.285 -49.45,-44.012 z M 1674.9,195.328 c 0,4.453 -3.46,7.914 -6.43,12.86 -4.45,8.406 -5.94,14.835 -5.94,35.109 v 107.801 c 0,26.703 15.83,48.957 35.11,48.957 16.82,0 26.71,-11.867 26.71,-35.11 V 243.297 c 0,-20.274 -1.49,-26.703 -5.94,-35.109 -2.96,-4.946 -6.42,-8.407 -6.42,-12.86 0,-5.437 2.96,-7.91 8.4,-7.91 h 92.47 c 5.94,0 8.91,2.473 8.91,7.91 0,4.453 -3.47,7.914 -6.43,12.86 -4.95,8.406 -5.94,14.835 -5.94,35.109 v 118.68 c 0,46.98 -26.7,80.605 -75.66,80.605 -37.58,0 -62.8,-24.23 -73.68,-44.504 v 26.207 c 0,10.879 -1.48,13.352 -13.35,13.352 h -66.76 c -10.38,0 -13.84,-3.957 -13.84,-9.891 0,-5.437 3.46,-9.394 6.43,-15.328 4.94,-8.902 5.43,-17.805 5.43,-37.582 V 243.297 c 0,-20.274 -1.48,-26.703 -5.93,-35.109 -2.97,-4.946 -6.43,-8.407 -6.43,-12.86 0,-5.437 2.97,-7.91 8.9,-7.91 h 91.98 c 5.44,0 8.41,2.473 8.41,7.91 z m -253.68,26.703 c -19.29,0 -30.17,16.321 -30.17,35.114 0,29.175 21.76,50.933 67.25,59.832 l -0.49,-54.395 c 0,-21.262 -15.82,-40.551 -36.59,-40.551 z m 82.58,-39.558 c 32.64,0 49.94,7.418 49.94,17.8 0,4.454 -1.97,6.43 -5.44,9.399 -4.94,4.449 -8.9,7.91 -8.9,26.207 l 0.5,119.176 c 0,53.406 -32.15,89.011 -112.75,89.011 -69.23,0 -104.34,-28.187 -104.34,-65.273 0,-24.727 16.81,-39.066 38.08,-39.066 23.24,0 36.59,16.316 36.59,32.636 0,12.856 -4.45,18.789 -4.45,27.196 0,8.41 9.4,16.816 26.7,16.816 26.21,0 38.57,-17.805 38.57,-49.453 v -22.25 c -99.89,-8.902 -144.39,-39.067 -144.39,-91.981 0,-41.043 30.66,-71.703 76.15,-71.703 36.6,0 58.85,20.278 68.24,37.582 0.99,-23.242 9.4,-36.097 45.5,-36.097 z m -345.17,214.121 c 32.63,0 51.42,-37.582 51.42,-99.891 0,-58.351 -20.27,-87.031 -45,-87.031 -19.78,0 -35.11,19.777 -35.11,45.492 v 106.813 c 0,22.253 10.39,34.617 28.69,34.617 z m 140.93,-76.649 c 0,75.164 -36.59,123.625 -96.43,123.625 -38.08,0 -62.31,-19.777 -73.19,-40.054 v 99.394 c 0,10.883 -1.48,12.86 -13.35,12.86 h -67.25 c -10.88,0 -14.83,-3.957 -14.83,-10.879 0,-5.934 2.96,-9.891 4.94,-14.836 3.46,-9.891 5.44,-17.801 5.44,-37.582 V 270 c 0,-43.516 -1.98,-56.867 -1.98,-69.727 0,-10.878 5.94,-16.812 17.31,-16.812 7.42,0 16.32,2.969 23.74,5.934 5.44,1.98 10.38,2.472 14.34,2.472 3.95,0 10.88,-0.988 17.8,-2.965 12.86,-3.461 29.67,-7.418 48.95,-7.418 85.06,0 134.51,52.911 134.51,138.461 z M 930.172,300.66 c 0,-55.879 -13.844,-90.988 -39.067,-90.988 -26.703,0 -45.492,36.594 -45.492,115.715 0,55.383 14.34,89.996 39.067,89.996 26.703,0 45.492,-35.602 45.492,-114.723 z m 87.038,11.867 c 0,87.528 -55.39,131.043 -128.577,131.043 -74.668,0 -130.547,-49.945 -130.547,-131.043 0,-84.066 55.383,-131.043 129.559,-131.043 74.175,0 129.565,49.45 129.565,131.043 z M 594.898,195.328 c 0,4.453 -3.46,7.914 -6.429,12.86 -4.449,8.406 -5.934,14.835 -5.934,35.109 v 107.801 c 0,26.703 17.805,48.461 36.594,48.461 16.812,0 26.211,-12.856 26.211,-34.614 V 243.297 c 0,-20.274 -1.485,-26.703 -5.938,-35.109 -2.964,-4.946 -6.425,-8.407 -6.425,-12.86 0,-5.437 2.964,-7.91 8.406,-7.91 h 92.472 c 5.934,0 8.899,2.473 8.899,7.91 0,4.453 -3.461,7.914 -6.426,12.86 -4.945,8.406 -5.933,14.835 -5.933,35.109 v 121.152 c 0,45.496 -27.2,78.133 -76.157,78.133 -35.605,0 -60.824,-23.734 -71.703,-43.023 V 502.91 c 0,10.883 -1.484,12.86 -13.351,12.86 h -66.758 c -10.879,0 -14.836,-3.957 -14.836,-10.879 0,-5.934 2.969,-9.891 4.945,-14.836 3.461,-9.891 5.442,-17.801 5.442,-37.582 V 243.297 c 0,-20.274 -1.485,-26.703 -5.934,-35.109 -2.969,-4.946 -6.43,-8.407 -6.43,-12.86 0,-5.437 2.965,-7.91 8.899,-7.91 h 91.98 c 5.438,0 8.406,2.473 8.406,7.91 z M 348.133,487.582 c 21.262,0 32.14,-8.902 32.14,-22.254 0,-9.887 -7.91,-18.297 -7.91,-35.109 0,-25.219 17.801,-44.504 46.485,-44.504 30.164,0 49.945,20.769 49.945,53.406 0,45.988 -36.102,83.078 -118.188,83.078 C 251.211,522.199 180,450.492 180,347.637 180,246.758 239.34,180 340.219,180 c 82.582,0 133.023,53.406 133.023,118.188 0,21.757 -6.922,28.187 -15.824,28.187 -9.395,0 -12.363,-8.406 -14.836,-13.352 -13.352,-26.703 -36.098,-54.398 -84.066,-54.398 -57.364,0 -91.977,48.465 -91.977,116.703 0,66.762 37.582,112.254 81.594,112.254 v 0"
         style="fill:#eceae0;fill-opacity:1;fill-rule:nonzero;stroke:none"
         id="path14" />
      <path
         d="m 2360.65,445.43 c 9.27,11.433 17.87,23.504 28,34.117 9.09,9.523 15.88,21.551 30.01,26.164 7.75,2.531 14.19,9.074 21.22,13.82 0.9,0.61 1.68,1.668 2.65,1.879 25.22,5.426 50.51,9.059 72.81,-8.293 4.89,-3.801 9.51,-10.961 9.94,-16.887 1.16,-16.015 -0.61,-32.218 -0.09,-48.316 0.64,-20.101 -6.38,-38.187 -14.06,-55.891 -4.17,-9.621 -11.62,-17.804 -17.35,-26.785 -2.01,-3.136 -3.8,-6.574 -4.84,-10.125 -5.95,-20.273 -12.84,-39.789 -26.39,-56.812 -9.87,-12.387 -19.7,-24.543 -30.67,-36.039 -11.64,-12.196 -20.84,-26.727 -31.11,-40.231 -8.29,-10.902 -16.32,-22.023 -24.98,-32.621 -5.6,-6.847 -13.24,-5.793 -21,2.567 -9.85,10.621 -19.19,21.718 -29.13,32.265 -14.09,14.969 -28.38,29.766 -42.85,44.379 -24.85,25.102 -41.45,55.473 -57.35,86.586 -13.49,26.406 -25.57,53.102 -31.81,82.219 -0.89,4.172 -2.57,8.222 -4.26,12.164 -6.97,16.207 0.91,30.648 7.08,44.234 3.76,8.285 11.27,16.242 21.76,18.887 2.33,0.586 4.74,1.723 6.58,3.25 17.92,14.848 39.39,14.91 60.88,14.734 11.14,-0.093 21.56,-2.683 31.18,-8.851 2.83,-1.821 7.29,-1.731 10.95,-1.52 7.04,0.406 11.69,-1.988 15.5,-8.242 9.54,-15.691 9.73,-33.383 12.1,-50.656 0.66,-4.828 1.46,-9.641 2.2,-14.461 1.01,-0.512 2.02,-1.024 3.03,-1.535"
         style="fill:#f03a20;fill-opacity:1;fill-rule:nonzero;stroke:none"
         id="path16" />
      <path
         d="m 3919.91,259.27 -65.51,-0.071 v 224.106 l 20.2,33.902 h -122.76 l 20.15,-33.812 V 221.23 l -20.15,-33.812 h 182.87 l 28.74,86.641 -43.54,-14.789"
         style="fill:#eceae0;fill-opacity:1;fill-rule:nonzero;stroke:none"
         id="path18" />
      <path
         d="m 4969.73,259.145 v 59.3 h 31.68 l 31.69,-10.566 v 88.754 l -31.69,-10.567 h -31.68 v 59.305 l 65.5,-0.07 43.54,-14.789 -28.74,86.64 h -182.87 l 20.15,-33.812 V 221.176 l -20.15,-33.813 h 182.87 l 28.74,86.641 -43.54,-14.793 -65.5,-0.066"
         style="fill:#eceae0;fill-opacity:1;fill-rule:nonzero;stroke:none"
         id="path20" />
      <path
         d="m 4724.85,384.141 c -0.02,0 0,0 -29.98,0 v 61.265 c 29.98,0 29.96,0 29.98,0 16.92,0 30.63,-13.715 30.63,-30.633 0,-16.918 -13.71,-30.632 -30.63,-30.632 z m 0,-124.922 c -0.02,0 0,0 -29.98,0 v 61.265 c 29.98,0 29.96,0 29.98,0 16.92,0 30.63,-13.711 30.63,-30.632 0,-16.918 -13.71,-30.633 -30.63,-30.633 z m 79.4,93.094 26.36,26.363 v 83.586 l -54.94,54.945 h -183.53 l 20.14,-33.812 V 221.23 l -20.14,-33.812 h 183.53 l 54.94,54.945 v 83.59 l -26.36,26.36"
         style="fill:#eceae0;fill-opacity:1;fill-rule:nonzero;stroke:none"
         id="path22" />
      <path
         d="m 4545.69,483.23 20.15,33.817 -100.29,0.191 -51.86,-97.679 -51.85,97.679 -100.3,-0.238 20.15,-33.812 V 221.195 l -20.15,-33.808 h 122.59 L 4364.11,221 v 152.766 l 49.58,-93.411 49.59,93.411 V 221 l -20.03,-33.613 h 122.59 l -20.15,33.808 V 483.23"
         style="fill:#eceae0;fill-opacity:1;fill-rule:nonzero;stroke:none"
         id="path24" />
      <path
         d="m 4140.63,296.508 c 0,-19.844 -16.09,-37.235 -35.93,-37.235 -19.84,0 -35.93,16.086 -35.93,35.93 0,0.039 0,114.18 0,114.219 0,19.844 16.09,35.93 35.93,35.93 19.84,0 35.93,-16.086 35.93,-35.93 0,-0.039 0,-112.875 0,-112.914 z m 29.58,220.699 h -131.02 l -54.94,-54.945 V 242.363 l 54.94,-54.945 h 131.02 l 54.94,54.945 v 219.899 l -54.94,54.945"
         style="fill:#eceae0;fill-opacity:1;fill-rule:nonzero;stroke:none"
         id="path26" />
      <path
         d="m 3631.98,296.508 c 0,-19.844 -16.09,-37.235 -35.93,-37.235 -19.85,0 -35.93,16.086 -35.93,35.93 0,0.039 0,114.18 0,114.219 0,19.844 16.08,35.93 35.93,35.93 19.84,0 35.93,-16.086 35.93,-35.93 0,-0.039 0,-112.875 0,-112.914 z m 29.58,220.699 h -131.02 l -54.95,-54.945 V 242.363 l 54.95,-54.945 h 131.02 l 54.94,54.945 v 219.899 l -54.94,54.945"
         style="fill:#eceae0;fill-opacity:1;fill-rule:nonzero;stroke:none"
         id="path28" />
      <path
         d="m 3345.47,259.266 c -19.84,0 -35.92,16.086 -35.92,35.925 0,0.039 0,114.172 0,114.211 0,19.84 16.08,35.926 35.92,35.926 l 46.63,0.004 41.83,-14.789 -27.61,86.637 h -126.35 l -54.94,-54.942 V 242.355 l 54.94,-54.937 h 126.35 l 27.61,86.633 -41.83,-14.789 -46.63,0.004"
         style="fill:#eceae0;fill-opacity:1;fill-rule:nonzero;stroke:none"
         id="path30" />
      <path
         d="m 3031.68,231.305 c -16.51,0 -29.94,13.429 -29.94,29.937 0,16.512 13.43,29.942 29.94,29.942 16.51,0 29.94,-13.43 29.94,-29.942 0,-16.508 -13.43,-29.937 -29.94,-29.937 z m -76.78,43.957 c -4.43,-22.914 -25.04,-39.457 -48.42,-39.457 h -88.55 c 8.57,14.511 13.51,31.41 13.51,49.449 v 135.191 c 0,27.785 23.59,50.395 52.59,50.395 29,0 52.59,-22.61 52.59,-50.395 0,-10.808 -3.51,-21.109 -10.17,-29.785 -2.02,-2.644 -4.33,-5.109 -6.85,-7.332 l 31.8,-36.098 c 4.86,4.278 9.31,9.04 13.23,14.153 13.15,17.152 20.1,37.574 20.1,59.062 0,54.313 -45.17,98.504 -100.7,98.504 -55.53,0 -100.7,-44.191 -100.7,-98.504 V 285.254 c 0,-27.266 -22.19,-49.449 -49.45,-49.449 v -48.114 h 172.6 c 24.41,0 47.13,9.211 64.51,24.547 14.32,-17.699 36.2,-29.047 60.69,-29.047 24.29,0 46.02,11.161 60.35,28.618 11.68,-14.668 29.68,-24.094 49.84,-24.094 v 48.109 c -8.6,0 -15.6,7 -15.6,15.602 v 69.062 h -43.86 c -13.66,11.707 -31.37,18.805 -50.73,18.805 -38.25,0 -69.77,-27.73 -76.78,-64.031"
         style="fill:#eceae0;fill-opacity:1;fill-rule:nonzero;stroke:none"
         id="path32" />
      <path
         d="m 5125.55,247.359 c -16.29,0 -30.09,-11.457 -30.09,-30.007 0,-18.473 13.8,-29.989 30.09,-29.989 16.3,0 30.09,11.516 30.09,29.989 0,18.55 -13.79,30.007 -30.09,30.007 m 0,-56.222 c -14.03,0 -25.89,10.004 -25.89,26.215 0,16.293 11.86,26.23 25.89,26.23 14.04,0 25.89,-9.937 25.89,-26.23 0,-16.211 -11.85,-26.215 -25.89,-26.215 m 12.18,33.476 c 0,6.047 -4.03,9.438 -11.37,9.438 h -11.46 v -32.75 h 5.33 v 13.808 h 5.24 l 7.42,-13.808 h 6.13 l -8.23,14.211 c 4.36,1.437 6.94,4.746 6.94,9.101 m -17.5,4.934 h 6.13 c 4.11,0 6.13,-1.613 6.13,-4.934 0,-3.148 -2.18,-4.922 -6.13,-4.922 h -6.13 v 9.856"
         style="fill:#eceae0;fill-opacity:1;fill-rule:nonzero;stroke:none"
         id="path34" />
    </g>
  </g>
</svg>
