<?xml version="1.0" encoding="UTF-8"?><svg id="a" xmlns="http://www.w3.org/2000/svg" xmlns:xlink="http://www.w3.org/1999/xlink" viewBox="0 0 450 190"><defs><style>.c{fill:none;}.d{fill:#f8f4e3;}.e{fill:#002b49;}.f{fill:#0071cf;}.g{fill:#f1b9aa;}.h{fill:#f5e95d;}.i{fill:#fcfbf4;}.j{fill:#6c2b3c;}.k{fill:#6c702f;}.l{fill:#e2261c;}.m{fill:#1a3c34;}.n{fill:#703309;}.o{fill:#513629;}.p{clip-path:url(#b);}</style><clipPath id="b"><rect class="c" width="450" height="190"/></clipPath></defs><rect class="m" width="450" height="190"/><g class="p"><g><path class="k" d="M392.2,6.91c.56,.25,1.1,.18,1.61-.07,2.75-1.32,5.63-2.05,8.57-2.52,1.2-.19,2.38-.45,3.56-.76,1.52-.4,3.06-.34,4.61-.11,.53,.08,1.08,.36,1.57,.66,.98,.59,1.59,1.6,1.69,2.93,.16,2.18,.2,4.36-.09,6.52-.16,1.25-.53,2.33-1.27,3.18-1.59,1.83-2.83,4.01-4.04,6.22-.43,.77-.89,1.51-1.32,2.28-.5,.89-1.15,1.55-1.85,2.19-3.46,3.17-7.05,6.14-10.45,9.42-3.41,3.28-7.18,5.91-10.99,8.43-2.19,1.45-4.44,2.77-6.66,4.15-1.56,.97-3.28,1.38-4.94,1.99-1.66,.61-3.34,1.18-5,1.81-.11,.04-.15,.43-.17,.67,0,.1,.09,.28,.18,.32,.82,.42,1.65,.82,2.48,1.21,1.05,.49,2.13,.88,3.14,1.48,1.68,1,2.48,2.82,2.3,5.1-.12,1.52-.5,2.91-1.38,4-.84,1.04-1.69,2.06-2.49,3.13-1.83,2.44-3.8,4.74-4.95,7.85-.29,.8-.88,1.23-1.49,1.43-2.24,.73-4.21,2.11-6.17,3.5-.37,.26-.79,.43-1.17,.69-4.11,2.75-8.48,3.05-13.1,1.51-2.05-.68-4.12-1.23-6.19-1.78-1.53-.41-3.08-.46-4.62-.35-.32,.02-.62,.19-.93,.31-.35,.13-.48,1.07-.19,1.4,.24,.28,.49,.6,.78,.75,.8,.41,1.24,1.19,1.55,2.1,.32,.94,.33,1.86-.1,2.74-1.59,3.22-3.76,5.47-6.9,6.06-1.09,.21-2.16,.43-3.13,1.08-.19,.12-.4,.22-.62,.25-3.04,.5-6.04,1.3-9.12,1.45-1.32,.06-2.65-.11-3.96-.53-1.53-.49-3.05-.65-4.6-.35-1.52,.29-3.06,.23-4.61-.16-.63-.16-1.32-.02-1.95,.12-.26,.06-.57,.45-.64,.77-.11,.5-.11,1.09-.04,1.61,.23,1.63-.44,2.72-1.44,3.27-1.02,.56-1.78,1.44-2.64,2.23-2.26,2.1-4.79,3.58-7.67,4.08-3.48,.61-6.99,.98-10.54,.42-1.86-.3-3.7-.94-5.55-1.42-1.63-.43-3.25-.99-4.9-1.28-4.06-.72-8.13-1.37-12.21-1.95-2.21-.31-4.38-.82-6.54-1.61-2.36-.86-4.74-1.58-7.13-2.29-2.83-.84-5.7-1.15-8.57-.97-.78,.05-1.49,.28-2.19,.71-2.32,1.42-4.57,2.98-6.8,4.58-.46,.33-.96,.6-1.45,.88-1.09,.62-2.06,1.39-2.85,2.54-1.09,1.57-2.55,2.34-4.53,2.71-.21,.04-.46-.02-.64,.09-1.57,.97-2.74,0-3.79-1.44-.1-.13-.05-.52,.03-.72,.09-.22,.28-.42,.47-.52,3.21-1.71,6.01-4.21,8.76-6.77,2.34-2.17,4.91-3.87,7.36-5.81,.36-.28,.77-.51,1.18-.66,2.57-.92,4.67-2.8,6.68-4.8,3.52-3.51,6.94-7.18,10.19-11.07,.77-.93,1.54-1.88,2.21-2.92,2.49-3.85,4.96-7.73,7.4-11.63,.59-.95,1.1-1.99,1.55-3.05,2.28-5.34,4.24-10.85,5.08-16.94,.79-5.75,2.15-11.3,3.49-16.86,.77-3.2,2.24-5.79,4.34-7.81,2.09-2.02,4.5-2.49,7.15-1.66,.69,.21,1.3,.71,1.58,1.47,.56,1.56,1.3,2.92,2.36,4.03,.89,2.1,1.84,4.17,1.62,6.63-.08,.94-.07,1.9-.1,2.85-.07,1.99,.58,3.76,1.34,5.48,.31,.71,1.33,.82,1.71,.16,.31-.54,.66-1.11,.76-1.73,.55-3.2,1.56-6.17,2.64-9.1,.78-2.11,1.11-4.28,1.1-6.67-.04-5.97,1.77-11.08,4.67-15.59,1.56-2.42,3.48-4.34,5.58-6.02,.96-.76,2-.98,3.13-.84,.11,.01,.22,.02,.33,.05,2.76,.58,4.41,2.08,5.35,6.06,.31,1.32,.42,2.71,.56,4.07,.16,1.54,.62,2.93,1.28,4.25,.15,.3,.7,.31,.87,.02,.06-.11,.17-.17,.21-.29,1.04-2.96,2.47-5.64,3.68-8.48,.65-1.53,1.1-3.2,1.64-4.81,.66-1.98,1.24-4.02,1.99-5.94,1.09-2.79,2.01-5.61,2.39-8.75,.26-2.16,.94-4.18,2.05-5.85,1.43-2.17,2.99-4.21,4.83-5.87,1.7-1.53,3.59-2.43,5.76-2.48,1.16-.03,2.2,.36,3.01,1.5,.9,1.27,1.82,2.48,2.95,3.45,.36,.31,.68,.77,.89,1.25,1.11,2.58,2.44,5.03,3.17,7.82,.39,1.47,.53,2.94,.35,4.46-.29,2.41-.51,4.82-1.2,7.13-.83,2.8-1.05,5.78-.92,8.82,0,.12,.1,.33,.16,.35,.19,.04,.48,.1,.58-.03,1.26-1.65,2.34-3.51,3.11-5.57,2.06-5.48,4.72-10.53,7-15.85,1.12-2.61,2.47-5.02,4.08-7.2,.95-1.28,1.82-2.64,2.77-3.91,1.84-2.44,3.77-4.76,6.13-6.46,.37-.27,.79-.51,1.07-.89,1.72-2.38,4.08-3.38,6.4-4.54,1.44-.72,2.94-.97,4.48-1.05,.68-.04,1.3,.22,1.92,.59,.97,.57,1.63,1.42,2.05,2.65,.67,1.98,.94,3.91,.56,6.01-.54,3.05-.32,6.23-.33,9.36,0,.27,.06,.54,.1,.82,.09,.61,.64,1.27,1.14,1.39,1.16,.28,2.23,.1,3.06-.89,2.79-3.31,5.97-6.13,8.35-9.98,.84-1.37,1.88-2.56,2.92-3.72,.81-.91,1.83-1.41,2.98-1.43,.68-.02,1.35,.13,1.85,.78,.62,.81,1.2,1.67,1.76,2.55,.42,.67,.65,1.46,.75,2.3,.16,1.36,.35,2.72,.2,4.09-.28,2.42-.55,4.83-.85,7.24-.07,.53-.23,1.05-.42,1.52-.94,2.26-1.9,4.51-2.86,6.75-.86,2.01-1.75,4-2.59,6.02-1.05,2.5-2.26,4.86-3.79,6.94-.66,.9-1.11,1.95-1.39,3.12,0,0,.02,.15,.02,.15l-.13-.21Z"/><path class="k" d="M8.72,66.84c.42-.61,.88-1.3,1.36-1.97,.38-.54,.46-1.13,.37-1.77-.17-1.14-.59-2.19-1.06-3.23-.55-1.23-1.14-2.43-1.64-3.68-.34-.86-.64-1.75-.82-2.66-.3-1.53-.72-3.01-1.56-4.34-.14-.22,.14-.64,.43-.71,1.23-.3,2.26,0,3,1.07,.29,.42,.53,.88,.78,1.34,1.68,3.08,3.44,6.13,4.76,9.4,.39,.98,.91,1.83,1.75,2.5,.56,.45,1.03,1.01,1.49,1.57,2.69,3.3,6.13,5.5,10.12,6.86,2.15,.74,4.35,1.33,6.63,1.57,2.06,.21,4.08,.68,6.05,1.34,1.97,.66,4,1,6.06,1.24,2.66,.31,5.29,.92,7.97,1.16,2.06,.18,3.73,1.26,5.09,2.73,1.75,1.9,3.48,3.82,4.74,6.12,.69,1.27,1.47,2.48,2.48,3.55,.63,.67,1.16,1.46,1.62,2.27,1.11,1.98,1.52,4.06,.6,6.25-.25,.59-.62,1.08-1.19,1.38-1.75,.93-3.58,1.61-5.52,2.02-1.46,.31-2.88,.06-4.3-.25-1.11-.24-2.23-.45-3.35-.61-.27-.04-.61,.1-.86,.25-.12,.07-.23,.43-.16,.53,.23,.33,.5,.66,.83,.9,.84,.61,1.55,1.32,2.22,2.13,1.27,1.5,2.72,2.82,4.64,3.53,1.26,.47,2.38,1.23,3.44,2.08,.8,.65,1.71,1.18,2.48,1.86,.93,.82,1.82,1.69,2.63,2.63,.99,1.13,2.19,1.89,3.6,2.32,2.28,.68,4.56,1.35,6.85,1.97,1.2,.33,2.38,.71,3.5,1.26,1.39,.68,2.78,1.38,4.16,2.08,2.21,1.12,4.37,2.35,6.49,3.64,3.27,1.99,6.58,3.9,9.86,5.87,.8,.48,1.61,.96,2.31,1.56,2.04,1.75,4.06,3.54,6.03,5.36,2.03,1.87,3.35,4.18,4.04,6.86,.13,.5,.27,1,.39,1.5,.98,4.06,.94,5.56-.31,9.44-.12,.38-.34,.76-.6,1.06-.6,.71-1.25,1.38-1.89,2.05-1.11,1.15-2.2,1.64-3.82,.66-1.49-.89-3.22-1.39-4.97-1.68-.82-.14-1.57-.46-2.33-.81-1.87-.88-3.77-1.71-5.69-2.47-2.96-1.17-6.03-1.34-9.14-.76-.38,.07-.75,.31-1.08,.55-.11,.08-.15,.4-.08,.55,.13,.27,.33,.53,.55,.73,1.08,.96,2.19,1.9,3.28,2.85,.86,.74,1.71,1.5,2.58,2.23,.71,.6,1.43,1.19,2.15,1.78,.64,.52,1.3,1.02,1.93,1.56,1.57,1.35,3.11,2.72,4.68,4.05,.39,.33,.86,.55,1.32,.78,.46,.23,.96,.39,1.43,.61,1.69,.79,3.33,1.65,4.75,2.89,1.72,1.49,3.49,2.93,5.24,4.37,1.13,.93,2.08,2.01,2.98,3.15,1.55,1.95,2.25,4.15,2.01,6.66-.19,2.08-.67,4.07-1.7,5.92-1.06,1.89-2.05,3.84-3.61,5.39-.44,.44-.89,.87-1.38,1.24-1.41,1.08-2.99,1.29-4.7,.86-3.12-.79-6.04-2.12-8.98-3.36-1.43-.6-2.84-1.26-4.33-1.7-1.2-.36-2.29-.92-3.31-1.67-.75-.55-1.55-1.03-2.37-1.48-.35-.19-.78-.22-1.18-.31-.24-.05-.63,.35-.57,.57,.03,.1,.01,.21,.06,.3,1.29,2.59,2.24,5.33,3.84,7.77,.74,1.14,1.59,2.16,2.53,3.12,1.45,1.47,2.88,2.97,4.33,4.44,.96,.98,1.61,2.15,2.16,3.38,.93,2.09,1.04,4.25,.07,6.32-1.05,2.25-2.19,4.46-3.43,6.6-.56,.97-1.42,1.77-2.2,2.59-.73,.77-1.61,1.23-2.73,1.28-.7,.03-1.41,.29-2.09,.5-.81,.25-1.62,.32-2.45,.22-3.8-.45-7.2-1.82-10.12-4.32-.23-.2-.44-.44-.63-.68-1.02-1.3-2.03-2.61-3.04-3.92-.19-.24-.35-.51-.47-.8-.86-1.99-1.74-3.98-2.56-5.99-.74-1.82-1.27-3.7-1.52-5.68-.22-1.74-2.06-4.67-3.41-5.77-.36-.29-1.04-.34-1.46-.08-1.84,1.16-3.69,2.29-5.49,3.51-.68,.46-1.27,1.06-1.81,1.67-1.04,1.18-2.23,2.17-3.66,2.83-1.24,.57-2.27,1.44-3.39,2.17-.87,.56-1.71,1.16-2.6,1.69-2.45,1.45-5.05,1.71-7.77,.89-.3-.09-.6-.17-.88-.29-.96-.41-1.95-.64-3-.7-1.58-.09-3-.71-4.34-1.54-.67-.41-1.04-.98-1.25-1.7-.09-.3-.16-.61-.17-.91-.06-1.45-.17-2.89-.13-4.34,.03-.92,.22-1.85,.47-2.74,.45-1.59,1.07-3.13,1.5-4.73,1.04-3.9,2.43-7.69,3.78-11.49,.8-2.24,1.5-4.51,2.23-6.78,.67-2.08,1.01-4.22,1.24-6.38,.14-1.26-.47-2.19-1.3-3.01-.31-.31-.75-.35-1.16-.26-.3,.07-.59,.2-.84,.37-.86,.57-1.7,1.17-2.55,1.76-.69,.48-1.22,1.09-1.67,1.81-1.15,1.84-2.28,3.7-3.57,5.44-2.07,2.79-4.72,4.97-8,6.18-4.91,1.81-9.39,.98-13.19-2.7-1.81-1.75-3.12-3.87-3.62-6.37-.7-3.46-1.07-6.96-.43-10.48,.06-.31,.06-.63,.17-.91,1.11-2.89,1.46-6.03,3-8.77,.4-.71,.57-1.55,.86-2.32,.81-2.14,1.78-4.19,3.43-5.84,.15-.15,.26-.32,.4-.47,2.51-2.63,4.63-5.53,6.54-8.64,1.02-1.66,2.18-3.26,3.26-4.9,.57-.85,.6-1.73,.29-2.66-.3-.91-1.51-1.36-2.28-.81-.68,.48-1.36,.96-1.97,1.5-1.67,1.49-3.67,2.37-5.79,2.84-2.25,.5-4.37,1.22-6.35,2.39-1.38,.81-2.9,1.04-4.49,.94-1.6-.1-3.02-.57-4.2-1.72-1.33-1.3-2.78-2.48-4.06-3.84-1.82-1.93-2.84-4.3-3.41-6.86-.37-1.63-.48-3.27-.2-4.93,.21-1.22,.36-2.46,.62-3.67,.17-.8,.42-1.61,.77-2.35,1.42-2.99,2.85-5.97,4.35-8.92,1.26-2.49,2.55-4.97,3.95-7.38,.93-1.6,2.12-3.06,3.14-4.61,.91-1.38,1.78-2.79,2.58-4.23,.45-.81,.83-1.68,1.05-2.57,.68-2.72,1.91-5.23,2.96-7.81,.48-1.16,.85-2.33,1.2-3.52,.35-1.21,.5-2.41-.07-3.64-.21-.44-.21-1-.22-1.51-.02-1.03,0-2.06,.02-3.2Z"/><g><path class="h" d="M316.28,113.09c2.14-.11,4.01-.99,5.93-1.86,4.67-2.12,9.61-3,14.74-3.19,6.26-.23,12.34,.76,18.29,2.51,2.23,.66,4.29,1.88,6.41,2.88,.69,.33,1.32,.79,2,1.14,5.5,2.81,10.34,6.57,15.08,10.46,2.52,2.06,4.34,4.75,6.15,7.4,1.86,2.74,3.65,5.55,5.24,8.46,2.07,3.79,3.54,7.81,3.71,12.2,.09,2.34,.15,4.69,.1,7.04-.03,1.11-.35,2.21-.57,3.3-.23,1.14-.51,2.28-.78,3.41-.18,.78-.15,1.61-.77,2.27-.22,.24-.32,.65-.36,.99-.28,2.53-1.34,4.82-2.33,7.1-.83,1.91-2,3.68-3.09,5.46-.8,1.31-1.92,2.46-2.5,3.85-.58,1.36-1.39,2.49-2.3,3.56-.7,.82-1.33,1.59-1.48,2.71-.06,.44-.4,.86-.68,1.24-1.69,2.25-3.4,4.48-5.11,6.72-1.81,2.38-4,4.38-6.55,5.93-2.66,1.62-5.38,3.16-8.07,4.74-2.64,1.55-5.52,2.42-8.49,3.01-4.65,.93-9.34,1.01-14.04,.31-1.72-.26-3.46-.38-5.19-.46-2.05-.09-3.92-.72-5.65-1.75-2.06-1.22-4.28-1.92-6.64-2.18-3.64-.4-7.09-1.5-10.33-3.16-1.38-.71-2.61-1.8-3.72-2.91-3.12-3.14-6.14-6.37-9.19-9.57-.25-.26-.48-.54-.65-.85-1.3-2.31-2.64-4.59-3.83-6.95-.52-1.03-.67-2.24-1.05-3.35-.29-.86-.61-1.73-1.05-2.52-.85-1.51-1.75-2.97-1.97-4.76-.08-.66-.7-1.25-.86-1.92-.79-3.26-1.6-6.51-2.22-9.81-.3-1.62-.34-3.3-.18-4.97,.16-1.67,0-3.37,.18-5.03,.26-2.47,.42-4.94,1-7.39,1.01-4.25,3.02-8.05,4.84-11.95,.49-1.04,.93-2.08,1.88-2.92,.71-.62,.91-1.78,1.47-2.62,2.18-3.3,4.69-6.27,7.99-8.57,2.16-1.51,4.15-3.27,6.15-5,1.69-1.45,3.76-1.98,5.79-2.6,.87-.27,1.81-.29,2.72-.42Z"/><g><path class="o" d="M351.34,183.96c-.13,.22-.34,.4-.33,.57,.08,1.48-1.04,2.25-1.9,3.12-1.58,1.6-3.99,1.54-5.57-.05-.94-.94-1.04-2.18-1.05-3.4,0-1.1,.1-2.21,.15-3.23,.56-.37,1.07-.68,1.55-1.05,1.33-1.04,3.3-.99,4.43,.27,.77,.86,1.38,1.88,2.06,2.83,.2,.29,.4,.58,.66,.95Z"/><path class="o" d="M334.91,178.61c1.79,.79,3.24,2.05,3.98,4.11,.38,1.08,.95,2.09,1.56,3.42-.31,1.65-2.1,2.43-3.51,3.48-.47,.35-1.34,.2-2.03,.21-.22,0-.54-.13-.67-.31-.46-.65-.99-1.31-1.26-2.04-.78-2.15-.9-4.37-.31-6.6,.08-.3,.35-.58,.59-.81,.44-.43,.93-.82,1.65-1.45Z"/><path class="o" d="M337.47,128.41c-.63,2.49-2.58,3.85-4.24,5.44-.18,.17-.45,.24-.68,.34-1.75,.77-2.48,.56-3.27-1.15-.71-1.52-1.3-3.07-.94-4.84,.52-2.52,2.79-3.84,5.17-2.88,1.29,.52,2.42,1.29,3.28,2.42,.18,.23,.42,.42,.68,.67Z"/><path class="o" d="M319.86,184.36c-.09-1.34-.15-2.59-.27-3.85-.19-1.97,.97-3.45,1.8-5.05,.11-.2,.36-.36,.58-.47,1.33-.66,4.97,.35,4.99,2.64,0,.46,.02,.92,.09,1.37,.08,.45,.24,.88,.42,1.54-.25,.27-.73,.72-1.13,1.24-.5,.64-.99,1.3-1.36,2.01-.49,.92-1.05,1.43-2.18,1.08-.84-.26-1.82,.37-2.64-.32-.11-.09-.24-.17-.29-.2Z"/><path class="o" d="M378.15,160.58c.28,.54-.3,1.23,.56,1.34,.06,0,.09,.44,.08,.67-.04,1.52-1.04,2.57-2,3.49-.62,.6-1.72,.7-2.61,1-.18,.06-.45,.06-.6-.04-1.92-1.21-4.03-2.27-4.82-4.62-.16-.48-.13-1.17,.11-1.6,1.37-2.51,3.9-3.06,6.33-1.43,.21,.14,.46,.26,.62,.45,.61,.72,1.32,1.11,2.33,.75Z"/><path class="o" d="M308.34,167.37c.44-1.79,1.12-3.14,2.66-3.94,.68-.35,1.32-.78,1.94-1.23,1.85-1.33,3.72-.61,4.89,.46,.59,.54,1.07,1.24,1.49,1.93,.53,.88,.01,2.25-1.13,2.83-1.35,.69-2.76,1.29-4.16,1.87-.83,.34-1.66,.31-2.49-.2-1.02-.63-2.12-1.14-3.2-1.72Z"/><path class="o" d="M324.56,139.1c-.46,1.09-.98,2.3-1.48,3.51-.52,1.26-2.62,2.52-3.96,2.33-.29-.04-.63-.14-.81-.34-1.27-1.41-2.34-2.92-2.47-4.92-.09-1.42,.47-2.55,1.62-3.24,1.16-.69,2.37-.28,3.46,.37,.3,.18,.54,.48,.84,.66,.9,.54,1.81,1.05,2.81,1.62Z"/><path class="o" d="M370.57,177.44c-1.16,.04-1.52,.72-1.99,1.23-.45,.5-.85,1.03-1.62,.44-.16-.12-.5-.05-.74,0-1.32,.31-2.26-.24-3.03-1.26-.49-.65-1.02-1.27-1.51-1.93-.71-.95-.84-2.06-.74-3.19,.1-1.08,1.5-1.91,2.88-1.67,1.73,.3,3.31,.84,4.21,2.63,.32,.64,1.19,1.01,2.03,1.68l-.73,.44c.22,.5,.33,.84,.51,1.13,.1,.15,.32,.23,.73,.49Z"/><path class="o" d="M310.52,149.08c1.67-.4,3.17-.21,4.54,.59,.6,.35,1.14,.86,1.58,1.4,.25,.32,.44,.93,.3,1.27-.32,.79-.7,1.71-1.34,2.17-.73,.53-1.77,.83-2.7,.87-2.18,.09-4.07-.8-5.73-2.17-.74-.62-.81-1.18-.18-1.99,.92-1.18,1.93-2.28,3.53-2.15Z"/><path class="o" d="M364.28,136.71c-1.12,.15-2.09,.48-2.95,1.21-.96,.82-1.64,.73-2.77,.13-1.17-.62-2.2-1.28-2.23-2.78,0-.1-.11-.23-.08-.29,.69-1.16,1.31-2.37,2.12-3.45,.57-.76,1.56-.68,2.42-.54,2.46,.39,4.18,2.79,3.49,5.72Z"/><path class="o" d="M370.29,146.01c-.03-1.27,.95-3.32,1.98-3.86,.26-.14,.6-.28,.87-.22,.85,.17,1.64,.28,2.51-.06,.27-.11,.88,.26,1.15,.58,.6,.71,1.12,1.5,1.6,2.3,.33,.54-.3,2.23-.98,2.47-.62,.22-1.01,.61-1.4,1.09-1.27,1.57-3.63,1.42-4.63-.34-.37-.65-.73-1.3-1.1-1.94Z"/><path class="o" d="M349.65,127.81l.52,3.57c-.97,.2-1.93,.34-2.52,1.21-.11,.16-.45,.21-.69,.24-.59,.08-1.18,.11-1.77,.19-1,.14-1.45-.19-1.77-1.2-.45-1.39-.23-2.74,.26-4.04,.57-1.51,2.51-2.07,4-1.21,.65,.37,1.27,.79,1.98,1.23Z"/></g></g><g><path class="k" d="M384.24,141.21c-.48-.43-.78-.79-1.16-1.02-1.94-1.18-2.91-3.08-3.85-5.02-.67-1.38-1.23-2.83-2.27-3.99-.47-.53-.86-1.09-1.26-1.68-1-1.49-1.43-3.17-1.86-4.86-.28-1.1,.02-2.05,.77-2.98,.71-.89,1.54-1.46,2.59-1.78,1.57-.46,3.11-.96,4.79-.93,.86,.02,1.7-.09,2.55,.22,.51,.18,1.12,.13,1.68,.09,.71-.05,1.42-.3,2.12-.27,.66,.03,1.3,.2,1.97,.03,.29-.07,.63-.1,.91-.02,2.02,.52,4.03,1.1,6.06,1.59,.68,.17,1.18,.59,1.75,.92,1.73,1,3.45,2.02,5.13,3.09,1.2,.77,2.36,1.64,3.09,2.93,.23,.4,.49,.79,.63,1.22,.4,1.19,1.1,2.19,1.87,3.15,.05,.07,.18,.07,.28,.11,.29-.08,.19-.31,.15-.49-.17-.8-.35-1.6-.52-2.39-.18-.85-.36-1.71-.94-2.41-.28-.34-.33-.74-.28-1.16,.05-.41,.04-.84,.2-1.21,.45-1.03,.43-2.09,.33-3.16-.06-.62,.06-1.21,.17-1.82,.25-1.46,.43-2.94,.52-4.42,.1-1.63,.07-3.28,.13-4.91,.02-.51,.02-1.06,.22-1.5,.63-1.42,.81-2.96,1.26-4.42,.02-.05,.05-.1,.04-.15-.13-1.19,.55-2.12,.99-3.13,.53-1.21,1.09-2.41,1.39-3.71,.22-.94,.61-1.77,1.78-1.8,.14,0,.32-.09,.4-.19,.3-.37,.61-.74,1.14-.6,.69,.18,1.46,.35,1.83,1.01,1.22,2.16,2.92,3.94,4.44,5.85,.6,.75,1.08,1.6,1.27,2.59,.17,.9,.48,1.77,.66,2.67,.27,1.36,.29,2.73,.04,4.11-.18,1.01-.21,2.04-.36,3.05-.11,.76-.3,1.5-.46,2.25-.06,.29-.12,.58-.17,.84,.36,.22,.58,.01,.73-.14,.58-.57,1.13-1.18,1.69-1.78,.84-.9,1.63-1.85,2.53-2.68,.63-.58,1.41-1.02,2.14-1.47,.25-.15,.58-.17,.88-.23,1.47-.27,2.95-.27,4.44-.32,.31,0,.64,.08,.91-.02,1.67-.59,3.42-.39,5.17-.51,.07,.08,.17,.19,.26,.31,.58,.8,.97,1.61-.05,2.38-.07,.06-.1,.18-.14,.27-1.06,2.62-2.89,4.68-4.86,6.62-.79,.78-1.77,1.37-2.72,2.1l-1.52-.62c-1.44,.82-2.77,1.57-4.09,2.34-.44,.26-.83,.61-1.28,.83-.78,.38-1.56,.81-2.39,1.01-.9,.22-1.4,.7-1.78,1.5-.78,1.69-1.97,3.1-3.34,4.35-.52,.47-1.16,.86-1.81,1.12-.51,.21-.86,.51-1.16,.94-.93,1.36-2.07,2.53-3.2,3.72-.28,.29-.56,.61-.71,.97-.48,1.17-1.34,2.05-2.18,2.94-.99,1.04-1.95,2.1-2.98,3.09-.84,.81-1.31,1.81-1.71,2.87-.14,.38-.26,.78-.44,1.15-.11,.23-.27,.57-.44,.6-.97,.15-1.09,1-1.43,1.64-1.06,2.01-2.34,3.84-4.22,5.19-1.12,.81-1.66,2.05-2.22,3.22-.44,.93-.9,1.83-1.46,2.69-.22,.34-.36,.73-.55,1.09-.3,.59-.6,1.18-.92,1.76-1.16,2.13-2.82,3.88-4.32,5.76-.51,.64-.95,1.33-1.42,2.01-.11,.17-.25,.36-.27,.55-.04,.63-.22,1.25-.69,1.64-.45,.37-1.04,.57-1.58,.85-1.02-.67-1.45-1.74-1.94-2.73-.91-1.85-1.41-3.86-1.65-5.89-.2-1.72,.18-3.36,1.56-4.63,.64-.59,1.21-1.25,1.78-1.91,.19-.22,.31-.51,.44-.72-.15-.41-.44-.32-.67-.35-1.26-.18-2.53-.36-3.79-.55-1.63-.24-3.23-.28-4.87,.08-2.32,.52-4.71,.38-7.02-.09-1.62-.33-2.95-1.36-4.09-2.59-1.35-1.45-1.96-3.26-2.38-5.1-.3-1.33-.1-2.82,2.04-3.12,1.6-.23,2.96-1.08,4.43-1.61,2.22-.81,4.12-2.26,6.23-3.3,1.8-.88,3.65-1.27,5.63-.82,.47,.11,.47,.12,1.35-.15Z"/><path class="l" d="M475.82,198.02c-1.04,.96-2.13,1.8-3.31,2.55-1.2,.77-2.49,1.17-3.87,1.39-.37,.06-.75,.09-1.12,.16-.24,.05-.5,.1-.7,.24-1.31,.92-2.84,1.32-4.3,1.88-.41,.16-.84,.24-1.25,.39-1.78,.65-3.65,.94-5.48,1.37-1.1,.26-2.19,.57-3.26,.94-.89,.31-1.77,.63-2.69,.85-.86,.2-1.71,.37-2.59,.46-.37,.04-.74,.11-1.11,.14-.33,.03-.57,.15-.81,.39-.35,.35-.78,.62-1.1,.87-.16,.03-.22,.04-.29,.06-1.35,.24-2.63,.02-3.85-.58-.96-.47-2.05-.59-3.01-1.08-1.18-.12-2.35-.5-3.55-.34-.91,.12-1.75-.04-2.58-.37-.41-.16-.83-.3-1.25-.41-.36-.1-.73-.17-1.1-.2-.81-.07-1.63-.1-2.44-.17-1.2-.11-2.32-.53-3.45-.93-.47-.17-.94-.37-1.38-.61-.72-.39-1.46-.72-2.25-.96-.36-.11-.73-.22-1.05-.42-.39-.25-.8-.34-1.25-.37-.31-.02-.62-.1-.93-.11-.8-.04-1.44-.39-1.98-.96-.26-.27-.55-.52-.87-.72-.97-.6-1.76-1.43-2.56-2.22-1.48-1.46-2.91-2.95-4.47-4.33-.24-.21-.5-.4-.68-.66-.79-1.16-1.93-1.97-2.92-2.93-.5-.48-.96-.99-1.43-1.5-.51-.57-.86-1.23-1.13-1.94-.88-2.29-1.7-4.6-2.25-6.99-.06-.24-.15-.48-.25-.71-.58-1.33-.96-2.72-1.45-4.08-.3-.83-.51-1.7-.42-2.59,.16-1.71-.11-3.39-.27-5.07-.05-.57-.06-1.14,.03-1.69,.27-1.56,.31-3.12,.25-4.7-.04-1.01,.11-2.01,.24-3,.47-3.38,1.92-6.35,3.72-9.19,1.72-2.72,3.81-5.15,5.92-7.57,.41-.47,.89-.89,1.37-1.3,1.86-1.6,3.73-3.19,5.34-5.06,.33-.38,.69-.75,1.1-1.03,.7-.46,1.23-1.06,1.76-1.69,.61-.72,1.17-1.49,2.05-1.92l2.01-2.22c.11-.55,.55-.82,.95-1.11,.71-.52,1.47-.99,2.11-1.59,1.06-.99,2.3-1.74,3.43-2.63,.24-.19,.54-.31,.82-.45,.22-.11,.52-.15,.67-.32,.5-.58,1.09-.8,1.84-.64,.16,.03,.4-.04,.52-.16,.77-.76,1.87-1.03,2.66-1.77,.69-.29,1.4-.55,2.07-.88,1.68-.82,3.45-1.08,5.3-1.05,.94,.01,1.89-.06,2.83-.05,1.19,.02,2.39,.06,3.58,.15,.56,.04,1.11,.2,1.65,.35,.78,.22,1.56,.46,2.33,.73,.89,.31,1.74,.7,2.54,1.21,.53,.33,1.11,.57,1.66,.87,.55,.3,1.08,.64,1.62,.95,.76,.44,1.56,.83,2.15,1.5,.43,.49,1,.78,1.53,1.08,.82,.47,1.64,.92,2.44,1.42,.42,.27,.86,.52,1.37,.6,.52,.08,.93,.39,1.3,.72,.71,.62,1.4,1.26,2.1,1.89,.05,.04,.08,.1,.13,.13,1.27,.95,2.21,2.22,3.23,3.41,.98,1.14,1.96,2.29,2.77,3.57,.33,.53,.75,1.01,1.15,1.49,.33,.39,.64,.76,.7,1.3,.02,.16,.15,.35,.29,.46,.42,.32,.59,.75,.75,1.25,.24,.77,.51,1.55,1.02,2.22,.32,.41,.46,.89,.53,1.4,.17,1.24,.6,2.44,.52,3.71,.43,.78,.17,1.6,.17,2.41,0,.44,.03,.88,.09,1.31,.02,.16,.15,.4,.29,.44,.79,.24,.9,1.01,1.25,1.58,.18,.3,.12,.73,.26,1.08,.13,.34,.44,.61,.49,1.01,.04,.31,.22,.62,.19,.92-.11,.97,.32,1.84,.46,2.77,.13,.87,.35,1.72,.56,2.57,.17,.67,.33,1.34,.31,2.04,0,.32,.09,.61,.24,.9,.32,.62,.49,1.29,.53,1.98,.02,.46,.12,.86,.38,1.24,.07,.1,.15,.22,.15,.34,.03,1.44,.56,2.82,.5,4.27-.03,.81,.11,1.62,0,2.44-.11,.89-.02,1.72,.48,2.53,.4,.65,.36,1.45,.23,2.21-.22,1.24-.49,2.47-.88,3.66-.18,.55-.31,1.09-.37,1.65-.1,.81-.2,1.63-.24,2.44-.07,1.71-.51,3.36-.9,5.01-.16,.67-.58,1.19-1.2,1.34-.96,.23-1.52,.87-1.97,1.63-.35,.6-.86,.9-1.48,1.07-.42,.12-.85,.21-1.26,.31Z"/><g><path class="g" d="M432.66,130.8c-.1-.36-.15-.77-.33-1.11-.25-.47-.17-.91-.07-1.38,.13-.69,.49-1.15,1.2-1.29,.19-.04,.39-.1,.54-.21,.28-.2,.58-.23,.9-.18,.79,.1,1.57,.19,2.35,.31,.72,.12,1.08,.59,1.08,1.32,0,.53-.13,1.01-.54,1.39-.38,.35-.7,.75-1.08,1.11-.58,.54-1.28,.8-2.07,.71-.7-.08-1.44-.08-2-.66Z"/><path class="g" d="M437.94,156.97c-1.31-.13-2.43-1.07-2.61-2.11-.04-.23-.08-.49-.02-.71,.23-.88,.39-1.79,.78-2.62,.19-.4,.56-.57,.99-.42,.22,.08,.45,.18,.64,.31,.74,.54,1.5,1.06,2.19,1.65,1.19,1.03,1.01,2.84-.36,3.63-.52,.3-1.15,.27-1.6,.27Z"/><path class="g" d="M420.04,173.14c.57-.34,1.1-.38,1.64-.11,.14,.07,.29,.14,.44,.17,1.45,.3,2.33,1.25,2.95,2.52,.17,.34,.19,.68,.05,1.03-.27,.65-.76,1.1-1.33,1.47-.33,.21-.7,.14-1.04,.03-1.1-.36-2.11-.86-2.92-1.75-.39-.43-.55-.85-.43-1.4,.05-.23,.12-.46,.2-.69,.14-.41,.29-.82,.45-1.28Z"/><path class="g" d="M414.59,157.89c-.04,.09-.07,.31-.19,.44-.58,.65-1.21,1.25-2.14,1.34-.63,.06-1.17-.21-1.56-.68-.4-.49-.75-1.03-1.08-1.57-.26-.41-.38-.85-.17-1.36,.22-.55,.11-1.17,.38-1.73,.35-.75,.61-.91,1.33-.53,.45,.24,.99,.27,1.36,.67,.49,.52,1,1.02,1.49,1.54,.46,.49,.62,1.1,.59,1.86Z"/><path class="g" d="M440.22,191.83c.14-.35,.33-1,.64-1.58,.33-.59,.73-.66,1.41-.43,.99,.34,1.82,.92,2.56,1.66,.65,.66,.72,1.48,.6,2.32-.1,.72-1.17,1.47-1.88,1.36-.59-.09-1.17-.22-1.74-.4-.99-.33-1.77-1.61-1.61-2.93Z"/><path class="g" d="M427.52,131.77c.73,.26,1.41,.48,2.07,.74,.94,.37,1.68,1.03,2.37,1.74,.53,.54,.46,1.27-.1,1.79-.2,.19-.43,.4-.68,.46-1.43,.36-2.82,.32-4.07-.62-.47-.35-.68-.86-.88-1.38-.03-.07-.05-.17-.02-.23,.34-.71,.29-1.56,.85-2.18,.1-.11,.25-.18,.46-.32Z"/><path class="g" d="M415.06,185.58c.22-.77,.23-1.49,1-1.8,.1-.04,.16-.17,.24-.26,1.01-.97,2.31-.83,3.1,.33,.07,.1,.14,.19,.2,.3,.8,1.32,.77,1.78-.16,3-.12,.16-.24,.31-.37,.47-.55,.68-1.31,.88-2.1,.56-.4-.16-.82-.28-1.21-.46-.16-.08-.36-.24-.4-.4-.14-.61-.22-1.24-.31-1.73Z"/><path class="g" d="M420.68,149.28c0-.38-.01-.73-.02-1.09-.01-.46,.15-.86,.39-1.23,.49-.74,.92-.86,1.71-.47,1.19,.59,2.24,1.31,2.87,2.56,.54,1.08,.23,2.14-.8,2.68-.63,.33-1.19,.32-1.79-.05-.72-.44-1.38-.93-1.77-1.71-.12-.24-.34-.42-.57-.7Z"/><path class="g" d="M418.8,152.35c.6,.51,1.21,1.01,1.8,1.52,.87,.76,1.15,1.78,1.16,2.87,0,.75-.38,1.27-1.08,1.55-.22,.09-.44,.17-.67,.24-.32,.09-.65,.07-.91-.12-.54-.4-1.12-.77-1.41-1.41-.05-.11-.09-.23-.17-.31-.71-.67-.56-1.41-.18-2.17,.23-.46,.41-.94,.62-1.42,.17-.38,.41-.67,.85-.75Z"/><path class="g" d="M435.03,134.82c.11-.35,.3-.99,.52-1.62,.05-.13,.22-.3,.34-.3,.58,0,1.14-.36,1.73-.02,.3,.17,.69,.18,.99,.35,.55,.3,.85,.84,1,1.42,.13,.49,.19,1.02,.16,1.52-.02,.32-.19,.73-.44,.93-1.39,1.15-2.81,1.16-4.06-.28-.33-.38-.37-.78-.25-2.01Z"/><path class="g" d="M429.06,146.2c.74,.27,1.22,.76,1.71,1.2,.47,.42,.89,.9,1.27,1.41,.45,.59,.57,1.3,.51,2.03-.03,.31-.14,.62-.21,.96-.31,.18-.63,.33-.92,.54-.49,.34-.96,.29-1.45,.02-.93-.53-1.64-1.31-1.92-2.33-.28-1.01-.07-2.04,.39-2.99,.13-.27,.37-.5,.62-.82Z"/><path class="g" d="M428.36,176.59c1.46-.72,1.57-.7,2.78,.31,.87,.73,1.24,1.63,1.03,2.74-.04,.23-.12,.51-.28,.64-.54,.46-1.09,.95-1.71,1.27-.81,.42-1.93-.07-2.29-.91-.38-.91-.47-1.84-.05-2.77,.18-.4,.32-.81,.51-1.28Z"/><path class="g" d="M414.08,174.47c.24,.15,.41,.24,.56,.35,.48,.35,.93,.75,1.45,1.04,.61,.35,.89,.89,1.02,1.53,.07,.35,.1,.71,.09,1.06,0,.22-.09,.48-.22,.66-.32,.46-.67,.88-1.02,1.31-.17,.21-.41,.27-.65,.2-1.28-.36-2.3-.64-2.45-2.32-.01-.12-.05-.23-.09-.35-.31-.97,.04-1.79,.57-2.57,.2-.29,.44-.55,.74-.93Z"/><path class="g" d="M451.27,190.05c-.06,.27-.1,.55-.17,.81-.24,.91-.91,1.35-1.78,1.53-.11,.02-.24,.01-.35,0-1.06-.14-2.07-1.26-2.11-2.37-.03-.83-.04-1.66-.01-2.49,.02-.54,.36-.79,.89-.67,.89,.21,1.74,.47,2.53,.98,.83,.54,1.2,1.22,1.01,2.2Z"/><path class="g" d="M452.43,148.33c-.11,1.08-.61,1.68-1.38,2-1.51,.64-2.58-.09-3.33-1.43-.53-.94-.3-1.94,.19-2.85,.26-.48,.89-.69,1.44-.63,1.26,.13,2.07,.94,2.77,1.86,.24,.32,.25,.81,.31,1.04Z"/><path class="g" d="M421.45,162.44c-.24,.87-.65,1.42-1.25,1.87-.6,.44-1.22,.59-1.88,.17-.64-.4-1.32-.77-1.86-1.28-1-.95-.87-1.96-.08-2.86,.43-.48,1.14-.81,1.84-.56,1.38,.49,2.44,1.42,3.23,2.66Z"/><path class="g" d="M445.09,150.49c.85,.31,1.69,.53,2.28,1.26,.81,1,.85,1.86-.07,2.72-.42,.4-.92,.74-1.51,.93-.96,.3-2.21-.21-2.54-1.16-.2-.59-.26-1.23-.35-1.85-.05-.37,.08-.74,.37-.97,.43-.34,.91-.62,1.39-.9,.12-.07,.31-.02,.43-.03Z"/><path class="g" d="M426.93,185.68c-.13,.02-.25,.03-.36,.05-.86,.14-1.63-.01-2.36-.53-.85-.59-1.46-1.36-1.8-2.31-.24-.66,0-1.27,.48-1.75,.3-.31,.69-.53,1.07-.81,.65,.35,1.32,.63,1.89,1.04,.55,.39,.97,.94,1.27,1.56,.16,.32,.32,.63,.51,.93,.24,.36,.18,.66-.07,.98-.19,.24-.37,.5-.62,.85Z"/><path class="g" d="M443.76,175.58c1.42,.18,2.29,.85,2.77,2.01,.49,1.19,.31,2.34-.39,3.4-.09,.14-.31,.22-.47,.31-.14,.07-.32,.07-.43,.16-.55,.45-1.04,.24-1.5-.12-.61-.49-.99-1.14-1.01-1.95-.04-1.35,.5-2.53,1.04-3.8Z"/><path class="g" d="M449.59,130.08c.16,.05,.23,.08,.3,.09,.99,.16,1.89,.53,2.69,1.13,.15,.11,.36,.19,.45,.34,.6,.98,.4,2.24-.4,3.06-.68,.7-1.16,.82-2.15,.34-1.63-.77-2.17-1.86-1.83-3.7,.1-.52,.46-.91,.93-1.26Z"/><path class="g" d="M440.41,146.09c-.08,.43-.16,.88-.5,1.27-.53,.59-1.03,.81-1.88,.55-1.13-.34-1.78-1.16-2.46-1.98-.11-.13-.1-.37-.09-.56,.03-.58,.33-1.06,.61-1.54,.2-.34,.55-.49,.89-.54,.79-.12,1.55-.08,2.3,.36,.97,.57,1.27,1.36,1.13,2.45Z"/><path class="g" d="M435.59,172.01c.05-.28,.08-.6,.18-.89,.13-.37,.29-.74,.51-1.06,.46-.7,1.07-.79,1.72-.33,.75,.52,1.51,1,2.15,1.68,.68,.73,.6,1.51,.3,2.33-.04,.12-.22,.2-.35,.27-.1,.05-.29,0-.34,.06-.56,.74-1.33,.34-1.98,.31-.52-.03-1.02-.37-1.29-.94-.22-.46-.54-.87-.89-1.42Z"/><path class="g" d="M434.57,176.19c.24-.01,.4,0,.55-.04,1.28-.35,2.24,.28,3.05,1.12,.72,.75,1,1.94,0,3-.54,.58-1.33,.67-2.1,.48-.85-.22-1.45-.8-1.92-1.51-.25-.37-.27-.83-.15-1.27,.16-.57,.36-1.13,.56-1.79Z"/><path class="g" d="M448.85,138.66l1.24-.63c1.08,.34,2.28,1.03,3.1,2.29,.31,.48,.33,.94,.05,1.46-.69,1.28-1.05,1.54-2.72,1.11-.63-.16-1.12-.59-1.52-1.1-.25-.32-.4-.67-.35-1.11,.08-.63,.13-1.26,.21-2.03Z"/><path class="g" d="M436.13,189.18c-.89-.17-1.67-.5-1.81-1.44-.05-.35-.21-.69-.25-1.04-.04-.31-.02-.64,.04-.94,.1-.42,.25-.83,.41-1.24,.22-.59,.75-.93,1.32-.68,1.19,.51,2.23,1.2,2.54,2.6,.12,.55-.17,1-.33,1.47-.29,.84-1.06,1.32-1.93,1.26Z"/><path class="g" d="M403.34,155.68c-.43-1.48-.13-2.75,.67-4l1.59,.16c.64,.61,1.23,1.45,1.61,2.42,.37,.97-.02,2.02-.88,2.6-.36,.24-.71,.49-1.09,.75-.88-.49-1.14-1.56-1.9-1.93Z"/><path class="g" d="M428.4,188.52c.04-.19,.04-.33,.1-.42,.24-.38,.04-.86,.35-1.23,.33-.4,.84-.12,1.21-.39,.28-.21,.63-.14,.91,.02,.73,.43,1.71,1.29,1.84,2.18,.02,.16,.03,.32,0,.47-.11,.87-.59,1.55-1.18,2.15-.26,.27-.61,.35-.99,.27-.68-.14-1.3-.47-1.74-.97-.52-.59-.53-1.38-.5-2.07Z"/><path class="g" d="M411.23,189.65c-.3-.03-.54-.05-.77-.08-1.09-.15-1.71-.94-1.54-1.99,.18-1.08,.75-1.99,1.32-2.9,.21-.34,.61-.33,.95-.44,.25-.08,.47-.03,.64,.18,.05,.06,.11,.13,.18,.14,.87,.1,1.03,.74,1.12,1.45,.08,.69-.06,1.35-.26,1.99-.05,.18-.2,.34-.34,.47-.4,.38-.82,.75-1.3,1.18Z"/><path class="g" d="M409.74,149.8c.14-1.32,.59-2.35,1.28-3.25,.97-.13,1.73,.2,2.4,.78,.12,.1,.25,.22,.39,.26,.4,.13,.76,.32,.87,.73,.13,.49,.22,1,.28,1.5,.02,.17-.09,.41-.23,.53-.64,.57-1.37,1.02-2.25,.69-.91-.34-1.79-.8-2.75-1.25Z"/><path class="g" d="M422.44,192.58c-.31-.39-.6-.77-.89-1.14-.48-.61-.62-1.26-.28-2l.59-.04c.14-.24,.21-.57,.41-.69,.33-.2,.74-.28,1.15-.17,.76,.21,1.54,.34,2.13,.96,.7,.75,.81,1.51,.26,2.36-.7,1.08-1.34,1.33-2.6,1-.27-.07-.52-.19-.75-.28Z"/><path class="g" d="M441.02,129.37c-.09-.29-.17-.51-.23-.74-.11-.4-.09-.76,.25-1.08,.22-.21,.37-.51,.53-.77,.21-.33,.54-.51,.9-.5,.95,.02,1.9,.13,2.69,.76,.49,.39,.77,.91,.89,1.5,.04,.21,0,.49-.11,.68-.51,1-1.46,1.43-2.59,1.19-.27-.06-.55-.12-.8-.23-.53-.26-1.05-.55-1.53-.81Z"/><path class="g" d="M441.79,169.35c.53-.89,1.07-1.8,1.62-2.71,.05-.09,.18-.13,.33-.24,.96,.63,1.9,1.25,2.11,2.52,.04,.23,.16,.45,.23,.67,.29,.9,.13,1.49-.53,2.01-.74,.58-1.35,.6-2.18,.07-.76-.49-1.07-.94-1.6-2.32Z"/><path class="g" d="M447.8,173.94c.16-.56,.3-1.13,.5-1.69,.12-.36,.5-.54,.88-.42,1.48,.49,2.67,1.36,3.36,2.8,.23,.48,0,.94-.34,1.3-1.03,1.03-2.19,1.09-3.29,.16-.41-.35-.71-.85-.99-1.32-.13-.21-.08-.53-.11-.83Z"/><path class="g" d="M443.15,140.55c.61,.13,1.19,.24,1.76,.38,.31,.08,.62,.21,.76,.53,.35,.83,.83,1.65,.52,2.61-.07,.22-.12,.46-.26,.63-.82,.96-1.73,1.11-2.75,.48-.99-.61-1.5-1.64-1.02-2.75,.22-.51,.44-1.03,.67-1.53,.06-.13,.2-.23,.31-.35Z"/><path class="g" d="M431.83,160c-1.48-.21-2.39-.95-2.85-2.2-.43-1.15,.62-2.43,1.82-2.19,.81,.16,1.6,.46,2.2,1.1,.16,.17,.31,.36,.48,.52,.71,.71,.67,1.42-.08,2.12-.49,.46-1.01,.76-1.56,.66Z"/><path class="g" d="M416.48,166.81c.45,.08,.79,.16,1.14,.18,.63,.04,1.13,.27,1.58,.72,.53,.54,.69,1.15,.45,1.85-.31,.92-.99,1.49-1.85,1.87-.13,.06-.33,.06-.46,0-.54-.23-1.08-.48-1.61-.75-.48-.24-.64-.68-.62-1.19,.03-.69,.26-1.32,.68-1.87,.22-.28,.46-.54,.69-.81Z"/><path class="g" d="M440.91,181.32c.41,.03,.88,.03,1.35,.11,.77,.13,1.23,.69,1.63,1.3,.19,.3,.33,.63,.5,.95,.32,.61,.23,1.27-.23,1.75-.62,.63-1.77,.76-2.51,.25-.46-.31-.89-.66-1.32-1.02-.26-.21-.41-.52-.35-.85,.14-.86,.2-1.75,.95-2.49Z"/><path class="g" d="M447.22,134.92l-.12,1.18c-.22,.23-.44,.46-.65,.69-.32,.35-.67,.51-1.16,.38-.26-.07-.55-.02-.82-.02-.32,0-.64,.03-.95-.02-.96-.16-1.39-.78-1.32-1.76,.07-1.11,.59-1.86,1.66-2.2,.32-.1,.63-.11,.92,.06,.51,.3,1.03,.58,1.52,.91,.32,.22,.6,.51,.91,.78Z"/><path class="g" d="M432.4,163.85c.68,.13,1.15,.51,1.57,.92,.25,.24,.43,.58,.56,.9,.39,.92,.23,1.43-.6,2.05-.51,.38-1.03,.74-1.66,.88-.43,.09-.79,0-1.07-.33-.21-.24-.39-.5-.59-.74-.94-1.09,.01-3.26,1.16-3.56,.23-.06,.46-.08,.63-.11Z"/><path class="g" d="M425.19,157.66c.61,.1,1.38,.39,2,.98,.51,.48,.82,1.07,.78,1.79-.03,.47,0,.95-.5,1.25-.59,.36-1.16,.64-1.88,.36-.81-.31-1.42-.86-1.92-1.53-.15-.2-.22-.51-.22-.77,0-.39,.07-.79,.15-1.17,.18-.8,.53-1.02,1.59-.92Z"/><path class="g" d="M448.67,184.34c.06-.57,.12-1.16,.17-1.75,.05-.62,.32-1.04,.98-1.14,.19-.03,.38-.11,.56-.19,.7-.31,1.31-.08,1.88,.34,.16,.12,.29,.27,.43,.41,.27,.28,.65,.51,.64,.95-.02,.57-.24,1.08-.66,1.48-.2,.19-.43,.35-.62,.54-.79,.77-1.56,.72-2.65,0-.26-.17-.46-.41-.71-.64Z"/><path class="g" d="M402.6,163.93c-.83-1.12-.65-2.18,0-3.26,.35-.59,.9-.88,1.48-1.15,.31-.14,.67-.07,.89,.17,.73,.81,1.33,1.7,1.19,2.87-.17,1.38-1.68,2.21-2.95,1.67-.22-.09-.43-.21-.6-.29Z"/><path class="g" d="M436.73,165.03c-.47-1.48-.02-2.73,.75-3.99,.37,.21,.69,.43,1.04,.59,.32,.15,.67,.22,1.01,.35,.15,.05,.29,.13,.42,.22,.87,.57,1.17,1.67,.7,2.6-.08,.17-.25,.3-.4,.42-.18,.15-.42,.23-.59,.39-.6,.55-1.25,.41-1.87,.12-.39-.18-.72-.47-1.05-.69Z"/><path class="g" d="M430.1,138.94c.95,.05,1.64,.57,2.13,1.33,.76,1.21-.16,3.01-1.58,3.16-.86,.09-2.27-.87-2.47-1.72-.05-.22-.03-.48,.01-.7,.08-.39,.25-.76,.3-1.15,.1-.81,.58-.88,1.14-.95,.15-.02,.32,0,.47,.02Z"/><path class="g" d="M411.64,173.08c-.5-.23-.9-.42-1.3-.59-.32-.14-.5-.35-.56-.71-.05-.35-.17-.69-.22-1.05-.11-.8,.05-1.5,.74-2.01,.16-.11,.27-.28,.41-.43,.51-.54,.83-.57,1.42-.08,.24,.2,.43,.49,.69,.66,1.1,.73,.82,2.38,.11,3.33-.29,.39-.83,.58-1.29,.88Z"/><path class="g" d="M411.22,180.32c.01,.37-.25,.6-.45,.83-.81,.97-2.34,.98-3.1-.02-.28-.37-.48-.83-.61-1.28-.16-.58,.22-1.07,.48-1.54,.19-.34,.44-.66,.72-.94,.15-.15,.42-.31,.61-.28,.71,.1,1.42,.31,1.84,.95,.21,.32,.29,.73,.38,1.11,.08,.38,.09,.78,.13,1.17Z"/><path class="g" d="M448.23,166.51c.04-.93,.71-1.47,1.31-2.04,.08-.08,.33-.08,.45-.01,1,.51,1.87,1.19,2.55,2.09,.19,.25,.2,.51,.13,.79-.24,.97-.94,1.47-1.84,1.65-1.6,.33-2.78-.82-2.6-2.48Z"/><path class="g" d="M403.55,183.19c-2.07-.33-1.64-.27-2.41-1.8-.04-.07-.05-.15-.12-.35,.18-.45,.38-1,.61-1.55,.14-.33,.31-.64,.46-.96,.22-.47,.63-.62,1.07-.4,.14,.07,.27,.16,.39,.27,.35,.33,.68,.66,1.02,1,.66,.67,.78,1.44,.37,2.29-.3,.63-.8,1.08-1.39,1.49Z"/><path class="g" d="M423.33,166.68c.15-.87,.37-1.45,.82-1.93,.31-.34,.65-.42,1.06-.21,1.08,.54,1.81,1.42,2.22,2.52,.29,.76-.53,2-1.32,2.23-.68,.2-1.26,.05-1.74-.42-.67-.66-1.14-1.41-1.04-2.18Z"/><path class="g" d="M430.06,174.73c-.72-.4-1.42-.79-2.11-1.16-.51-.27-.62-.69-.47-1.21,.07-.27,.16-.53,.25-.8,.31-.96,.54-1.14,1.51-1.19,.12,0,.25-.01,.35,.04,.91,.48,1.79,1.02,2.34,1.94,.49,.82,.06,1.79-.95,2.17-.26,.1-.54,.12-.9,.21Z"/><path class="g" d="M450.95,160.65c-.49,.05-.91-.17-1.35-.38-.41-.21-.61-.55-.57-.96,.05-.46,.16-.94,.35-1.36,.2-.44,.55-.71,1.1-.74,.36-.02,.62-.36,1.07-.4,.71-.05,1.23,.22,1.74,.6,.5,.37,.61,1.31,.19,1.85-.34,.43-.77,.79-1.17,1.17-.39,.36-.88,.3-1.36,.23Z"/><path class="g" d="M444.72,163.17c-.66,.06-1.07-.43-1.28-.97-.22-.56-.46-1.18-.15-1.83,.1-.21,.12-.45,.17-.68,.13-.58,.52-.89,1.08-.84,.23,.02,.49,.06,.68,.18,.61,.42,1.23,.85,1.77,1.35,.46,.43,.43,1.03,.16,1.54-.4,.76-1.39,1.45-2.42,1.24Z"/><path class="g" d="M404.64,175.68c-1.58-.08-1.95-1.15-2.18-2.4,.08-.26,.2-.55,.27-.86,.21-.91,.72-1.49,1.71-1.6,.16,.07,.34,.15,.52,.23,1.34,.58,1.5,2.51,.84,3.63-.06,.1-.16,.17-.24,.25-.3,.25-.6,.5-.91,.75Z"/><path class="g" d="M424.45,143.9c-.11,.09-.17,.14-.24,.18-1.19,.83-1.6,.81-2.53-.25-.55-.62-1.13-1.23-1.37-2.06-.08-.26-.13-.54-.11-.81,.02-.17,.16-.42,.31-.47,.4-.14,.83-.24,1.25-.26,.45-.02,.84,.21,1.18,.5,.3,.26,.56,.55,.84,.83,.71,.72,.82,1.09,.68,2.33Z"/><path class="g" d="M411.54,166.06c-.4-.38-.64-.73-.98-.9-.71-.36-.85-1.01-.96-1.66-.08-.46,0-.94,0-1.42,0-.89,1.13-1.44,1.83-.88,.55,.44,.98,1.02,1.42,1.57,.21,.26,.24,1.14,.14,1.47-.24,.79-.82,1.28-1.46,1.82Z"/><path class="g" d="M402.12,169.09c-.05,.5-.79,1.45-1.26,1.57-.58,.15-1.69-.24-2.04-.72-.27-.37-.38-.8-.23-1.24,.2-.56,.41-1.12,.7-1.64,.55-1.01,1.62-1.07,2.33-.17,.51,.64,.54,1.39,.51,2.2Z"/><path class="g" d="M449.35,124.1c2.4,.51,3.12,1.16,3.33,2.99-.2,.26-.42,.53-.64,.81-.47,.58-1.03,.75-1.67,.39-.92-.52-1.74-1.27-1.53-2.68,.08-.51,.15-1.01,.51-1.51Z"/><path class="g" d="M404.27,168.16c-.03-.69,1.01-1.84,1.86-2.01,.36-.07,.82,.11,.98,.52,.28,.73,.54,1.49,.28,2.3-.14,.43-.35,.79-.77,1.02-.17,.09-.3,.25-.45,.38-.58,.5-1.42,.27-1.58-.46-.13-.58-.21-1.17-.32-1.75Z"/><path class="g" d="M405.28,188.77c-.78-.05-1.14-.84-1.86-.74-.23-.64-.24-1.26-.13-1.9,.09-.48,.27-.9,.57-1.28,.43-.54,1.03-.65,1.53-.2,.63,.58,1.1,1.24,1,2.17-.04,.32-.08,.61-.31,.87-.3,.35-.55,.74-.8,1.08Z"/></g></g><g><path class="f" d="M122.21,165.58c-.35,.51-.61,.91-.89,1.29-1.98,2.67-4.07,5.26-5.93,8.01-1.13,1.68-1.57,3.67-1.52,5.75,.04,1.85-.1,3.71-.15,5.56,0,.15-.05,.31-.01,.45,.38,1.39-.06,2.8,.07,4.19,.1,.96,.38,1.89,.53,2.85,.34,2.17,1.02,4.21,2.29,6,.85,1.2,1.7,2.42,3.16,3.04,.45,.19,.81,.64,1.18,1,.68,.66,1.44,1.21,2.41,1.3,1.13,.1,2.18,.45,3.16,.99,1.28,.7,2.75,.64,4.09,1.11,.74,.26,1.52,.34,2.17,.84,.61,.47,1.38,.36,2.06,.27,1.55-.22,3.09-.52,4.61-.88,.51-.12,.95-.52,1.42-.8,.25-.15,.48-.4,.74-.45,1.33-.28,2.48-.96,3.67-1.58,1.12-.59,2.28-1.1,3.21-2,.3-.28,.61-.55,.93-.81,.53-.45,1.07-.89,1.62-1.32,1.14-.91,2.17-1.93,3.06-3.08,2.12-2.72,3.23-5.88,3.82-9.21,.47-2.63,.25-5.29-.26-7.92-.64-3.3-1.66-6.45-3.58-9.24-2.37-3.45-5.6-5.75-9.56-7.05-3.44-1.13-6.98-1.28-10.53-.99-1.82,.15-3.61,.61-5.41,.92-.73,.13-1.5,.14-2.21,.35-.99,.3-2.02,.62-2.89,1.16-.49,.3-.87,.31-1.28,.25Z"/><path class="e" d="M136.45,173.22l-3.13,3.75c-.36-.1-.85-.26-1.35-.39-1.93-.48-3.69-.22-5.22,1.16-.49,.44-.68,.95-.67,1.57,0,.56-.04,1.12,0,1.67,.04,.58,.16,1.15,.26,1.82-.61,.81-1.31,1.73-2.01,2.64-.46,.6-.65,1.28-.49,2.01,.17,.76,.34,1.54,.65,2.25,.43,.99,1.85,1.49,3.14,1.19,.03,.33,.09,.65,.08,.97-.04,1.65,.53,2.97,1.73,4.17,1.05,1.05,2.12,1.41,3.52,1.14,.43-.08,.91-.09,1.33,0,1.92,.42,3.15-.61,4.17-1.98,.44-.59,.7-1.32,1-2,.26-.59,.54-1.03,1.32-.91,.46,.07,.96,.01,1.43-.03,2.51-.26,3.79-1.44,4.25-3.56,.46-2.11-.14-5.5-1.39-7.19-.29-.39-.61-.78-1-1.04-.63-.42-.76-.92-.58-1.63,.26-1.07,.24-2.16-.21-3.19-.74-1.69-2.22-2.22-3.89-2.4-.4-.04-.82,.07-1.23,.07-.53,0-1.06-.06-1.71-.09Z"/></g><g><path class="n" d="M419.61,92.28c-.12,.07-.22,.13-.32,.2-.19,.12-.33,.28-.38,.51-.05,.21-.17,.41-.21,.62-.09,.48-.39,.77-.77,1.03-.08,.05-.16,.11-.25,.16-.3,.15-.51,.38-.54,.72-.04,.34-.22,.58-.49,.78-.22,.16-.42,.33-.65,.48-.17,.11-.29,.23-.4,.4-.18,.28-.42,.51-.82,.51-.25,0-.52,.13-.7,.35-.2,.24-.46,.27-.73,.16-.16-.06-.33-.12-.47-.21-.72-.48-1.5-.64-2.36-.6-.78,.04-1.56,.01-2.33-.05-.43-.03-.86-.18-1.28-.27-.38-.08-.76-.21-1.14-.24-.97-.09-1.94-.19-2.87-.49-1.04-.33-2.12-.57-3.12-1.06-.11-.05-.24-.08-.32-.17-.32-.36-.78-.49-1.18-.71-.42-.24-.84-.5-1.25-.76-.19-.11-.37-.23-.56-.34-.04-.03-.09-.04-.13-.07-.76-.69-1.74-1.07-2.5-1.76-.58-.52-1.18-1.03-1.85-1.44-.2-.13-.4-.3-.54-.49-.15-.21-.32-.33-.55-.44-.24-.11-.46-.29-.62-.5-.17-.24-.39-.35-.64-.46-.31-.14-.63-.26-.92-.44-.47-.3-.99-.52-1.45-.84-.77-.53-1.46-1.15-2.13-1.78-.12-.12-.2-.27-.4-.28-.09,0-.18-.07-.25-.14-.56-.5-1.14-.97-1.58-1.59-.21-.29-.49-.54-.74-.81-.21-.23-.45-.45-.64-.71-.41-.55-.89-1.02-1.35-1.53-.15-.16-.3-.33-.38-.53-.17-.43-.47-.74-.79-1.04-.09-.08-.18-.17-.28-.24-.52-.4-.85-.94-1.1-1.52-.17-.42-.43-.77-.71-1.1-.2-.25-.42-.47-.45-.82-.02-.15-.11-.35-.24-.43-.25-.17-.34-.42-.43-.66-.29-.86-.61-1.69-1.19-2.41-.25-.32-.35-.74-.7-1.02-.12-.1-.14-.35-.17-.54-.03-.2-.1-.38-.25-.51-.26-.21-.36-.51-.44-.82-.09-.32-.18-.65-.33-.96-.11-.22-.12-.52-.07-.77,.04-.22-.02-.36-.11-.54-.48-.91-1.03-1.79-1.38-2.75-.43-1.17-1.05-2.26-1.42-3.45-.08-.28-.26-.52-.39-.78-.05-.11-.14-.21-.16-.33-.08-.41-.32-.76-.41-1.15-.18-.73-.53-1.37-.8-2.05-.36-.91-.77-1.8-1.15-2.7-.11-.26-.09-.58-.34-.78-.05-.04-.08-.14-.07-.2,.06-.42-.15-.76-.29-1.12-.22-.57-.48-1.13-.68-1.7-.18-.53-.33-1.06-.54-1.57-.09-.21-.14-.53,.15-.73,.05-.03,.05-.18,.02-.26-.05-.13-.11-.29-.22-.37-.29-.21-.39-.48-.36-.83,.02-.38,.11-.69,.43-.97,.36-.32,.63-.73,.94-1.1,.09-.11,.19-.22,.29-.32,.15-.16,.28-.39,.46-.44,.21-.06,.42-.08,.57-.26,.03-.03,.09-.06,.13-.05,.64,.07,1.28-.28,1.93-.02,.2,.08,.42-.02,.61-.14,.99-.63,1.98-1.25,2.97-1.87,.14-.09,.29-.22,.45-.24,.34-.04,.57-.28,.77-.47,1.18-1.13,2.41-2.2,3.7-3.21,1.08-.85,2.24-1.58,3.59-1.92,.34-.24,.77-.24,1.13-.44,.34-.19,.71-.32,1.08-.46,1.27-.51,2.48-1.14,3.71-1.73,.11-.05,.23-.09,.34-.13,.43-.17,.87-.32,1.29-.52,.39-.18,.75-.43,1.14-.63,.5-.26,1-.49,1.56-.64,.92-.24,1.81-.57,2.63-1.08,.24-.15,.55-.21,.84-.22,.43-.02,.82-.13,1.21-.26,1.74-.58,3.49-1.12,5.3-1.47,.58-.11,1.14-.27,1.72-.38,.43-.09,.87-.13,1.3-.21,.16-.03,.31-.14,.47-.14,.61-.02,1.22,.05,1.8,.21,.65,.17,1.05,.71,1.24,1.34,.09,.3,.13,.62,.36,.87,.06,.07,.08,.18,.11,.27,.13,.48,.39,.89,.65,1.3,.32,.49,.65,.98,.97,1.46,.25,.38,.55,.73,.77,1.15,.2,.38,.4,.78,.65,1.12,.3,.41,.57,.85,.88,1.26,.26,.35,.51,.71,.77,1.07,.04,.06,.09,.12,.1,.19,.15,.66,.54,1.19,.89,1.74,.14,.22,.25,.48,.31,.74,.11,.49,.33,.91,.59,1.32,.38,.6,.71,1.22,.89,1.91,.04,.13,.11,.26,.17,.39,.03,.07,.1,.12,.11,.19,.19,.77,.68,1.4,.96,2.14,.03,.09,.06,.19,.11,.27,.41,.56,.54,1.24,.83,1.86,.13,.28,.21,.59,.31,.88,.16,.46,.27,.94,.5,1.36,.17,.3,.3,.61,.41,.93,.17,.45,.31,.92,.47,1.38,.08,.23,.12,.47,.35,.62,.07,.05,.14,.15,.16,.24,.34,1.3,.83,2.55,1.01,3.89,.03,.21,.14,.41,.21,.62,.07,.21,.17,.41,.21,.62,.22,.98,.48,1.95,.61,2.94,.08,.61,.23,1.19,.35,1.78,.23,1.22,.45,2.45,.67,3.67,.04,.22,.07,.44,.08,.65,.03,.46,.07,.92,.2,1.37,.03,.11,.04,.24,.04,.36-.02,.89,.22,1.74,.36,2.6,.06,.36,.16,.72,.19,1.08,.03,.44,.1,.87,.22,1.3,.03,.12,.05,.24,.05,.36-.05,1.05,.09,2.09-.02,3.15-.07,.68-.16,1.35-.3,2.02-.05,.27-.19,.5-.45,.64-.09,.05-.17,.09-.25,.15-.21,.17-.39,.37-.37,.67,.02,.39-.17,.74-.13,1.14,.04,.35-.18,.73-.14,1.07,.06,.43-.05,.83-.08,1.23-.04,.51-.17,1.01-.28,1.51-.04,.19-.14,.37-.16,.56-.12,1.22-.59,2.31-1.2,3.36-.33,.57-.71,1.12-1.17,1.59-.28,.29-.44,.64-.59,1.01-.1,.25-.02,.47,.13,.69Z"/><path class="d" d="M410.9,92.68c.11,.31-.07,.6-.09,.9-.51,.4-1.08,.68-1.69,.9-.39,.14-.39,.18-.31,.64,.01,.07,.04,.18,.01,.2-.31,.26-.35,.78-.84,.88-.49,.1-.97,.23-1.46,.32-.23,.04-.47,.01-.68,.15-.11,.07-.28,.08-.41,.07-.99-.07-1.97-.17-2.94-.5-1-.34-1.91-.85-2.81-1.38-.31-.18-.53-.48-.9-.56-.25-.34-.65-.28-.98-.28-.49,0-.94-.13-1.38-.3-.81-.33-1.6-.71-2.42-1.03-.51-.2-1.04-.33-1.57-.48-.66-.19-1.33-.35-2-.54-.65-.19-1.24-.49-1.72-.98-.08-.08-.18-.16-.27-.22-.48-.31-.96-.61-1.43-.93-.22-.15-.44-.29-.61-.49-.32-.36-.67-.67-1.08-.91-.39-.23-.67-.56-.83-.94-.2-.49-.58-.8-.91-1.17-.33-.37-.7-.7-1.08-1.03-.21-.19-.46-.33-.68-.51-.19-.14-.42-.27-.52-.47-.16-.29-.4-.47-.64-.65-.33-.24-.67-.49-.84-.86-.29-.6-.61-1.17-1-1.71-.01-.3-.19-.47-.44-.6-.06-.03-.1-.1-.14-.16-.34-.49-.73-.92-1.15-1.34-.5-.5-.93-1.07-1.39-1.62-.17-.2-.34-.39-.56-.54-.19-.12-.34-.33-.46-.54-.55-.94-1.3-1.75-1.73-2.77-.67-.69-.99-1.62-1.61-2.35-.09-.11-.18-.23-.22-.36-.08-.22-.21-.36-.42-.45-.1-.04-.18-.15-.26-.23-.05-.05-.07-.16-.12-.17-.57-.13-.72-.65-.99-1.05-.32-.47-.55-.99-.82-1.49-.07-.13-.14-.25-.17-.39-.17-.67-.64-1.22-.73-1.92-.01-.11-.11-.21-.17-.31-.06-.1-.15-.2-.17-.31-.2-.85-.62-1.62-.67-2.52-.08-1.25-.29-2.5-.48-3.74-.09-.59-.24-1.16-.35-1.74-.05-.24-.21-.49,0-.75,.04-.05,0-.19-.05-.27-.21-.4-.42-.8-.65-1.18-.18-.3-.41-.58-.6-.89-.42-.69-.88-1.34-1.43-1.95-.16-.17-.25-.4-.39-.6-.18-.25-.05-.43,.1-.58-.22-.69-.39-1.36-.64-2-.24-.59-.56-1.15-.84-1.73-.16-.34-.33-.68-.47-1.03-.05-.12-.03-.28-.04-.42,0-.12,.04-.25,0-.34-.15-.3-.04-.53,.18-.69,.29-.21,.41-.48,.54-.8,.16-.41,.54-.7,.98-.73,.35-.03,.6-.26,.93-.31,.3-.04,.6-.14,.88-.28,.58-.28,1.17-.39,1.8-.23,.44,.12,.86,.04,1.23-.2,.71-.45,1.47-.49,2.27-.4,.16,.02,.33,.03,.5,.05,.31-.41,.41-.89,.48-1.34,.11-.69,.5-1.04,1.11-1.24,.65-.22,1.26-.57,1.95-.68,.11-.02,.22-.09,.33-.14,.51-.25,1.02-.5,1.54-.76,.2-.32,.42-.66,.64-1,.12-.19,.3-.29,.51-.38,.42-.17,.82-.36,1.24-.53,.2-.08,.42-.09,.62-.17,.46-.2,.9-.43,1.35-.65,.08-.04,.16-.11,.21-.18,.32-.45,.8-.65,1.29-.84,.51-.19,1.01-.41,1.51-.63,.17-.08,.33-.19,.49-.3,.13-.09,.16-.23,.16-.37l10.41-4c.13,.12,.29,.15,.46,.16,.26,.02,.52,.05,.77,.28l.05,.52c.13,.07,.26,.13,.38,.2,.27,.17,.3,.26,.21,.59-.03,.11-.07,.22-.11,.33,.21,.3,.4,.6,.61,.88,.23,.3,.45,.63,.74,.86,.76,.6,1.31,1.36,1.86,2.14,.11,.16,.21,.32,.33,.47,.72,.87,1.23,1.86,1.71,2.87,.05,.1,.12,.19,.19,.28,.07,.09,.16,.18,.21,.28,.53,1.17,1.05,2.34,1.59,3.51,.37,.8,.77,1.58,1.15,2.38,.08,.17,.18,.34,.24,.52,.27,.87,.75,1.64,1.15,2.45,.29,.57,.59,1.13,.79,1.75,.15,.47,.39,.9,.59,1.36,.08,.17,.17,.35,.2,.53,.06,.41,.2,.77,.39,1.14,.17,.33,.1,.73,.23,1.09,.18,.49,.31,1,.48,1.49,.14,.42,.15,.89,.43,1.26,.03,.04,.04,.09,.04,.13,.02,.56,.48,.98,.52,1.53,.43,.5,.42,1.17,.7,1.73,.27,.54,.41,1.16,.57,1.76,.25,.96,.67,1.87,.92,2.83,.12,.45,.33,.88,.18,1.38-.03,.11,.04,.3,.12,.39,.25,.29,.36,.63,.36,.98,0,.46,.16,.88,.27,1.31,.08,.32,.15,.64,.16,.97,0,.27-.02,.58,.16,.82-.15,.42,.12,.76,.2,1.14,.11,.58,.12,1.18,.21,1.76,.09,.57,.05,1.15,.27,1.72,.15,.38,.08,.84,.13,1.27,.02,.17-.34,.22-.12,.4,.17,.13,.1,.31,.17,.45,.17,.31,.17,.59,.08,.94-.1,.4,0,.85-.02,1.27,0,.25,.16,.5-.04,.74-.02,.03,.02,.12,.05,.19,.04,.11,.12,.22,.12,.32-.05,1.08,.01,2.17-.15,3.25-.09,.63-.15,1.27-.27,1.89-.1,.56-.26,1.11-.37,1.66-.09,.44-.17,.89-.21,1.34-.04,.38-.14,.74-.28,1.1-.1,.27-.19,.54-.31,.8-.25,.53-.28,1.09-.32,1.66-.01,.18,.04,.37,.07,.6-.22,.24-.46,.5-.54,.89-.03,.17-.21,.3-.32,.45-.03-.36-.09-.63-.17-.67l-.39,.21c.06,.46,.15,.53,.57,.44Z"/></g><g><path class="f" d="M197.94,33.45c1.4,.07,2.69,.13,3.97-.26,.44-.13,.97,.03,1.43-.07,1.23-.28,2.5-.52,3.67-.97,1.89-.73,3.75-1.58,5.57-2.48,.86-.42,1.65-1.01,2.39-1.62,2.95-2.43,5.2-5.43,6.35-9.06,.74-2.34,1.54-4.66,2.29-7,.5-1.58,.47-3.26,.26-4.89-.29-2.22-.57-4.45-1.49-6.53-1.05-2.37-2.41-4.58-4.1-6.53-1.4-1.62-3.32-2.64-5.2-3.65-1.52-.82-3.11-1.47-4.87-1.57-.25-.01-.48-.16-.73-.23-.28-.08-.62-.25-.86-.17-1.06,.36-2.07-.02-3.09-.12-1.07-.11-2.12-.51-3.18-.52-.86-.01-1.75,.29-2.59,.57-1.01,.35-1.97,.86-2.97,1.25-1.18,.46-2.37,.94-3.58,1.3-1.95,.57-3.46,1.77-4.73,3.27-2.26,2.66-3.7,5.78-4.63,9.12-.35,1.25-.33,2.56-1.01,3.77-.81,1.44-.33,3.12-.42,4.7-.07,1.26-.14,2.54-.35,3.78-.4,2.36-.25,4.61,.94,6.73,.8,1.43,1.46,2.96,2.67,4.12,1.15,1.1,2.34,2.17,3.47,3.3,1.62,1.63,3.75,2.53,5.52,3.94,.22,.18,.52,.3,.81,.35,1.03,.18,2.06,.33,3.09,.46,.71,.09,1.1-.33,1.36-.97Z"/><path class="e" d="M204.02,6.52l-.82-.83-1.48,1.27-.83-1.65c-1.69-.22-2.93,.6-4.03,1.63-.59,.55-.82,1.36-.83,2.15-.01,1.44-.15,2.91,.37,4.31,.14,.38-.02,.65-.29,.89-.54,.46-1.12,.88-1.62,1.38-.68,.68-1.42,1.34-1.93,2.14-.76,1.21-.41,2.42,.76,3.19,.55,.36,1.11,.71,1.66,1.08,.74,.49,1.38,1.13,2.31,1.32,.2,.04,.35,.36,.52,.54,.32,.35,.64,.71,.97,1.06,1.39,1.5,3.08,1.26,4.79,.81,1-.27,1.43-1.16,1.87-1.97,.4-.71,.73-1.48,.99-2.25,.22-.66,.62-.81,1.25-.84,1.04-.05,2.07-.16,3.1-.33,.94-.15,1.26-.54,1.43-1.46,.06-.32,.09-.67,.25-.94,.4-.7,.42-1.43,.23-2.17-.32-1.2-.73-2.35-1.63-3.27-.61-.63-.5-.63-.14-1.45,.52-1.19,.92-2.43,1.36-3.66,.03-.07,.04-.15,.04-.22,.1-2.41-.74-3.99-3.59-3.29-1.42,.35-2.79,.86-3.9,1.88-.25,.22-.51,.43-.82,.69Z"/></g><g><path class="h" d="M72.88,12.67c.19,1.48,1.16,2.45,2.15,3.4,.08,.08,.23,.11,.27,.2,.28,.57,.54,1.15,.85,1.82-.45,.47-.28,1.1-.01,1.72,.76,1.78,1.36,3.62,2.33,5.34,1.99,3.51,3.09,7.34,3.3,11.4,.11,2.1,0,4.19-.32,6.27-.46,3-.86,6.01-1.42,8.99-.28,1.51-.86,2.97-1.32,4.45-.03,.11-.09,.24-.18,.32-2.61,2.45-4.06,5.73-6.2,8.52-1.65,2.16-3.41,4.2-5.55,5.9-.03,.03-.06,.07-.09,.08-1.8,.34-2.33,1.95-3.15,3.22-2.52,3.9-5.68,7.11-9.71,9.45-3.05,1.78-6.06,3.61-9.11,5.37-.8,.46-1.68,.86-2.57,1.1-2.42,.66-4.74,1.55-7.05,2.52-2.03,.86-4.16,1.54-6.41,1.69-.93,.06-1.86,.39-2.77,.33-1.49-.1-3,.23-4.47-.24-1.71-.54-3.39-1.16-4.86-2.22-2.05-1.49-4.23-2.78-6.43-4.03-.78-.44-1.45-1.06-2.15-1.64-.51-.42-.85-1.02-1.55-1.26-.24-.08-.8-.22-.51-.77,.01-.02-.05-.12-.09-.13-1.09-.16-1.54-1.17-2.31-1.76-.73-.56-1.26-1.37-1.9-2.05-.66-.7-1.35-1.38-2.04-2.05-1.02-.99-2.08-1.93-3.06-2.96-.76-.79-1.4-1.69-2.11-2.52-.71-.84-1.47-1.65-2.16-2.51-1.14-1.43-2.15-2.97-3.38-4.31-2.54-2.75-2.95-5.99-2.47-9.49,.03-.2,.04-.41-.02-.6-.45-1.42-.22-2.84,.01-4.26,.21-1.26,.36-2.53,.67-3.76,.54-2.11,1.15-4.22,2.33-6.07,1.46-2.28,3.04-4.49,4.54-6.76,1.5-2.26,2.93-4.57,4.44-6.82C-.83,27.44,0,26.37,.85,25.31c2.66-3.36,5.68-6.38,8.92-9.18,.37-.32,.78-.61,1.16-.91,1.25-.99,2.43-2.04,3.49-3.27,2.32-2.68,5.04-4.94,8.1-6.77,1.87-1.12,3.66-2.35,5.5-3.53,1.7-1.09,3.48-1.99,5.49-2.44,2.57-.57,5.11-1.28,7.67-1.89,3.81-.92,7.6-.58,11.37,.28,1.12,.25,2.23,.6,3.28,1.05,2.21,.94,3.78,2.71,5.4,4.41,.96,1.01,1.94,2,2.95,2.96,1.13,1.08,2.25,2.18,3.44,3.17,1.39,1.15,2.85,2.22,4.3,3.28,.21,.16,.57,.12,.97,.19Z"/><g><path class="o" d="M28.1,51.04c1.31,.9,1.84,3.3,.99,4.5-.26,.36-.73,.64-1.16,.8-.5,.18-1.07,.15-1.59,.29-.47,.12-.89,.45-1.36,.51-.68,.1-1.39,.15-2.06,.03-.91-.16-1.35-.97-1.29-1.95,.05-.85,.09-1.66,.51-2.46,.63-1.2,1.36-2.14,2.87-2.09,.68,.02,1.37-.07,2.05-.02,.39,.03,.76,.27,1.05,.38Z"/><path class="o" d="M37.03,45.95c-1.81,.69-3.41,.16-4.9-.94-.51-.37-.67-.9-.66-1.51,.02-1.67,.68-2.98,2.15-3.83,.14-.08,.34-.22,.44-.17,1.23,.52,2.73,.45,3.55,1.83,.64,1.08,.55,2.1,.07,3.16-.19,.44-.39,.87-.65,1.45Z"/><path class="o" d="M47.47,35.64c-1.64-.98-1.53-2.55-1.35-3.79,.05-.35,.4-.75,.72-.94,1.14-.69,2.4-1.06,3.75-.96,1.15,.09,1.56,.74,1.34,1.91-.09,.51-.07,1.03-.1,1.55-.02,.36,0,.73-.05,1.09-.29,1.94-1.28,2.49-3.11,1.74-.41-.17-.8-.4-1.2-.6Z"/><path class="o" d="M63.12,32.82q1.12-.14,1.69-1.17c.18-.03,.38-.06,.58-.08,.24-.02,.49-.01,.79-.02,.21,.33,.37,.72,.65,.99,.25,.24,.63,.34,.9,.48-.12,.49-.22,.96-.35,1.42-.15,.5-.37,.99-.51,1.5-.21,.75-.47,.92-1.24,1.03-.5,.07-.97,.35-1.45,.52-.73,.26-1.44,.56-2.18,.74-.62,.15-1.06-.2-1.14-.82-.15-1.16-.12-2.29,.86-3.17,.48-.43,.91-.93,1.41-1.45Z"/><path class="o" d="M24.44,76.31c-1.49-1.04-1.68-2.64-1.1-4.54,.37-1.2,1.71-1.97,3.27-1.93,1.6,.04,1.94,.82,1.83,2.12-.05,.59-.34,1.16-.54,1.73-.21,.62-.43,1.24-.67,1.84-.59,1.44-1.55,1.7-2.79,.77Z"/><path class="o" d="M68.59,49.32c-.89-.02-1.63-.07-2.35-.05-1.88,.06-3.45-1.46-3.44-3.33,0-.58,.22-.92,.78-1.08,1.37-.42,2.73-.56,4.1-.02,.08,.03,.15,.07,.22,.1,1.74,.61,2.06,1.38,1.29,3.09-.2,.44-.4,.87-.6,1.3Z"/><path class="o" d="M58.06,61.03c.06,.21,.15,.51,.23,.82,.1,.39,.31,.8,.28,1.18-.05,.6-.24,1.18-.43,1.76-.24,.76-.95,.49-1.47,.62-2.27,.55-4.07-1.87-3.87-3.92,.03-.27,.31-.57,.55-.76,1.03-.8,2.13-.6,3.24-.17,.43,.17,.89,.29,1.45,.47Z"/><path class="o" d="M39.86,74.52c-.87-.71-1.21-1.63-1.41-2.61-.09-.44-.11-.9-.14-1.35-.08-1.32,.29-1.79,1.59-2.01,1.53-.26,3.36,1.06,3.36,2.58,0,.68-.48,1.36-.68,2.05-.24,.84-.91,1.23-1.6,1.52-.3,.12-.74-.11-1.12-.19Z"/></g></g><g><path class="n" d="M254.41,220.48l-.33,.92c-.59,.41-1.3,.64-2.01,.85-.81,.25-1.52,.68-2.21,1.14-.6,.4-1.24,.71-1.94,.86-.44,.1-.85,.25-1.24,.49-.64,.39-1.32,.67-2.05,.86-.86,.22-1.7,.53-2.6,.6-.23,.02-.45,.15-.67,.24-1.01,.45-2.02,.88-3.11,1.08-.22,.04-.46,.14-.64,.28-1.08,.81-2.3,1.38-3.46,2.04-.28,.16-.6,.26-.91,.36-.66,.21-1.35,.19-2.02,.29-.68,.1-1.35,.19-2.03,.05-.09-.02-.18-.04-.27-.02-.93,.2-1.89,.18-2.82,.44-1.11,.31-2.23,.64-3.42,.53-.35-.03-.72-.02-1.07,.02-.41,.05-.82,.12-1.22,.24-.83,.25-1.67,.42-2.54,.38-.56-.02-1.13-.04-1.69-.04-.66,0-1.29,.2-1.91,.4-.95,.32-1.89,.42-2.89,.3-.85-.1-1.72-.07-2.58-.05-1.22,.03-2.44-.04-3.65-.2-.59-.07-1.16-.23-1.75-.31-.44-.06-.89-.07-1.33-.07-.8,0-1.6,0-2.4-.11-1-.15-2.01-.18-2.99-.47-.33-.1-.71-.08-1.06-.09-.85-.03-1.64-.24-2.35-.73-.07-.05-.15-.1-.22-.15-.62-.49-1.33-.6-2.1-.53-.32,.03-.65,0-.98,0-.24,0-.48-.01-.71,.03-.94,.19-1.9,.13-2.85,.1-1.16-.04-2.31-.23-3.44-.51-.43-.11-.89-.13-1.33-.12-.99,.02-1.79-.38-2.44-1.09-.17-.18-.33-.37-.57-.4-.5-.06-.79-.36-1.05-.74-.04-.06-.15-.09-.26-.15l-.59,.51c-.29-.06-.56-.14-.85-.18-.32-.05-.56-.18-.65-.52-.02-.08-.11-.13-.17-.19q-.71,.18-1.65-.16c-.47-.58-.33-1.28-.34-2.03l-.72,.19c-.16-.1-.37-.21-.56-.35-.09-.07-.15-.22-.24-.25-.68-.24-.95-.86-1.36-1.36-.72-.87-.74-1.92-.74-2.95,0-.57-.05-1.12-.2-1.67-.38-1.38-.61-2.78-.51-4.23,.04-.53-.02-1.07,0-1.6,.01-.38,.05-.77,.13-1.15,.12-.55,.24-1.08,.1-1.66-.1-.42-.04-.89-.06-1.33,0-.09,0-.18-.01-.27-.32-1.46-.04-2.89,.18-4.32,.15-.97,.26-1.95,.44-2.91,.22-1.19,.56-2.36,.81-3.55,.27-1.3,.96-2.43,1.33-3.68,.12-.42,.41-.79,.63-1.18,.33-.58,.51-1.17,.52-1.85,0-.59,.15-1.18,.3-1.75,.27-1.07,.61-2.12,.88-3.19,.21-.8,.4-1.62,.54-2.43,.19-1.19,.58-2.3,1.22-3.32,.3-.47,.59-.95,.9-1.42,.26-.4,.52-.8,.83-1.16,.58-.66,.79-1.44,.82-2.29,.02-.53,.05-1.07,.11-1.6,.13-1.17,.64-2.21,1.15-3.25,.47-.93,1.07-1.77,1.77-2.55,.31-.35,.53-.79,.86-1.14,.61-.65,1.04-1.42,1.6-2.11,.3-.37,.58-.75,.94-1.06,.34-.3,.59-.65,.85-1.02,1.28-1.86,2.66-3.65,4.31-5.21,.43-.41,.86-.82,1.28-1.24,.31-.31,.62-.62,1.04-.79,.19-.44,.66-.57,.98-.86,.33-.3,.71-.54,1.08-.79,.15-.1,.33-.13,.56-.22,.15-.37,.31-.78,.49-1.19,.16-.38,.37-.61,.88-.57,.65,.06,1.31,0,1.96-.04,.53-.04,1.07-.07,1.46-.54,.07-.09,.19-.15,.31-.18,.37-.07,.72-.14,1.04-.42,.28-.24,.69-.33,1.03-.49,1.16-.53,2.33-1.03,3.58-1.33,.48-.12,.94-.3,1.4-.51,.43-.19,.88-.45,1.44-.32,.26,.06,.6-.03,.86-.16,.38-.18,.82-.15,1.18-.33,.37-.18,.75-.14,1.13-.22,.14-.03,.27-.11,.41-.16,.14-.05,.28-.14,.42-.14,.6,.01,1.14-.23,1.72-.31,.59-.08,1.17-.24,1.76-.28,.55-.03,1.09-.25,1.66-.12,.13,.03,.28-.06,.43-.09,.35-.06,.7-.13,1.06-.03,.19,.05,.41,.04,.61,.02,.36-.04,.71-.02,1.05,.1,.32,.11,.64,.12,.95-.06,.21-.12,.45-.12,.69-.09,.61,.08,1.23,.13,1.85,.17,.38,.03,.77,.07,1.15,.04,.62-.06,1.23-.2,1.86-.03,.05,.01,.12,0,.17-.03,.56-.29,1.1-.06,1.65,0,.41,.05,.75,.14,1,.47,.18,.24,.45,.29,.72,.27,.86-.06,1.7,.12,2.56,.15,.18,0,.35,.05,.52,.11,.5,.17,1,.34,1.49,.53,.55,.2,1.11,.41,1.65,.64,.13,.05,.27,.14,.36,.25,.41,.49,.98,.67,1.55,.82,.98,.26,1.97,.46,2.95,.69,.49,.12,.98,.25,1.47,.4,.42,.13,.84,.26,1.27,.35,.6,.13,1.16,.45,1.74,.67,1.56,.61,2.88,1.64,4.37,2.37,.7,.35,1.32,.79,1.88,1.32,.41,.39,.77,.82,1.15,1.24,.55,.61,1.18,1.07,1.99,1.29,.37,.1,.7,.32,1.05,.48,.62,.28,1.25,.56,1.87,.84,.27,.12,.54,.25,.8,.4,.68,.4,1.36,.81,2.04,1.22,.05,.03,.1,.07,.14,.11,.74,.63,1.53,1.22,2.22,1.91,.7,.69,1.34,1.43,1.93,2.22,.48,.64,.98,1.26,1.6,1.76,.47,.38,.78,.8,.77,1.43l.79,.32c.3,.34,.4,.84,.81,1.13,.26,.19,.47,.44,.81,.54,.17,.05,.33,.16,.45,.27,.48,.44,.99,.84,1.54,1.2,.19,.12,.34,.34,.43,.55,.34,.82,.87,1.49,1.51,2.09,.84,.78,1.43,1.75,2.02,2.7,.17,.26,.34,.48,.58,.64,.31,.21,.52,.46,.57,.86,.14,1.06,.77,1.91,1.28,2.81,.06,.1,.15,.21,.25,.25,.48,.2,.68,.67,.96,1.04,.22,.29,.27,.7,.41,1.08-.31,.34-.58,.65-.9,1,.08,.12,.17,.3,.29,.46,.25,.33,.5,.66,.78,.97,.15,.17,.37,.28,.57,.43,.12,.89-.58,1.33-1.12,1.85,.05,.27,.04,.48-.09,.75-.77,1.58-1.61,3.12-2.51,4.63-.2,.34-.37,.65-.32,1.08,.03,.27-.08,.6-.21,.85-.52,1-.97,2.04-1.69,2.93-.29,.81-.85,1.48-1.16,2.27-.71,1.81-1.63,3.5-2.88,5-.17,.2-.33,.42-.45,.65-.26,.48-.62,.83-1.07,1.15-.47,.33-.9,.77-1.2,1.3-.77,1.36-1.79,2.52-2.89,3.62-.31,.32-.61,.65-.91,.98-.25,.27-.41,.52-.37,.94,.03,.38-.16,.79-.27,1.18-.02,.08-.09,.19-.16,.2-.84,.16-1.35,.85-2.03,1.25-.82,.48-1.6,1.04-2.42,1.52-.27,.16-.62,.25-.93,.23-.37-.01-.66,.08-.86,.36-.42,.59-.99,.91-1.67,1.1-.54,.15-1.06,.35-1.62,.54Z"/><path class="d" d="M217.44,224.47c-.95,.23-1.81,.46-2.67,.64-.41,.09-.85,.12-1.27,.1-.53-.01-1.02,.03-1.51,.28-.51,.26-1.07,.43-1.59,.69-.77,.39-1.59,.36-2.36-.11-.22-.13-.42-.19-.68-.19-.64,0-1.27,.04-1.91-.09-.4-.08-.86-.02-1.27,.06-1.18,.22-2.38,.15-3.57,.17-.3,0-.61-.06-.91-.1-.91-.13-1.82-.24-2.72-.4-1.59-.29-3.23-.3-4.77-.87-.35-.13-.71-.11-1.08-.08-1.22,.12-2.44,.1-3.64-.19-.56-.13-1.15-.16-1.72-.27-.96-.19-1.91-.42-2.89-.36-.64,.04-1.11-.26-1.51-.72-.18-.21-.42-.4-.51-.64-.25-.67-.82-1.04-1.3-1.49-1.13-1.07-1.56-2.45-1.71-3.95-.02-.24,.04-.48,.08-.72,.13-.78,.16-1.57,.58-2.28,.26-.44,.1-.96,.23-1.42,.08-.26,.08-.54,.16-.8,.17-.58,.39-1.16,.54-1.75,.13-.55,.42-.96,.91-1.2,.43-.21,.65-.53,.77-.96,.26-.9,.72-1.68,1.32-2.38,.22-.26,.34-.56,.46-.88,.46-1.2,.97-2.37,1.84-3.35,.34-.39,.62-.83,.95-1.23,.66-.77,1.43-1.41,2.37-1.85,.58-.27,1.16-.54,1.74-.8,.35-.15,.63-.38,.79-.73,.3-.65,.77-1.17,1.28-1.66,.2-.19,.39-.39,.56-.61,.84-1.14,1.97-1.88,3.25-2.45,.17-.07,.33-.15,.51-.22,.74-.29,1.48-.58,2.02-1.21,1.68-1.16,3.46-2.06,5.53-2.26,.67-.06,1.33-.16,1.97-.23,.6-.54,1.2-1.05,1.77-1.6,.86-.84,1.95-1.25,3.03-1.67,.45-.18,.95-.23,1.44-.17,.36,.05,.66-.07,.93-.29,1.2-.98,2.58-1.62,3.97-2.27,1.24-.58,2.59-.68,3.94-.71,1.08-.02,2.13,.08,3.19,.44,.4-.32,.87-.44,1.35-.51,.96-.15,1.91-.36,2.88-.47,1.27-.15,2.53-.37,3.8-.53,.9-.12,1.79-.36,2.69-.55,.12-.02,.26-.06,.35-.02,.41,.19,.76,.03,1.15-.1,.37-.12,.77-.17,1.16-.24,.27-.05,.55-.05,.81-.12,.64-.17,1.27-.11,1.89,.09,.35,.11,.69,.23,1.01,.33,.71-.41,1.36-.8,2.02-1.18,.79-.45,1.86-.62,2.74-.41,1.73,.41,3.4,.98,4.94,1.89,.26,.15,.5,.19,.78,.14,.66-.1,1.33-.18,2-.25,.58-.06,1.15-.06,1.73,.03,.55,.09,1.07,.2,1.53,.53,.1,.07,.22,.11,.37,.18,.14-.09,.29-.18,.44-.27,.1-.06,.22-.15,.32-.15,1.07,.05,2.13-.16,3.2,.04,.39,.07,.79,.09,1.13,.33,.12,.08,.28,.12,.43,.14,.88,.16,1.66,.53,2.41,1.02,.53,.35,1.11,.65,1.69,.9,.58,.25,1.01,.66,1.44,1.05l.69-.15c.1,.07,.17,.09,.2,.14,.44,.84,.94,1.64,1.09,2.6,.02,.14,.15,.26,.2,.4,.04,.14,.06,.29,.06,.44,0,.3-.06,.61-.04,.9,.06,.84-.1,1.64-.43,2.41-.36,.84-.61,1.72-.85,2.6-.2,.77-.39,1.56-.74,2.26-.33,.67-.81,1.3-1.32,1.85-.5,.53-.79,1.12-1.07,1.77-.49,1.12-1.1,2.18-1.69,3.25-.14,.26-.39,.48-.63,.65-.89,.64-1.67,1.42-2.49,2.15-.62,.56-1.27,1.04-2.12,1.2-.29,.06-.57,.21-.83,.36-.24,.13-.43,.33-.54,.6-.21,.51-.45,1-.68,1.5-.48,1.03-1.14,1.95-1.83,2.84-.4,.51-.94,.86-1.53,1.13-.3,.14-.63,.25-.9,.45-.42,.31-.89,.42-1.38,.41-.69,0-1.24,.26-1.73,.71-.4,.38-.82,.74-1.19,1.14-.43,.47-1.07,.69-1.45,1.23-.07,.1-.27,.14-.41,.16-.36,.06-.73,.1-1.09,.13-.51,.03-.94,.23-1.34,.53-.51,.38-1.03,.75-1.56,1.1-.34,.23-.73,.3-1.13,.32-.52,.02-1.04,.02-1.48,.37-.8,.13-1.57,.54-2.42,.26-.2-.06-.44,.01-.63-.05-.36-.11-.65,0-.96,.17-.32,.17-.67,.32-1.02,.4-.72,.17-1.39,.46-2.06,.76-.22,.1-.45,.21-.62,.38-.91,.93-2.06,1.51-3.17,2.15-.26,.15-.57,.2-.86,.31-.37,.14-.74,.28-1.1,.45-.57,.26-1.15,.41-1.77,.29-.78-.15-1.57-.14-2.37-.11-.67,.03-1.29,.19-1.8,.58-.6,.46-1.3,.47-1.99,.56-.17,.02-.36-.05-.53-.12-.45-.19-.89-.41-1.32-.61Z"/></g><g><g><path class="l" d="M88.68-5.08c2.13-2.23,4.25-4.27,6.84-5.78,.2-.11,.4-.23,.56-.39,1.83-1.91,4.18-3.13,6.29-4.67,2.98-2.18,6.33-3.47,9.94-4.27,4.33-.97,8.74-1.36,13.09-2.18,1-.19,2.04-.14,3.06-.24,.6-.06,1.14,.05,1.6,.43,.57,.48,1.24,.54,1.93,.53,.91,0,1.83,.04,2.73-.09,1.26-.18,2.22,.29,3.09,1.09,.75,.69,1.42,1.43,1.96,2.34,1.15,1.95,2.31,3.92,3.89,5.57,.59,.61,.86,1.32,.91,2.14,.07,1.3,.61,2.37,1.41,3.4,1.83,2.32,3.34,4.87,4.91,7.37,1.27,2.02,2.3,4.19,3.03,6.46,.38,1.18,1.35,2.14,1.29,3.47-.04,1.13-.08,2.27-.12,3.4-.03,.8-.02,1.6-.11,2.39-.08,.67-.18,1.37-.44,1.98-.44,1.04-.96,2.06-1.55,3.02-.83,1.35-1.76,2.64-2.67,3.94-.79,1.13-1.47,2.31-1.91,3.61-.6,1.77-1.65,3.23-2.97,4.52-1.04,1.02-1.81,2.37-3.32,2.86-.19,.06-.36,.28-.49,.46-1.13,1.53-2.75,2.3-4.43,3.06-1.65,.75-3.38,1.37-4.77,2.62-1.49,.57-2.87,1.31-4.06,2.42-.32,.3-.78,.53-1.21,.59-1.72,.26-3.25,.99-4.77,1.75-.3,.15-.68,.15-.97,.31-1.9,1.07-3.91,1.01-5.98,.72-1.57-.21-3.15-.32-4.72-.45-.45-.04-.95-.08-1.34,.07-1.57,.62-3.19,.39-4.72,.12-2.22-.39-4.55-.25-6.67-1.18-.1-.04-.22-.08-.33-.08-2.46,.14-4.7-.58-6.86-1.68-.5-.25-1.09-.31-1.63-.48-.54-.17-1.16-.25-1.59-.57-1.28-.97-2.81-1.46-4.16-2.3-3.25-2.03-5.98-4.52-7.66-8.03-.4-.84-1.05-1.48-1.69-2.13-1-1.02-1.45-2.24-1.61-3.66-.17-1.5-.13-2.92,.32-4.38,.34-1.07,.47-2.22,.62-3.34,.52-3.79,1.97-7.25,3.87-10.5,1.08-1.85,2.57-3.47,3.92-5.16,1.07-1.33,2.21-2.6,3.3-3.91,.65-.78,1.32-1.53,1.86-2.42,.64-1.05,1.59-1.91,2.32-2.76Z"/><path class="k" d="M153.45,35.92c-.4,.12-.83,.26-1.26,.38-1.82,.5-3.05-.43-4.11-1.73-.14-.17-.24-.39-.3-.6-.42-1.42-.85-2.84-1.22-4.27-.11-.42-.16-.92-.06-1.34,.43-1.79,.42-3.61,.49-5.43,.1-2.51,.58-4.97,1.06-7.43,.13-.66,.14-1.34,.18-2.02,0-.08-.13-.19-.23-.24-.08-.04-.24-.05-.3,0-1.05,1.04-2.35,1.75-3.48,2.67-1.69,1.38-3.68,2.19-5.71,2.91-.21,.08-.44,.09-.67,.13-1.76,.29-3.48-.89-3.8-2.62-.06-.33,0-.71-.11-1.02-.91-2.4-.34-4.66,.43-6.97,.76-2.28,1.72-4.46,2.87-6.55,.43-.79,1.06-1.48,1.63-2.18,.57-.71,1.2-1.37,1.79-2.06,.14-.17,.22-.4,.37-.68-.22-.21-.42-.51-.71-.63-.62-.27-1.3-.42-1.93-.67-2.78-1.07-5.41-2.38-7.38-4.73-1.03-1.22-2.11-2.39-3.18-3.57-.92-1.01-1.85-2.01-2.8-2.99-.55-.57-1.03-1.19-1.49-1.85-.81-1.18-1.2-2.44-1.29-3.83-.07-1.02-.12-2.04-.2-3.06-.2-2.76,.77-4.45,3.32-5.75,.3-.15,.63-.25,1.07-.43,1.37,.88,2.9,1.67,4.21,2.73,2.12,1.71,4.3,3.37,5.96,5.59,.4,.54,.93,.99,1.41,1.48,.21,.21,.8,.19,.93-.03,.94-1.55,2.03-3,2.66-4.75,.54-1.49,1.2-2.92,1.55-4.48,.4-1.79,1.38-3.35,2.24-4.95,.13-.25,.96-.45,1.25-.27,.58,.36,1.25,.66,1.65,1.16,.99,1.24,1.94,2.53,2.75,3.9,.98,1.66,1.91,3.36,2.58,5.18,.16,.42,.32,.88,.61,1.21,1.19,1.32,1.67,2.95,2.16,4.59,.13,.44,.22,.89,.39,1.31,.42,1.08,.58,2.17,.55,3.34-.06,2.5,.29,4.98,.5,7.47,.11,1.37,.59,2.68,1.37,3.82,.7,1.03,1.43,2.08,2.31,2.95,1.8,1.77,3.24,3.82,4.83,5.75,1.37,1.67,2.72,3.37,4.03,5.09,.69,.9,1.32,1.85,1.97,2.77,2.16,3.07,3.02,6.59,3.81,10.15,.07,.32,.07,.7-.03,1.01-.1,.3-.34,.7-.59,.76-.65,.16-1.34,.22-2.02,.22-.44,0-.93-.1-1.32-.3-2.42-1.24-4.83-2.51-7.21-3.81-.59-.32-1.1-.8-1.65-1.21-.73-.54-1.46-1.08-2.2-1.62-.17-.12-.76,.15-.85,.38-.12,.32-.28,.63-.33,.95-.12,.67-.21,1.35-.26,2.03-.17,2.08-.72,4.01-1.98,5.73-.73,.99-1.1,2.22-2.17,3.01-.54,.4-.75,1.11-.9,1.8-.25,1.22-.47,2.45-1.17,3.61Z"/></g><g><path class="g" d="M129.25,20.23c.19,.12,.52,.32,.83,.55,.39,.31,.66,.74,.61,1.23-.12,1.03-.29,2.03-1.27,2.68-.71,.47-1.37,1.03-2.04,1.56-.44,.35-.91,.61-1.46,.8-1.54,.53-2.06,.03-2.69-1.03-.43-.71-.56-1.62-.72-2.45-.06-.29,.12-.7,.32-.96,.43-.58,.87-1.21,1.44-1.62,.65-.47,1.42-.82,2.19-1.08,.89-.3,1.79-.07,2.81,.32Z"/><path class="g" d="M107.76,10.01c-.44,.64-1.05,1.7-2.09,2.24-1.33,.69-2.78,.88-4.22,.2-.22-.11-.44-.29-.58-.49-.36-.48-.68-.99-1.01-1.49-.23-.35-.27-.73-.04-1.1,.13-.22,.24-.5,.44-.62,.61-.37,.93-.95,1.33-1.49,.45-.61,1.08-.97,1.84-1.09,.38-.06,.76-.18,1.14-.22,.99-.1,1.87,.14,2.57,.9,.12,.13,.23,.26,.36,.37,.82,.7,.87,1.53,.26,2.79Z"/><path class="g" d="M81.37,30.84c.22-.33,.36-.61,.57-.81,.17-.17,.43-.35,.65-.35,.76,0,1.45-.23,2.13-.5,.38-.15,.77-.2,1.14-.08,.46,.15,.9,.18,1.39,.13,.71-.08,1.25,.35,1.44,1.04,.07,.25,.11,.51,.09,.77-.05,.69-.14,1.36,0,2.06,.06,.29-.11,.71-.31,.96-.62,.78-1.3,1.51-2.39,1.61-.21,.02-.43,.06-.64,.12-1.11,.29-2.02-.14-2.85-.83-.07-.05-.15-.1-.19-.18-.47-.96-1.16-1.84-1.13-2.99,0-.34,.07-.67,.1-.94Z"/><path class="g" d="M93.03,27.62c-1.76-.34-2.17-1.6-2.3-2.92-.15-1.54,.41-2.89,1.71-3.82,.49-.35,1.01-.67,1.53-.96,.71-.4,1.18-.5,2.25-.57,.82,.73,1.16,1.62,.99,2.75-.11,.72-.1,1.46-.1,2.2,0,.37-.11,.67-.37,.93-.12,.12-.22,.27-.36,.37-1.08,.77-2.03,1.75-3.35,2.03Z"/><path class="g" d="M116.41,.68c-.52-.49-.91-.89-1.33-1.25-.42-.36-.65-.82-.71-1.34-.04-.33-.03-.73,.13-.99,.35-.58,.78-1.13,1.22-1.65,.72-.85,1.75-.87,2.74-.85,1.1,.02,2.09,.47,3.03,.99,.36,.2,.65,.55,.92,.88,.22,.28,.24,.62,.12,.98-.28,.88-.71,1.67-1.32,2.35-.25,.28-.6,.49-.94,.64-1.04,.44-2.11,.74-3.25,.3-.19-.07-.42-.05-.61-.07Z"/><path class="g" d="M102.34,21.57l-.68,.26c-.18-.35-.39-.68-.53-1.03-.34-.86-.14-1.54,.53-2.22,.53-.53,1.14-.91,1.86-1.12,.24-.07,.48-.19,.67-.35,1.13-.96,2.44-1.18,3.88-.94,.06-.09,.1-.25,.19-.28,.2-.06,.29,.06,.28,.28,0,.16,.03,.33,.1,.47,.1,.19,.27,.33,.38,.51,.33,.59,.45,1.19,.06,1.83-.29,.47-.54,.98-.81,1.47-.97,1.79-2.68,2.17-4.5,2.28-.81,.05-1.29-.39-1.44-1.17Z"/><path class="g" d="M118.92,6.73c-.34,.55-.64,1.13-1.03,1.63-.68,.88-1.69,1.2-2.74,1.24-1.58,.05-2.8-.74-3.78-1.91-.47-.56-.43-1.48,.02-2.05,.57-.72,1.21-1.32,2.16-1.54,1.09-.25,2.16-.51,3.29-.42,.67,.05,1.27,.24,1.78,.68,.54,.47,.74,1.05,.49,1.74-.07,.2-.16,.4-.24,.6l.05,.03Z"/><path class="g" d="M113.48,23.99c.66,.1,1.16,.2,1.67,.25,.71,.08,1.32,.36,1.83,.87,.41,.4,.57,.81,.34,1.39-.27,.68-.42,1.4-.68,2.08-.52,1.37-2.16,1.89-3.39,1.95-.53-.27-1.13-.46-1.58-.83-.66-.55-1.19-1.24-1.56-2.04-.2-.43-.15-.81,.08-1.22,.6-1.05,1.46-1.79,2.59-2.22,.28-.11,.57-.18,.7-.21Z"/><path class="g" d="M117.23,32.52c.72-1.3,1.73-1.89,3.11-1.88,.56,0,1.11-.08,1.67-.06,.89,.04,1.67,.4,2.34,.99,.79,.7,.94,2.01,.2,2.76-1.14,1.15-2.48,2-4.2,1.93-.47-.02-.95,0-1.42-.07-.85-.14-1.26-.54-1.25-1.38,0-.79-.21-1.52-.45-2.29Z"/><path class="g" d="M107.94,38.53c-.65-.36-1.3-.69-1.68-1.38-.18-.33-.5-.59-.7-.92-.34-.54-.26-.93,.25-1.34,.27-.22,.6-.37,.82-.63,.58-.68,1.36-.9,2.18-.99,.72-.08,1.47-.14,2.19-.06,1.2,.13,2.06,.85,2.6,1.9,.27,.51,.22,1.01-.16,1.56-.51,.73-1.11,1.27-1.89,1.7-1.2,.67-2.39,.56-3.61,.15Z"/><path class="g" d="M115.36,20.64c-.33-.67-.72-1.34-1-2.05-.24-.61-.03-1.22,.42-1.67,.43-.43,.82-.87,1.06-1.44,.09-.22,.31-.42,.52-.55,.51-.32,1.05-.61,1.59-.87,.23-.11,.54-.13,.71,.11,.24,.35,.57,.34,.92,.33,.35,0,.7-.06,1.03-.01,.23,.04,.54,.16,.65,.34,.29,.48,.52,1.03,.35,1.6-.22,.69-.44,1.4-1.02,1.92-.22,.2-.43,.43-.61,.67-.41,.54-.88,.92-1.61,.94-.28,0-.59,.15-.84,.3-.62,.38-1.27,.51-2.17,.37Z"/><path class="g" d="M110.18-.19c-.07,.09-.2,.26-.33,.43-1.2,1.5-2.75,2.3-4.66,2.43-.21,.01-.43,0-.64,.04-.82,.11-1.42-.09-1.75-.94-.17-.43-.51-.8-.76-1.19-.31-.48-.23-1.07,.24-1.36,.89-.54,1.78-1.06,2.71-1.53,1.51-.77,3.04-.47,4.52,.1,.84,.33,1.09,1.1,.68,2.02Z"/><path class="g" d="M96.52,12.73c-.1,.11-.34,.39-.61,.66-.12,.12-.3,.18-.42,.3-1.38,1.43-3.06,1.39-4.81,.98-.55-.13-.88-.49-1.04-1.04-.26-.92-.33-1.78,.46-2.51,.22-.2,.42-.48,.49-.75,.17-.65,.62-.9,1.19-1.05,.63-.16,1.25-.35,1.89-.43,.32-.04,.68,.07,1,.18,1,.35,1.6,1.14,2.03,2.05,.22,.45,.13,.81-.19,1.61Z"/><path class="g" d="M97.62,33.8c-.33-.24-.6-.39-.82-.59-.74-.67-1.11-1.58-.42-2.51,.55-.73,1.06-1.46,1.87-1.94,.36-.21,.65-.57,1.02-.75,1.01-.48,2.1-.44,3.17-.29,.88,.13,1.32,.79,1.53,1.57,.07,.26,0,.6-.1,.87-.4,1.19-1.34,1.89-2.42,2.38-.98,.44-1.97,.9-3.06,1.01-.25,.03-.49,.14-.77,.23Z"/><path class="g" d="M124.72,14.95c-.14-.24-.25-.35-.27-.47-.11-.64-.29-1.25-.55-1.85-.25-.56-.23-1.1,.35-1.49,.07-.05,.15-.11,.18-.18,.54-1.3,1.93-1.49,2.91-2.22,.12-.09,.33-.09,.5-.09,.56,.01,1.12,.03,1.68,.08,.42,.04,.71,.27,.85,.69,.33,1,.21,1.97-.32,2.86-1.01,1.69-1.91,2.31-3.88,2.66-.46,.08-.94,0-1.44,0Z"/><path class="g" d="M88.96,20.42c-.57,1.04-1.04,2.01-1.61,2.91-.59,.93-1.55,1.32-2.61,1.46-.91,.12-1.66-.28-2.35-.84-.02-.08-.06-.16-.06-.24-.05-.6-.27-1.26-.08-1.78,.27-.75,.75-1.47,1.28-2.08,.61-.69,1.48-1.02,2.39-1.17,.38-.06,.77-.07,1.16-.09,.63-.03,1.07,.26,1.36,.81,.18,.34,.36,.69,.53,1.02Z"/><path class="g" d="M91.36,39.68c-.46-.55-.9-1.07-1.33-1.59-.13-.16-.26-.34-.37-.52-.19-.33-.15-.66,.09-.96,.52-.65,1.13-1.1,1.96-1.36,1.59-.5,3.04-.28,4.45,.5,.74,.41,1,.95,.71,1.71-.27,.72-.68,1.39-1.05,2.06-.16,.3-.48,.33-.79,.31-.69-.04-1.37-.06-2.06-.09-.51-.02-1.03-.04-1.62-.07Z"/><path class="g" d="M92.87,6.92c-.19-.37-.28-.73-.51-.96-.43-.43-.4-.92-.38-1.44,.02-.47,.25-.81,.61-1.09,.1-.08,.17-.2,.28-.27,1.15-.67,2.31-1.32,3.57-1.78,.08-.03,.17-.04,.25-.05,1.12-.06,1.86,.33,1.69,1.79-.11,.88-.51,1.6-1.19,2.22-.89,.82-1.84,1.4-3.09,1.41-.38,0-.76,.1-1.23,.17Z"/><path class="g" d="M102.84,32.85l.07,.19-.29,.03c0-.07-.03-.17,0-.19,.05-.04,.14-.02,.22-.03Z"/></g></g><g><path class="f" d="M15,118.52c-.44,.26-.71,.45-1,.6-2.11,1.01-3.51,2.64-4.17,4.87-.14,.48-.22,1.11-.02,1.52,.61,1.27,1.24,2.54,2.53,3.33,.6,.37,1.2,.53,1.89,.48,.36-.03,.73,.03,1.25,.06-.16,.39-.23,.7-.4,.97-.76,1.22-.88,2.61-1.07,3.97-.12,.81,.35,1.43,1.35,1.63,1.12,.23,2.27,.28,3.59,.44,.41,.72,1.36,.99,2.28,1.24,1.08,.29,1.97,.72,2.72,1.62,.93,1.13,2.24,1.81,3.6,2.39,2.61,1.11,5.39,1.43,8.16,1.71,2.33,.24,4.31-.74,6.12-2.05,1.88-1.36,3.68-2.84,5.15-4.63,1.62-1.99,3.26-3.98,4.05-6.52,.34-1.1,.94-2.11,1.32-3.2,.7-2,.86-4.09,.88-6.19,.03-3.06-.43-6.03-1.63-8.86-1.14-2.68-2.74-5.06-4.74-7.16-.91-.96-2.03-1.7-3.4-1.82-1.46-.13-2.83-.61-4.25-.92-.9-.19-1.81-.34-2.72-.5-.55-.09-1.1-.17-1.66-.24-.21-.03-.42-.04-.63-.01-1.33,.19-2.65,.43-3.85,1.06-.48,.25-.89,.64-1.32,.99-.66,.54-1.27,1.15-1.97,1.63-1.47,1.01-2.8,2.14-3.57,3.79-.41,.87-1.08,1.2-1.99,1.15-.78-.04-1.56-.13-2.35-.18-3.28-.2-4.4,.61-5.88,2.96-.38,.6-.46,1.23-.3,1.93,.31,1.45,.86,2.77,2.01,3.96Z"/><path class="e" d="M18.87,119.67l-.86,.02-.06,1.43-1.3-.38c-.97,.8-1.15,1.87-1.15,2.98,0,.59,.31,1.12,.73,1.52,.77,.73,1.48,1.54,2.5,1.96,.27,.11,.34,.34,.33,.6-.02,.52-.09,1.04-.07,1.56,.02,.7,0,1.43,.18,2.1,.27,1.02,1.1,1.43,2.09,1.2,.47-.11,.94-.24,1.41-.35,.63-.15,1.3-.17,1.87-.57,.13-.09,.37,0,.55,0,.35,0,.7,0,1.05,.01,1.5,.01,2.22-1.02,2.83-2.16,.36-.67,.09-1.35-.12-1.99-.18-.57-.42-1.13-.71-1.66-.25-.45-.12-.74,.18-1.09,.49-.58,.95-1.19,1.38-1.83,.39-.58,.34-.95-.07-1.5-.14-.19-.31-.39-.38-.61-.18-.56-.55-.94-1.05-1.21-.8-.43-1.62-.79-2.57-.77-.64,.01-.59-.05-.85-.65-.38-.88-.84-1.71-1.28-2.57-.02-.05-.06-.09-.1-.13-1.24-1.26-2.51-1.61-3.56,.27-.53,.94-.94,1.92-.95,3.03,0,.24-.03,.49-.04,.78Z"/></g><g><path class="f" d="M445.39,10.29c.73,.17,1.43,.32,2.12,.48,.94,.22,1.87,.44,2.81,.68,.5,.12,.99,.29,1.49,.41,1.11,.27,1.76,1.03,2.22,2,.04,.09,.06,.21,.03,.3-.62,1.79-.88,3.72-2,5.31-.41,.58-1.01,1.02-1.47,1.47,.56,1.41,1.14,2.81,1.67,4.23,.79,2.12,.85,4.22-.07,6.34-.35,.8-.61,1.67-.76,2.54-.34,1.93-1.38,3.49-2.54,4.99-.17,.22-.34,.46-.42,.72-.42,1.37-1.64,2.13-2.41,3.23-.2,.29-.64,.4-.94,.62-.52,.39-1,.82-1.53,1.19-.21,.15-.49,.18-.84,.31-.06,.81-.9,1.1-1.61,1.36-2.46,.87-5.03,1.36-7.63,1.39-1.68,.02-3.36-.18-4.96-.86-.68-.29-1.45-.4-2.2-.47-1.94-.18-3.49-1.27-5.13-2.15-2.63-1.42-4.9-3.37-7.31-5.12-2.47-1.79-4.36-4.16-5.66-6.94-.42-.91-.72-1.87-1.07-2.81-.07-.19-.16-.42-.13-.61,.26-1.37-.23-2.64-.47-3.95-.11-.6,.04-1.24,.05-1.86,0-.4-.05-.8-.03-1.2,.02-.3,.02-.68,.2-.88,.41-.45,.32-.93,.13-1.35-.36-.8-.17-1.63-.22-2.44,0-.1,.19-.3,.26-.29,.41,.08,.34-.21,.4-.43,.26-.93,.53-1.85,.79-2.78,.08-.27,.22-.54,.19-.8-.1-.83,.53-1.29,1.05-1.5,.43-.17,.57-.47,.75-.72,.8-1.08,1.56-2.21,2.69-2.97,1.11-.74,2.29-1.41,3.48-2.02,.91-.47,1.89-.83,2.86-1.19,.55-.2,1.14-.3,1.7-.45,.46-.12,.91-.21,1.25-.65,.19-.25,.66-.32,1.02-.39,.33-.07,.69-.02,1.04-.04,.45-.03,.78-.23,.98-.65,.68-1.43,1.66-2.63,2.79-3.73,.26-.26,.45-.6,.72-.98,.32-.01,.7,.47,1.17,.1,.1-.07,.45,.09,.62,.23,.51,.41,.99,.87,1.48,1.29,.28,.24,.62,.42,.86,.7,.3,.36,.53,.78,.77,1.19,.24,.41,.42,.87,.68,1.27,.29,.44,.58,.85,.49,1.42-.02,.15,.1,.32,.17,.52,.69-.21,1.33-.44,1.99-.58,.67-.15,1.38-.15,2.05-.33,1.26-.34,2.54-.31,3.81-.21,.33,.03,.68,.15,.98,.3,1.45,.73,2.41,2.93,2.04,4.5-.17,.7-.26,1.42-.41,2.27Z"/><path class="e" d="M441.52,13.76l.39-.76-1.14-.8,.94-.93c-.19-1.26-.98-1.98-1.89-2.56-.48-.31-1.07-.31-1.6-.15-.97,.29-1.97,.49-2.8,1.15-.22,.18-.44,.12-.65-.03-.42-.29-.81-.62-1.24-.88-.59-.35-1.17-.75-1.81-.94-.96-.3-1.7,.21-1.98,1.2-.13,.47-.25,.94-.39,1.41-.18,.63-.48,1.22-.43,1.93,.01,.15-.17,.32-.26,.49-.17,.3-.34,.61-.51,.91-.73,1.3-.23,2.47,.41,3.6,.38,.66,1.06,.78,1.68,.94,.56,.14,1.13,.22,1.7,.25,.49,.02,.66,.28,.81,.72,.24,.73,.52,1.45,.83,2.16,.29,.65,.61,.79,1.26,.72,.23-.02,.47-.07,.68-.02,.55,.14,1.04,.01,1.49-.28,.74-.47,1.42-1,1.86-1.84,.3-.57,.32-.49,.94-.4,.9,.13,1.81,.16,2.71,.23,.05,0,.11,0,.16-.01,1.63-.42,2.51-1.35,1.48-3.25-.51-.95-1.13-1.82-2.02-2.41-.2-.13-.39-.28-.62-.45Z"/></g><g><path class="f" d="M437.07,55.68l.53-.46c-2.62-1.11-5.12-.72-7.41,.47-.34-.26-.55-.58-.78-.59-.92-.06-1.85-.03-2.78-.03-1.24,.92-2.84,.86-4.16,1.63-2.78,1.61-5.12,3.71-7.3,6.02-.5,.53-.9,1.2-1.71,1.36-.11,.02-.24,.18-.29,.31-.56,1.6-1.9,2.66-2.83,4.01-1.6,2.34-3.31,4.61-4.48,7.21-.12,.27-.29,.53-.45,.77-.54,.81-.93,1.65-1.14,2.64-.19,.91-.77,1.73-1.16,2.6-.19,.44-.36,.9-.46,1.36-.36,1.64-.74,3.27-1.02,4.93-.1,.6,.15,1.24,.1,1.85-.15,1.95,.7,3.65,1.25,5.43,.04,.14,.21,.27,.19,.4-.15,1.44,1.13,2.1,1.74,3.1,.45,.74,1.32,1.24,1.99,1.85,.19,.17,.36,.35,.55,.51,.14,.11,.38,.31,.45,.27,.77-.48,1.1,.27,1.6,.53,.43,.23,.88,.47,1.24,.78,.47,.4,.81,.96,1.3,1.31,1.01,.71,2.08,1.33,3.13,1.99,.15,.09,.42,.1,.48,.23,.5,1,1.53,1.1,2.58,1.59l-.41-.88c.65,.22,1.19,.33,1.67,.56,1.15,.55,2.32,.97,3.58,1.19,1.03,.18,2.03,.25,3.08,.18,1.63-.09,3.26-.1,4.86-.44,1.71-.36,3.41-.76,5.1-1.19,.53-.14,1.03-.42,1.54-.66,1.67-.81,3.4-1.53,4.97-2.5,1.35-.84,2.58-1.91,3.74-3,1.46-1.37,2.84-2.85,4.2-4.32,1.84-1.98,3.12-4.28,3.74-6.93,.43-1.86,.8-3.73,1.2-5.6,.45-2.14,.44-4.28,.23-6.46-.31-3.18-1.55-5.97-3.29-8.58-1.32-1.98-2.53-4.05-4-5.91-.93-1.18-1.91-2.41-3.27-3.19-.18-.1-.3-.31-.47-.44-.36-.26-.7-.65-1.1-.73-1.58-.33-2.7-1.47-4.06-2.16-.13-.07-.19-.33-.24-.51-.1-.42-.56-.76-.81-.49-.54,.59-.83-.07-1.44-.03Z"/><path class="e" d="M437.14,71.22c-.5,.08-.8-.35-1.1-.77-.64-.89-1.29-.98-2.14-.3-.2,.16-.42,.42-.64,.43-1.65,.1-2.15,1.68-3.26,2.46-.18,.13-.29,.34-.45,.5-.95,1.02-1.88,1.81-3.52,1.64-1.89-.2-3.68,.46-5.26,1.6-.81,.58-1.22,1.24-1.32,2.3-.21,2.17,.78,3.92,1.7,5.7,.32,.61,.31,1.02-.09,1.51-.28,.35-.52,.73-.82,1.07-1.54,1.74-1.33,3.69-.71,5.69,.07,.21,.19,.41,.24,.62,.17,.71,.56,1.09,1.33,1.1,.4,0,.8,.16,1.2,.27,.31,.09,.51,.3,.76,.54,1.16,1.14,2.3,2.36,3.98,2.78,.65,.16,1.29,.51,1.93,.52,2.02,0,3.78-.56,5-2.39,1.15-1.72,2.2-3.47,2.84-5.44,.26-.82,.8-1.31,1.64-1.51,.5-.12,1.01-.28,1.47-.5,1.53-.75,2.11-2.2,2.37-3.72,.17-.97,.11-2.02-.07-3-.31-1.65-1.56-2.67-2.81-3.64-.21-.16-.43-.31-.67-.41-.64-.26-.81-.75-.9-1.4-.18-1.26-.49-2.49-.69-3.75-.09-.59-.03-1.2-.04-1.89Z"/></g><g><path class="l" d="M48.92,186.04c-1.49-.5-2.97,.09-4.5,.78-1.52,.68-3.04-.07-4.51-.5-.6-.18-1.18-.5-1.73-.82-1.45-.85-2.82-1.81-4.31-2.6-2.7-1.43-3.25-3.98-3.05-6.76,.05-.64-.03-1.14-.45-1.64-.82-.99-1.2-2.13-1.13-3.43,.04-.73-.06-1.43-.33-2.14-.55-1.45-.65-2.93,.07-4.38,.18-.36,.42-.83,.33-1.16-.48-1.56,.22-3.09,.12-4.56-.19-2.87,2.22-4.59,4.18-5.24,.68-.23,1.11-.51,1.39-1.15,.2-.46,.48-.88,.76-1.3,1.69-2.6,1.64-2.88,4.52-2.13,1.1,.29,2.28-.01,3.39,.34,.2,.06,.52-.13,.73-.29,2.05-1.61,4.52-2.21,6.98-2.58,2.88-.44,5.49,.58,7.77,2.36,.65,.51,1.04,1.24,1.32,2.04,.27,.76,.8,1.56,1.62,1.48,1.88-.18,3.19,1.2,4.87,1.58,1.16,.26,1.77,1.44,1.68,2.7-.09,1.35,.15,2.62,.63,3.88,.29,.78,.24,1.62,.26,2.44,.03,1.32-.39,2.59-.45,3.92-.05,1.05-.72,1.81-1.71,2.46-1.25,.83-2.32,1.98-2.1,3.78,.17,1.41-.75,2.31-1.77,3.03-.68,.49-1.33,.96-1.65,1.76-1.14,2.81-3.45,4.2-6.18,5.06-.44,.14-.86,.3-1.13,.71-1.28,1.97-3.3,2.26-5.62,2.37Z"/><path class="j" d="M54.17,165.07c-4.3,.06-8.97-3.22-10.24-7.19-.34-1.07,.3-2.04,1.45-1.86,2.92,.46,5.92,.15,8.79,1.06,1.63,.51,4.01,3.16,3.87,4.45-.24,2.32-1.54,3.51-3.87,3.54Z"/></g><g><path class="l" d="M272.84-7.45c1.08,2.24,2.86,3.82,4.91,5.13,1.94,1.25,2.67,3.15,2.48,5.31-.15,1.77,.51,3.25,1.1,4.78,.15,.39,.37,.67,.01,1.04-.98,1.04-1.34,2.37-1.68,3.72-.22,.87-.7,1.73-1.44,2.19-1.72,1.05-2.25,2.74-2.84,4.47-.74,2.15-2.11,3.76-4.25,4.65-.51,.21-1.07,.39-1.59,.22-1.6-.55-2.45,.4-3.28,1.51-1.84,2.48-4.27,3.53-7.36,3.03-.82-.13-1.48-.45-2.1-.97-1.57-1.29-3.11-1.8-5.38-1.46-4.34,.65-8.08-.46-9.01-5.72-.12-.65-.41-.86-.99-1.06-2.99-1.02-4.55-3.92-3.77-7.01,.21-.82,.2-1.33-.72-1.72-1.49-.62-2.03-2.18-2.21-3.48-.37-2.7-.28-5.54,1.81-7.64,1.23-1.24,1.78-2.32,1.87-4.19,.15-3.21,2.09-5.68,5.03-7.18,1.45-.74,2.92-1.43,4.61-1.45,.32,0,.7-.11,.96-.3,3.54-2.47,7.16-2.45,10.84-.38,.83,.47,1.71,.68,2.65,.83,1.94,.3,3.73,.98,5.06,2.52,.38,.44,.83,.64,1.4,.72,1.65,.22,2.99,.97,3.88,2.44Z"/><path class="j" d="M261.88,9.05c1.54-1.02,3.23-1.68,5.08-1.83,3.49-.29,5.08,1.87,3.56,4.97-1.97,4.01-5.34,6.25-9.67,7.08-1.28,.24-3.18-.82-3.62-1.82-.53-1.19,.04-3.44,1.19-4.29,.89-.66,1.63-1.36,2.04-2.44,.26-.68,.77-1.26,1.42-1.67Z"/></g></g></g><path class="i" d="M405.07,113.81c-1.47-6.46-3.2-11.93-7.36-16.91-1.14-1.37-2.13-2.83-3.25-4.21-4.32-5.36-4.03-5.63-9.33-10.57-5.83-5.44-4.87-11.29-6.03-18.26-.57-3.4-.92-6.81-1.55-10.22-2.3-12.34-2.21-12.4-11.02-23.2-8.97-10.99-23.64-16-38.32-17.81-13-1.6-31.87-3-44.25,1.54-5.15,1.88-10.58,5.7-16.58,6.16-6.43,.49-11.64-3.23-17.73-4.31-10.03-1.78-19.79,1.66-29.26,4.13-7.53,1.96-12.83,5.24-20.88,3.16-8.7-2.25-16.83-5.5-25.79-7.17-10.22-1.91-20.83-2.17-31.14-3.81-13.18-2.09-25.73-.12-37.51,4.47-16.82,6.55-34.32,24.85-37.88,43.27-1.27,6.54-1.86,13.65-7.97,18.19-2.99,2.22-5.29,5.66-7.34,8.75-3.68,5.54-5.42,11.83-6.96,23.9-1.53,11.99-2.61,19.76,5.64,29.06,5.14,5.8,9.77,12.28,15.78,17.25,8.84,7.31,22.1,12.28,33.45,13.62,3.59,.42,7.26,.65,10.74,1.42,8.86,1.95,16.34-.63,24.88-2.17,7.57-1.37,12.03,2.21,22.83,5.12,13.78,3.72,23.67,3.94,34.86,2.33,10.56-1.52,23.92-3.74,34.35-5.09,16.95-2.18,24.53-.53,41.17,.08,11.8,.43,20.29-.93,32.32-.08,13.67,.98,21.86,2.82,35.18,3.8,12.08,.88,26.19,.18,37.45-5.57,6.45-3.3,8.88-10.46,14.7-14.52,9.35-6.51,15.41-15.97,17.32-26.4,.93-5.07,.72-10.59-.5-15.95Z"/><g><path class="m" d="M86.18,90.12l1.56-.12v-18.46l-1.56-.12v-1.28h7.17c6.3,0,11.13,3.81,11.13,10.64s-4.83,10.63-11.13,10.63h-7.17v-1.28Zm15.91-9.36c0-6.21-3.8-9.23-8.79-9.23h-3.37v18.46h3.37c5.02,0,8.79-2.99,8.79-9.23Z"/><path class="m" d="M107.14,91.4v-1.22l1.46-.09v-11.7l-1.37-.19v-1.09l2.81-1.56c.44-.19,.69-.09,.69,.38v14.16l1.4,.09v1.22h-4.99Zm.75-20.43c0-.9,.69-1.72,1.68-1.72,.94,0,1.68,.81,1.68,1.72s-.75,1.71-1.68,1.71-1.68-.84-1.68-1.71Z"/><path class="m" d="M121.98,75.43c1.84,0,2.96,.59,3.65,1.15v-5.3l-1.44-.19v-1.09l3.06-1.62c.31-.16,.5-.03,.5,.44v21.27l1.4,.09v1.22h-3.52v-2c-.53,.78-2.09,2.37-4.71,2.37-3.93,0-6.74-2.93-6.74-7.86s3.65-8.48,7.8-8.48Zm3.65,11.26v-6.21c0-2.06-1.37-3.71-3.62-3.71-3.03,0-5.43,2.62-5.43,6.86s1.78,6.64,4.55,6.64,4.49-1.9,4.49-3.59Z"/><path class="m" d="M131.51,91.4v-1.22l1.47-.09v-11.7l-1.37-.19v-1.09l2.81-1.56c.44-.19,.69-.09,.69,.38v1.62c.37-.53,1.56-2.09,4.37-2.09,3.31,0,5.24,2.21,5.24,4.9v9.7l1.4,.12v1.22h-4.93v-1.22l1.4-.12v-9.33c0-2.25-1.59-3.84-3.74-3.84-2.34,0-3.74,1.56-3.74,3.24v9.95l1.4,.09v1.22h-4.99Z"/><path class="m" d="M148.16,75.43c0-.44,.94-1.12,1.53-2.53h-.12c-1.12,0-1.62-.69-1.62-1.56s.78-1.59,1.71-1.59c1.09,0,1.81,.78,1.81,2.18,0,1.84-1.84,3.84-2.93,3.84-.25,0-.37-.12-.37-.34Z"/><path class="m" d="M158.18,91.77c-2.21,0-3.09-1.34-3.09-3.09v-11.45h-1.84v-.84c1.56-.94,2.21-2.09,3.06-4.43,.12-.31,.22-.47,.53-.47,.28,0,.38,.19,.38,.47v3.84h3.65v1.43h-3.65v11.1c0,1.03,.34,1.81,1.53,1.81,1.06,0,1.75-.62,2.15-1.09l.84,.78c-.59,.87-1.56,1.93-3.55,1.93Z"/><path class="m" d="M177.86,68.32c1.87,0,3.24,.91,3.24,2.06,0,.69-.41,1.12-1.12,1.12-1.31,0-1.5-1.71-3.27-1.71-1.65,0-2.78,1.56-2.78,3.93v2.09h7.17l.41-.22c.44-.25,.72-.12,.72,.34v14.16l1.43,.09v1.22h-4.99v-1.22l1.43-.09v-12.85h-6.18v12.85l1.65,.09v1.22h-5.21v-1.22l1.43-.09v-12.85h-2.46v-1.43h2.46v-.75c0-4.43,2.68-6.74,6.05-6.74Z"/><path class="m" d="M186.24,91.4v-1.22l1.47-.09v-11.7l-1.37-.19v-1.09l2.81-1.56c.44-.19,.69-.09,.69,.38v1.62c.38-.53,1.56-2.09,4.37-2.09,3.31,0,5.24,2.21,5.24,4.9v9.7l1.4,.12v1.22h-4.93v-1.22l1.4-.12v-9.33c0-2.25-1.59-3.84-3.74-3.84-2.34,0-3.74,1.56-3.74,3.24v9.95l1.4,.09v1.22h-4.99Z"/><path class="m" d="M210.65,75.43c1.84,0,2.96,.59,3.65,1.15v-5.3l-1.43-.19v-1.09l3.06-1.62c.31-.16,.5-.03,.5,.44v21.27l1.4,.09v1.22h-3.53v-2c-.53,.78-2.09,2.37-4.71,2.37-3.93,0-6.74-2.93-6.74-7.86s3.65-8.48,7.8-8.48Zm3.65,11.26v-6.21c0-2.06-1.37-3.71-3.62-3.71-3.03,0-5.43,2.62-5.43,6.86s1.78,6.64,4.55,6.64,4.49-1.9,4.49-3.59Z"/><path class="m" d="M230.83,91.77c-2.21,0-3.09-1.34-3.09-3.09v-11.45h-1.84v-.84c1.56-.94,2.21-2.09,3.06-4.43,.12-.31,.22-.47,.53-.47,.28,0,.37,.19,.37,.47v3.84h3.65v1.43h-3.65v11.1c0,1.03,.34,1.81,1.53,1.81,1.06,0,1.75-.62,2.15-1.09l.84,.78c-.59,.87-1.56,1.93-3.56,1.93Z"/><path class="m" d="M236.5,91.4v-1.22l1.47-.09v-18.81l-1.44-.19v-1.09l3.06-1.62c.31-.16,.5-.03,.5,.44v8.76c.37-.56,1.59-2.12,4.33-2.12,3.37,0,5.24,2.21,5.24,5.05v9.54l1.43,.12v1.22h-4.96v-1.22l1.4-.12v-9.17c0-2.5-1.5-3.99-3.71-3.99-2.34,0-3.74,1.56-3.74,3.24v9.95l1.4,.09v1.22h-4.99Z"/><path class="m" d="M260.07,91.77c-4.12,0-6.92-3.12-6.92-7.92,0-5.15,3.31-8.42,6.46-8.42,3.55,0,5.71,2.53,6.14,5.71l-10.29,4.12c.69,2.93,2.68,4.8,5.05,4.8s3.99-1.37,4.77-2.15l.81,.81c-.75,1.06-2.65,3.06-6.02,3.06Zm2.87-12.04c-.19-1.28-1.43-2.87-3.59-2.87-2.28,0-4.15,2.49-4.15,6.14,0,.28,0,.56,.03,.84l6.96-2.87c.72-.28,.81-.72,.75-1.25Z"/><path class="m" d="M274.23,96.26c-2.12,0-3.28-1.46-3.28-2.65,0-.5,.25-.78,.62-.78,.4,0,.56,.22,.75,.56,.41,.75,.84,1.22,1.62,1.22,.87,0,1.5-.62,1.5-1.75v-14.47l-1.37-.19v-1.09l2.81-1.56c.44-.19,.69-.09,.69,.38v16.72c0,2.25-1.37,3.65-3.34,3.62Zm.5-25.29c0-.9,.69-1.72,1.68-1.72,.94,0,1.68,.81,1.68,1.72s-.75,1.71-1.68,1.71-1.68-.84-1.68-1.71Z"/><path class="m" d="M287.84,75.46c4.21,0,6.96,3.59,6.96,8.14s-3.06,8.17-6.96,8.17-6.96-3.49-6.96-8.17,3.37-8.14,6.96-8.14Zm-.47,1.5c-2.4,0-4.3,2.4-4.3,6.14,0,4.52,2.74,7.17,5.33,7.17s4.21-2.43,4.21-6.17c0-4.52-2.56-7.14-5.24-7.14Z"/><path class="m" d="M303.84,91.77c-2,0-3.18-.72-3.87-1.31l-1.37,1.09c-.34,.25-.62,.16-.62-.12v-20.15l-1.43-.19v-1.09l3.06-1.62c.31-.16,.5-.03,.5,.44v8.98c.53-.78,2.09-2.37,4.71-2.37,3.93,0,6.74,2.93,6.74,7.86s-3.56,8.48-7.71,8.48Zm-3.74-11.26v6.21c0,2.06,1.47,3.71,3.71,3.71,3.03,0,5.33-2.56,5.33-6.8s-1.93-6.71-4.99-6.71c-2.37,0-4.05,1.9-4.05,3.59Z"/><path class="m" d="M321.62,97.7c-1.03,0-1.72-.53-1.72-1.34,0-.72,.47-1.25,1.31-1.25,.69,0,1.09,.28,1.62,.28,.81,0,1.59-.94,2.84-4.21l-5.55-14.07-1.06-.12v-1.19h4.83v1.19l-1.5,.12,4.3,11.23,4.18-11.23-1.5-.12v-1.19h4.12v1.19l-1.06,.12-5.46,14.44c-1.65,4.4-3.15,6.14-5.36,6.14Z"/><path class="m" d="M341.06,75.46c4.21,0,6.96,3.59,6.96,8.14s-3.06,8.17-6.96,8.17-6.96-3.49-6.96-8.17,3.37-8.14,6.96-8.14Zm-.47,1.5c-2.4,0-4.3,2.4-4.3,6.14,0,4.52,2.74,7.17,5.33,7.17s4.21-2.43,4.21-6.17c0-4.52-2.56-7.14-5.24-7.14Z"/><path class="m" d="M364.25,90.18v1.22h-3.52v-1.75c-.38,.53-1.5,2.09-4.21,2.09-3.37,0-5.15-2.21-5.15-4.9v-8.45l-1.37-.19v-1.09l2.81-1.56c.44-.19,.69-.09,.69,.38v10.54c0,2.25,1.44,3.84,3.65,3.84s3.59-1.56,3.59-3.24v-8.67l-1.68-.19v-1.09l3.12-1.56c.44-.22,.69-.09,.69,.38v14.13l1.4,.12Z"/><path class="m" d="M117.14,109.69l-1.06-.12v-1.19h4.77v1.19l-1.53,.12,3.59,10.95,3.12-9.82-.38-1.12-1.22-.12v-1.19h4.87v1.19l-1.53,.12,3.53,11.17,3.46-11.17-1.53-.12v-1.19h4.15v1.19l-1.06,.12-4.46,13.91c-.16,.47-.37,.69-.78,.69-.44,0-.62-.22-.78-.69l-3.53-10.6-3.4,10.6c-.16,.47-.37,.69-.78,.69-.44,0-.62-.25-.78-.69l-4.68-13.91Z"/><path class="m" d="M145.16,124.34c-4.12,0-6.92-3.12-6.92-7.92,0-5.15,3.31-8.42,6.46-8.42,3.55,0,5.71,2.53,6.14,5.71l-10.29,4.12c.69,2.93,2.68,4.8,5.05,4.8s3.99-1.37,4.77-2.15l.81,.81c-.75,1.06-2.65,3.06-6.02,3.06Zm2.87-12.04c-.19-1.28-1.43-2.87-3.59-2.87-2.28,0-4.15,2.5-4.15,6.14,0,.28,0,.56,.03,.84l6.96-2.87c.72-.28,.81-.72,.75-1.25Z"/><path class="m" d="M152.9,123.97v-1.22l1.4-.12v-11.7l-1.31-.12v-1.12l2.93-1.62c.31-.16,.5-.03,.5,.44v3.31c.59-1.31,2.12-3.77,4.24-3.77,.59,0,1.09,.09,1.34,.34,.09,.72-.16,2.9-.25,3.56-.03,.22-.22,.25-.5,.25-.31,0-.44-.03-.47-.25-.09-.81-.28-1.78-1.06-1.78-1.37,0-3.31,2.68-3.31,4.46v8.02l1.68,.12v1.22h-5.21Z"/><path class="m" d="M170.67,124.34c-4.12,0-6.92-3.12-6.92-7.92,0-5.15,3.31-8.42,6.46-8.42,3.56,0,5.71,2.53,6.14,5.71l-10.29,4.12c.69,2.93,2.68,4.8,5.05,4.8s3.99-1.37,4.77-2.15l.81,.81c-.75,1.06-2.65,3.06-6.02,3.06Zm2.87-12.04c-.19-1.28-1.43-2.87-3.59-2.87-2.28,0-4.15,2.5-4.15,6.14,0,.28,0,.56,.03,.84l6.96-2.87c.72-.28,.81-.72,.75-1.25Z"/><path class="m" d="M184.58,123.97v-1.22l1.47-.09v-18.81l-1.43-.19v-1.09l3.06-1.62c.31-.16,.5-.03,.5,.44v21.27l1.4,.09v1.22h-4.99Z"/><path class="m" d="M198.53,108.03c4.21,0,6.96,3.59,6.96,8.14s-3.06,8.17-6.96,8.17-6.96-3.49-6.96-8.17,3.37-8.14,6.96-8.14Zm-.47,1.5c-2.4,0-4.3,2.4-4.3,6.14,0,4.52,2.74,7.17,5.33,7.17s4.21-2.43,4.21-6.18c0-4.52-2.56-7.14-5.24-7.14Z"/><path class="m" d="M214.81,108.03c4.21,0,6.96,3.59,6.96,8.14s-3.06,8.17-6.96,8.17-6.96-3.49-6.96-8.17,3.37-8.14,6.96-8.14Zm-.47,1.5c-2.4,0-4.3,2.4-4.3,6.14,0,4.52,2.74,7.17,5.33,7.17s4.21-2.43,4.21-6.18c0-4.52-2.56-7.14-5.24-7.14Z"/><path class="m" d="M223.8,123.97v-1.22l1.43-.09v-18.81l-1.43-.19v-1.09l3.06-1.62c.31-.16,.5-.03,.5,.44v14.44l6.77-6.08-1.34-.12v-1.25h4.65v1.25l-1.31,.12-3.68,3.28,4.77,9.61,1.4,.12v1.22h-5.05v-1.22l1.37-.12-4.08-8.17-3.49,3.12v5.08l1.44,.09v1.22h-4.99Z"/><path class="m" d="M240.75,123.97v-1.22l1.47-.09v-11.7l-1.37-.19v-1.09l2.81-1.56c.44-.19,.69-.09,.69,.37v14.16l1.4,.09v1.22h-4.99Zm.75-20.43c0-.9,.69-1.71,1.68-1.71,.94,0,1.68,.81,1.68,1.71s-.75,1.72-1.68,1.72-1.68-.84-1.68-1.72Z"/><path class="m" d="M248.08,123.97v-1.22l1.47-.09v-11.7l-1.37-.19v-1.09l2.81-1.56c.44-.19,.69-.09,.69,.37v1.62c.37-.53,1.56-2.09,4.37-2.09,3.31,0,5.24,2.21,5.24,4.9v9.7l1.4,.12v1.22h-4.93v-1.22l1.4-.12v-9.33c0-2.25-1.59-3.84-3.74-3.84-2.34,0-3.74,1.56-3.74,3.24v9.95l1.4,.09v1.22h-4.99Z"/><path class="m" d="M270.76,120.44c-2.18-.09-2.87,.59-2.87,1.15s.37,.84,.97,.87l5.33,.41c3.03,.22,4.18,1.56,4.18,3.37,0,2.31-2.93,4.02-7.48,4.02s-6.52-1.62-6.52-3.59c0-1.37,1.25-2.46,2.87-2.68-.87-.44-1.18-1.12-1.18-1.9,0-1.09,.91-1.93,2.4-2.12-2.18-.9-3.71-2.96-3.71-5.62,0-3.62,2.78-6.33,6.24-6.33,1.25,0,2.34,.31,3.27,.87v-.19c0-1.47,.84-3.15,2.99-3.15,1.25,0,1.81,.66,1.81,1.5,0,.62-.47,1.18-1.31,1.18s-1.12-.34-1.62-.34-.91,.37-.91,1c0,.47,.22,.84,.69,1.43l-.06-.03c.87,1.09,1.34,2.5,1.34,4.05,0,3.59-2.59,6.08-6.21,6.08h-.22Zm-4.43,6.02c0,1.5,1.47,2.53,4.4,2.53,3.68,0,5.71-1,5.71-2.37,0-1.09-.87-1.68-2.59-1.84l-4.71-.41c-1.37-.12-2.81,.62-2.81,2.09Zm8.61-11.48c0-3.46-1.69-5.62-4.27-5.62-2.12,0-3.68,1.65-3.68,4.37,0,3.43,1.87,5.37,4.3,5.37,2.21,0,3.65-1.47,3.65-4.12Z"/><path class="m" d="M285.97,108.37h2.46v-.9c0-4.24,2.25-6.58,5.08-6.58,1.34,0,2.06,.56,2.06,1.4,0,.62-.47,1.12-1.22,1.12-1.03,0-1.44-1.03-2.15-1.03-.84,0-1.65,1.28-1.65,3.65v2.34h3.06v1.44h-3.06v12.85l1.65,.09v1.22h-5.24v-1.22l1.47-.09v-12.85h-2.46v-1.44Z"/><path class="m" d="M301.77,108.03c4.21,0,6.96,3.59,6.96,8.14s-3.06,8.17-6.96,8.17-6.96-3.49-6.96-8.17,3.37-8.14,6.96-8.14Zm-.47,1.5c-2.4,0-4.3,2.4-4.3,6.14,0,4.52,2.74,7.17,5.33,7.17s4.21-2.43,4.21-6.18c0-4.52-2.56-7.14-5.24-7.14Z"/><path class="m" d="M310.86,123.97v-1.22l1.4-.12v-11.7l-1.31-.12v-1.12l2.93-1.62c.31-.16,.5-.03,.5,.44v3.31c.59-1.31,2.12-3.77,4.24-3.77,.59,0,1.09,.09,1.34,.34,.09,.72-.16,2.9-.25,3.56-.03,.22-.22,.25-.5,.25-.31,0-.44-.03-.47-.25-.09-.81-.28-1.78-1.06-1.78-1.37,0-3.31,2.68-3.31,4.46v8.02l1.68,.12v1.22h-5.21Z"/><path class="m" d="M333.14,107.72c0,5.02-5.4,6.11-5.27,10.7h-1.37c-.37-4.74,4.27-5.77,4.27-10.7,0-2.53-1.34-3.93-3.43-3.93s-3.18,1.53-3.18,3.03,1.87,1.25,1.87,2.78c0,.81-.72,1.25-1.37,1.25-1.25,0-2.46-1.15-2.46-3.34,0-2.81,2.15-5.18,5.33-5.18,3.49,0,5.61,1.96,5.61,5.4Zm-7.8,14.69c0-1.06,.75-1.9,1.9-1.9,1.06,0,1.87,.84,1.87,1.9s-.78,1.93-1.87,1.93-1.9-.84-1.9-1.93Z"/></g></svg>