<?xml version="1.0" encoding="utf-8"?>
<!-- Generator: Adobe Illustrator 22.0.0, SVG Export Plug-In . SVG Version: 6.00 Build 0)  -->
<svg version="1.1" id="Layer_1" xmlns="http://www.w3.org/2000/svg" xmlns:xlink="http://www.w3.org/1999/xlink" x="0px" y="0px"
	 viewBox="0 0 3200 800" style="enable-background:new 0 0 3200 800;" xml:space="preserve">
<style type="text/css">
	.st0{fill-rule:evenodd;clip-rule:evenodd;fill:#BBC5BA;}
</style>
<path class="st0" d="M-226.6,540.1c0.3,0.3,0.6,0.8,1,0.9c4.4,1.2,8.2,4,12.6,5.4c4.4,1.4,8.8,2.9,13.2,4.3c0.6,0.2,1.3,0.4,1.9,0.5
	c4.2,1,7.1-2.8,5.8-7.4c-0.3-1.2-0.8-2.3-1.3-3.4c-6.4-12.4-12.3-25.2-19.7-36.9c-1.6-2.6-3.3-5.6-3.7-8.6
	c-0.9-6.7-3.2-12.9-4.7-19.3c-1.5-6.5-2.1-13-2-19.8c0.2-10.7,1.3-21.2,3.6-31.5c1.2-5.1,3.2-9.6,7-12.9c1.5-1.3,2.9-3,4-4.8
	c2.4-3.7,5.7-6.1,8.9-8.4c3.6-2.5,7.7-2.6,11.9-1.2c7.7,2.5,15.5,3.6,23.6,1.5c9.7-2.6,19.6-3.8,29.6-4.2c5.5-0.2,10.8,0.5,16,2.8
	c2.5,1.1,4.9,2.4,3.9,6.5c-0.2,0.7,1,2,1.7,2.8c0.4,0.5,1.2,0.6,1.8,0.7c8.5,2.3,16.9,4.4,25.7,4.1c3.7-0.1,7.4,0.4,11,0.3
	c1.8,0,3.2,0.7,4.3,2.8c2.3-1.7,4.5-3,6.2-4.7c2.6-2.5,3-6.4,3.9-9.9c0.7-2.7-0.7-4.9-2.1-6.7c-4.5-6-6.5-13.4-9-20.5
	c-4.4-12.5-9.5-24.5-16.2-35.6c-4.2-6.9-6.6-14.4-7-22.8c-0.2-4.9-0.4-9.9-0.9-14.8c-0.5-5.3,0.7-10.3,1.3-15.4
	c0.2-1.4,0.8-2.8,1.3-4.1c0.5-1.3,1.3-2.5,1.8-3.9c0.6-1.8,0.7-4,1.7-5.5c2.6-4.2,5.3-8.2,8.3-12c1.1-1.4,2.9-1.9,4.6-2.8
	c1.2-2.4,2.4-4.9,3.8-7.6c1.4,0.1,2.7,0.3,4,0.4c0.8,0,2.1,0.3,2.5-0.2c2.6-3.4,6.1-1.9,9.1-2.1c1.8-0.1,3.2-0.1,4.6-1.7
	c1-1.2,2.5-1.7,3.8-2.5c0.4-0.2,0.9-0.6,1.1-0.4c3.1,2.5,5.7-0.2,8.6-0.7c3-0.5,5.9,0.9,9,0.1c1.4-0.4,3.2,1,5.3,1.8
	c0.6-0.3,1.6-0.6,2.5-1.3c1.4-1.1,2.8-0.8,4.3-0.2c3,1.1,5.3,3.3,7.6,5.6c5,5.2,9.4,11.1,13.5,17.2c8.5,12.7,16.2,25.9,23.4,39.5
	c2.1,4,4.4,8,6.4,12.1c1.8,3.6,4,6.5,7.4,8c3.8,1.7,6.2,4.9,8.2,9c3.3,6.7,7,13.2,12.2,18.3c1.9,1.9,3.7,4.4,4.7,7.1
	c2.5,6.2,6.7,10.3,11.6,13.7c0.6,0.4,1.1,0.8,1.7,1.3c2.9-0.8,3.7-3.6,4.4-6.7c2.1,1,4,2.1,6,2.9c2.2,0.9,4.1-1,3.5-3.5
	c-0.9-3.6-1.6-7.2-1.4-10.8c1.4-2.1,3.1-3.8,3.9-5.9c0.7-1.9,0.6-4.3,0.8-6.5c0.1-1,0.2-2,0.3-2.9c0.9-6.8,1.3-13.6,1.4-20.6
	c0-9.3,1.9-18.6,6.3-26.8c1.7-3.1,2.9-6.5,5.9-8.5c2.7-1.9,5.3-3.2,8.5-3.2c2.6-0.1,5.2-0.3,7.8-0.4c0.4,0,0.9-0.1,1.3-0.1
	c4.1-0.1,16.9,4.6,20.2,7.5c9.6,8.5,17.4,18.7,23.5,30.7c2.7,5.4,5.7,10.5,8.5,15.9c1.7,3.3,4,5.7,7.2,7.3
	c16.1,7.9,29.1,20.6,40.4,35.7c1.1,1.5,2.2,3.1,3.2,4.7c6.9,11.8,13.8,23.6,20.5,35.4c2,3.5,3.6,7.4,5.4,11.1c0.9,1.9,1.4,4.2,4,5.1
	c0.6-0.8,1.4-1.6,1.8-2.6c6-17.2,13.7-33.5,20.9-50c4.5-10.4,8.5-21.1,13.9-30.9c0.9-1.6,1.5-3.6,2.1-5.4c1.3-3.4,2.9-6.6,5.6-8.9
	c2.3-2,3.7-4.6,4.3-8c0.4-2.4,1.3-4.7,2.1-6.9c1-2.7,2-5.5,3.1-8.1c0.7-1.8,1.6-3.5,2.5-5.1c0.5-0.8,1.4-1.3,1.7-2.2
	c2.9-8.7,10.4-11.2,16.4-15.6c6.2-4.6,13.4-6.4,20.8-7.4c2.3-0.3,4.7-1,6.9-1.5c5.7,4.2,5.7,4.2,10.3,12.1c1.1-0.6,1.4-0.8,1.8-1.5
	c0.4,0.1,0.9,0,1.2,0.2c1.7,1.5,3.4,3,5,4.7c4.7,5,4.6,5.6,10.3,6.5c3.3,0.5,4.4,2.3,5.3,5.3c4.6,2.1,9.2,4.3,14.2,2.3
	c3.5,3.4,7.1,5.8,11.6,6.7c3.3,0.7,6.4,2.9,9.4,4.8c2.9,1.9,4.8,5,6.2,8.4c4.1,9.9,7.6,20,11.1,30.2c3.1,8.9,6.6,17.8,12.5,25.1
	c2.6,3.2,4.3,7.4,6.5,11.1c5.2,8.6,10.4,17.2,15.5,25.8c5.5,9.3,10.9,18.6,16.4,27.9c8.2,14.2,14.4,29.5,19.3,45.5
	c2.8,9.4,5.6,18.8,8.4,28.2c0.6,1.8,1.3,3.6,2,5.7c7.2,0.9,13.8-1.7,20-3.3c1.7-2.3,1.1-4.3,0.5-6.1c-2.7-9-3.9-18.3-3.7-27.8
	c0.1-2.9-0.7-5.9-1.6-8.6c-2.6-8.7-5.6-17.2-8-26c-3.5-12.8-4.6-25.8-1.2-38.7c2.6-9.6,3.1-19.4,3.8-29.3c0.8-11.2,2.6-22,6.7-32.2
	c0.9-2.2,2.1-4.3,3.6-6c4.2-4.6,8.6-9,13.1-13.2c1.4-1.3,3.4-2.2,5.2-2.8c3.7-1.3,7.5-2.3,11.3-3.3c4.4-1.1,8.8-2.6,13.3-3.1
	c7.2-0.7,13.9-3.4,20.8-5.5c7.3-2.2,14.6-4.6,22-6.2c12.2-2.7,24.6-3.1,36.7,1c6,2,11.8,4.9,17.7,7.5c2.8,1.3,5.5,3,8.3,4.2
	c12.6,5.4,22.8,14.5,31.4,25.9c6,7.9,11.6,16.1,17.3,24.3c1.7,2.4,3.2,4.5,6.2,4.6c3.3,0.2,5.7,2.7,7.1,5.9
	c3.9,8.9,9.2,16.9,11.6,26.6c0.6,2.3,1.7,3.9,3.4,5.1c5.6,3.9,10.9,8.2,16.6,11.7c10.8,6.8,19.5,16.4,27.9,26.5
	c6.8,8.1,13.8,15.8,20.7,23.8c6,6.9,11.9,13.8,17.9,20.8c6.3,7.3,11.3,15.8,15.7,24.7c2.1,4.3,4.3,8.6,6.5,12.9
	c0.9,1.7,1.8,3.4,3,4.8c1.9,2.2,3.3,4.6,4.5,7.3c1.6,3.6,3.7,6.7,7,8.6c1.5,0.9,2.8,2.4,4.1,3.7c6.8,6.8,14.2,12.3,22.5,16.4
	c14.4,7.1,28.9,13.7,44.1,18.2c14.3,4.3,28.4,9.1,42.8,13c18,4.9,35.5,11.3,53.1,17.8c7.9,2.9,15.5,6.4,22.4,11.8
	c1.2,0.9,2.8,1.2,4.2,1.6c2.5,0.8,5.2,1,7.5,2.3c8.5,4.6,17.5,7.4,26.1,11.5c9,4.3,18,8.7,27,13c2.4,1.1,4.8,2.4,7.3,3
	c9.5,2.2,19,4.8,28.2,8.5c3.7,1.5,7.5,2.3,11.3,3.4c15.8,4.4,31,11.2,46.7,16.1c2.7,0.9,5.4,1.9,8.1,2.6c3,0.8,5.7,2.1,7.3,5.2
	c2.2-0.5,4-1.4,5.9-1.3c1.6,0.1,3.2,1.4,4.9,2c1.8,0.6,3.7,1.4,5.6,1.5c5.7,0.1,10.4,3.3,15.2,5.9c1.5,0.8,2.9,2,4.6,2.5
	c1.9,0.6,3.6,1.7,5.4,2.7c1.1,0.7,2.1,1.6,3.9,2.9c-2.3,0.4-3.9,0.6-5.5,0.9c-1.4,0.3-2.9,0.6-4,0.8c-0.9,2.2,0.9,2.2,1.3,3.5
	c-10.3,4.3-20.8,5.5-31.6,2.4c-0.2,1.9,1.6,1.4,1.9,2.5c-3.2,1.5-3.2,1.4-5.8,1.3c-3-0.1-6,0-9.1,0.1c-6.9,0.3-13.8-0.2-20.7-1.2
	c-0.8-0.1-1.7-0.2-3.5-0.5c2.2,2,3.7,3.4,6,5.4c-3.2,0.4-5.5,0.1-7.7-0.4c-8.9-2.3-17.8-4.7-26.7-6.9c-2.7-0.7-5.5-1.1-8.3-1.6
	c-0.3-0.2-0.6-0.4-0.9-0.6c0,0-0.2,0.2-0.3,0.3c0.5,0,0.9,0,1.4,0c-1.6,4.5-5.1,5.7-8.7,6.4c-2.8,0.5-5.5,0.7-7.7,3.3
	c-0.9,1.1-2.8,1.1-4.2,1.5c-1.3,0.3-2.7,0.2-3.8,0.8c-0.7,0.3-0.8,2-1.4,2.5c-1.2,0.9-2.7,1.7-4.1,1.8c-8.6,1-17.2,1.8-25.9,2.6
	c-6.7,0.6-13.4,1.4-20.1,1.7c-25.6,1.3-51.1,1.1-76.7-1c-12.1-1-24.3-1-36.4-0.8c-9.5,0.2-19.1,0.2-28.6,0.4
	c-12.8,0.3-25.6-0.3-38.3,0.3c-4.8,0.2-9.5,0-14.3,0.1c-2.2,0-4.3,0.3-6.4,0.6c-2.4,0.3-4.7,0.4-7.1-0.2c-2.7-0.7-5.6-0.7-8.4-0.9
	c-11.9-0.8-23.8-1.7-35.7-1.1c-3.7,0.2-7.4,0.1-11,0.1c-11.5,0-22.8,2.3-34.3,3c-8.4,0.5-16.8,1.7-25.3,0.9c-3-0.3-6.1,0-9.1,0.2
	c-1.4,0.1-2.8,0.9-4.8,1.6c-2.8-1.9-6.7-2.4-10.6-2.8c-9.3-0.9-18.6-2.2-27.8-3.2c-3.4-0.4-6.8-1.5-10.3-0.4
	c-1.1,0.4-2.5-0.3-3.8-0.7c-2.1-0.6-4.2-1.4-6.2-2.1c-5.1-1.7-9.9-1.2-14.2,3.2c-3-0.5-6.2-1-9.4-1.5c-0.9-0.1-1.7-0.4-2.6-0.4
	c-10.4-0.1-20.7-1.6-31-2.9c-3.6-0.4-7.4-0.2-11,0.2c-3.9,0.4-7.8,1-11.5,2.1c-2.9,0.8-5.6,0.5-8.3-0.3c-4.2-1.2-8.3-2.7-12.4-4
	c-1.4-0.4-2.9-0.8-4.4-0.9c-8.6-1-17.2-2.1-25.8-3.3c-13.3-2-26.6-4.2-40.1-3.7c-5.4,0.2-10.8,0.2-16.2,0.7
	c-11,1.1-22.1,0.3-33.1-0.2c-5.6-0.3-11.2-1.3-16.8-1.5c-3-0.1-6,0.5-9,0.9c-4.1,0.6-8.1,1.7-12.1-0.2c-0.6-0.3-1.3-0.1-1.9-0.1
	c-10.4-0.2-20.8-0.4-31.2-0.6c-0.9,0-1.7,0.1-2.5,0.1c-0.3,3.4,2.7,1.8,3.5,3.5c-8.3,2.2-16.6,0.6-25.1-0.2c0.7-1.7,1.8-1,2.7-1.1
	c0.9-0.1,1.7-0.1,2.6-0.1c1,0,2.1-0.1,3.2-0.6c-3-1.8-6.1-2.5-9.4-2.9c-2.1-0.2-4.2-1-6.3-1.7c-0.7-0.3-1.5-1.1-1.7-1.9
	c-0.7-2.3-2.3-2.5-3.6-1.8c-3.4,1.8-7,2.3-10.7,2.2c-0.9,0-2-0.1-2.5,0.4c-2.8,3.2-6.5,2.2-9.8,2.5c-4.7,0.4-9.5,0.6-14.3,0.9
	c-7.6,0.4-15.1,0.3-22.4-2.5c-2.6-1-5.6-1.1-8.4-0.9c-12.9,1-25.8,2.2-38.8,3.3c0.1,0.4,0.1,0.7,0.2,0.7c0.2,0.1,0.5,0.1,0.6,0.2
	c0.5,0.4,1.3,0.9,1.3,1.2c0,0.6-0.6,1.4-1,1.6c-1.2,0.4-2.5,0.6-3.8,0.6c-3.2,0.2-6.5,0.3-9.8,0.5c-2.3,0.1-4.7,0.2-7.8,1.6
	c2.4,1.5,4,2.8,5.9,1.6c3.8-2.6,7.3,0,11.1,0.4c-0.7,2-2,1.6-2.9,1.6c-11.5,0.6-23,1.4-34.4,1.4c-9.1,0-18.2,0.5-27.3-0.6
	c-9.9-1.1-19.9-1.8-29.8-2.5c-8-0.6-16-1.1-24-1.6c-0.8-0.1-1.6-0.2-2.3-1.3c6.4,0.2,12.8,0.3,19,0.5c0.6-1.6,0.2-2.4-0.8-2.7
	c-1.9-0.5-3.8-1.3-5.7-1.4c-3.1-0.1-5.9-0.7-8.6-2.7c-2.5-1.8-5.5-1.5-8.3-1.5c-2.6,0-5.3,0-7.8,0.8c-4.3,1.3-8.6,0.8-12.9,0.8
	c-11.3-0.1-22.5-0.4-33.8-0.5c-2.4,0-4.7-0.2-6.9,1.4c-1,0.7-2.5,0.6-3.8,0.5c-15.2-0.6-30.4-0.4-45.5-1.9c-1.3-0.1-2.6-0.4-3.9-0.2
	c-14.9,1.9-29.9,0.1-44.8-0.5c-3.7-0.1-7.4-0.2-11,0.4c-8,1.5-16,1.5-24,1.8c-14.3,0.4-28.6,0.5-42.9,0.7c-0.4,0-0.9,0.1-1.3,0
	c-17.9-2-35.5,0.9-53.1,2.8c-14.4,1.5-28.9,3.2-43.4,4.1c-8.6,0.5-17.3-0.2-26-0.5c-5.2-0.1-10.4-0.4-15.6-0.5
	c-11.9-0.3-23.8-0.3-35.8-0.7c-5.9-0.2-11.7,0.2-17.5,0.7c-14,1.3-28.1,2.4-42.1,3.4c-16.2,1.2-32.4,2.3-48.7,3.2
	c-10.4,0.5-20.8,0.5-31.2,0.8c-6.5,0.2-13,0.3-19.5,0.7c-10,0.6-19.9,1.5-29.8,2.1c-3.5,0.2-6.9,0.4-10.4,0.2
	c-17.3-1.1-34.7-0.5-52,0.3c-14.3,0.6-28.6,0.4-42.8-2.2c-1.9-0.4-3.9-0.5-5.8-0.7c-5.4-0.8-10.7-1.6-16.1-2.3
	c-2.6-0.4-5.2-0.6-7.7-0.9c-2.2,3.2-4.8,0.9-7.2,0.6c-2.6-0.3-5.1-0.4-7.7,0.1c-14.1,2.8-28.2,4.8-42.6,4.5
	c-6.5-0.1-13,0.7-19.5,0.7c-4.5,0-9.1-0.6-13.6-1.1c-5.8-0.7-11.6-1.9-17.4-2.6c-2.8-0.4-5.7-0.5-8.4-0.2c-11.2,1.5-22.5,1.6-33.7,2
	c-5.8,0.2-11,2.4-16.3,4.6c-10.6,4.3-21.3,8.2-32.3,10.8c-6.3,1.5-12.8,2.7-19.3,3c-16.7,0.7-33.4-1.3-49.8-5.1c-4-1-8-2.3-11.9-3.8
	c-9-3.7-18-7.3-26.8-11.6c-7.9-3.8-14.8-9.6-20.4-17.1c-3.6-4.9-6.5-10.1-6.5-17.2c0-5.6,0.7-11.3-0.4-17c-0.4-2,1-3.9,2.6-4.8
	c6.3-3.7,12.5-8,19.2-10.5c6.5-2.4,13.1-5,20.2-4.7c3.9,0.1,7-2.3,10.6-4.1c2.2,2.3,4.9,2.8,7.6,1.1c2.2-1.3,4.4-1.8,6.9-1.9
	c1,0,2.4-0.2,3-0.9c2.4-2.6,5.1-2.3,7.9-1.7c7.8,1.8,15.1-0.5,22.3-3.1c1.4-0.5,2.6-1.1,4.2-1c1.9,0.2,3.9-0.2,5.7-0.9
	c6.4-2.4,13.1-3.4,19.7-4.3c1.9-0.3,3.9-0.5,5.7-1.1c3.2-1.1,6.3-1,9.6-0.9c6.7,0.4,13.4,0.2,20.1-0.3c6-0.4,12-1.2,18.1-0.9
	c5.8,0.2,11.7-0.7,17.5-1.1c0.2,0,0.4-0.1,0.6-0.1c5.8-2.1,11-5.4,15.7-9.8c-0.3-1-0.3-1.8-0.6-2.4c-4.7-8.9-9.4-17.9-14.3-26.7
	c-2.8-5-5.9-9.9-9.3-14.3c-8.1-10.3-14.2-22-20.7-33.5c-1.3-2.3-2.6-4.6-3.8-7c-4.7-9.2-6.8-19.2-7.6-29.7c-0.6-7.6,1.7-14.1,5.6-20
	c2.3-3.5,4.9-6.6,6.3-11c0.9-2.8,3.4-5,5.5-7.1c2-2,5.2-2.5,5.4-6.5c0-0.7,1.7-1.3,2.6-1.8c2.1-1,3.7-2.4,4.3-5.2
	c2.5-0.4,5.1-1.1,7.6-1c3.5,0.2,6.8,0.2,9.9-2.4c0.8-0.7,2.5-0.5,3.7-0.1c2.2,0.8,4.3,2,6.6,3.1c-0.2,0.8-0.4,1.7-0.5,2.4
	c3.6,0.9,7.1,2,10.7,2.7c1.4,0.3,3-0.1,4.3-0.8c2.1-1.1,4-2.6,6.1-4c2.9,1.1,5.7,2.7,8.6,3.1c2.7,0.3,5.5-1,8.3-1.2
	c4.3-0.3,8.6-0.2,12.9-0.1c1.5,0,3,0.6,4.4,1.2c7.3,3.3,14.5,6.6,21.8,9.9c3.6,1.7,7.2,3.4,10.9,4.9c3,1.3,5.9,3.3,9.4,2
	c0.7-0.3,1.7,0.2,2.5,0.6c4.3,2.3,8.7,4.6,13,6.9c1,0.5,1.8,1.5,2.8,1.9c7.4,3,14.4,6.8,21.5,10.7c6,3.4,12,6.9,18.1,10.3
	c0.2,0.1,0.4,0.3,0.5,0.4c4.8,4.1,4.8,4.1,10.3,4.6c3.1,4.7,7.5,6.6,12.4,6c3.3-0.4,6.4-0.9,9.6,0.5c0.9,0.4,2.1,0.1,3.2,0.2
	c1.1,0.1,2.3-0.1,3.1,0.4c2.5,1.8,5.1,2.3,8,1.7c1.2-0.3,2.5,0.5,3.8,0.9c0.8,0.3,1.6,1.2,2.4,1.1c6.8-0.8,11.6,4,17.1,7.3
	c3.4,2.1,7.3,3.2,10.7,5.4c4.4,2.9,9.1,4.6,13.9,6.1c4.6,1.4,6.2,0.5,8.1-4.4c1.4-3.7,2.1-7.4,2.2-11.5c0.1-8.2-0.6-16.3-2.6-24.2
	c-3.4-13.3-6.9-26.7-9.6-40.2c-1.7-8.6-5.1-16.3-8-24.3c-2.6-7.3-3.5-14.8-2.8-22.5c0.1-1.2,0.3-2.4,0.5-3.7
	c1.8-12.1,1.9-11.9,10.6-18.6c6.1-4.6,12.9-7,19.7-9c4.9-1.4,10.3-0.9,15.4-1c3-0.1,6,0.5,8.5-2.3c1.5-1.6,3.7-0.8,5.6-0.3
	c9.7,2.6,15.8,5.9,24.6,12.9c-3.2,2.5-6.5,1.8-10,0.5c-3.1-1.2-3.1-1-6,1.3c0.5,0.7,0.9,1.7,1.5,2.2c11.8,8.8,23.7,17.5,35.5,26.4
	c7.7,5.8,15.9,10.1,24.3,14.3c11,5.4,22.2,10.2,32.3,17.5c5.7,4.1,11.3,8.2,16.6,13c3.5,3.2,7.1,6.5,11.9,7.2c3,0.5,5.8,2.1,8.6,3.2
	c0.8,0.3,1.8,0.6,2.3,1.3c1.5,2.4,3.7,3.2,6,4.2c1.4,0.6,2.7,1.7,2.6,3.9l0.1-0.1c-0.1,0.9-0.3,1.8-0.4,2.7
	c-1.8,1.2-1.8,1.2-0.6,3.8c-0.8-0.4-1.6-0.7-2.3-1.2c-1.3-1-2.5-2.2-3.7-3.3c-1.2,1.1-1.4,2.1-0.5,3.2c1.8,2.1,4,2.4,6.3,1.3
	c0.2-1.3,0.3-2.6,0.5-3.9c4.8,0.7,8.2,5,12.9,6.3c2.5,0.7,4.6,3.5,6.7,5.7c1.9,2,3.6,4.3,5.1,6.6c2,3,1.8,3.9-0.8,6.7
	c-0.3,0.3-0.7,0.5-1.1,0.8c-0.1-2.1-0.6-3.8-2.9-3.9c-0.1,0-0.4,0.3-0.4,0.5C-230,539.6-228.4,539.9-226.6,540.1"/>
<path class="st0" d="M3456.8,540.1c-0.3,0.3-0.6,0.8-1,0.9c-4.4,1.2-8.3,4-12.6,5.4c-4.4,1.4-8.8,2.9-13.2,4.3
	c-0.6,0.2-1.3,0.4-1.9,0.5c-4.2,1-7.1-2.8-5.8-7.4c0.3-1.2,0.8-2.3,1.3-3.4c6.4-12.4,12.3-25.2,19.7-36.9c1.6-2.6,3.3-5.6,3.7-8.6
	c0.9-6.7,3.2-12.9,4.7-19.3c1.5-6.5,2.1-13,2-19.8c-0.2-10.7-1.3-21.2-3.6-31.5c-1.2-5.1-3.2-9.6-7-12.9c-1.5-1.3-2.9-3-4-4.8
	c-2.4-3.7-5.7-6.1-8.9-8.4c-3.6-2.5-7.7-2.6-11.9-1.2c-7.7,2.5-15.5,3.6-23.6,1.5c-9.7-2.6-19.6-3.8-29.6-4.2
	c-5.5-0.2-10.8,0.5-16,2.8c-2.5,1.1-4.9,2.4-3.9,6.5c0.2,0.7-1,2-1.7,2.8c-0.4,0.5-1.2,0.5-1.8,0.7c-8.5,2.3-16.9,4.4-25.7,4.1
	c-3.7-0.1-7.4,0.4-11,0.3c-1.8,0-3.2,0.7-4.3,2.8c-2.3-1.7-4.5-3-6.2-4.7c-2.6-2.5-3-6.4-3.9-9.9c-0.7-2.7,0.7-4.9,2.1-6.7
	c4.5-6,6.5-13.4,9-20.5c4.4-12.5,9.5-24.5,16.2-35.6c4.2-6.9,6.6-14.4,7-22.8c0.2-4.9,0.4-9.9,0.9-14.8c0.5-5.3-0.7-10.3-1.3-15.4
	c-0.2-1.4-0.8-2.8-1.3-4.1c-0.5-1.3-1.3-2.5-1.8-3.9c-0.6-1.8-0.7-4-1.7-5.5c-2.6-4.2-5.3-8.2-8.3-12c-1.1-1.4-2.9-1.9-4.6-2.8
	c-1.2-2.4-2.4-4.9-3.8-7.6c-1.4,0.1-2.7,0.3-4,0.4c-0.8,0-2.1,0.3-2.5-0.2c-2.6-3.4-6.1-1.9-9.1-2.1c-1.8-0.1-3.2-0.1-4.6-1.7
	c-1-1.2-2.5-1.7-3.8-2.5c-0.4-0.2-0.9-0.6-1.2-0.4c-3.1,2.5-5.7-0.2-8.6-0.7c-3-0.5-5.9,0.9-9,0.1c-1.4-0.4-3.2,1-5.3,1.8
	c-0.6-0.3-1.6-0.6-2.5-1.3c-1.4-1.1-2.8-0.8-4.3-0.2c-3,1.1-5.3,3.3-7.6,5.6c-5,5.2-9.4,11.1-13.5,17.2
	c-8.5,12.7-16.2,25.9-23.4,39.5c-2.2,4-4.4,8-6.4,12.1c-1.8,3.6-4,6.5-7.4,8c-3.8,1.7-6.2,4.9-8.2,9c-3.3,6.7-7,13.2-12.2,18.3
	c-1.9,1.9-3.7,4.4-4.7,7.1c-2.5,6.2-6.7,10.3-11.6,13.7c-0.6,0.4-1.1,0.8-1.7,1.3c-2.9-0.8-3.7-3.6-4.4-6.7c-2.1,1-4,2.1-6,2.9
	c-2.2,0.9-4.1-1-3.5-3.5c0.9-3.6,1.6-7.2,1.4-10.8c-1.4-2.1-3.1-3.8-3.9-5.9c-0.7-1.9-0.6-4.3-0.8-6.5c-0.1-1-0.2-2-0.3-2.9
	c-0.9-6.8-1.3-13.6-1.3-20.6c0-9.3-1.9-18.6-6.3-26.8c-1.7-3.1-2.9-6.5-5.9-8.5c-2.7-1.9-5.3-3.2-8.5-3.2c-2.6-0.1-5.2-0.3-7.8-0.4
	c-0.4,0-0.9-0.1-1.3-0.1c-4.1-0.1-16.9,4.6-20.2,7.5c-9.6,8.5-17.4,18.7-23.5,30.7c-2.7,5.4-5.7,10.5-8.5,15.9
	c-1.7,3.3-4,5.7-7.2,7.3c-16.1,7.9-29.1,20.6-40.4,35.7c-1.1,1.5-2.2,3.1-3.2,4.7c-6.9,11.8-13.8,23.6-20.5,35.4
	c-2,3.5-3.6,7.4-5.4,11.1c-0.9,1.9-1.4,4.2-4,5.1c-0.6-0.8-1.4-1.6-1.8-2.6c-6-17.2-13.7-33.5-20.9-50c-4.5-10.4-8.5-21.1-13.9-30.9
	c-0.9-1.6-1.5-3.6-2.1-5.4c-1.3-3.4-2.9-6.6-5.6-8.9c-2.3-2-3.7-4.6-4.3-8c-0.4-2.4-1.3-4.7-2.1-6.9c-1-2.7-2-5.5-3.1-8.1
	c-0.7-1.8-1.6-3.5-2.5-5.1c-0.5-0.8-1.4-1.3-1.7-2.2c-2.9-8.7-10.4-11.2-16.4-15.6c-6.2-4.6-13.4-6.4-20.8-7.4
	c-2.3-0.3-4.7-1-6.9-1.5c-5.7,4.2-5.7,4.2-10.3,12.1c-1.1-0.6-1.4-0.8-1.8-1.5c-0.4,0.1-0.9,0-1.2,0.2c-1.7,1.5-3.4,3-5,4.7
	c-4.7,5-4.6,5.6-10.3,6.5c-3.3,0.5-4.4,2.3-5.3,5.3c-4.6,2.1-9.2,4.3-14.2,2.3c-3.5,3.4-7.1,5.8-11.6,6.7c-3.3,0.7-6.4,2.9-9.4,4.8
	c-2.9,1.9-4.8,5-6.2,8.4c-4.1,9.9-7.6,20-11.1,30.2c-3.1,8.9-6.6,17.8-12.5,25.1c-2.6,3.2-4.3,7.4-6.5,11.1
	c-5.2,8.6-10.4,17.2-15.5,25.8c-5.5,9.3-10.9,18.6-16.4,27.9c-8.2,14.2-14.4,29.5-19.3,45.5c-2.8,9.4-5.6,18.8-8.4,28.2
	c-0.6,1.8-1.3,3.6-2,5.7c-7.2,0.9-13.8-1.7-20-3.3c-1.7-2.3-1.1-4.3-0.5-6.1c2.7-9,3.9-18.3,3.7-27.8c-0.1-2.9,0.7-5.9,1.6-8.6
	c2.6-8.7,5.6-17.2,8-26c3.5-12.8,4.6-25.8,1.2-38.7c-2.6-9.6-3.1-19.4-3.8-29.3c-0.8-11.2-2.6-22-6.7-32.2c-0.9-2.2-2.1-4.3-3.6-6
	c-4.2-4.6-8.6-9-13.1-13.2c-1.4-1.3-3.4-2.2-5.2-2.8c-3.7-1.3-7.5-2.3-11.3-3.3c-4.4-1.1-8.8-2.6-13.3-3.1
	c-7.2-0.7-13.9-3.4-20.8-5.5c-7.3-2.2-14.6-4.6-22-6.2c-12.2-2.7-24.6-3.1-36.7,1c-6,2-11.8,4.9-17.7,7.5c-2.8,1.3-5.5,3-8.3,4.2
	c-12.6,5.4-22.8,14.5-31.4,25.9c-6,7.9-11.6,16.1-17.3,24.3c-1.7,2.4-3.2,4.5-6.2,4.6c-3.3,0.2-5.7,2.7-7.1,5.9
	c-3.9,8.9-9.2,16.9-11.6,26.6c-0.6,2.3-1.7,3.9-3.4,5.1c-5.6,3.9-10.9,8.2-16.6,11.7c-10.8,6.8-19.5,16.4-27.9,26.5
	c-6.8,8.1-13.8,15.8-20.7,23.8c-6,6.9-11.9,13.8-17.9,20.8c-6.3,7.3-11.3,15.8-15.7,24.7c-2.1,4.3-4.3,8.6-6.5,12.9
	c-0.9,1.7-1.8,3.4-3,4.8c-1.9,2.2-3.3,4.6-4.5,7.3c-1.6,3.6-3.7,6.7-7,8.6c-1.5,0.9-2.8,2.4-4.1,3.7c-6.8,6.8-14.2,12.3-22.5,16.4
	c-14.4,7.1-28.9,13.7-44.1,18.2c-14.3,4.3-28.4,9.1-42.8,13c-18,4.9-35.5,11.3-53.1,17.8c-7.9,2.9-15.5,6.4-22.4,11.8
	c-1.2,0.9-2.8,1.2-4.2,1.6c-2.5,0.8-5.2,1-7.5,2.3c-8.5,4.6-17.5,7.4-26.1,11.5c-9,4.3-18,8.7-27,13c-2.4,1.1-4.8,2.4-7.3,3
	c-9.5,2.2-19,4.8-28.2,8.5c-3.7,1.5-7.5,2.3-11.3,3.4c-15.8,4.4-31,11.2-46.7,16.1c-2.7,0.9-5.4,1.9-8.1,2.6c-3,0.8-5.7,2.1-7.3,5.2
	c-2.2-0.5-4-1.4-5.9-1.3c-1.6,0.1-3.2,1.4-4.9,2c-1.8,0.6-3.7,1.4-5.6,1.5c-5.7,0.1-10.4,3.3-15.2,5.9c-1.5,0.8-2.9,2-4.6,2.5
	c-1.9,0.6-3.6,1.7-5.4,2.7c-1.1,0.7-2.1,1.6-3.9,2.9c2.3,0.4,3.9,0.6,5.5,0.9c1.4,0.3,2.9,0.6,4,0.8c0.9,2.2-0.9,2.2-1.3,3.5
	c10.3,4.3,20.8,5.5,31.6,2.4c0.2,1.9-1.6,1.4-1.9,2.5c3.2,1.5,3.2,1.4,5.8,1.3c3-0.1,6,0,9.1,0.1c6.9,0.3,13.8-0.2,20.7-1.2
	c0.8-0.1,1.7-0.2,3.5-0.5c-2.2,2-3.7,3.4-6,5.4c3.2,0.4,5.5,0.1,7.7-0.4c8.9-2.3,17.8-4.7,26.7-6.9c2.7-0.7,5.5-1.1,8.3-1.6
	c0.3-0.2,0.6-0.4,0.9-0.6c0,0,0.2,0.2,0.3,0.3c-0.5,0-0.9,0-1.4,0c1.6,4.5,5.1,5.7,8.7,6.4c2.8,0.5,5.5,0.7,7.7,3.3
	c0.9,1.1,2.8,1.1,4.2,1.5c1.3,0.3,2.7,0.2,3.8,0.8c0.7,0.3,0.8,2,1.4,2.5c1.2,0.9,2.7,1.7,4.1,1.8c8.6,1,17.2,1.8,25.9,2.6
	c6.7,0.6,13.4,1.4,20.1,1.7c25.6,1.3,51.1,1.1,76.7-1c12.1-1,24.3-1,36.4-0.8c9.5,0.2,19.1,0.2,28.6,0.4c12.8,0.3,25.6-0.3,38.3,0.3
	c4.8,0.2,9.5,0,14.3,0.1c2.2,0,4.3,0.3,6.4,0.6c2.4,0.3,4.7,0.4,7.1-0.2c2.7-0.7,5.6-0.7,8.4-0.9c11.9-0.8,23.8-1.7,35.7-1.1
	c3.7,0.2,7.4,0.1,11,0.1c11.5,0,22.8,2.3,34.3,3c8.4,0.5,16.8,1.7,25.3,0.9c3-0.3,6.1,0,9.1,0.2c1.4,0.1,2.8,0.9,4.8,1.6
	c2.8-1.9,6.7-2.4,10.6-2.8c9.3-0.9,18.6-2.2,27.8-3.2c3.4-0.4,6.8-1.5,10.3-0.4c1.1,0.4,2.5-0.3,3.8-0.7c2.1-0.6,4.2-1.4,6.2-2.1
	c5.1-1.7,9.9-1.2,14.2,3.2c3-0.5,6.2-1,9.4-1.5c0.9-0.1,1.7-0.4,2.6-0.4c10.4-0.1,20.7-1.6,31-2.9c3.6-0.4,7.4-0.2,11,0.2
	c3.9,0.4,7.8,1,11.5,2.1c2.9,0.8,5.6,0.5,8.3-0.3c4.2-1.2,8.3-2.7,12.4-4c1.4-0.4,2.9-0.8,4.4-0.9c8.6-1,17.2-2.1,25.8-3.3
	c13.3-2,26.6-4.2,40.1-3.7c5.4,0.2,10.8,0.2,16.2,0.7c11,1.1,22.1,0.3,33.1-0.2c5.6-0.3,11.2-1.3,16.8-1.5c3-0.1,6,0.5,9,0.9
	c4.1,0.6,8.1,1.7,12.1-0.2c0.6-0.3,1.3-0.1,1.9-0.1c10.4-0.2,20.8-0.4,31.2-0.6c0.9,0,1.7,0.1,2.5,0.1c0.3,3.4-2.7,1.8-3.5,3.5
	c8.3,2.2,16.6,0.6,25.1-0.2c-0.7-1.7-1.8-1-2.7-1.1c-0.9-0.1-1.7-0.1-2.6-0.1c-1,0-2.1-0.1-3.2-0.6c3-1.8,6.1-2.5,9.4-2.9
	c2.1-0.2,4.2-1,6.3-1.7c0.7-0.3,1.5-1.1,1.7-1.9c0.7-2.3,2.3-2.5,3.6-1.8c3.4,1.8,7,2.3,10.7,2.2c0.9,0,2-0.1,2.5,0.4
	c2.8,3.2,6.5,2.2,9.8,2.5c4.7,0.4,9.5,0.6,14.3,0.9c7.6,0.4,15.1,0.3,22.4-2.5c2.6-1,5.6-1.1,8.4-0.9c12.9,1,25.8,2.2,38.8,3.3
	c-0.1,0.4-0.1,0.7-0.2,0.7c-0.2,0.1-0.5,0.1-0.6,0.2c-0.5,0.4-1.3,0.9-1.3,1.2c0,0.6,0.6,1.4,1,1.6c1.2,0.4,2.5,0.6,3.8,0.6
	c3.2,0.2,6.5,0.3,9.8,0.5c2.3,0.1,4.7,0.2,7.8,1.6c-2.4,1.5-4,2.8-5.9,1.6c-3.8-2.6-7.3,0-11.1,0.4c0.7,2,2,1.6,2.9,1.6
	c11.5,0.6,23,1.4,34.4,1.4c9.1,0,18.2,0.5,27.3-0.6c9.9-1.1,19.9-1.8,29.8-2.5c8-0.6,16-1.1,24-1.6c0.8-0.1,1.6-0.2,2.3-1.3
	c-6.4,0.2-12.8,0.3-19,0.5c-0.6-1.6-0.2-2.4,0.8-2.7c1.9-0.5,3.8-1.3,5.7-1.4c3.1-0.1,5.9-0.7,8.6-2.7c2.5-1.8,5.5-1.5,8.3-1.5
	c2.6,0,5.3,0,7.8,0.8c4.3,1.3,8.6,0.8,12.9,0.8c11.3-0.1,22.5-0.4,33.8-0.5c2.4,0,4.7-0.2,6.9,1.4c1,0.7,2.5,0.6,3.8,0.5
	c15.2-0.6,30.4-0.4,45.5-1.9c1.3-0.1,2.6-0.4,3.9-0.2c14.9,1.9,29.9,0.1,44.8-0.5c3.7-0.1,7.4-0.2,11,0.4c8,1.5,16,1.5,24,1.8
	c14.3,0.4,28.6,0.5,42.9,0.7c0.4,0,0.9,0.1,1.3,0c17.9-2,35.5,0.9,53.1,2.8c14.4,1.5,28.9,3.2,43.4,4.1c8.6,0.5,17.3-0.2,26-0.5
	c5.2-0.1,10.4-0.4,15.6-0.5c11.9-0.3,23.8-0.3,35.8-0.7c5.9-0.2,11.7,0.2,17.5,0.7c14,1.3,28.1,2.4,42.1,3.4
	c16.2,1.2,32.4,2.3,48.7,3.2c10.4,0.5,20.8,0.5,31.2,0.8c6.5,0.2,13,0.3,19.5,0.7c9.9,0.6,19.9,1.5,29.8,2.1
	c3.5,0.2,6.9,0.4,10.4,0.2c17.3-1.1,34.7-0.5,52,0.3c14.3,0.6,28.6,0.4,42.8-2.2c1.9-0.4,3.9-0.5,5.8-0.7c5.4-0.8,10.7-1.6,16.1-2.3
	c2.6-0.4,5.2-0.6,7.7-0.9c2.2,3.2,4.8,0.9,7.2,0.6c2.6-0.3,5.1-0.4,7.7,0.1c14.1,2.8,28.3,4.8,42.6,4.5c6.5-0.1,13,0.7,19.5,0.7
	c4.5,0,9.1-0.6,13.6-1.1c5.8-0.7,11.6-1.9,17.4-2.6c2.8-0.4,5.7-0.5,8.4-0.2c11.2,1.5,22.5,1.6,33.7,2c5.8,0.2,11,2.4,16.3,4.6
	c10.6,4.3,21.3,8.2,32.3,10.8c6.3,1.5,12.8,2.7,19.3,3c16.7,0.7,33.4-1.3,49.8-5.1c4-1,8-2.3,11.9-3.8c9-3.7,18-7.3,26.8-11.6
	c7.9-3.8,14.8-9.6,20.4-17.1c3.6-4.9,6.5-10.1,6.5-17.2c0-5.6-0.7-11.3,0.4-17c0.4-2-1-3.9-2.6-4.8c-6.3-3.7-12.5-8-19.2-10.5
	c-6.5-2.4-13.1-5-20.2-4.7c-3.9,0.1-7-2.3-10.6-4.1c-2.2,2.3-4.9,2.8-7.6,1.1c-2.2-1.3-4.4-1.8-6.9-1.9c-1,0-2.4-0.2-3-0.9
	c-2.4-2.6-5.1-2.3-7.9-1.7c-7.8,1.8-15.1-0.5-22.3-3.1c-1.4-0.5-2.6-1.1-4.2-1c-1.9,0.2-3.9-0.2-5.7-0.9c-6.4-2.4-13.1-3.4-19.7-4.3
	c-1.9-0.3-3.9-0.5-5.7-1.1c-3.2-1.1-6.3-1-9.6-0.9c-6.7,0.4-13.4,0.2-20.1-0.3c-6-0.4-12-1.2-18.1-0.9c-5.8,0.2-11.7-0.7-17.5-1.1
	c-0.2,0-0.4-0.1-0.6-0.1c-5.8-2.1-11-5.4-15.6-9.8c0.3-1,0.3-1.8,0.6-2.4c4.7-8.9,9.4-17.9,14.3-26.7c2.8-5,5.9-9.9,9.3-14.3
	c8.1-10.3,14.2-22,20.7-33.5c1.3-2.3,2.6-4.6,3.8-7c4.7-9.2,6.8-19.2,7.6-29.7c0.6-7.6-1.7-14.1-5.6-20c-2.3-3.5-4.9-6.6-6.3-11
	c-0.9-2.8-3.4-5-5.5-7.1c-2-2-5.2-2.5-5.4-6.5c0-0.7-1.7-1.3-2.6-1.8c-2.1-1-3.7-2.4-4.3-5.2c-2.5-0.4-5.1-1.1-7.6-1
	c-3.5,0.2-6.8,0.2-9.9-2.4c-0.8-0.7-2.5-0.5-3.7-0.1c-2.2,0.8-4.3,2-6.6,3.1c0.2,0.8,0.4,1.7,0.5,2.4c-3.6,0.9-7.1,2-10.7,2.7
	c-1.4,0.3-3-0.1-4.3-0.8c-2.1-1.1-4-2.6-6.1-4c-2.9,1.1-5.7,2.7-8.6,3.1c-2.7,0.3-5.5-1-8.3-1.2c-4.3-0.3-8.6-0.2-12.9-0.1
	c-1.5,0-3,0.6-4.4,1.2c-7.3,3.3-14.5,6.6-21.8,9.9c-3.6,1.7-7.2,3.4-10.9,4.9c-3,1.3-5.9,3.3-9.4,2c-0.7-0.3-1.7,0.2-2.5,0.6
	c-4.3,2.3-8.7,4.6-13,6.9c-1,0.5-1.8,1.5-2.8,1.9c-7.4,3-14.4,6.8-21.5,10.7c-6,3.4-12,6.9-18.1,10.3c-0.2,0.1-0.4,0.3-0.6,0.4
	c-4.8,4.1-4.8,4.1-10.3,4.6c-3.1,4.7-7.5,6.6-12.4,6c-3.3-0.4-6.4-0.9-9.6,0.5c-0.9,0.4-2.1,0.1-3.2,0.2c-1.1,0.1-2.3-0.1-3.1,0.4
	c-2.5,1.8-5.1,2.3-8,1.7c-1.2-0.3-2.5,0.5-3.8,0.9c-0.8,0.3-1.6,1.2-2.4,1.1c-6.8-0.8-11.6,4-17.1,7.3c-3.4,2.1-7.3,3.2-10.7,5.4
	c-4.4,2.9-9.1,4.6-13.9,6.1c-4.6,1.4-6.2,0.5-8.1-4.4c-1.4-3.7-2.1-7.4-2.2-11.5c-0.1-8.2,0.6-16.3,2.6-24.2
	c3.4-13.3,6.9-26.7,9.6-40.2c1.7-8.6,5.1-16.3,8-24.3c2.6-7.3,3.5-14.8,2.8-22.5c-0.1-1.2-0.3-2.4-0.5-3.7
	c-1.8-12.1-1.9-11.9-10.6-18.6c-6.1-4.6-12.9-7-19.7-9c-4.9-1.4-10.3-0.9-15.4-1c-3-0.1-6,0.5-8.5-2.3c-1.5-1.6-3.7-0.8-5.6-0.3
	c-9.7,2.6-15.8,5.9-24.6,12.9c3.2,2.5,6.5,1.8,10,0.5c3.1-1.2,3.1-1,6,1.3c-0.5,0.7-0.9,1.7-1.5,2.2c-11.8,8.8-23.8,17.5-35.5,26.4
	c-7.7,5.8-15.9,10.1-24.3,14.3c-11,5.4-22.2,10.2-32.3,17.5c-5.7,4.1-11.3,8.2-16.6,13c-3.5,3.2-7.1,6.5-11.9,7.2
	c-2.9,0.5-5.8,2.1-8.6,3.2c-0.8,0.3-1.9,0.6-2.3,1.3c-1.5,2.4-3.7,3.2-6,4.2c-1.4,0.6-2.7,1.7-2.6,3.9l-0.1-0.1
	c0.1,0.9,0.3,1.8,0.4,2.7c1.8,1.2,1.8,1.2,0.6,3.8c0.8-0.4,1.6-0.7,2.3-1.2c1.3-1,2.5-2.2,3.7-3.3c1.2,1.1,1.4,2.1,0.5,3.2
	c-1.8,2.1-4,2.4-6.3,1.3c-0.2-1.3-0.3-2.6-0.5-3.9c-4.8,0.7-8.2,5-12.9,6.3c-2.5,0.7-4.6,3.5-6.7,5.7c-1.9,2-3.6,4.3-5.1,6.6
	c-2,3-1.8,3.9,0.8,6.7c0.3,0.3,0.7,0.5,1.1,0.8c0.1-2.1,0.6-3.8,2.9-3.9c0.1,0,0.4,0.3,0.4,0.5
	C3460.2,539.6,3458.5,539.9,3456.8,540.1"/>
</svg>
