<svg id="Layer_1" data-name="Layer 1" xmlns="http://www.w3.org/2000/svg" viewBox="0 0 2800 2240"><defs><style>.cls-1{fill:#6b702e;}.cls-2{fill:#0071ce;}.cls-3{fill:#bac4ba;}.cls-4{fill:#1a3c34;}</style></defs><title>Careers Questionmark Icon</title><path class="cls-1" d="M2080.55,659.75c-.62-1.58-1.26-3.16-1.89-4.75-5.57-13.9-11.33-28.27-14.07-43.53-7.74-43.05-22.44-83.29-38.1-124.15-12-31.38-29.3-72-56.35-107.59-23.11-30.45-48.18-62.68-78.88-101.42a85,85,0,0,0-17.61-16.87l-18.81-13.14c-32.09-22.44-65.28-45.64-98.77-66.85-16.7-10.58-35.54-19.14-53.77-27.43-4.34-2-8.83-4-13.23-6.06-42.54-19.71-87.26-31.17-137.11-43.08-40.37-9.64-62.51-10.88-77.3-10.88h-2.48c-10.87.13-21.93.21-32.62.29-37.13.28-75.53.56-113,2.85-67.31,4.13-125.08,18.66-176.63,44.44-62.4,31.2-118.15,71.34-165.7,119.28-36.57,36.88-65.16,64.69-92.69,90.19-21.14,19.58-45.58,43.05-66.57,68.66-21.73,26.51-37.66,52.69-48.72,80a63.05,63.05,0,0,1-4.55,8.72c-.37.64-.75,1.27-1.11,1.91-7.46,12.93-11.42,27-14.31,39.1-12.87,53.75-22.34,109.26-31.5,162.94-4.06,23.77-8.25,48.35-12.69,72.51a116.67,116.67,0,0,0-2.14,18.88c-.23,11.85,2.85,21.57,9.14,28.91s15.82,12.28,28.15,14.51A169.29,169.29,0,0,1,768.66,853c1.92.62,3.77,1.21,5.56,1.75,3-.42,6.1-.92,9.09-1.41,8.1-1.33,16.48-2.7,25.05-2.7,1,0,1.94,0,2.88.06l1.37,0c9,0,14-3.32,17.15-11.46a331,331,0,0,0,12.75-41.74c5.5-23,10.92-46.48,16.16-69.17,6.82-29.54,13.87-60.09,21.19-90.08a177.33,177.33,0,0,1,15.89-41.56c12-22.21,19.73-43.45,23.62-65a134.15,134.15,0,0,1,7.51-25.48c19.7-50,50.48-96.46,94.08-142,26.67-27.88,57.43-51.25,87.17-73.85,8.77-6.67,17.83-13.56,26.61-20.43,27.47-21.49,60-38,99.34-50.55l.78-.25c6-1.92,13.51-4.3,20.86-4.3a28.75,28.75,0,0,1,8.82,1.31,33.12,33.12,0,0,0,10.4,1.66c7.94,0,15.72-2.65,25.83-6.4a202.55,202.55,0,0,1,70.66-12.71h1.62c4,0,8.08.18,12,.32,4.41.16,8.57.31,12.73.31a103.63,103.63,0,0,0,12.16-.61,249.91,249.91,0,0,1,28.94-1.61c29.05,0,57.73,4.5,85.46,8.86,7.72,1.22,15.71,2.47,23.53,3.6A95.3,95.3,0,0,1,1597.58,232c6.71,5.82,14.1,10.92,21.93,16.33,4.58,3.16,9.32,6.43,13.93,9.87,46.35,34.59,85.83,77,124,118.09l.83.89a85.07,85.07,0,0,1,11.66,16.39c6.94,12.3,14.14,24.77,21.11,36.83,17.67,30.59,35.94,62.22,51.8,94.59,17.57,35.83,30.83,46.32,38.9,95.29,1,5.76,25,41,25.93,46.68,2.49,15.62,3.72,13.76,6.92,29.38,2.74,13.45,15.31,45.59,19,58.78,6.22,22.15,35.88,59.23,38,83.39,1,11.18-2.08,17.22,8.83,22.39,4.1,1.94,8.21,3.95,12.18,5.9,20.38,10-4.8,9.82,17.34,11.89,4.72.44,8.78.66,12.4.66,17.06,0,27-3.89,37.13-26,3.7-8,6.72-16.39,9.92-25.22,2.35-6.5,4.78-13.21,7.51-19.81,5.57-13.45,7.75-26.9,6.85-42.33a310.5,310.5,0,0,1,2.79-61.24C2088.7,689.75,2086.79,675.44,2080.55,659.75Z"/><path class="cls-2" d="M1778.89,890.33a12.26,12.26,0,0,0,5.68,1.15,11,11,0,0,0,3.51-.47c4.29-1.51,9.24-5.21,14.73-11,13-13.67,17.82-31.35,15.26-55.63-1-9.61-1.72-19.32-2.41-28.72-.3-4.17-.62-8.48-1-12.71l-.06-.7,0-.7c1.44-34.14-2.75-65.35-12.81-95.4-11.58-34.57-21.76-65.79-29.13-97.83a226.83,226.83,0,0,0-25.15-64.51c-6.57-11.24-14-24-20.65-37.08-18.86-37.17-41.76-69.63-68.06-96.49a333.17,333.17,0,0,0-95.54-68c-39.61-18.79-75.26-27.92-109-27.92h0a185.07,185.07,0,0,0-19.74,1c-44.28,4.74-77.9,9.8-109,16.42-55.84,11.87-109.77,37-164.86,76.91-68.13,49.33-117.24,117.73-150.11,209.12-7.65,21.25-14.14,43.5-20.42,65-4.57,15.66-9.3,31.86-14.47,47.7-5.47,16.77-5.65,34.16-5.84,52.56,0,2,0,4-.07,6.08-.07,5.17,1.41,10.1,2.82,11.7,15,16.93,21.19,36.94,25.85,54.36,4.37,16.37,16.51,27.21,39.36,35.13a24.22,24.22,0,0,0,8.06,1.38c5.63,0,11.74-1.94,18.69-5.94,14.3-8.23,24-20.32,31.51-39.2,3.17-8,6.5-16,9.73-23.83,10.57-25.5,20.56-49.59,26.87-75.74,8.2-34,19.16-67.76,29.75-100.38,3.92-12.09,8-24.59,11.83-36.89,10.47-33.48,29.37-63.6,56.18-89.52,29.83-28.85,66.29-52.27,111.45-71.59,24.94-10.66,47.88-15.85,70.15-15.85,20.54,0,40.2,4.32,60.1,13.19l11.94,5.3c60.4,26.79,65.33,29,111.76,88.81C1643,580.86,1669,637.2,1677.55,697.45c2.72,19,7.47,38.35,12.07,57.06,1.9,7.71,3.86,15.69,5.67,23.59,4,17.69,8.73,31.29,14.72,42.82A94.74,94.74,0,0,0,1737.68,854a43.83,43.83,0,0,1,7.25,7.24,35.12,35.12,0,0,0,3.09,3.37c2.44,2.13,4.88,4.32,7.24,6.43C1763.19,878.14,1770.69,884.87,1778.89,890.33Z"/><path class="cls-1" d="M1366.62,1569.67c11.32-9.09,21.65-12.08,33.75-13.21s24.2-5.91,36.12-9.79c25.79-8.38,51.45-17.19,77.16-25.86,7.33-2.48,15-4.25,21.88-7.77,45-23.18,90-46.3,134.54-70.44,15.3-8.29,29.18-19.27,43.49-29.33,16.68-11.72,33.33-23.51,49.63-35.72,50.18-37.56,92.26-82.43,131.32-130,23.15-28.16,45.92-56.57,65.6-86.88,20.16-31.06,53.75-78.86,68.3-112.52,19.68-45.53,34.15-92,45.54-139.21,14.09-58.49,15.29-116.38,11.79-174.24-1-16.84,4.15-27.8,1.61-44.26-6.84-44.43-32.14-78.26-40.63-122.3-2.3-12-8.42-22.91-12.11-34.57-10.28-32.56-23.16-64-36.44-95.33-3.39-8-5.92-16.43-8.93-24.62-3.4-9.27-9.91-15.52-18.22-21.48-18.54-13.28-41.28-17.8-62.75-24.9-7.49-2.48-16.54-1.9-25-1.87-8,0-14.76,3.7-19.81,10.36-6.33,8.36-13.15,16.43-19.25,24.92-6.81,9.47-11.14,19.64-10.24,30.86.35,4.42,1.62,9.1.39,13.29-5.66,19.18,1.95,34.39,9,50.65,10.7,24.81,21.4,49.52,34,73.44,7.68,14.61,13.54,30.21,19.71,45.59,15.93,39.67,28.71,80.44,39.77,122,8.67,32.57,13.58,65.29,10.66,99.74a16,16,0,0,0-.07,2.68c3.84,45.59-6.59,91.38-12.75,137-4.86,36-17.44,71.08-33.25,105.21a109.58,109.58,0,0,1-8.45,14.71c-19.57,29.23-38.84,58.63-59.08,87.48-15.89,22.65-34.71,43.19-55.46,62.36-24.82,22.94-47.26,48.13-74.3,69-35.48,27.41-72.2,52.65-113.53,70.93-12.42,5.5-24.33,12.33-36.25,19-31.65,17.6-65,31.05-99.06,42.23-25.07,8.23-48.73,19.13-72,31.38-16.29,8.57-27,20.69-32.9,37.82-5.79,16.82-9.81,33.47-10.38,50.59-.24,7.31,8.64,12.28,16.09,9A102.88,102.88,0,0,0,1366.62,1569.67Z"/><path class="cls-3" d="M1444.78,661.7c11.38,13.61,20.81,24.65,30,35.92a90.28,90.28,0,0,1,9,13.37c6.7,12.24,13.45,24.49,19.45,37.07,11.52,24.14,16.42,49.74,16.42,76.19,0,16.53-1.77,32.87-3.82,49.25-2.79,22.25-7.27,44-14.44,65.09-3.57,10.49-8.21,20.59-12.4,30.85-1.8,4.4-3.72,8.75-5.56,13.13a112.8,112.8,0,0,1-23.11,35.59c-11.4,11.68-23.14,23.05-34,35.23s-23.39,22.66-35.15,33.91c-6.84,6.55-13.34,13.33-18.26,21.66s-11.06,15.5-19.4,20.44c-6.27,3.73-9.8,9.38-12.3,15.91-1,2.45-1,5.49-2.44,7.47-4.45,6-2.44,12.19-1,18.38,1.08,4.54,6.81,7.63,11.5,6.25,2.49-.73,4.66-2.46,7.14-3.23,5.95-1.83,11.29-5.61,18.19-4.55,2.3.35,5.18-1,7.28-2.31,33.78-21.72,65.67-45.75,92-76.45a46,46,0,0,1,4.34-4.59c17.08-15.08,30.38-33.45,44.52-51.12a290,290,0,0,0,34.69-54.61,67.52,67.52,0,0,1,4.61-8.28,165.94,165.94,0,0,0,20.65-42.6c3.2-10.09,7-20,10.18-30.06,1.76-5.53,3.71-11.21,4.14-17,2.47-32.85,6-65.77-3.65-98.44-.3-1-.59-2.06-.81-3.1-4.94-23-9.5-45.94-19.8-67.6-6.18-13-9.88-27.17-14.38-40.91-8.41-25.69-22.35-48.66-35.82-71.87a9.42,9.42,0,0,0-.92-1.32c-12.69-15.36-25.87-30.2-41.37-42.88a28.43,28.43,0,0,0-15.92-6.65c-6.36-.59-12.69-1.42-19-1.9a15.41,15.41,0,0,0-6.19.78c-5.44,2-10.77,4.18-16.11,6.4-4.66,1.93-7.65,5.18-8.61,10.44a63.53,63.53,0,0,1-3.27,10.48c-3.33,9-5.45,18.2-2.88,28a26.9,26.9,0,0,1,.69,6.34c.22,11.34,5.11,20.49,13.15,28.37C1430.48,647.07,1438.71,655.57,1444.78,661.7Z"/><path class="cls-2" d="M1683,726.54c8.15,21,15,38.16,21.38,55.47a112.81,112.81,0,0,1,5.31,19.78c3,17.5,6,35,8,52.66,3.85,33.85-1,66.8-12.25,98.83-7,20-16.11,39.11-25.57,58.12-12.85,25.82-27.55,50.38-45.26,73.05-8.82,11.28-18.78,21.66-28.26,32.41-4.06,4.6-8.25,9.1-12.36,13.67-12.46,13.85-26.68,25.41-43.36,33.87-18.88,9.58-38.06,18.66-56.48,29.09s-38.2,18.09-57.35,27c-11.14,5.2-22,10.82-31.52,18.94-9.39,8-20.1,14.35-32.38,17-9.25,2-16,7.44-21.8,14.34-2.19,2.6-3.5,6.27-6.14,8.08-8,5.45-8.16,13.78-9,21.87-.61,5.93,5.08,12,11.4,12.16,3.35.11,6.74-1.12,10.1-1.05,8,.15,16.19-2.3,24.17,1.75,2.66,1.35,6.74.91,9.88.11,50.52-12.8,99.69-29.17,144.89-55.82a59.77,59.77,0,0,1,7.25-3.83c27.27-11.44,51.33-28.37,76.12-44.11a383.14,383.14,0,0,0,65.57-52.27,91.09,91.09,0,0,1,9.15-8.2,218,218,0,0,0,43.33-43.33c8.19-10.93,17-21.4,25.19-32.33,4.5-6,9.3-12.09,12.27-18.89,16.95-38.79,35.27-77.23,37.29-120.66.07-1.37.16-2.73.32-4.09,3.73-29.8,7.88-59.43,4.48-89.78-2-18.21-.55-36.84-.22-55.28.62-34.47-6.68-67.86-13.3-101.35a12.32,12.32,0,0,0-.57-2c-9-23.66-18.81-46.91-32.38-68.45a35.86,35.86,0,0,0-16.65-14.42c-7.51-3.25-14.91-6.79-22.48-9.91a19.88,19.88,0,0,0-7.89-1.53c-7.48.19-15,.75-22.41,1.31-6.53.48-11.56,3.21-15,9.2-2.31,4.08-5.45,7.73-8.45,11.38-7.9,9.64-2.84,4.08-3.85,17-.21,2.68-.88,21.2-1.73,23.78-4.54,13.83-2.56,11,3.92,23.78C1683.31,687.31,1678.21,716.69,1683,726.54Z"/><path class="cls-4" d="M1282,1739.75c3.22-6.66,6.56-13.33,11.2-18.51a27.59,27.59,0,0,1,4.71-4.19,22.72,22.72,0,0,0,2.29-1.71,67.26,67.26,0,0,1,13-9.42c3.28-1.79,6.43-3.82,9.67-5.69,1.66-1,3.36-1.86,5.11-2.66,26.55-12.06,47.62-17.57,76.29-12.16,12.87,2.43,34.36,6.57,45.37,13.58,10.31,6.55,17.9,16.52,27.64,23.88,7.84,5.91,17.19,10.25,23.15,18,3.88,5,6,11.16,8.06,17.16,8.78,25.53,13.69,60.67,6.64,87.8a86.24,86.24,0,0,1-6,17,150.4,150.4,0,0,1-7.75,14.36,114.07,114.07,0,0,1-14.32,18.26,99.67,99.67,0,0,1-13.62,11.92,81.69,81.69,0,0,1-22.88,11.45c-1.83.58-3.64,1.25-5.46,1.88-3.31,1.16-6.14,3.18-9.08,5a95.57,95.57,0,0,1-13.06,6.77,50.81,50.81,0,0,1-19.39,4.12c-3.77,0-7.53.09-11.29,0a37.26,37.26,0,0,1-6.31-.77,20.49,20.49,0,0,0-6.58-.47,29.13,29.13,0,0,1-7.8-.13,32.79,32.79,0,0,0-4.33-.22c-5.37-.1-10.48-1.51-15.57-3-8.91-2.59-17.33-6.42-25.79-10.14-1.85-.81-3.71-1.59-5.62-2.25a42.28,42.28,0,0,1-19.66-13.57q-5.64-7.07-11.09-14.28c-3-4-5.84-8-8.73-12.09a95,95,0,0,1-11.92-23.71,117.05,117.05,0,0,1-5.49-21.55c-.17-1.13-.26-2.27-.39-3.4a26.24,26.24,0,0,0-.45-3.68,17.64,17.64,0,0,1-.12-8.75,23,23,0,0,0,.18-4,83.59,83.59,0,0,0,.08-12,45.27,45.27,0,0,1,.93-12.21c.54-3,.92-6,1.36-9a3.64,3.64,0,0,0,.08-1.13c-1.89-10,5.25-19.45,10.06-27.35C1277.64,1748.8,1279.78,1744.28,1282,1739.75Z"/><path class="cls-2" d="M1320,2103.73c.83,4.42,8.19,9.27,10.92,12.56,3.27,3.95,5.41,8.46,9,12.21,5.67,5.93,13.23,9.64,21.21,12.49,15.49,5.53,35,2.9,51.12-.36,17.49-3.54,26.12-8.11,35.07-22.88,9.25-15.29,7.38-34.75-.12-50.32-13-26.9-45.5-61.9-83.43-52.81-13.25,3.18-29,23.64-36,33.14C1315.4,2064.54,1316.52,2084.91,1320,2103.73Z"/></svg>