<?xml version="1.0" encoding="UTF-8"?><svg id="a" xmlns="http://www.w3.org/2000/svg" viewBox="0 0 150 150"><defs><style>.b{fill:#0071cf;}.c{fill:#e54a28;}.d{fill:#6c702f;}.e{fill:#1a3c34;}</style></defs><path class="d" d="M100.01,67.38c-2.33,.42-4.44,.69-6.77,.86-1.98,.15-2.56,.31-3.92,1.89-10.32,12.09-20.72,25.74-30.1,38.58-2.2,3.02-4.41,6.03-6.61,9.05-1.56,2.13-2.77,2.47-5.24,2.13-.83-.11-1.62-.34-2.36-.71-.44-.22-.84-.53-1.26-.81-.09-.06-.14-.17-.21-.26-1.06-1.29-2.17-2.48-3.19-3.85-.28-.37-.57-.79-.5-1.28,.05-.36,.29-.67,.52-.96,1.97-2.49,3.86-5.57,6.29-7.62,.16-.13,.25-.37,.35-.56,.19-.35,.41-.67,.69-.96,.31-.32,.58-.68,.86-1.03,.61-.76,1.28-1.45,2.01-2.09,.44-.39,.85-.83,1.29-1.23,.2-.19,.41-.35,.62-.52,.27-.22,.55-.41,.81-.64,.18-.16,.36-.35,.47-.57,.51-.96,1.25-1.73,1.98-2.5,.7-.73,1.43-1.45,2.13-2.19,.46-.49,.86-1.03,1.33-1.5,1.37-1.37,2.58-2.89,3.87-4.32,.73-.81,1.53-1.56,2.28-2.34,.84-.87,1.68-1.76,2.52-2.63,.53-.55,1.07-1.1,1.63-1.62,1.05-.98,2.03-2.03,3.01-3.08,1.06-1.14,2.15-2.26,3.23-3.39,.46-.48,.94-.96,1.37-1.47,1.4-1.64,2.76-3.32,4.05-5.06,.94-1.27,3.04-2.85,3.52-4.27,.54-1.61-.97-3.52-1.29-4.98-.34-1.56-.35-3.16-.2-4.78,.09-1.03,.43-2.01,.85-2.96,.78-1.78,1.8-3.42,3.09-4.89,.67-.76,5.52-4.84,5.82-5.09,1.12-.89,2.29-1.7,3.53-2.39,.64-.35,1.26-.76,1.87-1.16,.54-.35,1.09-.65,1.7-.8,.55-.14,1.09-.35,1.61-.64,.67-.39,1.39-.7,2.06-1.1,.52-.31,1.06-.57,1.59-.86,.93-.52,1.92-.76,2.93-.95,1.08-.21,2.16-.27,3.23-.24,.84,.03,1.66,.19,2.43,.48,.38,.14,.7,.42,1.04,.63,.88,.54,1.47,1.34,1.91,2.27,.49,1.04,.48,1.04,.42,2.24-.04,.63-.03,1.25-.09,1.88-.06,.55-.18,1.1-.3,1.65-.19,.83-.4,1.66-.59,2.5-.02,.09-.04,.19-.04,.29,0,.75-.2,1.49-.3,2.23-.05,.34-.63,2.24-.65,2.28-.45,1.09-.55,2.22-.71,3.35-.04,.25-.11,.46-.23,.69-.26,.48-.49,.97-.72,1.46-.13,.28-3.55,5.74-3.91,6.23-.3,.42-.56,.87-.83,1.31-.54,.85-1.28,1.52-2.02,2.17-.02,.02-.04,.03-.06,.05-2.41,1.98-3.05,3.39-6.3,4-.19,.03-.37,.07-.55,.1Z"/><path class="e" d="M37.55,62.3c-.53-.75-.98-1.55-1.44-2.34-.72-1.25-1.31-2.55-1.85-3.86-.58-1.4-1.22-2.78-1.67-4.21-.2-.62-.36-1.25-.54-1.88-.21-.72-.42-1.43-.63-2.15-.22-.77-.29-1.53-.32-2.29-.02-.49,0-.98-.01-1.47,0-.11,0-.23-.03-.34-.24-.84-.15-1.65-.15-2.47,0-.83,.11-1.63,.31-2.4,.08-.32,.07-.65,0-.99-.07-.34-.07-.67,.07-.97,.07-.14,.04-.16,.05-.33,0-.2,.29-.6,.54-.85,.43-.44,.72-1.02,1.29-1.25,.71-.28,1.43-.54,2.16-.79,2.41-.83,6.47-.34,9.6,.86,.89,.34,1.71,.74,2.39,1.19,.89,.58,1.69,1.31,2.55,1.95,1.6,1.2,3.38,2.1,5.03,3.24,3.73,2.59,1.98,1.81,4.74,5.44,1.33,1.75,2.72,3.64,2.94,5.69,.18,1.76,.41,3.15,.82,4.89,.15,.62,.23,1.33,.22,1.94,0,.48-.54,1.79-.41,2.14,.11,.31,.34,.53,.55,.76,.82,.89,1.61,1.82,2.5,2.65,.66,.62,5.93,5.69,6.64,6.24,.12,.09,.23,.17,.34,.27,1,.88,2.01,1.77,3.01,2.65,.16,.14,.33,.28,.5,.42,.82,.69,1.64,1.37,2.46,2.06,.43,.36,.87,.7,1.3,1.06,1.59,1.32,3.17,2.65,4.78,3.95,1.32,1.07,2.65,2.12,4.01,3.14,.97,.72,1.92,1.48,2.83,2.29,.94,.84,1.92,1.64,2.89,2.46,1.06,.89,2.13,1.77,3.16,2.69,.49,.43,.92,.94,1.37,1.42,.45,.48,.89,.97,1.33,1.45,.28,.31,.58,.58,.92,.82,.95,.66,1.89,1.35,2.83,2.03,.32,.23,.62,.47,.96,.66,.73,.43,1.4,.96,2.02,1.54,.61,.56,1.19,1.14,1.79,1.71,.19,.18,.43,.32,.61,.52,.44,.45,.9,.9,1.28,1.4,.63,.82,1.39,1.5,2.15,2.18,1.37,1.23,2.61,2.57,3.57,4.11,.84,1.34,1.64,2.72,2.08,4.22,.24,.82,.33,1.62,.3,2.42-.02,.56-.17,1.07-.43,1.54-.51,.93-1.12,1.76-1.93,2.44-.1,.08-.18,.18-.29,.23-.57,.26-1.14,.56-1.74,.76-.66,.22-1.26,.5-1.83,.86-.11,.07-.18,.15-.18,.31,0,.23-.13,.34-.34,.39-.53,.11-1.08,.17-1.64,.15-.6-.03-1.18-.25-1.75-.47-1.07-.42-2.08-1-2.9-1.86-.85-.88-1.8-1.63-2.74-2.41-.99-.83-1.94-1.7-2.8-2.66-.43-.49-.83-1.02-1.21-1.55-.39-.55-.73-1.13-1.11-1.69-.12-.17-.29-.33-.46-.46-1.29-1.01-2.44-2.16-3.59-3.32-.77-.78-1.55-1.55-2.35-2.3-1.45-1.35-2.78-2.8-3.94-4.39-.69-.94-1.46-1.82-2.32-2.62-1.28-1.19-2.57-2.38-3.85-3.59-4.44-4.2-6.94-9.35-11.49-13.5-2.43-2.22-9.59-8.81-11.76-11.3-1.78-2.05-2-2.44-4.14-1.52-1.21,.53-2.57,.78-3.95,.87-1.18,.07-2.37-.01-3.58-.3-.94-.22-1.82-.62-2.66-1.16-1.32-.85-2.57-1.81-3.82-2.77-.33-.25-.61-.55-.91-.84-.37-.36-.9-1.23-1.31-1.55"/><path class="b" d="M81.24,23.78s-.09,.08-.12,.13c-.02,.03-.04,.09-.03,.11,.07,.13,0,.23-.06,.33-.16,.3-.3,.62-.48,.9-.11,.17-.22,.32-.26,.52-.02,.09-.09,.18-.15,.26-.08,.09-.16,.17-.1,.31,.01,.03-.03,.09-.04,.14-.07,.2-.13,.4-.21,.6-.1,.24-.2,.48-.31,.72-.03,.07-.07,.14-.11,.21-.02,.04-.03,.1-.07,.13-.12,.1-.18,.23-.27,.35-.15,.2-.26,.43-.41,.63-.07,.1-.19,.2-.15,.35-.12,.09-.13,.24-.21,.36-.15,.24-.3,.48-.44,.72-.14,.24-.26,.48-.39,.72-.07,.12-.14,.24-.3,.27-.06,.01-.15,.1-.16,.16-.04,.15-.13,.25-.24,.34-.12,.11-.22,.24-.3,.38-.31,.54-.69,1.05-1.11,1.51-.21,.23-.44,.44-.67,.65-.16,.16-.37,.24-.58,.32-.24,.09-.46,.06-.62-.16-.05-.06-.11-.11-.17-.18-.09,.02-.18,.05-.26,.06-.1,.02-.18-.02-.21-.12-.09-.23-.24-.42-.39-.6-.16-.19-.32-.39-.56-.48-.08,.03-.16,.06-.23,.09-.17,.06-.29-.02-.3-.21-.01-.26-.12-.48-.25-.7-.2-.33-.39-.66-.52-1.02-.02-.05-.04-.09-.07-.13-.12-.16-.18-.34-.24-.52-.14-.46-.3-.92-.46-1.37-.03-.09-.1-.17-.15-.26-.04-.08-.1-.17-.09-.25,0-.12-.04-.21-.08-.31-.05-.1-.09-.21-.11-.31-.04-.22-.15-.41-.18-.64-.02-.11-.09-.22-.17-.32-.06-.08-.09-.16-.09-.25,.03-.28-.08-.54-.15-.8-.1-.37-.21-.73-.32-1.1-.08-.29-.08-.58-.06-.87,.02-.35,0-.7-.02-1.06,0-.05-.01-.1,0-.15,.03-.21,0-.42,0-.63-.05-.87-.02-1.73,.07-2.6,.03-.3,.04-.6,.09-.9,.04-.27,.09-.54,.18-.79,.17-.5,.52-.86,.99-1.1,.41-.21,.8-.16,1.15,.15,.06,.05,.13,.1,.19,.15,.1,.1,.21,.19,.3,.29,.1,.12,.18,.27,.28,.39,.1,.12,.22,.23,.34,.36,.02-.04,.05-.08,.06-.12,.04-.2,.08-.4,.1-.59,.04-.35,.06-.7,.12-1.05,.06-.38,.2-.74,.4-1.07,.17-.27,.35-.54,.54-.8,.23-.32,.51-.6,.82-.85,.12-.1,.25-.16,.41-.18,.12-.01,.24-.04,.35-.08,.24-.08,.46-.02,.67,.08,.04,.02,.07,.04,.1,.07,.07,.09,.14,.2,.21,.29,.08,.09,.19,.13,.26,.25,.09,.17,.21,.31,.33,.47,.06,.07,.1,.15,.1,.25,0,.29,.09,.58,.1,.87,.02,.29,.08,.58,.15,.86,.05,.21,.05,.44,.08,.66,.07,.58,.1,1.16,.11,1.75,0,.09,.01,.18,.02,.27,0,.1,.06,.17,.19,.19,.04-.06,.1-.13,.14-.21,.25-.46,.53-.9,.85-1.32,.02-.03,.05-.06,.07-.1,.16-.33,.41-.6,.67-.85,.36-.34,.8-.53,1.32-.49,.31,.02,.62,.07,.92,.18,.28,.1,.49,.27,.63,.53,.05,.09,.09,.18,.14,.27,.06,.1,.07,.21,.06,.32-.01,.12-.01,.24-.03,.36-.01,.09,.03,.15,.11,.19-.03,.08-.06,.14-.08,.21-.06,.16-.08,.31,0,.47,.04,.1,.04,.19,.04,.29,0,.2,.01,.4,.03,.6,0,.1-.16,.13-.12,.25,0,.01,.03,.02,.05,.04l.08-.15s.05,.01,.05,.02c.02,.11,.03,.22,.05,.33,.03,.14-.09,.24-.11,.37-.02,.13,.03,.26-.03,.39-.07,.14-.12,.29-.15,.45-.03,.14-.1,.28-.11,.44,0,.06-.03,.12-.07,.16-.21,.2-.26,.47-.31,.74-.02,.1-.08,.21-.01,.32h0s-.01,.1,.05,.12h0Z"/><path class="c" d="M27.34,71.97s.09,.09,.14,.12c.03,.02,.09,.04,.11,.03,.13-.08,.23,0,.34,.05,.31,.15,.63,.27,.93,.44,.17,.1,.33,.21,.54,.24,.09,.01,.19,.08,.26,.14,.1,.08,.18,.15,.32,.09,.03-.02,.09,.02,.14,.04,.2,.06,.41,.11,.61,.18,.25,.08,.49,.18,.73,.28,.07,.03,.15,.07,.22,.1,.05,.02,.1,.03,.13,.06,.1,.12,.24,.17,.36,.25,.21,.14,.44,.24,.65,.38,.1,.07,.21,.18,.36,.13,.1,.11,.25,.12,.37,.19,.25,.13,.49,.27,.74,.4,.24,.12,.49,.24,.73,.36,.12,.06,.24,.13,.28,.29,.01,.06,.1,.14,.17,.16,.15,.03,.25,.12,.35,.22,.11,.12,.25,.2,.39,.28,.56,.29,1.08,.64,1.56,1.04,.24,.2,.46,.42,.68,.64,.16,.16,.26,.36,.35,.56,.1,.24,.08,.45-.13,.63-.06,.05-.11,.12-.17,.18,.03,.09,.06,.17,.07,.26,.02,.1-.01,.18-.11,.22-.23,.1-.41,.26-.58,.42-.18,.17-.37,.34-.45,.58,.04,.08,.07,.15,.1,.23,.07,.17-.01,.29-.19,.31-.26,.03-.48,.14-.69,.29-.32,.22-.64,.42-.99,.57-.05,.02-.09,.04-.13,.08-.15,.13-.33,.2-.51,.26-.46,.16-.9,.34-1.35,.52-.09,.04-.17,.11-.25,.16-.08,.04-.16,.11-.24,.1-.12,0-.21,.04-.31,.1-.1,.05-.2,.1-.31,.13-.22,.05-.41,.17-.63,.21-.11,.02-.22,.1-.31,.18-.08,.07-.16,.1-.25,.1-.28-.02-.53,.11-.79,.19-.36,.11-.72,.25-1.09,.37-.28,.09-.58,.11-.87,.1-.35,0-.7,.04-1.05,.07-.05,0-.1,.02-.15,.01-.21-.02-.42,.01-.63,.04-.86,.09-1.73,.1-2.6,.06-.3-.02-.6-.01-.9-.04-.27-.03-.54-.07-.8-.14-.51-.15-.88-.48-1.14-.93-.23-.4-.19-.79,.1-1.16,.05-.06,.09-.13,.15-.19,.09-.11,.18-.22,.28-.32,.12-.11,.26-.19,.38-.3,.12-.1,.22-.23,.34-.35-.04-.02-.08-.05-.12-.05-.2-.03-.4-.06-.6-.08-.35-.03-.7-.03-1.05-.07-.38-.04-.75-.16-1.09-.35-.28-.16-.56-.32-.83-.5-.33-.22-.62-.48-.88-.78-.1-.12-.17-.25-.19-.4-.02-.12-.05-.24-.09-.35-.09-.23-.05-.46,.05-.68,.02-.04,.04-.08,.06-.1,.09-.08,.19-.14,.28-.23,.09-.08,.12-.2,.24-.27,.16-.09,.3-.23,.45-.35,.07-.06,.15-.11,.24-.11,.29,0,.57-.11,.86-.14,.29-.03,.57-.1,.86-.19,.21-.06,.44-.07,.65-.11,.58-.1,1.16-.16,1.74-.19,.09,0,.18-.02,.27-.03,.1-.01,.16-.07,.18-.2-.07-.04-.14-.09-.22-.13-.47-.23-.92-.49-1.36-.79-.03-.02-.07-.05-.1-.06-.34-.15-.62-.38-.88-.63-.36-.35-.57-.77-.55-1.3,0-.31,.04-.62,.14-.92,.09-.28,.25-.51,.5-.66,.09-.05,.18-.1,.26-.15,.1-.07,.2-.08,.32-.07,.12,0,.24,0,.36,.01,.1,0,.15-.03,.18-.12,.08,.03,.14,.05,.21,.07,.16,.05,.32,.07,.47-.01,.09-.05,.19-.05,.29-.06,.2,0,.4-.03,.6-.06,.1,0,.14,.15,.26,.11,.01,0,.02-.03,.04-.06l-.15-.08s0-.05,.02-.05c.11-.02,.22-.04,.32-.06,.14-.03,.25,.08,.37,.09,.13,.02,.26-.05,.39,0,.15,.06,.3,.1,.46,.12,.15,.02,.29,.08,.44,.09,.06,0,.12,.02,.16,.06,.21,.2,.48,.24,.75,.28,.1,.02,.22,.07,.32,0h0c.05,0,.1,0,.13-.06h0Z"/><path class="c" d="M127.05,77.07c.07,.02,.12,.03,.18,.04,.33,.06,.65,.17,.96,.31,.29,.13,.56,.29,.82,.47,.21,.15,.44,.23,.7,.24,.2,0,.39,.03,.55,.17,.07,.06,.15,.11,.18,.2,.03,.09,.1,.12,.19,.14,.15,.04,.3,.09,.45,.15,.07,.03,.14,.06,.19,.11,.23,.19,.45,.39,.68,.58,.08,.07,.14,.15,.22,.22,.09,.08,.13,.17,.14,.29,.02,.16-.01,.27-.12,.41-.14,.17-.23,.38-.34,.57-.08,.15-.2,.24-.36,.28-.09,.02-.17,.06-.25,.11-.09,.05-.19,.08-.29,.1-.26,.03-.51,.08-.75,.2-.11,.05-.25,.04-.38,.05-.21,0-.43,0-.64,0-.19,0-.36,.07-.54,.13-.14,.05-.29,.09-.42,.14-.16,.06-.32,.07-.49,.1-.26,.05-.53,.1-.79,.14-.03,0-.06,.03-.11,.06,.04,.04,.06,.09,.09,.11,.32,.2,.53,.5,.71,.81,.13,.22,.28,.42,.45,.6,.29,.33,.57,.67,.77,1.06,.03,.06,.07,.11,.11,.16,.15,.18,.26,.39,.37,.59,.08,.15,.11,.32,.09,.49-.02,.13-.03,.26-.05,.38-.14,.18-.33,.24-.54,.27-.48,.07-.95,.03-1.42-.02-.32-.04-.65-.08-.97-.13-.21-.03-.42-.09-.63-.12-.3-.04-.58-.11-.86-.22-.08-.03-.16-.04-.25-.04-.13,0-.26-.04-.38-.08-.21-.07-.43-.12-.65-.18-.22-.06-.43-.12-.63-.22-.47-.21-.93-.42-1.4-.63-.17-.07-.33-.18-.52-.2-.03,0-.06-.03-.1-.05-.08-.05-.15-.12-.23-.15-.25-.09-.45-.26-.68-.39-.19-.1-.36-.23-.54-.34-.1-.06-.19-.11-.3-.15-.17-.06-.32-.15-.47-.25-.09-.06-.19-.13-.3-.15-.34-.07-.62-.26-.9-.44-.14-.09-.28-.19-.42-.28-.07-.05-.14-.1-.2-.15-.1-.09-.2-.16-.34-.16-.17-.01-.31-.12-.45-.2-.08-.04-.15-.11-.23-.17-.18-.14-.36-.29-.58-.38-.16-.06-.29-.17-.4-.3-.15-.19-.31-.37-.41-.6-.1-.2-.21-.39-.33-.59-.25-.43-.31-.89-.22-1.38,.03-.17,.14-.31,.29-.39,.07-.04,.15-.08,.23-.11,.35-.13,.7-.26,1.07-.34,.44-.1,.81-.32,1.07-.7,.45-.65,1.01-1.2,1.7-1.6,.4-.24,.79-.49,1.19-.73,.17-.1,.34-.19,.52-.27,.21-.1,.42-.21,.6-.36,.41-.33,.86-.56,1.37-.67,.28-.06,.53-.19,.78-.3,.56-.24,1.14-.42,1.73-.54,.25-.05,.5-.04,.75,.05,.25,.1,.52,.14,.78,.22,.08,.03,.16,.02,.24,0,.12-.04,.25-.06,.38-.07,.2-.02,.41-.03,.62-.03,.4,0,.8,.01,1.2,.02,.15,0,.3,.02,.43,.09,.04,.02,.11,.02,.16,.01,.09-.02,.18-.06,.27-.08,.15-.04,.17-.03,.25,.13,.02,.05,.06,.06,.1,.09,.1,.08,.17,.17,.13,.31-.01,.04-.02,.09-.01,.14,.05,.2-.05,.37-.14,.53-.07,.13-.17,.25-.26,.36-.16,.19-.3,.38-.36,.62-.08,.3-.31,.5-.53,.71-.2,.19-.43,.36-.7,.46-.09,.04-.18,.11-.25,.17-.18,.16-.35,.33-.52,.5-.01,.01-.01,.03-.04,.09Z"/><path class="b" d="M78.15,131.54c.02,.17,.03,.27,.05,.37,.07,.34,.09,.69,.08,1.04-.01,.51-.14,1.01-.21,1.51,0,.06-.04,.11-.06,.17-.11,.27-.22,.53-.35,.79-.09,.18-.18,.35-.29,.52-.14,.23-.39,.3-.65,.21-.2-.07-.38-.17-.55-.3-.51-.4-.91-.89-1.17-1.48-.12-.27-.25-.54-.37-.81-.05-.1-.1-.2-.16-.29-.09-.12-.13-.25-.13-.39,0-.11-.02-.21-.09-.34-.05,.05-.08,.07-.11,.11-.1,.18-.2,.37-.3,.55-.17,.32-.35,.64-.52,.97-.24,.47-.5,.92-.88,1.31-.16,.17-.32,.33-.52,.45-.3,.18-.63,.22-.98,.21-.1,0-.2-.01-.3,0-.21,0-.39-.05-.54-.21-.13-.13-.25-.25-.37-.39-.05-.06-.08-.14-.1-.21-.08-.27-.14-.54-.21-.81-.03-.11-.06-.21-.08-.32-.02-.11-.04-.21-.05-.32-.01-.12-.02-.24-.03-.36-.02-.13-.07-.24-.02-.38,.03-.07-.05-.17-.05-.25,0-.11,.02-.22-.08-.3-.02-.01-.02-.06,0-.08,.09-.21,0-.41-.02-.61,0-.15-.05-.29-.06-.44-.03-.39-.06-.77-.08-1.16,0-.08,0-.16,0-.24,.04-.38,.08-.75,.17-1.12,.03-.14,.09-.28,.13-.43,.02-.08,.03-.16,.02-.23-.08-.48-.03-.95,.05-1.43,.05-.3,.12-.61,.16-.91,.09-.69,.25-1.37,.31-2.06,0-.1,.05-.19,0-.29-.01-.02,0-.08,.03-.11,.05-.07,.1-.16,.17-.2,.12-.07,.15-.18,.16-.3,.02-.22,.1-.42,.22-.61,.03-.05,.06-.11,.06-.16,0-.07,.04-.11,.09-.15,.05-.04,.1-.09,.14-.15,.16-.24,.31-.49,.46-.73,.07-.1,.1-.21,.13-.33,.05-.24,.1-.49,.16-.73,.05-.17,.12-.34,.18-.51,.07-.23,.14-.46,.2-.69,.14-.46,.35-.9,.66-1.27,.26-.31,.56-.58,.96-.73,.29-.11,.59-.18,.89-.24,.07-.01,.14-.02,.21-.02,.15,0,.26,.06,.34,.2,.12,.21,.27,.41,.41,.62,.03,.05,.06,.1,.08,.16,.08,.24,.15,.47,.23,.71,0,.02,0,.04,.01,.06,.16,.25,.19,.54,.23,.83,0,.04,.03,.07,.04,.11,.21,.11,.41,.21,.61,.32,.06,.03,.12,.07,.17,.12,.11,.09,.23,.19,.34,.29,.19,.16,.35,.35,.46,.57,.15,.3,.38,.56,.59,.82,.11,.14,.22,.28,.3,.44,.06,.13,.14,.24,.24,.34,.16,.18,.3,.37,.37,.61,0,.02,.01,.04,.02,.06,.18,.32,.37,.64,.55,.96,.08,.14,.15,.28,.22,.42,.04,.07,.06,.15,.1,.21,.22,.36,.41,.73,.56,1.12,.08,.21,.14,.43,.22,.65,.08,.23,.18,.46,.34,.66,.2,.25,.33,.54,.39,.86,.05,.32,.15,.64,.21,.96,.02,.12,.03,.24,.04,.35,0,.05,0,.1,.02,.15,.09,.37,.18,.74,.26,1.1,.07,.33,.14,.66,.21,.99,.01,.07,0,.14,.01,.21,0,.16,.01,.32,0,.48,0,.12-.02,.24-.03,.36,0,.13-.08,.23-.17,.3-.3,.22-.63,.39-1.02,.35-.04,0-.08-.01-.12-.02-.31-.13-.63-.24-.9-.46-.1-.09-.23-.16-.36-.21-.34-.11-.63-.3-.91-.5-.13-.09-.26-.17-.45-.31Z"/></svg>