<?xml version="1.0" encoding="UTF-8"?><svg id="a" xmlns="http://www.w3.org/2000/svg" viewBox="0 0 150 150"><defs><style>.b{fill:#f1b9aa;}.c{fill:#e54a28;}.d{fill:#6c702f;}.e{fill:#a22b2a;}.f{fill:#1a3c34;}</style></defs><path class="e" d="M106.77,129.59c.65-.3,1.27-.64,1.93-.89,1.8-.7,3.36-1.74,4.81-2.95,1.07-.89,2.16-1.75,3.17-2.71,1.25-1.19,2.29-2.5,3.22-3.89,.84-1.26,1.65-2.54,2.19-3.93,.06-.14,.14-.28,.19-.42,.2-.51,.74-.87,.72-1.5-.01-.53,.2-1.08,.27-1.62,.09-.71-.09-1.37-.36-2.01-.55-1.31-1.21-2.56-1.93-3.78-.31-.52-.7-.94-1.17-1.31-.4-.32-.85-.55-1.41-.55-.49,0-.92-.15-1.35-.36-.27-.13-.57-.23-.88-.29-1.06-.22-2.03,.12-2.9,.71-1.12,.76-2.14,1.63-2.85,2.76-.28,.44-.56,.88-.87,1.3-.82,1.09-1.68,2.15-2.41,3.29-.08,.13-.2,.25-.32,.35-.94,.79-1.87,1.6-2.83,2.37-1.09,.87-2.24,1.67-3.33,2.54-.51,.41-1.06,.74-1.64,1.02-2.69,1.29-5.38,2.57-8.07,3.85-.83,.4-3.51,1.37-4.42,1.61-.78,.21-1.57,.41-2.36,.62-.26,.07-.53,.17-.79,.18-1.45,.06-2.87,.43-4.31,.57-1.55,.15-3.1,.41-4.64,.58-2.03,.22-4.06,.27-6.08,.13-.37-.03-.75,.02-1.12,.01-.74-.02-1.48-.03-2.19-.23-.8-.23-1.64-.3-2.49-.38-1.37-.13-2.7-.42-4.05-.64-.31-.05-.62-.11-.93-.15-.14-.02-.35,.13-.36,.24-.05,.46,.05,.88,.29,1.26,.16,.25,.41,.46,.72,.51,1.12,.19,2.04,.69,2.85,1.38,.33,.28,.75,.5,1.27,.5,.2,0,.4,.1,.58,.19,.55,.26,1.09,.54,1.64,.8,.23,.11,.48,.22,.74,.24,.81,.05,1.5,.4,2.25,.6,.75,.2,1.5,.43,2.24,.65,.15,.04,.29,.11,.44,.14,1.93,.29,3.75,.91,5.63,1.35,1.63,.38,3.29,.65,4.89,1.11,1.3,.37,2.7,.45,4.09,.48,2.45,.06,4.91,.07,7.37-.11,.85-.06,1.71-.16,2.56-.32,1.96-.38,3.92-.78,5.87-1.22,2.12-.47,4.18-1.12,6.13-2.09Z"/><path class="f" d="M87.79,30.32c.2,.18,.4,.37,.61,.55,.34,.31,.73,.53,1.19,.64,1.2,.29,2.34,.76,3.49,1.19,.26,.1,.51,.21,.75,.34,.69,.36,1.37,.73,2.11,.96,.21,.07,.42,.18,.61,.3,.93,.58,1.85,1.17,2.78,1.75,.23,.15,.46,.29,.7,.43,1.27,.72,2.51,1.49,3.61,2.46,.75,.66,1.59,1.22,2.38,1.84,.4,.31,.77,.65,1.16,.96,.99,.81,1.98,1.62,2.97,2.43,.67,.55,1.32,1.12,1.86,1.81,.42,.54,.9,1.03,1.4,1.51,1.38,1.32,2.34,2.91,3.05,4.66,.27,.67,.59,1.33,.8,2.03,.14,.47,.41,.91,.62,1.37,.51,1.08,.95,2.18,1.02,3.38,.02,.28,.11,.53,.22,.78,.31,.71,.54,1.45,.62,2.23,.01,.14,0,.28,.06,.4,.33,.66,.43,1.39,.65,2.08,.01,.04,.04,.08,.07,.11,.07,.06,.15,.15,.22,.14,.12-.02,.32-.08,.34-.16,.11-.44,.27-.89,.24-1.32-.05-.71,.12-1.35,.32-2,.1-.31,.1-.61,.04-.93-.15-.85-.31-1.7-.4-2.56-.09-.86-.14-1.72-.13-2.58,.01-1.56-.18-3.07-.68-4.56-.59-1.77-1.12-3.56-1.69-5.34-.08-.25-.22-.51-.4-.71-.23-.24-.37-.5-.47-.81-.36-1.08-.75-2.15-1.11-3.23-.41-1.22-.93-2.38-1.58-3.48-.84-1.41-1.71-2.81-2.55-4.21-.45-.75-.99-1.43-1.58-2.07-.74-.81-1.51-1.59-2.28-2.38-.54-.56-1.12-1.07-1.78-1.5-.76-.51-1.48-1.08-2.24-1.57-1.19-.76-2.42-1.46-3.73-2.02-.84-.36-1.67-.73-2.49-1.13-.58-.28-1.19-.47-1.81-.62-.4-.1-.8-.15-1.21-.08-.31,.05-.63,.02-.95,.03-.18,0-.38-.04-.54,.01-.74,.23-1.52,.26-2.28,.39-.22,.04-.44,.1-.66,.18-1.34,.49-2.5,1.25-3.44,2.33-.64,.73-1.04,1.58-1.28,2.52-.13,.54-.11,1.09,0,1.62,.11,.49,.33,.94,.74,1.28,.21,.17,.41,.37,.61,.55h0Z"/><path class="b" d="M50.4,119.77c-.33,2.37-.59,4.57-.96,6.75-.35,2.03-1.26,3.81-2.85,5.18-2.45,2.12-5.58,2.25-8.13,.24-1.86-1.47-3.29-3.34-3.94-5.65-1.12-3.97-2.13-7.97-3.18-11.96-.32-1.23-.61-2.46-.91-3.69-.17-.72-.38-1.43-.48-2.16-.17-1.17,.26-2.11,1.35-2.61,1.54-.7,3.06-1.5,4.67-1.95,5.08-1.41,10.23-1.72,15.39-.42,1.22,.31,2.46,.7,3.56,1.31,3.52,1.96,4.63,5.95,2.8,9.55-1.05,2.08-2.63,3.55-4.78,4.42-.87,.35-1.75,.68-2.54,.98Z"/><path class="f" d="M24.41,94.65c2.17,.25,3.95-.56,5.46-2.18,.55-.59,.88-1.27,1.12-2.06,.63-2.04,.52-4.08,.21-6.14-.12-.79-.3-1.57-.44-2.36-.13-.73-.32-1.46-.36-2.2-.06-1.1-.25-2.16-.5-3.22-.28-1.17-.39-2.37-.29-3.59,.05-.63,.06-1.27,0-1.89-.18-1.67-.15-3.32,.29-4.95,.15-.55,.17-1.14,.35-1.68,.62-1.91,.98-3.89,1.72-5.76,.06-.16,.09-.33,.16-.49,1.04-2.41,1.93-4.88,3.07-7.25,1.01-2.11,2.23-4.09,3.48-6.05,.98-1.53,2.2-2.86,3.41-4.19,.45-.5,.92-.99,1.41-1.45,1.11-1.05,1.9-2.37,2.8-3.6,.03-.04,.05-.11,.04-.16,0-.11,0-.22-.04-.33-.04-.13-.14-.16-.27-.13-.16,.04-.32,.07-.48,.12-.1,.04-.2,.1-.29,.16-.97,.76-2.06,1.32-3.15,1.85-1,.48-1.9,1.14-2.79,1.81-.58,.44-1.18,.83-1.82,1.16-.99,.5-1.91,1.13-2.78,1.83-.82,.67-1.63,1.36-2.45,2.03-.3,.25-.61,.47-.92,.72-.26,.21-.54,.4-.76,.64-1.23,1.31-2.57,2.5-3.86,3.75-1.93,1.87-3.9,3.72-5.39,6.03-.58,.9-1.14,1.83-1.66,2.77-.88,1.59-1.8,3.16-2.54,4.83-.34,.78-.72,1.55-1.06,2.34-.64,1.46-1.23,2.95-1.68,4.49-.27,.93-.6,1.85-.86,2.78-.21,.77-.43,1.55-.52,2.35-.18,1.54-.34,3.08-.4,4.63-.08,2.2,.24,4.35,.96,6.42,.28,.81,.55,1.62,.84,2.42,.25,.71,.61,1.34,1.15,1.85,.24,.23,.47,.48,.69,.73,.48,.54,.97,1.08,1.23,1.8,.09,.26,.29,.48,.46,.7,.21,.27,.48,.46,.82,.54,.91,.2,1.81,.43,2.73,.58,.97,.15,1.95,.22,2.93,.32Z"/><path class="d" d="M128.37,68.56c.44-.14,.87-.31,1.34-.33,.02,0,.04,0,.05,0,.34-.19,.73-.18,1.09-.3,.89-.29,1.8-.39,2.72-.46,.51-.04,.96,.1,1.41,.23,.13,.04,.25,.09,.37,.14,.07,.03,.18,.06,.2,.12,.09,.22,.32,.34,.49,.5,.15,.13,.22,.3,.25,.48,.04,.24,.16,.45,.24,.67,.16,.4,.24,.83,.34,1.25,.06,.24,.09,.5,.13,.74,.02,.12,.07,.25,.07,.37-.02,.46,.08,.89,.22,1.32,.17,.53,.14,1.08,0,1.64-.03,.13-.04,.25-.05,.38-.04,.5,.04,.99-.09,1.49-.12,.44-.2,.88-.35,1.32-.13,.35-.33,.69-.51,1.03-.15,.29-.35,.56-.35,.87,0,.06-.06,.14-.12,.19-.15,.12-.18,.25-.18,.4,0,.47-.02,.93-.04,1.4,0,.11-.04,.23-.08,.34-.13,.4-.21,.79-.19,1.19,0,.06,0,.11-.02,.17-.18,.53-.28,1.08-.53,1.6-.02,.04-.04,.08-.06,.12-.47,.75-.82,1.52-1.13,2.31-.17,.42-.38,.82-.8,1.16-.19,.16-.3,.38-.43,.58-.31,.48-.62,.95-.91,1.43-.2,.34-.35,.68-.52,1.03-.12,.25-.24,.5-.36,.74-.12,.25-.26,.49-.34,.75-.26,.81-.71,1.58-1.15,2.35-.14,.24-.28,.49-.39,.74-.16,.37-.38,.7-.77,1-.54,.02-1.07-.03-1.5-.3-.23-.15-.53-.25-.65-.49-.02-.05-.1-.07-.15-.1-.88-.45-1.67-1-2.6-1.39-.09-.04-.17-.09-.25-.14-.8-.55-1.72-.99-2.61-1.45-1.04-.53-2.06-1.07-3.03-1.67-.56-.35-1.1-.71-1.61-1.09-.31-.23-.64-.44-.93-.67-.31-.26-.59-.54-.88-.81-.08-.07-.16-.13-.24-.2-.06-.05-.14-.09-.17-.15-.25-.49-.75-.81-1.13-1.22-.14-.15-.28-.3-.42-.45-.08-.08-.16-.18-.26-.24-.11-.07-.15-.17-.23-.25-.3-.3-.49-.67-.92-.88-.18-.09-.31-.23-.41-.4-.11-.2-.28-.37-.42-.55-.22-.27-.43-.54-.65-.82-.03-.03-.05-.07-.08-.1-.39-.45-.78-.9-1.06-1.42-.18-.32-.44-.6-.67-.9-.03-.05-.07-.12-.12-.12-.22,0-.28-.11-.3-.27-.02-.12-.17-.19-.09-.35,.08-.15-.04-.28-.16-.37-.13-.09-.18-.21-.25-.33-.11-.18-.25-.35-.39-.52-.16-.18-.16-.28,.04-.49,.01-.01,.03-.02,.05-.03,.03-.02,.05-.05,.1-.09-.02-.12-.03-.26-.08-.39-.12-.29-.05-.62-.21-.89,0-.51-.01-1.02-.02-1.52,0-.14,0-.28,.01-.42,.04-.33,.1-.65,.32-.96,.22-.31,.39-.64,.59-.98-.02-.03-.06-.08-.09-.12-.03-.05-.04-.1-.06-.14,.12-.16,.29-.28,.48-.32,.31-.06,.52-.24,.73-.4,.2-.15,.41-.26,.63-.37,.82-.4,1.65-.78,2.52-1.07,.83-.27,1.67-.47,2.53-.63,.46-.08,.93-.13,1.39-.13,.25,0,.5-.03,.75-.05,.16-.01,.33-.04,.48-.03,.43,.03,.84,0,1.24-.22,.12-.07,.32-.08,.47-.07,.23,.01,.45,.05,.66,.1,.11,.03,.2,.09,.27,.16,.25,.27,.48,.55,.71,.83,.21,.24,.44,.48,.55,.77,.03,.08,.09,.15,.14,.21,.47,.57,.72,1.22,.95,1.88,.1,.3,.24,.6,.36,.9,.11,.26,.23,.52,.31,.78,.06,.17,.18,.31,.24,.52,.22-.19,.38-.32,.36-.53,0-.06,.06-.15,.12-.18,.18-.1,.35-.19,.23-.39-.01-.02,.05-.07,.08-.1,.07-.07,.17-.13,.22-.2,.21-.3,.41-.6,.61-.91,.08-.12,.13-.24,.11-.37-.03-.2,.19-.34,.33-.5,0-.04,.03-.08,.02-.12-.05-.21,.04-.38,.24-.55,.14-.12,.26-.24,.27-.42,0-.09,.14-.21,.24-.29,.16-.1,.24-.22,.3-.37,.09-.22,.2-.44,.3-.66,.05-.1,.12-.1,.3,0l-.25,.53c.16,.04,.28,0,.34-.11,.1-.18,.19-.37,.28-.56-.3,0-.36-.07-.21-.25,.02-.02,.05-.05,.07-.07,.03-.02,.05-.04,.1-.08l.48-.02c0-.14,0-.26,.03-.37,.03-.11,.1-.22,.16-.36,.33-.09,.59-.27,.79-.52,0-.01,.02-.02,.03-.04,.1-.16,.38-.13,.47-.3,.07-.14,.18-.26,.35-.34h0c.1,.04,.17,.01,.23-.07h0Z"/><path class="c" d="M76.02,24.35c.21,.26,.3,.58,.39,.88,.04,.14,.06,.31,.05,.45-.09,.63-.07,1.29-.21,1.91-.2,.87-.51,1.62-.9,2.28-.5,.84-1.02,1.65-1.52,2.47-.1,.16-.19,.31-.27,.49-.26,.58-.49,1.19-.76,1.76-.31,.63-.63,1.24-.97,1.84-.63,1.11-1.33,2.13-2.05,3.12-.9,1.22-1.81,2.44-2.77,3.54-1.01,1.15-2.1,2.1-3.32,2.72-.62,.31-1.25,.52-1.92,.58-.56,.05-1.09,.26-1.63,.45-.37,.13-.74,.2-1.13,.15-.16-.02-.33,0-.48,.03-.31,.09-.62,.02-.93-.07-.47-.13-.92-.39-1.36-.7-.61-.43-1.2-.91-1.78-1.41-.3-.25-.5-.63-.65-1.04-.12-.31-.15-.67-.23-1.01-.04-.17-.07-.35-.13-.5-.35-.84-.24-1.62,0-2.39,.05-.15,.1-.31,.17-.44,.28-.5,.39-1.12,.44-1.77,.08-1.09,.4-2.02,.8-2.86,.27-.56,.62-1.04,1.03-1.39-.04-.23-.16-.19-.25-.22-.6-.2-1.2-.38-1.8-.59-.23-.08-.46-.2-.69-.32-.07-.04-.15-.08-.2-.16-.18-.28-.41-.38-.62-.55-.22-.18-.42-.45-.61-.72-.1-.15-.2-.27-.33-.34-.28-.15-.51-.4-.69-.77-.05-.11-.12-.2-.19-.28-.06-.07-.13-.11-.19-.15-.1-.37-.21-.72-.3-1.08-.09-.36-.16-.72-.17-1.11-.01-.57-.04-1.14-.06-1.71,0-.07,0-.13,.01-.19,.08-.7,.15-1.41,.23-2.11,.03-.32,.06-.64,.09-.97,.05-.65,.15-1.28,.35-1.85,.05-.15,.1-.32,.19-.41,.15-.17,.25-.4,.36-.62,.11-.23,.24-.44,.35-.68,.1-.22,.27-.37,.42-.53,.11-.12,.24-.23,.37-.3,.26-.13,.53-.23,.79-.34,.17-.07,.34-.13,.49-.24,.27-.2,.55-.22,.85-.2,.38,.02,.77,0,1.15,0,.06,0,.12-.02,.17-.06,.11-.08,.21-.13,.34-.04,.03,.02,.06,.03,.09,.03,.18-.05,.37-.1,.55-.15,.18,.2,.37,.14,.55,.12,.09-.01,.16,0,.25,.06,.22,.14,.44,.11,.63-.08,.1-.11,.2-.15,.32-.16,.18-.02,.35-.06,.52-.07,.13,0,.26,.03,.4,.05,.03,0,.06,.02,.09,.04,.19,.14,.38,.05,.57,.11,.17,.06,.29,.3,.49,.35,.21,.06,.41,.12,.61,.07,.15-.04,.29,0,.4,.2,.07,.13,.15,.19,.27,.15,.07-.02,.18,.04,.24,.12,.17,.19,.33,.19,.51,.14,.36-.1,.94-.09,1.27,0,.07,.02,.15,.06,.22,.04,.23-.06,.44,.08,.65,.21,.26,.17,.52,.36,.78,.56,.21,.16,.41,.25,.64,.32,.25,.08,.48,.27,.72,.42,.36,.22,.73,.42,1.09,.66,.18,.12,.35,.27,.52,.42,.66,.54,1.32,1.07,2.05,1.26,.66,.17,1.29,.59,1.95,.75,.14,.03,.29,.14,.43,.22,.35,.2,.71,.4,1.06,.61,.04,.02,.09,.03,.13,.07,.3,.33,.66,.45,.98,.71,.32,.26,.65,.39,.99,.24,.04-.02,.09,0,.15,0Z"/></svg>