<?xml version="1.0" encoding="UTF-8"?><svg id="a" xmlns="http://www.w3.org/2000/svg" viewBox="0 0 150 150"><defs><style>.b{fill:#0071cf;}.c{fill:#f1b9aa;}.d{fill:#6c702f;}.e{fill:#1a3c34;}</style></defs><path class="e" d="M76.7,68.91c.67,.08,1.03,.17,1.39,.15,1.61-.07,3.22-.09,4.81-.28,.64-.08,1.27-.16,1.91-.24,.32-.04,.64-.14,.95-.13,.32,0,.64-.4,.95-.13,.32,.13,.64-.15,.95-.13,.32,.24,.64-.33,.95-.13,.32,0,.64-.14,.95-.13,.32-.15,.64-.14,.95-.13,.32-.07,.64-.05,.95-.13,.32-.06,.64-.09,.96-.12,.28,.03,.56,.16,.84-.07,.28-.07,.57-.3,.85,0,.28,.53,.57-.16,.85,.05,.21-.22,.4,.07,.55,.28,.15-.23,.26,.9,.31,.57,.05,.33,.04,.7-.04,.62-.07,.42-.17,.46-.27,.47-.1,.14-.21,.12-.31,.45-.17,.08-.35,.41-.53,.75-.18,.24-.35,.38-.53,.75-.18,.24-.35,.55-.53,.75-.18,.17-.35,.34-.53,.75-.17,.22-.35,.47-.52,.75-.17,.1-.34,.38-.5,.76-.15,.22-.3,.37-.44,.69-.15,.19-.29,.47-.44,.7-.14,.08-.29,.41-.42,.7-.14,.25-.28,.49-.41,.71-.13,.21-.26,.42-.39,.72-.13,.15-.25,.52-.36,.73-.14,.25-.29,.63-.43,.91-.14,.04-.29,.36-.43,.91-.14,.33-.28,.65-.42,.91-.14,.38-.28,.58-.42,.91-.14,.27-.28,.69-.42,.91-.14,.15-.28,.6-.42,.91-.14,.3-.28,.71-.42,.91-.14,.27-.28,.63-.42,.92-.14,.33-.28,.65-.42,.92-.14,.39-.28,.41-.42,.92-.14,.38-.28,.81-.42,.92-.14,.52-.28,.77-.42,.92-.14,.21-.28,.61-.42,.91-.12,.24-.24,.39-.36,.79-.12,.43-.24,.63-.35,.79-.12,.3-.23,.44-.35,.79-.12,.11-.23,.75-.35,.79-.12,.13-.24,.69-.36,.79-.12,.19-.24,.38-.36,.78-.13,.21-.26,.65-.4,.85-.13,.32-.27,.63-.4,.85-.13,.29-.27,.38-.4,.85-.13,.41-.27,.55-.4,.85-.13,.26-.27,.29-.4,.85-.13,.31-.27,.57-.4,.85-.93,1.99-1.87,3.98-2.79,5.98-.88,1.89-1.86,3.76-2.51,5.73-.66,1.96-1.68,3.57-3.59,4.88-.49-.18-1.26-.25-1.64-.66-.47-.5-.79-1.27-.85-1.94-.11-1.25-.07-2.53,.05-3.78,.23-2.33,.49-4.66,.86-6.97,.74-4.63,1.52-9.25,2.35-13.86,.42-2.3,1.02-4.58,1.51-6.87,.15-.69,.17-1.4,.26-2.21-1.77-.56-3.44-.43-5.12-.33-3.68,.21-7.36,.4-11.04,.58-1.12,.06-2.05-.25-2.5-1.45,1.64-2.46,3.37-4.92,4.96-7.46,2.74-4.39,5.49-8.77,8.16-13.2,.18-.3,.35-.59,.53-.89,.18,.02,.35-.45,.53-.89,.18-.49,.35-1.15,.53-.89,.17-.71,.35-.33,.52-.89,.17,0,.35,.09,.52-.89,.17-.35,.35-.6,.52-.89,.59-1.02,1.17-2.05,1.74-3.08,.14-.26,.29-.42,.43-.77,.14-.09,.28-.39,.43-.78,.14-.33,.28-.54,.42-.78,.15-.17,.31-.37,.46-.85,.16-.59,.31-.69,.47-.85,.16-.64,.31-.64,.47-.85,.16-.44,.32-.83,.48-.85,.16,.04,.32-.46,.48-.85,.16-.5,.32-.85,.48-.85,.16-.41,.32-.61,.49-.84,.16-.35,.32-.32,.49-.84,.16-.19,.33-.55,.49-.84,.16-.31,.33-.66,.49-.84,.16-.33,.33-.63,.49-.84,.16-.48,.33-.65,.49-.84,.16-.1,.33-.56,.49-.84,.49-.84,.98-1.68,1.47-2.53,.99-1.72,1.24-1.74,3.26-.54,.44,2.19-.03,4.27-.7,6.36-2.58,8.1-4.91,16.27-6.75,24.55-.27,1.23-.48,2.47-.77,4.01Z"/><path class="d" d="M96.07,29.03c.21-.46,.34-.94,.4-1.41,.02-.16,.08-.3,.12-.46,.03-.11,.08-.22,.06-.33-.1-.66-.33-1.28-.9-1.75-.28-.24-.58-.45-.89-.66-.11-.07-.28-.13-.4-.11-.68,.09-1.34,.26-1.77,.79-.52,.64-.98,1.31-1.31,2.09-.41,.94-.35,1.89-.01,2.89,.04,.11,.1,.24,.19,.3,.9,.59,.75,1.45,2,1.06,1.13-.35,2.03-1.31,2.53-2.41Z"/><path class="d" d="M79.73,124.73c-.05-.57-.23-1.04-.59-1.36-.59-.54-1.16-1.13-1.82-1.52-.62-.38-1.17-.24-1.68,.32-.18,.19-.32,.45-.5,.64-.59,.62-.84,1.45-.89,2.42-.07,1.34,.16,2.61,.53,3.85,.21,.68,.48,1.33,.62,2.04,.18,.92,.63,1.3,1.27,1.42,.17,.03,.33,.1,.52,.15,.22-.18,.46-.34,.65-.56,.48-.55,1.02-1.02,1.3-1.83,.6-1.78,.74-3.64,.58-5.57Z"/><path class="d" d="M64.72,120.56c-.08-.34-.3-.57-.69-.6-.34-.02-.6-.17-.84-.35-.19-.14-.93-.39-1.23-.43-.03,0-.05-.02-.08-.03-.63-.11-.74-.09-1.03,.41-.24,.41-.46,.84-.62,1.28-.47,1.25-.68,2.53-.18,3.82,.12,.31,.31,.61,.48,.91,.31,.54,1.06,.65,1.57,.5,.72-.22,1.34-.58,1.87-1.08,.83-.79,1.03-1.77,1-2.81,0-.21,.03-.42,0-.62-.06-.33-.16-.66-.23-.99Z"/><path class="d" d="M81.09,19.91c-.07-.24-.2-.43-.33-.6-.93-1.3-2.54-3.02-3.48-1.21-.23,.45-.42,1-.53,1.57-.2,.97-.34,1.99-.48,3-.25,1.79-.21,4.15,.93,5.31,.44,.46,1.01,.59,1.45,.25,.74-.59,.85-2.19,1.21-3.39,.15-.5,.35-.97,.56-1.43,.37-.84,.73-1.67,.76-2.73,0-.25,0-.52-.08-.76Z"/><path class="d" d="M92.48,119.37c-.07-.55-.51-.95-.7-1.47-.22-.6-.67-1.14-1.01-1.69-.53-.05-1.03-.06-1.38-.42-.15,.06-.27,.12-.41,.16-1.56,.44-1.55,.45-1.89,1.59-.01,.05-.03,.1-.05,.19,.09,.15,.18,.34,.29,.52,.91,1.42,2.14,2.57,3.58,3.56,.57,.39,1.23,.52,1.91,.61,.04,0,.09-.05,.14-.07-.11-.22-.19-.44,.03-.65,.15-.13,.15-.28,.06-.42-.19-.29,.06-.48,.2-.68-.19-.46-.41-.88-.77-1.23Z"/><path class="d" d="M63.34,29.37c.09,.24,.23,.47,.4,.67,.45,.53,.93,1.04,1.4,1.56,.3-.07,.5-.13,.7-.16,.51-.08,.7-.24,.71-.74,0-.49-.04-.99-.08-1.49-.06-.62-.29-1.2-.67-1.74-.07-.1-.15-.2-.18-.3-.15-.53-.55-.94-.86-1.39-.37-.53-1.62-.59-2.03-.14-.03,.03-.06,.07-.08,.11-.13,.29-.22,.57-.15,.91,.2,.92,.48,1.83,.83,2.72Z"/><path class="b" d="M51.26,124.23c-1.49-.85-2.77-1.56-4.04-2.29-1.06-.62-2.11-1.24-3.13-1.92-1.88-1.26-3.78-2.51-5.59-3.87-6.02-4.48-11.05-9.82-14.69-16.45-1.9-3.46-3.34-7.09-4.53-10.83-.35-1.1-.5-2.27-.68-3.42-.55-3.69-1.08-7.39-1.59-11.09-.1-.72-.1-1.47-.04-2.2,.25-3.36,.35-6.73,1.13-10.03,.83-3.53,2.01-6.92,3.86-10.08,1.78-3.03,3.9-5.77,6.33-8.3,1.74-1.81,3.57-3.54,5.53-5.1,1.33-1.06,2.82-1.95,4.31-2.78,2.24-1.26,4.49-2.52,6.84-3.56,1.89-.84,3.93-1.37,5.92-1.96,.49-.15,1.09-.03,1.62,.07,.66,.12,1.3,.35,1.95,.51,.53,.13,.84,.51,1.04,.96,.82,1.84,.08,4.5-1.69,5.52-1.21,.71-2.43,1.39-3.62,2.15-.82,.52-1.76,.85-2.66,1.22-1.7,.68-3.43,1.31-5.13,1.98-.79,.31-1.58,.64-2.36,.99-2.64,1.18-4.93,2.95-7.47,4.31-2.11,1.13-3.58,2.94-4.9,4.88-.17,.25-.27,.55-.38,.84-.95,2.59-1.87,5.2-2.42,7.9-1.07,5.23-1.84,10.5-1.43,15.87,.07,.92,.12,1.84,.11,2.76-.03,2.16,.36,4.27,.76,6.37,.02,.12,.02,.25,.07,.36,1.29,2.97,2.35,6.02,4.47,8.59,2.53,3.08,5.2,6.03,8.07,8.79,.79,.76,1.5,1.62,2.28,2.4,2.65,2.65,5.59,4.93,8.79,6.9,1.56,.96,2.96,2.17,4.43,3.27,.68,.51,.98,1.22,1.07,2.05,.09,.85,.25,1.69,.38,2.53,.15,1-.1,1.47-1.01,1.9-.27,.13-.56,.23-.83,.37-.27,.13-.53,.28-.74,.4Z"/><path class="d" d="M55.48,112.68c-.57-.21-.99-.32-1.36-.51-2.33-1.23-4.7-2.39-6.96-3.74-3.85-2.3-7.56-4.83-10.33-8.44-2.2-2.86-4.46-5.69-6.32-8.8-.53-.89-1-1.84-1.33-2.82-1.55-4.62-2.54-9.35-2.34-14.25,.07-1.77,.37-3.53,.66-5.28,.29-1.69,.64-3.37,1.08-5.03,.48-1.83,1.06-3.65,1.67-5.44,.68-2,2.05-3.61,3.2-5.34,.72-1.08,1.57-2.04,2.57-2.85,.42-.34,.91-.7,1.41-.78,.73-.12,1.21-.53,1.73-.95,.81-.64,1.6-1.34,2.5-1.85,1.81-1.02,3.66-2.01,5.56-2.84,1.16-.5,2.45-.77,3.71-.98,1.04-.17,2.12,.04,2.96,.73,1.63,1.33,1.74,2.94,.58,4.93-.46,.79-1.11,1.44-1.87,2-1.44,1.06-2.99,1.91-4.56,2.75-1.08,.58-2.21,1.09-3.19,1.81-2.54,1.85-4.86,3.95-6.42,6.73-1.08,1.92-2.21,3.81-3.02,5.87-1.27,3.24-1.89,6.53-1.37,10.06,.32,2.12,.68,4.24,1.19,6.3,.69,2.79,1.8,5.45,3.87,7.6,1.53,1.59,2.86,3.37,4.45,4.89,1.9,1.82,3.88,3.58,6.01,5.12,2.02,1.47,4.27,2.62,6.42,3.91,.31,.19,.68,.29,.99,.48,.51,.31,.83,.78,.75,1.38-.15,1.09-.22,2.22-.61,3.23-.29,.75-1.02,1.33-1.65,2.11Z"/><path class="b" d="M111.75,32.59c.36,.84,.87,1.28,1.54,1.67,.67,.38,1.23,.99,1.8,1.53,1.24,1.17,2.45,2.37,3.67,3.56,.35,.34,.74,.65,1.03,1.03,1.87,2.56,3.74,5.11,5.55,7.71,.62,.89,1.07,1.91,1.57,2.88,.59,1.13,1.17,2.27,1.72,3.42,1.69,3.54,2.66,7.31,3.36,11.15,.41,2.28,.8,4.56,.94,6.87,.14,2.37,.27,4.74,0,7.11-.37,3.22-1.08,6.35-2,9.45-1.14,3.84-3.01,7.3-5.17,10.64-.63,.97-1.12,2.04-1.82,2.95-1.9,2.46-3.85,4.87-5.83,7.25-.54,.65-1.27,1.14-1.88,1.73-1.7,1.66-3.52,3.19-5.35,4.7-.47,.39-.9,.82-1.35,1.23-.51,.46-1.11,.66-1.79,.8-1.54,.3-3.03-.03-4.53-.17-.52-.05-1.04-.32-1.53-.54-.47-.21-.74-.61-.82-1.13-.09-.66-.22-1.32-.29-1.98-.08-.74,0-1.46,.44-2.1,.17-.25,.4-.5,.47-.78,.31-1.29,1.27-1.99,2.23-2.77,1.46-1.19,2.92-2.38,4.47-3.46,.94-.66,1.81-1.44,2.69-2.19,2.27-1.93,4.39-4.02,6.44-6.19,1.61-1.7,2.99-3.52,3.98-5.63,.03-.06,.05-.11,.09-.16,1.76-2.6,2.69-5.59,3.86-8.46,.93-2.26,1.36-4.67,1.58-7.11,.03-.36,.02-.73,0-1.09-.17-2.25-.31-4.5-.53-6.74-.17-1.76-.59-3.47-1.17-5.15-.69-2.01-1.16-4.09-2.05-6.04-1.17-2.56-2.48-5.02-4.29-7.18-.55-.65-1.02-1.37-1.49-2.08-1.27-1.87-2.78-3.55-4.41-5.1-1.2-1.15-2.22-2.41-3.18-3.75-.67-.94-.89-1.94-.66-3.11,.23-1.15,.55-2.24,1.09-3.27,.23-.44,.92-.5,1.25-.11,.19,.23,.34,.5,.42,.63Z"/><path class="c" d="M96.22,95.6c1.64-1.16,2.99-2.1,4.32-3.07,.49-.36,.95-.77,1.37-1.21,1.08-1.15,2.17-2.3,3.19-3.52,1.95-2.33,3.21-5.01,3.96-7.95,.46-1.83,.73-3.7,.96-5.58,.32-2.55,.43-5.1,.24-7.66-.1-1.27-.33-2.53-.5-3.8-.08-.54-.16-1.08-.24-1.62-.24-1.64-.73-3.2-1.55-4.65-.93-1.64-1.91-3.26-2.76-4.94-.86-1.69-1.95-3.23-2.93-4.83-.57-.93-1.1-1.89-1.41-2.96-.3-1.06-.79-2.06-1.57-2.86-.59-.6-.82-1.34-.91-2.14-.04-.3,.05-.64-.06-.9-.32-.8,.07-1.43,.41-2.07,.25-.47,.97-.64,1.45-.34,.25,.16,.45,.42,.7,.58,.61,.38,1.09,.97,1.88,1.06,.26,.03,.55,.26,.74,.48,3.12,3.44,5.97,7.08,8.01,11.28,.11,.22,.22,.44,.35,.64,1.46,2.19,2.42,4.64,3.48,7.03,1.02,2.29,1.8,4.66,2.3,7.11,.07,.36,.16,.72,.28,1.06,.61,1.74,.98,3.51,1.08,5.35,.07,1.22,.21,2.43,.28,3.64,.04,.67,.1,1.36-.02,2.01-.65,3.72-1.18,7.48-3.17,10.8-.06,.1-.12,.21-.18,.32-1.19,2.4-2.34,4.8-4.09,6.89-1.05,1.25-1.86,2.71-2.74,4.1-1.65,2.59-3.84,4.71-5.98,6.87-.04,.04-.09,.08-.14,.12-1.83,1.31-3.71,2.56-5.78,3.49-.64,.29-1.27,.37-1.95,.25-.72-.13-1.44-.23-2.16-.37-.23-.05-.47-.14-.66-.28-.55-.38-1.07-.79-1.6-1.2-.46-.36-.7-.81-.66-1.42,.03-.42-.02-.84-.07-1.26-.11-1.11-.09-2.18,.47-3.19,.12-.21,.19-.45,.25-.68,.34-1.25,1.14-2.12,2.25-2.74,1.17-.66,2.31-1.35,3.16-1.85Z"/></svg>