<?xml version="1.0" encoding="UTF-8"?><svg id="a" xmlns="http://www.w3.org/2000/svg" viewBox="0 0 150 150"><defs><style>.b{fill:#f1b9aa;}.c{fill:#e54a28;}.d{fill:#1a3c34;}</style></defs><path class="d" d="M105.22,107.57l-.93,13.14c-.22,3.08-1.14,6.23-1.9,9.23-.07,.28-.16,.55-.25,.82-.09,.25-.21,.5-.3,.75-.31,.9-.82,1.67-1.46,2.36-.16,.17-.25,.35-.29,.58-.33,1.75-1.46,3.23-2.56,4.57-.22,.27-.44,.54-.74,.71-.3,.17-.65,.21-.99,.26-1.5,.19-2.84,.11-4.33,.14-.39,.03-.79,.07-1.18,.1-.43,.03-.85,.06-1.28,.09-.55,.04-1.11,.06-1.66-.03-.27-.04-.53-.01-.8,.03-.31,.04-.63,.08-.94,.11-.55,.06-1.1,.12-1.65,.18-.05,0-.09,.01-.14,.02-1.36,.09-2.72,.19-4.08,.28-1.13,.07-2.25,0-3.37-.08-.92-.07-1.83-.1-2.75-.16-.51-.03-1.01-.11-1.51-.13-.63-.02-1.26-.1-1.89-.04-1.09,.11-2.18,.16-3.27,.24-.49,.03-.98,.09-1.47,.08-.42,0-.85-.08-1.27-.15-.17-.03-.33-.11-.48-.21-.32-.21-.68-.34-1.04-.46-.19-.06-.32-.17-.44-.33-1.07-1.45-1.88-3.08-3-4.51s-2.67-2.38-3.91-3.71c-.84-.91-1.54-1.93-2.15-3.01-1.39-2.43-1.66-5.07-2.54-7.69-.66-1.96-1.32-3.93-1.54-5.98-.31-2.83,.2-5.87-1.11-8.4-.14-.27-.3-.53-.53-.73-.86-.73-1.66-.11-2.58-.03-.78,.07-1.59-.07-2.39-.1-.16,0-.32-.03-.47-.02-.56,.03-1.09-.14-1.63-.25-.12-.02-.24-.05-.37-.07-1.62-.29-.57-2.19,.37-2.63,.61-.29,1.3-.36,1.97-.42,3.25-.3,6.52-.45,9.79-.45,2.61,0,5.14-.68,7.65-1.44,.69-.21,1.4-.24,2.12-.19,.71,.05,1.42-.06,2.13-.07,.63-.01,1.26-.07,1.9-.07,.63,0,1.26-.1,1.89-.15,.92-.07,1.82-.21,2.75-.22,.76,0,1.52-.1,2.27-.23,.47-.08,.94-.1,1.42-.11,.9-.01,1.8,0,2.71,0,.68,0,1.36,.02,2.04,.02,.25,0,.51-.02,.76-.03,1.43-.06,2.85-.03,4.28-.02,1.2,0,2.41-.03,3.61-.14,.99-.09,1.98-.21,2.98-.31,.27-.03,.54-.01,.81-.04,.98-.08,1.95-.17,2.93-.25,1.25-.1,2.49-.2,3.74-.26,.69-.03,1.39,.01,2.09,.03,.59,.01,1.17,.03,1.76,.04,3.11,.04,6.28,.2,9.36,.69,.27,.04,.56,.1,.73,.31,.14,.17,.18,.39,.2,.61,.12,1.01,.12,2.03,0,3.04-2,.18-4.31-.18-6.2,.55-.18,.07-.36,.16-.46,.32-.1,.15-.11,.33-.12,.51l-.23,3.32Z"/><path class="c" d="M48.25,45.05c.07-.14-.02-.25-.08-.36-.23-.4-.46-.79-.71-1.18-.5-.76-.88-1.57-1.16-2.43-.15-.45-.31-.9-.45-1.35-.26-.8-.41-1.62-.43-2.46-.01-.43,.08-.85,.19-1.26,.04-.15,.14-.3,.26-.41,.25-.23,.52-.43,.85-.56,.49-.18,1-.31,1.5-.46,.09-.03,.18-.07,.25-.1,.02-.13-.06-.13-.12-.14-.16-.02-.32-.02-.48-.07,.16,0,.33,.01,.49,.01,.41,0,.82,.04,1.22-.08,.16-.05,.32-.02,.44,.14,.07,.08,.18,.13,.28,.18,.25,.11,.52,.18,.75,.35,.07,.05,.19,.07,.28,.07,.25,0,.45,.08,.63,.23,.15,.13,.31,.23,.52,.23,.19,0,.32,.15,.48,.24,.33,.19,.62,.42,.85,.72,.07,.09,.16,.16,.26,.22,.19,.13,.39,.24,.58,.36,.04,.02,.1,.07,.13,.05,.22-.08,.32,.09,.46,.2,.33,.29,.68,.56,1.01,.86,.27,.24,.54,.48,.77,.75,.59,.68,1.19,1.35,1.73,2.07,.48,.64,.93,1.31,1.34,2,.73,1.24,1.41,2.51,2.1,3.77,.05,.09,.08,.19,.14,.26,.29,.32,.43,.72,.59,1.12,.33,.8,.75,1.56,1.23,2.29,.34,.52,.65,1.06,1.03,1.55,.44,.56,.73,1.2,1.11,1.79,.11,.17,.13,.33,.05,.51,.46,.54,.92,1.07,1.37,1.61,.39,.47,.69,.99,.93,1.55,.17,.39,.33,.78,.59,1.12,.24,.31,.22,.66,.15,1.04-.12,.02-.23,.04-.34,.06-.21,.04-.43,0-.6,.16-.21-.04-.37,.1-.55,.16-.61,.2-1.23,.33-1.88,.17-.46-.11-.92-.2-1.4-.19-.29,0-.58-.1-.87-.16-.38-.08-.77-.14-1.15-.24-.39-.11-.78-.09-1.17-.01-1.58,.3-3.16,.23-4.74,.03-.71-.09-1.41-.27-2.11-.43-1.28-.29-2.49-.78-3.7-1.28-1.31-.54-2.63-1.08-3.94-1.63-1.35-.56-2.67-1.17-3.88-1.99-.96-.66-1.86-1.4-2.56-2.34-.43-.57-.76-1.18-.95-1.87-.16-.55-.28-1.11-.41-1.67-.13-.57-.09-1.14,.15-1.68,.04-.09,.09-.18,.1-.27,.05-.38,.23-.65,.56-.86,.18-.12,.34-.23,.57-.23,.09,0,.19-.04,.27-.09,.57-.4,1.23-.5,1.9-.55,.29-.02,.58-.04,.86-.15,.1-.04,.22-.05,.33-.05,.51,0,1.01,.09,1.5,.24,.33,.1,.66,.19,.99,.28,.59,.16,1.2,.11,1.8,.19,.03,0,.05-.03,.09-.04Zm17.97,14.13h.02l-.03-.02v.02Z"/><path class="b" d="M69.73,77.3c.12,.01,.22,.04,.32,.03,.51-.04,1.03-.07,1.54-.15,.69-.1,1.39-.15,2.08-.17,.56-.02,1.12-.05,1.68-.06,.56-.02,1.12,0,1.68,.12,1.11,.24,2.09,.7,2.87,1.55,1.49,1.61,1.82,3.53,.97,5.64-.66,1.64-1.91,2.98-3.28,4.09-3.35,2.71-7.64,4.24-11.95,4.25-2.85,.01-5.66-.61-8.5-.78-2.11-.12-4.22,0-6.32,.13l-7.21,.43c-.31,.02-.64,.04-.93-.09-.55-.23-.79-.92-.69-1.51s.44-1.1,.77-1.6c1.74-2.56,3.46-5.13,5.25-7.65,.57-.8,1.22-1.55,1.91-2.25,.54-.55,1.06-1.13,1.59-1.69,.7-.74,1.41-1.47,2.04-2.27,.31-.39,.59-.81,.88-1.21,.44-.61,.86-1.25,1.33-1.84,.58-.74,1.26-1.39,1.97-2.01,1.14-.99,2.43-1.75,3.76-2.46,.62-.33,1.24-.64,1.86-.96,1.51-.79,3.09-1.4,4.74-1.83,.71-.19,1.42-.37,2.15-.32,.91,.06,1.82,.12,2.7,.33,.31,.08,.61,.19,.91,.29,.2,.07,.4,.14,.6,.19,.25,.06,.44,.18,.56,.42,.06,.12,.15,.23,.23,.33,.62,.78,.87,1.65,.66,2.64-.15,.73-.34,1.45-.67,2.12-.14,.3-.32,.58-.51,.86-.27,.4-.56,.79-.85,1.18-.18,.24-.39,.46-.57,.7-.5,.67-1.07,1.27-1.74,1.78-.2,.15-.39,.34-.56,.54-.36,.41-.77,.76-1.21,1.09-.03,.02-.04,.07-.08,.14Z"/><path class="c" d="M117.29,36.46c.03,.07,.1,.07,.16,.07,.21,.03,.43,.06,.64,.07,.43,.03,.84,.12,1.24,.27,.21,.08,.42,.14,.64,.22,.37,.13,.72,.31,1.04,.55,.17,.12,.29,.28,.41,.44,.04,.06,.07,.14,.08,.21,.02,.16,.01,.32-.04,.48-.08,.24-.44,1.12-.51,1.31-.03,.07-.08,.12-.18,.13-.05,0-.1,.03-.15,.05-.11,.06-.22,.14-.35,.18-.04,.01-.08,.05-.11,.09-.07,.09-.16,.14-.27,.17-.09,.02-.17,.05-.24,.13-.05,.07-.15,.08-.23,.11-.17,.07-.34,.11-.52,.11-.05,0-.11,.02-.16,.03-.1,.03-.2,.07-.3,.11-.02,0-.05,.02-.06,.03-.03,.11-.12,.1-.21,.11-.2,.04-.41,.09-.61,.13-.17,.03-.34,.06-.5,.07-.42,.02-.85,.05-1.27,.05-.38,0-.76-.03-1.13-.08-.67-.09-1.35-.2-2.02-.3-.05,0-.09-.02-.14-.02-.21,.02-.39-.05-.59-.1-.4-.11-.8-.17-1.21-.2-.29-.02-.59-.06-.88-.06-.34,0-.66-.07-.99-.1-.09,0-.16-.05-.2-.13-.34,.02-.67,.04-1,.05-.29,.01-.57-.03-.85-.1-.19-.05-.39-.1-.59-.1-.18,0-.31-.11-.43-.24,.03-.05,.05-.1,.08-.15,.05-.09,.12-.16,.11-.27,.08-.07,.07-.17,.1-.25,.1-.29,.23-.56,.48-.75,.17-.14,.34-.29,.47-.47,.08-.11,.2-.19,.31-.28,.14-.12,.28-.25,.42-.36,.15-.12,.26-.27,.34-.43,.34-.68,.82-1.25,1.35-1.78,.24-.24,.51-.45,.77-.67,.48-.39,1.01-.71,1.55-1.01,.58-.33,1.16-.67,1.75-1.01,.6-.34,1.21-.66,1.86-.88,.52-.17,1.06-.29,1.61-.29,.34,0,.66,.06,.97,.18,.25,.1,.5,.21,.74,.33,.25,.12,.45,.29,.59,.54,.02,.04,.04,.09,.07,.12,.13,.13,.17,.27,.16,.46,0,.1-.01,.19-.08,.28-.03,.03-.04,.08-.04,.13-.02,.33-.17,.61-.34,.87-.08,.12-.15,.23-.19,.37-.01,.05-.05,.1-.08,.14-.15,.19-.32,.35-.52,.49-.13,.09-.26,.19-.39,.29-.23,.17-.39,.42-.59,.62,0,0,0,.03,0,.04Zm-10.47,2.65h0Z"/><path class="b" d="M51.78,16.02c-.01-.14-.02-.24-.04-.33-.06-.37-.13-.74-.15-1.12,0-.04,0-.09-.02-.12-.06-.16-.03-.32,0-.47,.02-.11,.04-.21,0-.32-.03-.07-.03-.14,0-.22,.06-.16,.11-.33,.2-.49,.14-.25,.25-.51,.38-.76,.15-.28,.31-.56,.5-.81,.1-.14,.18-.3,.29-.44,.14-.2,.29-.39,.43-.59,.1-.13,.21-.23,.35-.32,.26-.16,.52-.34,.78-.5,.24-.15,.5-.27,.78-.34,.07-.02,.15-.05,.22-.05,.34-.02,.68-.07,1.03-.06,.32,.01,.63,.09,.89,.29,.12,.09,.28,.1,.39,.23,.09,.11,.2,.2,.3,.3,.28,.31,.58,.61,.77,.99,.15,.28,.27,.58,.4,.86,.13,.28,.23,.57,.3,.88,.05,.21,.13,.41,.2,.62,.04,.11,.07,.22,.11,.33,.09,.28,.09,.56,.07,.84,0,.07-.02,.14,0,.2,.06,.38,0,.75,0,1.13,0,.14,0,.28,0,.43,.01,.11,.02,.24,.1,.33,.02,.02,.03,.04,.03,.07,.06,.27,.22,.48,.32,.73,.03,.08,.06,.16,.08,.24,.04,.17,.08,.34,.11,.52,.02,.13,.05,.24,.13,.35,.04,.05,.05,.12,.03,.19-.01,.06,0,.13,0,.2,.03,.21,.08,.43,.12,.65l-.1,.12s0,.05,0,.06c.07,.18,.09,.37,.1,.57,.02,.31,.06,.62,.1,.92,.01,.1,.01,.2,.03,.3,.04,.23,.09,.46,.14,.69,.03,.15,.04,.3,.07,.44,.09,.34,.11,.69,.11,1.05,0,.17,.01,.34,.05,.5,.08,.34,.08,.68,.13,1.02,.04,.27,.08,.55,.13,.82,0,.05,.02,.1,.02,.15,0,.33,0,.65-.01,.98,0,.16-.04,.32-.16,.44-.18,.17-.37,.31-.63,.33-.19,.02-.37-.02-.55-.06-.35-.08-.71-.12-1.07-.11-.43,0-.87-.01-1.29-.13-.29-.08-.58-.15-.88-.23-.03,0-.07-.01-.1-.03-.25-.11-.51-.15-.77-.22-.41-.13-.83-.24-1.25-.35-.37-.1-.75-.18-1.12-.28-.42-.11-.84-.24-1.26-.36-.61-.19-1.21-.4-1.8-.64-.32-.13-.62-.3-.91-.47-.37-.21-.72-.45-1.08-.69-.45-.3-.9-.61-1.32-.96,0,0-.01,0-.02-.01-.15-.1-.31-.18-.43-.29-.12-.11-.25-.22-.38-.32-.07-.06-.14-.12-.21-.18-.11-.11-.22-.22-.33-.34-.04-.04-.08-.09-.1-.14-.03-.08-.07-.13-.13-.18-.09-.07-.15-.16-.2-.26-.13-.29-.25-.58-.38-.87-.01-.03-.02-.06-.03-.1-.02-.25-.08-.49-.18-.73-.02-.06-.02-.13,0-.2,.07-.22,.1-.44,.12-.67,0-.09,.04-.18,.06-.27,.07-.22,.16-.44,.16-.68,0-.08,.06-.17,.11-.25,.09-.13,.15-.26,.2-.4,.11-.31,.29-.59,.5-.84,.12-.15,.27-.25,.45-.3,.14-.04,.27-.07,.41-.11,.14-.04,.29-.09,.43-.13,.54-.16,1.07-.34,1.64-.37,.35-.02,.7-.02,1.05,.04,.37,.07,.74,.13,1.11,.21,.09,.02,.17,.06,.26,.09,.05,.01,.1,.02,.18,.03Z"/><path class="b" d="M101.42,57.16c-.02-.12-.04-.21-.06-.29-.01-.05-.03-.11-.07-.13-.17-.1-.19-.28-.24-.44-.07-.24-.23-.42-.34-.64-.03-.05-.07-.1-.08-.15-.04-.18-.12-.35-.23-.5-.05-.07-.08-.13-.09-.21,0-.07-.03-.13-.06-.19-.07-.17-.11-.35-.1-.54,.01-.16-.02-.33-.02-.49-.01-.39,.06-.75,.25-1.09,.01-.03,.03-.05,.04-.08,.26-.56,.72-.93,1.2-1.28,.1-.07,.2-.15,.3-.23,.1-.08,.19-.16,.29-.24,.05-.04,.11-.08,.15-.13,.14-.18,.33-.3,.53-.4,.17-.08,.33-.16,.45-.31,0,0,.01-.01,.02-.02,.1-.08,.72-.35,.85-.36,.18-.01,.35,.03,.51,.1,.45,.2,.9,.41,1.36,.6,.28,.12,.56,.21,.85,.31,.53,.18,1.03,.4,1.47,.75,.29,.23,.52,.52,.69,.85,.25,.48,.48,.97,.73,1.45,.12,.22,.26,.43,.39,.64,.15,.24,.29,.48,.43,.72,.1,.18,.21,.35,.3,.53,.11,.2,.2,.4,.31,.59,.03,.05,.05,.1,.08,.15,.18,.3,.37,.59,.52,.91,.02,.05,.06,.1,.09,.15,.04,.06,.09,.11,.11,.17,.14,.39,.38,.74,.54,1.12,.15,.35,.31,.69,.47,1.03,.19,.39,.39,.78,.6,1.16,.11,.21,.24,.42,.36,.63,.37,.68,.75,1.36,1.11,2.04,.1,.18,.2,.36,.31,.52,.15,.22,.27,.45,.34,.7,.11,.41,.38,.71,.7,.97,.13,.1,.24,.22,.36,.34,.04,.04,.07,.09,.09,.15,.06,.15,.11,.31,.24,.42,.08,.06,.09,.18,.04,.27-.09,.18-.19,.36-.41,.43-.21,.07-.43,.13-.65,.12-.11,0-.21,0-.32,0-.36,0-.71,.06-1.07,.13-.36,.08-.72,.13-1.1,.11-.06,0-.12,0-.17,.02-.66,.11-1.33,.15-2,.15-.59,0-1.18,.02-1.77,.01-.42,0-.83-.02-1.25-.07-.79-.08-1.58-.19-2.37-.28-.4-.05-.81-.07-1.22-.1-.45-.04-.91-.08-1.36-.12-.11,0-.21,0-.32,.02-.52,.07-1.04,.08-1.57,.04-.12,0-.23-.02-.33-.09-.06-.04-.14-.05-.22-.07-.41-.11-.83-.21-1.23-.34-.76-.25-1.46-.61-2.09-1.12-.35-.28-.71-.54-1.06-.81-.05-.04-.11-.08-.17-.11-.34-.2-.65-.46-.96-.7-.23-.18-.41-.41-.58-.65-.24-.34-.44-.71-.57-1.11-.03-.09-.04-.19-.08-.28-.13-.37-.04-.73,.1-1.07,.03-.07,.07-.14,.1-.21,.05-.12,.08-.24,.04-.37-.07-.27,0-.52,.17-.74,.04-.05,.07-.12,.12-.17,.21-.23,.38-.49,.53-.76,.09-.17,.23-.28,.42-.33,.28-.08,.56-.17,.83-.27,.11-.04,.22-.08,.32-.14,.28-.15,.56-.3,.84-.45,.35-.19,.7-.38,1.09-.48,.34-.09,.66-.12,1-.01,.3,.09,.6,.17,.9,.24,.13,.03,.27,.04,.4,.05,.05,0,.11-.02,.19-.04Z"/><path class="b" d="M88.22,25.65c.38-.29,.68-.53,.91-.84,.15-.2,.33-.34,.55-.47,.37-.21,.73-.45,1.05-.73,.49-.41,.98-.78,1.6-.98,.38-.12,.74-.34,1.1-.52,.05-.02,.08-.08,.14-.15l-.35-.19c.06-.08,.09-.2,.16-.21,.22-.06,.44-.05,.66,.03,.33,.11,.66,.17,1.02,.11,.21-.03,.38-.06,.56-.2,.12-.09,.29-.16,.44-.16,.45,.01,.89,.06,1.34,.1,.04,0,.08,.02,.11,.04,.47,.37,1.07,.48,1.57,.81,.26,.17,.49,.35,.67,.61,.48,.71,1.01,1.38,1.66,1.94,.14,.12,.25,.27,.36,.41,.15,.2,.26,.42,.42,.6,.36,.4,.49,.88,.56,1.39,.07,.48,.14,.97,.18,1.45,.02,.24,0,.49-.02,.73-.03,.38-.14,.76-.06,1.15,.02,.09-.01,.2-.03,.3-.04,.24-.08,.48-.12,.72-.02,.1-.04,.2-.07,.3-.24,.6-.43,1.23-.81,1.77-.12,.17-.21,.35-.31,.53-.08,.14-.14,.31-.25,.42-.4,.37-.56,.89-.86,1.32-.15,.22-.3,.43-.52,.58-.07,.05-.13,.1-.2,.15-.22,.14-.09,.51-.44,.6-.24,.06-.33,.34-.46,.55-.13,.23-.29,.44-.43,.67-.4,.68-.81,1.36-1.2,2.05-.21,.37-.42,.75-.47,1.18-.08,.59-.41,1.06-.74,1.52-.15,.21-.37,.38-.55,.57-.11,.12-.21,.24-.31,.38-.29,.42-.63,.79-1.03,1.12-.34,.28-.63,.63-.95,.95-.2,.2-.41,.4-.62,.58-.2,.18-.42,.33-.6,.52-.8,.84-1.58,1.7-2.4,2.52-.59,.59-1.22,1.14-1.86,1.67-.64,.53-1.32,1.02-1.98,1.53-.19,.15-.38,.31-.56,.47-.88,.82-1.88,1.49-2.95,2.04-.35,.18-.72,.32-1.13,.39-.58,.1-1.14,.3-1.7,.48-.24,.08-.47,.12-.72,.08-.12-.02-.24-.04-.36-.04-1.16,0-2.01-.99-2.19-2.02-.13-.74-.26-1.48-.41-2.22-.2-.98-.42-1.95-.62-2.93-.31-1.51-.61-3.03-.93-4.55-.11-.56-.28-1.1-.31-1.67-.36-.98-.35-2.04-.6-3.05-.1-.38-.08-.82,0-1.21,.06-.31,.02-.6,.03-.9,.03-.71,.05-1.42,.06-2.13,0-.45,.02-.9-.03-1.34-.03-.32,.08-.6,.09-.91,0-.49,.04-.98,.05-1.46,0-.43,0-.85,0-1.28,0-.61,.11-1.21,.21-1.82,.02-.1,.07-.2,.06-.3-.09-.87,.19-1.69,.32-2.52,.09-.56,.21-1.12,.35-1.67,.1-.39,.21-.79,.44-1.13,.06-.08,.09-.18,.11-.28,.17-.61,.42-1.19,.74-1.73,.22-.38,.4-.8,.77-1.07,.02-.01,.03-.03,.04-.04,.16-.23,.3-.48,.48-.7,.16-.2,.37-.37,.55-.56,.11-.12,.2-.27,.33-.35,.55-.35,1.11-.68,1.67-1,.47-.27,1-.35,1.52-.41,.04,0,.08-.01,.12,0,.14,.02,.31,0,.42,.07,.42,.26,.96,.15,1.37,.48,.64,.51,1.31,.97,1.97,1.45,.43,.32,.78,.69,1.1,1.13,.54,.75,1.01,1.52,1.31,2.4,.14,.42,.35,.83,.49,1.25,.14,.4,.23,.82,.34,1.23,.03,.12,.07,.23,.13,.42Z"/><path class="b" d="M44.01,63.45c.14,.08,.21,.21,.28,.32,.03,.05,.05,.12,.05,.18-.02,.28,.02,.56-.03,.84-.07,.4-.22,.75-.42,1.09-.25,.42-.52,.83-.78,1.25-.05,.08-.1,.16-.13,.24-.12,.28-.23,.57-.36,.85-.15,.31-.31,.61-.48,.91-.32,.56-.68,1.08-1.06,1.59-.47,.64-.95,1.27-1.46,1.87-.54,.62-1.14,1.17-1.83,1.59-.35,.21-.72,.39-1.11,.5-.33,.09-.63,.26-.94,.4-.21,.1-.43,.18-.67,.21-.1,.01-.19,.04-.28,.08-.18,.08-.36,.09-.55,.09-.29,0-.56-.04-.85-.12-.38-.1-.76-.23-1.13-.36-.19-.07-.33-.2-.44-.36-.08-.11-.13-.26-.19-.4-.03-.07-.06-.14-.1-.2-.25-.31-.23-.66-.13-1.01,.02-.07,.04-.15,.08-.21,.14-.25,.18-.52,.17-.81,0-.47,.13-.91,.33-1.32,.13-.27,.31-.52,.54-.73-.04-.09-.11-.06-.16-.06-.37,0-.73,0-1.1-.01-.14,0-.28-.03-.42-.04-.04,0-.09-.01-.13-.04-.12-.09-.26-.11-.4-.15-.14-.05-.27-.14-.4-.22-.07-.05-.13-.09-.22-.1-.17-.03-.32-.1-.45-.23-.04-.04-.08-.07-.13-.09-.04-.02-.08-.03-.12-.04-.08-.14-.16-.28-.23-.42-.07-.14-.13-.29-.16-.45-.04-.24-.08-.48-.12-.72,0-.03,0-.06,0-.08,0-.31,.02-.62,.03-.92,0-.14,0-.28,0-.42,0-.28,.03-.56,.11-.83,.02-.07,.05-.15,.09-.2,.08-.09,.13-.2,.18-.31,.06-.11,.12-.22,.17-.34,.05-.11,.14-.19,.22-.28,.06-.07,.13-.13,.21-.18,.15-.09,.3-.17,.45-.25,.09-.05,.19-.1,.28-.17,.15-.12,.32-.16,.5-.2,.23-.04,.45-.1,.68-.15,.03,0,.07-.03,.1-.05,.06-.05,.12-.08,.2-.06,.02,0,.04,0,.05,0,.11-.04,.21-.09,.32-.14,.12,.06,.23,.01,.33-.02,.05-.02,.1-.02,.15,0,.14,.03,.27-.01,.37-.12,.05-.06,.11-.09,.18-.11,.1-.03,.2-.07,.31-.1,.08-.02,.16-.02,.24-.03,.02,0,.04,0,.05,0,.12,.04,.23-.03,.34-.03,.11,0,.19,.09,.31,.08,.13,0,.25,0,.37-.05,.09-.04,.17-.04,.25,.03,.05,.05,.1,.06,.17,.03,.04-.02,.11,0,.15,.02,.11,.06,.21,.04,.31,0,.21-.09,.56-.16,.75-.17,.04,0,.09,0,.13-.01,.13-.06,.26-.02,.39,0,.17,.04,.33,.08,.49,.13,.13,.04,.26,.05,.4,.05,.15,0,.3,.05,.45,.08,.23,.04,.45,.08,.68,.13,.11,.03,.22,.07,.33,.11,.42,.14,.84,.28,1.28,.26,.4-.01,.8,.08,1.2,.06,.09,0,.18,.02,.27,.04,.22,.04,.44,.08,.66,.12,.03,0,.06,0,.08,.01,.2,.1,.41,.1,.62,.17,.2,.07,.4,.08,.6-.03,.02-.01,.05-.01,.09-.02Z"/><path class="c" d="M99.41,85.29c.06,.35,.06,.68,.31,.94,.05,.05,.09,.15,.07,.21-.05,.2,.02,.38,.1,.55,.09,.19,.06,.42,.15,.59,.14,.29,.19,.6,.29,.89,.03,.09,.06,.18,.06,.27-.01,.39,0,.78,.07,1.16,0,.05,.01,.1,0,.14-.08,.25-.16,.5-.24,.76-.02,.06-.07,.13-.06,.18,.08,.32-.17,.49-.33,.68-.12,.16-.28,.27-.35,.48-.05,.17-.2,.32-.33,.45-.39,.37-.8,.7-1.32,.87-.17,.06-.32,.09-.49,0-.17-.09-.38-.07-.55,.02-.23,.11-.39,.05-.54-.14-.11-.13-.24-.25-.35-.38-.28-.32-.6-.6-.94-.85-.25-.19-.41-.43-.54-.7-.07-.15-.16-.26-.26-.38-.25-.27-.47-.55-.58-.91-.02-.07-.05-.16-.11-.21-.41-.3-.49-.79-.71-1.19-.04-.07-.05-.16-.1-.21-.25-.25-.31-.61-.53-.88-.06-.07-.1-.16-.13-.25-.24-.53-.49-1.06-.71-1.6-.12-.29-.23-.57-.29-.89-.04-.23-.17-.43-.25-.65-.08-.21-.14-.42-.21-.62-.03-.07-.05-.15-.08-.22-.27-.49-.38-1.03-.6-1.54-.05-.13-.07-.27-.12-.4-.41-1.07-.78-2.16-1.12-3.25-.16-.53-.27-1.07-.4-1.6-.06-.23-.12-.46-.18-.69-.21-.79-.38-1.59-.47-2.4-.04-.33-.11-.65-.23-.96-.1-.26-.18-.54-.26-.81-.03-.09-.05-.18-.06-.28-.02-.53-.04-1.06-.06-1.6,.18,.04,.34,.08,.51,.11,.13,.03,.27,.12,.38-.05,.02-.03,.12,0,.17,.01,.09,.04,.16,.1,.24,.14,.29,.15,.58,.31,.88,.44,.34,.15,.72,.24,1.04,.45,.06,.04,.15,.05,.22,.07,.46,.08,.87,.25,1.26,.5,.3,.19,.64,.35,.97,.49,.59,.26,1.2,.49,1.78,.76,.67,.32,1.32,.66,1.95,1.06,.73,.46,1.5,.87,2.25,1.3,.82,.48,1.63,.95,2.44,1.44,.69,.42,1.36,.85,2.03,1.29,.35,.23,.7,.48,1.01,.77,.33,.31,.69,.6,1.02,.91,.28,.26,.54,.53,.8,.81,.4,.45,.83,.86,1.29,1.25,.15,.12,.24,.24,.19,.44-.05,.18-.01,.35,.09,.5,.4,.62,.54,1.33,.66,2.04,.03,.2,0,.41-.13,.59-.09,.13-.17,.27-.27,.38-.34,.39-.7,.77-1.04,1.16-.2,.23-.44,.4-.72,.52-.27,.12-.54,.27-.82,.37-.53,.19-1.07,.39-1.64,.4-.08,0-.17,0-.23,.03-.24,.12-.42,0-.6-.14-.54-.44-1.05-.9-1.48-1.45-.23-.29-.56-.45-.85-.67-.22-.17-.48-.29-.73-.43-.05-.03-.11-.04-.21-.08Z"/></svg>