<?xml version="1.0" encoding="UTF-8"?><svg id="a" xmlns="http://www.w3.org/2000/svg" viewBox="0 0 150 150"><defs><style>.b{fill:#0071cf;}.c{fill:#f1b9aa;}.d{fill:#6c702f;}.e{fill:#1a3c34;}</style></defs><path class="b" d="M15.97,88.82c.32-.93,.5-1.8,.95-2.68,.12-.24,.25-.48,.46-.64,.25-.19,.59-.25,.92-.31,.48-.08,.98-.16,1.49,.02,.36,.13,.68,.39,.95,.67,1.01,1.08,1.31,2.5,1.56,3.82,.38,2.01,.88,3.97,1.37,5.95,.08,.33,.11,.66,.19,.98,.15,.59,.32,1.17,.49,1.76,.11,.39,.28,.78,.36,1.17,.23,1.05,.51,2.09,.88,3.13,.25,.71,.43,1.43,.67,2.15,.36,1.05,.81,2.09,1.13,3.15,.28,.92,.59,1.84,.65,2.79,.05,.79,.28,1.61,.5,2.41,.29,1.04,.66,2.08,.96,3.12,.18,.63,.37,1.27,.44,1.9,.09,.76,.09,1.52,.07,2.27-.04,.99-.66,1.29-1.78,1.28-.41,0-.82-.11-1.14,.16-.11,.09-.35,.05-.54,.05-1.28,.02-2.57,.03-3.85,.04-.35,0-.72-.03-1.07-.03-.98,0-1.96,.02-2.94,.02-.54,0-1.1-.06-1.63-.04-.85,.03-1.69,.13-2.55,.16-1.07,.04-2.16,.05-3.23,.08-.5,.01-1,.05-1.5,.08-.82,.05-1.64,.08-2.45,.15-.7,.06-1.37,.17-2.07,.24-.31,.03-.65-.01-.97,0-.41,.02-.74-.25-1.08-.44-.11-.06-.21-.3-.21-.45-.02-.59-.04-1.17,.16-1.72,.24-.67,.35-1.4,.57-2.08,.18-.56,.39-1.11,.68-1.61,.38-.65,.68-1.33,.89-2.06,.06-.21,.15-.4,.23-.6,.3-.71,.6-1.42,.89-2.14,.23-.56,1.44-4.34,1.95-5.39,.55-1.11,1.05-2.25,1.6-3.36,.31-.63,.51-1.32,.91-1.91,.3-.43,.45-.98,.61-1.5,.27-.94,.64-1.83,1.04-2.71l3.41-7.89Z"/><path class="e" d="M64.08,45.68l1.42-.07c.37,.47,.61,1.01,.76,1.59,.07,.28,.19,.51,.36,.72,.79,.97,1.41,2.05,1.94,3.18,.33,.69,.74,1.35,1.13,2.02,.07,.13,.16,.26,.27,.35,.57,.49,.97,1.13,1.44,1.71,.14,.17,.23,.39,.34,.58,.32,.56,.63,1.13,.96,1.68,.09,.14,.25,.23,.39,.34,.21,.18,.45,.32,.63,.53,.58,.69,1.16,1.37,1.68,2.1,.66,.91,1.24,1.87,1.89,2.78,.39,.54,.83,1.06,1.32,1.53,.89,.85,1.58,1.85,2.26,2.87,.46,.68,.93,1.35,1.4,2.03,.21,.31,.42,.62,.62,.93,.39,.61,.78,1.22,1.15,1.84,.37,.62,.72,1.25,1.07,1.88,.53,.96,1.07,1.91,1.56,2.89,.22,.44,.38,.92,.52,1.39,.36,1.17,.58,2.37,.69,3.59,.05,.57,.17,1.13,.27,1.7,.04,.22,.09,.44,.16,.65,.35,.98,.7,1.96,1.05,2.95,.54,1.51,1.29,2.91,2.15,4.26,.19,.29,.36,.6,.54,.9,.27,.45,.52,.91,.83,1.33,.63,.84,1.11,1.77,1.65,2.67,.15,.26,.3,.52,.46,.77,.47,.76,.92,1.53,1.26,2.37,.13,.32,.27,.65,.46,.94,.36,.55,.63,1.13,.88,1.73,.29,.69,.61,1.37,.87,2.06,.38,1.03,.73,2.06,1.07,3.1,.17,.53,.4,1.01,.75,1.45,.47,.58,.86,1.21,1.04,1.96,.17,.7,.4,1.39,.75,2.03,.14,.26,.21,.56,.3,.84,.41,1.28,.68,2.6,1.21,3.84,.19,.43,.2,.87,.19,1.32,0,.39-.17,.67-.49,.86-.34,.21-.68,.42-1.04,.6-.2,.1-.42,.17-.64,.19-1.19,.15-2.38,.28-3.58,.08-.32-.05-.65-.04-.97-.01-.65,.05-1.29,.05-1.94-.01-.79-.07-1.59-.12-2.39-.15-.42-.01-.85,.04-1.27,.06-.82,.04-1.64,.07-2.46,.14-1.42,.11-2.84-.05-4.26-.07-.67,0-1.34,.02-2.01,0-1.05-.02-2.09-.07-3.14-.11-.62-.02-1.25-.04-1.87-.08-.84-.05-1.69-.12-2.53-.18-.25-.02-.5-.04-.75-.03-1.55,.05-3.09-.02-4.63-.18-1.2-.13-2.39-.07-3.57,.19-.22,.05-.44,.09-.66,.11-2.04,.16-4.07,.42-6.11,.43-.92,0-1.84-.04-2.76-.06-.67-.01-1.35-.04-2.02-.02-1.42,.03-2.84,.09-4.26,.13-.45,.01-.9,.04-1.34,.05-.95,.02-1.89-.08-2.82-.29-.81-.18-1.63-.21-2.45-.23-1.25-.03-2.49-.04-3.74-.04-.3,0-.6,.03-.89,.05-.42,.03-.84,.06-1.27,.09-.71,.05-1.39-.02-2.04-.34-.2-.1-.43-.12-.65-.18-.29-.08-.58-.16-.77-.48,.21-.22,.31-.48,.29-.79,0-.07,.03-.15,.06-.21,.51-1.17,.72-2.43,1.15-3.63,.08-.23,.15-.48,.17-.73,.16-1.4,.65-2.71,1.06-4.04,.22-.71,.43-1.43,.64-2.15,.1-.33,.19-.67,.31-1,.65-1.73,1.37-3.42,2.18-5.08,.4-.83,.68-1.71,1.04-2.56,.32-.76,.53-1.55,.81-2.32,.22-.63,.46-1.26,.55-1.93,.05-.34,.19-.67,.32-.99,.34-.86,.7-1.7,1.04-2.56,.57-1.43,1.14-2.87,1.68-4.31,.3-.79,.55-1.6,.78-2.42,.09-.33,.27-.61,.48-.83,.37-.38,.48-.86,.64-1.33,.49-1.46,.86-2.96,1.4-4.41,.25-.65,.53-1.27,.8-1.9,.04-.09,.1-.18,.12-.27,.18-.93,.7-1.7,1.13-2.5,.19-.35,.35-.7,.49-1.08,.4-1.07,.85-2.12,1.29-3.18,.14-.34,.28-.68,.34-1.06,.17-.96,.58-1.84,.95-2.74,.32-.78,.67-1.55,.89-2.37,.48-1.74,1.23-3.36,2.18-4.9,.36-.59,.64-1.24,.97-1.85,.21-.4,.44-.78,.66-1.17,.53-.9,.99-1.84,1.37-2.81,.18-.46,.45-.89,.62-1.36,.32-.87,.8-1.66,1.29-2.43,.16-.25,.35-.48,.55-.7,.48-.52,.84-1.11,1.12-1.75,.06-.14,.13-.27,.22-.44Z"/><path class="d" d="M146.71,120.84c-.19-.09-.36,0-.53,.02-.41,.03-.83,.04-1.24,.05-.21,0-.42,0-.62,0-.35-.01-.7,0-1.04-.05-.41-.05-.83-.07-1.24-.06-.75,.01-1.5,.01-2.25,.02-.39,0-.78,.03-1.16,.04-.12,0-.25,0-.37,.02-.67,.15-1.29-.07-1.92-.2-.34-.21-.72-.17-1.09-.19-.08,0-.16,.03-.24,.05-.01,0-.02,.02-.04,.02-.12,.01-.21-.12-.35-.07-.11,.04-.24,.07-.36,.07-.39-.01-.78-.04-1.16-.06-.24-.01-.47-.02-.71-.03-.03,0-.06,0-.08,0-.36-.12-.74-.07-1.11-.12-.26-.03-.52-.04-.79-.06-.36-.02-.72-.02-1.08-.07-.52-.07-1.05-.09-1.58-.09-.11,0-.22,0-.33,0-.8-.08-1.61-.05-2.41-.07-.98-.04-1.97-.07-2.95-.11-.39-.01-.78-.02-1.16-.04-2-.07-3.99-.13-5.99-.2-.65-.02-1.3-.08-1.95-.12-.36-.02-.72-.05-1.08-.04-.85,.01-1.69-.06-2.54-.09-.82-.02-1.63,0-2.45,0-.19,0-.39,.03-.6-.08-.03-.06-.08-.15-.12-.23-.08-.18-.08-.22,.1-.34,.14-.1,.21-.2,.18-.38-.01-.08,0-.17,.03-.24,.42-.93,.67-1.91,.89-2.9,.07-.31,.13-.62,.19-.94,.11-.56,.33-1.09,.54-1.61,.15-.37,.28-.75,.37-1.14,.08-.34,.21-.66,.32-.99,.18-.52,.38-1.04,.57-1.56,.04-.1,.09-.2,.13-.31,.23-.53,.5-1.06,.69-1.6,.16-.45,.25-.94,.35-1.41,.08-.37,.16-.73,.32-1.07,.09-.19,.15-.39,.21-.59,.15-.46,.28-.93,.45-1.38,.16-.41,.36-.81,.56-1.21,.3-.58,.57-1.17,.78-1.79,.1-.3,.25-.58,.38-.88,.41-.94,.89-1.84,1.39-2.74,.51-.93,1.21-1.68,2.08-2.28,.35-.24,.68-.53,1.02-.79,.39-.3,.73-.67,1.16-.93,.23-.14,.42-.36,.64-.52,.33-.25,.66-.51,1-.74,.23-.15,.48-.28,.72-.41,.03-.02,.08,0,.12-.01,.12-.03,.24-.06,.35-.11,.26-.13,.5-.3,.76-.42,.21-.1,.44-.15,.66-.21,.26-.08,.53-.17,.8-.23,.38-.08,.76-.13,1.14-.2,.15-.02,.32-.01,.45-.07,.42-.21,.86-.18,1.31-.12,.53,.08,1.07,.16,1.6,.26,.24,.05,.48,.14,.72,.22,.65,.23,1.32,.41,1.94,.74,.07,.04,.15,.07,.22,.11,.38,.22,.77,.45,1.15,.68,.73,.44,1.38,.97,1.97,1.58,.13,.13,.25,.26,.39,.37,.67,.53,1.14,1.2,1.41,2.02,.12,.38,.33,.68,.65,.93,.89,.67,1.7,1.43,2.4,2.29,.44,.54,.77,1.14,.99,1.81,.12,.38,.27,.76,.48,1.1,.37,.6,.58,1.26,.74,1.93,.13,.54,.22,1.09,.32,1.63,.02,.11,.03,.22,.05,.33,0,.05,.02,.12,.05,.14,.11,.06,.11,.15,.08,.25-.05,.14-.08,.27,.04,.38,.13,.47,.25,.94,.38,1.4,.04,.15,.07,.3,.13,.44,.16,.35,.21,.72,.26,1.09,.06,.47,.2,.92,.33,1.37,.05,.18,.09,.35,.1,.53,.04,1.01,.2,2.01,.4,3,.05,.24,.14,.48,.21,.72,.01,.04,.03,.08,.05,.11,.21,.19,.26,.45,.33,.7,.05,.2,.13,.39,.25,.57,.1,.16,.17,.35,.25,.52,.04,.07,.05,.18,.11,.22,.27,.2,.26,.59,.54,.77,.14,.09,.22,.21,.2,.38-.01,.15,.05,.27,.12,.39,.14,.27,.29,.54,.43,.8,.1,.2,.21,.39,.3,.59,.11,.24,.22,.48,.4,.67,.03,.03,.05,.06,.08,.1,.15,.23,.14,.31-.06,.54-.03,.03-.06,.06-.12,.13Z"/><path class="c" d="M34.05,58.6c.11-.08,.26-.15,.36-.26,.63-.65,1.44-.99,2.28-1.28,.12-.04,.33,.04,.42,.16,.44,.64,.74,1.33,.62,2.13-.05,.36-.11,.71-.15,1.07-.01,.11,0,.23,0,.37,.54,.19,1.08,.31,1.64,.31,.2,0,.4,0,.6,.02,.23,.02,.46,.22,.49,.45,.03,.24,.06,.48,.01,.71-.22,1.15-.76,2.1-1.8,2.71-.2,.12-.42,.21-.64,.31-.47,.22-.94,.43-1.41,.65-.23,.11-.37,.3-.41,.55-.05,.28-.08,.55-.13,.83-.08,.47-.17,.94-.26,1.41-.13,.67-.26,1.33-.4,2-.05,.23-.09,.47-.15,.7-.06,.23-.69,.84-.85,.97-.11,.09-.33,.05-.43-.07-.07-.09-.16-.18-.22-.28-.6-1.13-1.38-2.14-2.09-3.2-.07-.11-.21-.15-.31-.09-.11,.06-.23,.09-.32,.17-.86,.76-1.93,.91-3.01,1.02-.21,.02-.38-.13-.4-.35-.02-.16-.03-.32-.04-.48-.01-.56,0-1.12-.03-1.68-.04-.53,.03-1.03,.3-1.5,.08-.14,.12-.29,.19-.48-.1-.12-.19-.24-.31-.34-.42-.37-.85-.73-1.27-1.1-.18-.16-.38-.32-.49-.52-.55-1.04-.71-1.3,.5-1.81,.33-.14,.66-.28,.98-.45,.32-.17,.6-.4,.93-.55,.32-.15,.67-.24,.99-.35q.06-1.23,.72-2.38c.28-.48,.5-1,.91-1.4,.11-.11,.24-.22,.38-.29,.09-.04,.24-.03,.33,.02,.14,.07,.27,.18,.36,.3,.56,.74,1.29,1.3,1.96,1.92,.03,.03,.07,.03,.15,.06Z"/><path class="c" d="M108.62,66.3c-.38,.04-.7,.07-1.02,.1-.1,.01-.17,.15-.12,.22,.04,.06,.08,.13,.13,.19,.44,.47,.65,1.06,.89,1.63,.08,.18,.13,.38,.15,.58,.05,.57,.15,1.14,.03,1.71-.04,.19-.02,.4-.03,.6,0,.17,0,.35-.01,.52,0,.18-.06,.34-.16,.49-.2,.31-.4,.63-.61,.95-.28,.42-.86,.6-1.32,.41-.07-.03-.12-.08-.17-.13-.11-.11-.17-.24-.21-.39-.11-.38-.23-.77-.32-1.16-.14-.59-.4-1.13-.67-1.66-.18-.35-.42-.68-.73-.94-.15-.13-.3-.27-.45-.4-.09-.08-.28-.03-.31,.08-.13,.59-.48,1.03-.93,1.41-.21,.18-.41,.36-.63,.53-.32,.25-.69,.4-1.09,.48-.22,.05-.44,.08-.66,.12-.49,.08-.99,.16-1.48,.25-.33,.06-.65,.04-.96-.07-.3-.11-.49-.33-.61-.62-.02-.05,.01-.15,.06-.2,.23-.26,.49-.5,.81-.65,.79-.38,.68-.37,1.01-1.11,.15-.34,.32-.67,.4-1.04,.05-.21-.02-.38-.21-.52-.19-.13-.39-.22-.61-.28-.56-.13-1.11-.28-1.67-.43-.12-.03-.24-.06-.36-.11-.56-.21-1.12-.42-1.68-.64-.57-.22-.94-.64-1.21-1.17-.1-.19-.1-.43-.18-.64-.09-.25-.02-.45,.16-.6,.23-.19,.48-.36,.73-.52,.17-.12,.37-.14,.57-.08,.34,.1,.68,.15,1.03,.17,.35,.01,.7,.03,1.04-.06,.42-.1,.84-.06,1.26,.05,.34,.09,.68,.17,1.02,.25,.12,.03,.24,.05,.39,0-.03-.09-.05-.19-.1-.27-.27-.36-.53-.72-.82-1.07-.11-.13-.25-.25-.39-.34-.32-.19-.65-.37-.98-.55-.11-.06-.23-.1-.34-.15-.42-.21-.51-.3-.19-.72,.06-.08,.11-.17,.16-.25,.09-.15,.23-.27,.39-.34,.43-.21,.85-.41,1.28-.62,.07-.03,.14-.07,.21-.08,.57-.09,1.13-.18,1.71-.08,.55,.09,1.07,.24,1.56,.5,.15,.08,.31,.17,.47,.24,.45,.2,.77,.54,1.02,.96,.08,.13,.15,.26,.22,.39,.2,.41,.51,.73,.82,1.06,.08,.09,.23,.11,.35,.05,.13-.07,.26-.14,.4-.21,.36-.18,.71-.36,1.07-.54,.39-.21,.8-.26,1.23-.21,.22,.03,.44,.06,.67,.09,.29,.03,.52,.18,.71,.38,.4,.44,.65,.95,.68,1.54,.01,.25,0,.5,0,.75-.03,.44-.18,.83-.46,1.16-.29,.34-.58,.69-.94,.99Z"/><path class="c" d="M59.82,35.69c.58-.57,1.22-.98,1.98-1.2,.27-.08,.53-.18,.79-.28,.11-.04,.17-.19,.12-.29-.08-.14-.15-.29-.26-.41-.3-.33-.62-.64-1.01-.85-.39-.21-.77-.44-1.22-.52-.28-.05-.51-.22-.75-.37-.14-.1-.22-.34-.17-.5,.06-.15,.12-.3,.18-.46,.29-.23,.59-.45,.98-.49,.11-.01,.21-.09,.32-.14,.8-.36,1.6-.29,2.38,.02,.28,.11,.56,.24,.85,.33,.34,.1,.62,.32,.94,.47,.05,.02,.16,0,.19-.05,.03-.04,.06-.07,.08-.12,.12-.38,.25-.75,.36-1.13,.22-.78,.6-1.47,1.25-1.98,.4-.31,.86-.45,1.38-.38,.15,.02,.28,.08,.33,.22,.19,.48,.37,.96,.55,1.44,.03,.09,.05,.18,.05,.28,0,.65,.16,1.3,.13,1.96,0,.07,.02,.14,.05,.2,.02,.04,.06,.08,.1,.09,.06,.02,.14,.04,.2,.04,.23,0,.47,0,.7-.02,.49-.04,.98-.01,1.47,.03,.33,.03,.64,.11,.95,.24,.26,.12,.51,.23,.76,.35,.4,.2,.56,.55,.57,.97,0,.35-.17,.63-.44,.84-.16,.13-.34,.25-.53,.34-.7,.32-1.36,.72-2.12,.91-.11,.03-.22,.08-.32,.14-.05,.03-.09,.11-.1,.17-.02,.07,0,.14,0,.21,.02,.35,.03,.7,.05,1.05,0,.14,0,.28,.04,.42,.14,.55,.11,1.11,.11,1.67,0,.35-.06,.7-.21,1.02-.23,.49-.62,.77-1.13,.84-.36,.05-.7-.07-.91-.41-.1-.16-.18-.33-.25-.5-.13-.3-.31-.57-.52-.83-.43-.52-.87-1.04-1.39-1.48-.16-.13-.33-.26-.5-.39-.12-.09-.25-.12-.39-.04-.23,.13-.48,.18-.74,.17-.33-.01-.65,.03-.95,.18-.12,.06-.26,.09-.4,.12-.44,.09-.87,.17-1.31,.24-.59,.1-1.12-.06-1.59-.39-.4-.28-.62-.69-.67-1.18-.02-.18,.02-.37,.02-.54Z"/><path class="c" d="M92.03,42.48c0,.2-.01,.36-.06,.51-.06,.2-.12,.4-.19,.6-.14,.42-.26,.85-.36,1.28-.05,.22-.1,.43-.2,.64-.07,.14-.14,.29-.23,.42-.09,.15-.21,.27-.36,.37-.04,.03-.09,.05-.11,.09-.02,.02-.02,.08-.01,.1,.04,.07,.09,.15,.15,.21,.49,.51,.72,1.14,.85,1.82,.03,.15,.06,.29,.07,.44,0,.32-.08,.61-.24,.88-.25,.42-.63,.65-1.1,.76-.13,.03-.27,.02-.4-.02-.31-.09-.62-.18-.92-.27-.08-.02-.16-.05-.25-.07-.12-.03-.23-.07-.31-.18-.06-.08-.18-.09-.22-.19-.03-.08-.05-.17-.09-.24-.05-.11-.12-.21-.18-.32-.02-.03-.08-.04-.1-.02-.18,.16-.32,.33-.41,.56-.17,.43-.44,.8-.73,1.15-.08,.09-.17,.18-.26,.26-.15,.14-.33,.16-.52,.1-.16-.05-.3-.12-.41-.24-.09-.09-.17-.18-.26-.27-.08-.09-.15-.19-.2-.31-.07-.18-.14-.37-.18-.56-.03-.15-.07-.29-.12-.43-.05-.15-.09-.31-.12-.47-.1-.45-.06-.88,.1-1.31,.03-.08,.05-.16,.08-.25,.01-.05-.03-.13-.09-.14-.11-.03-.22-.05-.32-.09-.15-.05-.3-.1-.45-.16-.18-.08-.35-.18-.5-.32-.32-.29-.61-.61-.88-.95-.04-.05-.07-.1-.11-.15-.2-.29-.34-.6-.37-.95-.03-.27-.03-.54,0-.81,.02-.22,.22-.42,.49-.38,.15,.02,.29,.03,.44,.05,.16,.02,.32,.04,.48,.05,.25,0,.49,.04,.74,.04,.15,0,.29,.06,.44,.05,.05,0,.1,0,.15,0,.04,0,.08-.07,.07-.11,0-.02-.01-.05-.02-.07-.06-.18-.11-.35-.2-.52-.17-.32-.2-.66-.15-1.01,.02-.2,.07-.39,.09-.58,.03-.25,.15-.45,.34-.59,.16-.12,.28-.28,.45-.38,.05-.03,.08-.09,.1-.15,.06-.14,.13-.27,.23-.38,.05-.06,.12-.09,.2-.09,.05,0,.1,.01,.14,.03,.03,.01,.06,.04,.08,.07,.1,.13,.25,.2,.4,.26,.08,.03,.16,.06,.24,.09,.34,.13,.64,.31,.86,.61,.08,.11,.18,.2,.28,.29,.23,.21,.37,.46,.38,.77,0,.05,.01,.1,.02,.15,0,0,.02,.02,.02,.02,.02,0,.06,0,.07-.01,.07-.1,.13-.21,.19-.32,.09-.17,.22-.29,.41-.35,.06-.02,.12-.04,.17-.07,.26-.16,.55-.22,.84-.29,.07-.02,.15-.02,.22-.03,.17-.01,.32,.01,.45,.14,.03,.03,.06,.05,.09,.07,.1,.06,.2,.09,.32,.06,.08-.02,.17-.04,.25-.05,.1-.01,.19,.02,.27,.09,.08,.07,.14,.14,.18,.23,.07,.17,.15,.34,.22,.51,.06,.13,.05,.27,.05,.37Z"/><path class="c" d="M44.54,44.18c.19,0,.37,0,.56,0,.11,0,.21-.01,.31-.05,.06-.02,.1-.09,.09-.16-.03-.14-.05-.29-.09-.43-.08-.3-.12-.6-.11-.91,0-.2,0-.4,0-.6,0-.19,.04-.37,.1-.55,.12-.32,.29-.52,.61-.71,.05-.03,.15-.03,.19,.01,.06,.06,.12,.11,.16,.18,.05,.07,.1,.12,.18,.15,.15,.04,.27,.12,.38,.22,.07,.06,.14,.12,.22,.18,.37,.26,.57,.63,.69,1.05,.05,.18,.12,.35,.22,.51,.03,.04,.07,.08,.11,.11,.03,.02,.07,.03,.11,.03,.02,0,.05-.01,.07-.03,.16-.08,.33-.11,.5-.09,.16,.02,.32,0,.47-.05,.13-.04,.26-.06,.39-.09,.16-.04,.32-.01,.46,.08,.02,.01,.05,.03,.07,.04,.17,.14,.38,.2,.59,.24,.01,0,.03,0,.04,0,.25,.02,.42,.17,.52,.39,.09,.21,.21,.4,.35,.58,.23,.3,.24,.64,.03,.98-.11,.18-.27,.33-.45,.46-.15,.11-.3,.22-.44,.35-.29,.25-.6,.45-.98,.52-.11,.02-.19,.09-.25,.18-.03,.06-.06,.12-.04,.19,.03,.14,.07,.29,.12,.42,.03,.09,.09,.16,.16,.23,.35,.35,.49,.79,.52,1.27,.02,.28,.01,.56-.09,.83-.06,.17-.14,.32-.26,.45-.25,.27-.56,.36-.91,.34-.12,0-.24-.03-.35-.06-.32-.1-.62-.25-.91-.41-.1-.05-.16-.14-.22-.23-.05-.08-.11-.15-.16-.23-.03-.04-.11-.04-.14,0-.03,.03-.05,.06-.08,.09-.06,.07-.12,.14-.19,.21-.28,.32-.66,.45-1.07,.49-.16,.02-.32,0-.47-.08-.09-.04-.17-.07-.26-.11-.11-.05-.21-.13-.27-.24-.1-.17-.2-.35-.27-.54-.05-.15-.07-.31-.08-.47-.02-.25,.02-.51,.07-.76,.03-.17,.09-.34,.19-.48,.04-.06,.07-.12,.1-.18,.04-.08,0-.17-.09-.18-.22-.02-.42-.09-.62-.17-.38-.14-.67-.38-.9-.71-.17-.24-.33-.49-.4-.78-.09-.34-.1-.69,.05-1.02,.05-.11,.13-.2,.24-.27,.17-.11,.36-.18,.56-.19,.23,0,.45-.02,.68-.02v.02Z"/></svg>