<?xml version="1.0" encoding="UTF-8"?><svg id="a" xmlns="http://www.w3.org/2000/svg" viewBox="0 0 150 150"><defs><style>.b{fill:#0071cf;}.c{fill:#f1b9aa;}.d{fill:#6c702f;}.e{fill:#1a3c34;}</style></defs><path class="e" d="M71.57,85.27c-.12-.98-.28-2.25-.41-3.53-.33-3.2-1.86-5.74-4.14-7.93-2.74-2.63-5.88-4.7-9.09-6.69-3.56-2.2-6.82-4.82-9.54-8.02-.62-.73-1.07-1.59-1.58-2.41-.54-.88-.5-1.84-.28-2.8,.25-1.14,1.02-1.59,2.15-1.19,2.42,.87,4.8,1.85,6.91,3.34,3.94,2.77,7.84,5.59,11.77,8.37,1.31,.92,2.66,1.8,4.01,2.66,2.27,1.43,4.71,2,7.36,1.37,.62-.15,1.25-.31,1.88-.41,1-.16,1.83-.64,2.45-1.4,1.17-1.42,2.39-2.82,3.41-4.35,1.61-2.4,3.05-4.91,4.6-7.35,1.64-2.59,3.66-4.86,5.68-7.16,1.55-1.77,3.62-2.25,5.77-2.57,1.13-.16,2.05,.64,2.15,1.77,.05,.63,.09,1.32-.1,1.9-.4,1.21-.78,2.48-1.47,3.54-1.66,2.55-3.41,5.04-5.32,7.43-3.36,4.19-6.79,8.34-9.47,13.03-1.65,2.89-2.44,5.9-1.54,9.23,.73,2.71,1.3,5.46,2.08,8.16,.4,1.38,.99,2.72,1.66,3.99,1.82,3.39,3.72,6.74,5.61,10.1,.91,1.61,1.94,3.15,2.77,4.79,.61,1.2,1.22,2.48,1.44,3.79,.61,3.6-1.83,5.57-5.28,4.27-2.06-.77-3.81-2.07-5-3.98-.51-.82-.95-1.67-1.4-2.52-1.39-2.62-2.78-5.25-4.15-7.88-.72-1.39-1.71-2.52-2.98-3.4-.66-.46-1.09-.42-1.75,.09-.9,.7-1.65,1.52-2.14,2.56-.8,1.66-1.62,3.32-2.42,4.98-1.09,2.24-2.12,4.5-3.29,6.69-.52,.98-1.22,1.9-2,2.68-1.36,1.35-3.04,2.08-5.01,1.9-1.7-.16-3.3-.65-4.79-1.48-1.04-.57-1.22-1.13-.73-2.19,.54-1.16,1.15-2.29,1.76-3.42,1.66-3.11,3.49-6.15,4.98-9.34,1.72-3.71,3.18-7.54,4.7-11.34,.32-.81,.47-1.7,.6-2.57,.12-.79,.1-1.6,.16-2.71Z"/><path class="d" d="M116.32,116.77c-2.46,1.83-4.13,4.16-5.63,6.65-.79,1.3-1.64,2.57-2.58,3.77-1.66,2.1-3.97,2.15-6.36,1.78-.14-.02-.28-.15-.4-.25-.11-.11-.19-.25-.37-.5,.16-.52,.29-1.15,.54-1.73,1.34-3.09,2.68-6.18,4.09-9.24,2.2-4.79,3.13-9.73,2.21-14.99-.44-2.53-1.59-4.51-3.76-5.89-2.04-1.29-4.09-2.55-6.12-3.83-1.63-1.02-3.29-2-4.86-3.12-.83-.59-1.66-1.32-2.2-2.17-1.33-2.09-.03-4.35,2.43-4.39,1.21-.02,2.42,.14,3.46,.83,1.2,.79,2.49,1.51,3.56,2.46,2,1.77,4.33,3.05,6.48,4.59,1.16,.84,2.53,1.02,3.91,.57,.68-.22,1.39-.44,2-.81,1.86-1.11,3.69-2.27,5.5-3.47,.52-.35,.92-.88,1.38-1.33,1.72-1.68,3.4-3.41,5.18-5.03,.57-.52,1.34-.91,2.09-1.11,1.7-.44,2.99,.25,3.75,1.83,.37,.77,.44,1.53-.06,2.28-.36,.53-.65,1.12-1.07,1.59-1.33,1.5-2.72,2.95-4.07,4.43-.97,1.07-1.97,2.12-2.85,3.26-3.68,4.75-3.53,9.93-1.58,15.27,1.35,1.99,2.68,3.99,4.04,5.97,1.46,2.11,3,4.17,4.39,6.32,.55,.85,.93,1.88,1.15,2.87,.33,1.5-.46,2.79-1.75,3.31-.56,.22-1.11,.27-1.63,0-.64-.32-1.29-.66-1.84-1.1-2.1-1.67-3.69-3.78-5.11-6.04-1.1-1.74-1.67-2.11-3.9-2.82Z"/><path class="d" d="M46.56,118.61c-1.62-.09-2.27,.69-2.74,1.84-1.05,2.52-2.15,5.02-3.28,7.5-.4,.87-.94,1.67-1.44,2.49-.45,.72-1.17,1.1-1.95,1.32-2.57,.74-3.71-.32-3.08-2.94,.32-1.32,.89-2.58,1.29-3.88,.95-3.06,1.87-6.14,2.81-9.21,1.05-3.44,.53-6.68-1.32-9.7-.92-1.5-1.95-2.94-3.01-4.35-.42-.57-1.01-1.03-1.59-1.45-1.43-1.03-2.96-1.94-4.36-3.02-2.35-1.81-4.68-3.66-6.93-5.6-.7-.6-1.22-1.48-1.67-2.31-.48-.9-.09-1.71,.85-2.15,.84-.39,1.67-.42,2.58-.18,2.13,.56,4.06,1.54,5.83,2.8,1.17,.83,2.26,1.81,3.3,2.81,1.11,1.07,2.35,1.93,3.64,2.75,1.76,1.11,3.68,1.5,5.73,1.57,1.93,.07,3.39-.63,4.55-2.19,1.79-2.38,3.39-4.87,4.91-7.43,.49-.82,1.09-1.58,1.72-2.3,.71-.81,1.69-1.2,2.74-1.38,.69-.12,1.36,.23,1.47,.92,.12,.77,.14,1.59,.01,2.36-.47,2.83-1.83,5.3-3.38,7.65-.59,.89-.98,1.8-1.27,2.82-.84,3.02-1.49,6.07-1.87,9.19-.35,2.88,.23,5.6,1.22,8.24,1.15,3.09,2.65,6.02,4.33,8.86,.61,1.03,1.15,2.12,1.6,3.23,.44,1.09,.53,2.3-.5,3.1-.96,.75-2.14,.63-3.18,.05-2.2-1.21-3.71-3.04-4.66-5.34-.64-1.56-1.2-3.15-1.8-4.72-.17-.44-.37-.87-.57-1.36Z"/><path class="b" d="M74.9,42.44c.8-1.12,1.32-1.91,1.9-2.66,1.78-2.34,5.28-3.49,8.03-2.56,1.38,.47,2.21,1.59,2.49,2.96,.47,2.28,.57,4.58-.38,6.8-.49,1.14-.94,2.32-1.55,3.4-1.83,3.29-4.08,6.27-6.8,8.88-1.32,1.27-2.71,1.19-4.05-.05-2.11-1.96-4.23-3.92-6.31-5.91-2.16-2.08-3.93-4.46-5.3-7.14-1.46-2.86-.41-5.44,1.06-7.85,.83-1.36,3.21-1.68,5.03-.99,1.48,.56,2.61,1.6,3.68,2.71,.66,.68,1.27,1.4,2.19,2.42Z"/><path class="e" d="M109.87,83.62c-3.59-.06-6.38-2.05-7.23-5.21-.71-2.67,.13-5.06,1.51-7.3,.48-.78,1.32-1.14,2.21-1.31,1.33-.26,2.67-.52,4-.77,1-.19,1.93,.12,2.77,.57,2.42,1.27,3.92,3.28,4.28,6,.11,.84-.06,1.78-.35,2.59-1.31,3.67-3.16,5.51-7.19,5.45Z"/><path class="c" d="M124.74,44.6c-.35,2.02-1.5,3.58-2.85,5.1-2.21,2.48-4.89,4.36-7.56,6.25-2.22,1.57-4.63,2.86-6.57,4.81-.63,.63-1.36,.79-2.2,.43-.7-.29-.94-.98-.47-1.54,.46-.55,1.01-1.04,1.44-1.6,2.11-2.74,4.55-5.15,7.07-7.5,1.34-1.25,2.5-2.7,3.66-4.13,.97-1.2,2.07-2.19,3.32-3.09,.91-.66,1.71-.69,2.65-.17,.64,.35,1.31,.61,1.52,1.44Z"/><path class="c" d="M26.78,56.89c.5-1.48,1.88-1.55,3.1-1.84,1.02-.24,1.9,.17,2.63,.86,.63,.61,1.24,1.25,1.8,1.93,1.32,1.61,2.54,3.31,3.91,4.87,1.32,1.5,2.7,2.97,4.22,4.26,.87,.75,1.2,1.66,1.55,2.62,.26,.71-.52,1.52-1.24,1.27-.6-.2-1.2-.49-1.69-.87-1.83-1.43-3.65-2.87-5.39-4.41-2.58-2.28-5.08-4.65-7.62-6.97-.53-.49-1.14-.9-1.25-1.73Z"/><path class="d" d="M90.22,40.93c.6-2.54,.58-5,.51-7.47-.02-.7,.21-1.3,.78-1.65,1.22-.76,2.46-1.46,3.72-2.14,.26-.14,.62-.11,.94-.12,.78-.02,1.23,.45,1.05,1.22-.4,1.63-.82,3.25-1.33,4.84-.48,1.52-1.07,3.01-1.65,4.49-.68,1.75-1.64,2.09-3.16,1.32-.21-.11-.41-.23-.87-.49Z"/><path class="d" d="M48.31,32.54c.36,.24,.86,.42,1.08,.77,.45,.75,.81,1.57,1.11,2.39,.79,2.18,1.52,4.39,2.27,6.59,.19,.55-.01,1.09-.52,1.46-.49,.36-1.08,.31-1.53-.12-.06-.06-.12-.11-.17-.17-1.68-2.25-3.37-4.49-5.02-6.77-.69-.96-.63-1.47,.16-2.35,.42-.48,.9-.92,1.41-1.3,.3-.23,.72-.3,1.21-.48Z"/><path class="c" d="M73.69,26.35c-.44,.4-.94,.61-1.53,.39-.71-.27-1.2-.76-1.47-1.48-.66-1.71-1.23-3.45-1.44-5.39,1.47-1.43,3.31-1.7,5.18-1.87,.61,1.96,.59,2.22-.74,8.35Z"/><path class="e" d="M33.34,80.92c0-.63,0-1.26,.02-1.89,0-.16,.02-.31,.05-.47,.1-.52,.2-1.03,.3-1.55,.03-.18,.06-.36,.07-.55,.04-.5,.15-.99,.3-1.47,.07-.22,.17-.45,.3-.64,.2-.31,.5-.44,.88-.39,.71,.09,1.39,.27,1.96,.75,.66,.3,1.18,.79,1.73,1.24,.08,.07,.18,.13,.23,.22,.3,.51,.81,.82,1.2,1.24,.3,.33,.66,.61,.98,.92,.11,.11,.2,.25,.3,.36,.35,.39,.64,.84,1.07,1.15,.12,.08,.16,.2,.22,.32,.16,.3,.31,.6,.56,.85,.19,.19,.29,.43,.38,.68,.22,.59,.45,1.18,.67,1.77,.75,1.39,.02,2.94-.16,3.33-.41,.42-.69,.93-1.02,1.4-.22,.33-.46,.63-.76,.9-.18,.16-.37,.3-.59,.38-.57,.2-1.14,.42-1.72,.56-.39,.1-.78,.12-1.18,.08-.89-.11-1.76-.33-2.55-.77-.52-.28-.96-.65-1.31-1.12-.3-.4-.58-.82-.78-1.28-.2-.43-.42-.85-.7-1.23-.22-.31-.34-.64-.37-1.02-.04-.55-.12-1.1-.16-1.65-.03-.37-.01-.74,0-1.1,.01-.34,.04-.68,.07-1.02h.02Z"/></svg>